/* XPM */
static char * arrowzp_xpm[] = {
"48 48 226 2",
"  	c None",
". 	c #C9C9C9",
"+ 	c #7F8083",
"@ 	c #C8C8C8",
"# 	c #0E0F19",
"$ 	c #050828",
"% 	c #53545E",
"& 	c #BFBFBF",
"* 	c #0B0C14",
"= 	c #010FAB",
"- 	c #0114F5",
"; 	c #090D3F",
"> 	c #50515A",
", 	c #BEBEBE",
"' 	c #0115FF",
") 	c #0114F4",
"! 	c #090D3E",
"~ 	c #53545D",
"{ 	c #0A0B14",
"] 	c #010EAC",
"^ 	c #0114F1",
"/ 	c #090D35",
"( 	c #5F6067",
"_ 	c #0B0C16",
": 	c #010FB4",
"< 	c #0114F0",
"[ 	c #090D33",
"} 	c #62626A",
"| 	c #BDBDBD",
"1 	c #0114EF",
"2 	c #0A0D31",
"3 	c #66676D",
"4 	c #010FB5",
"5 	c #0113EA",
"6 	c #090C2A",
"7 	c #73747A",
"8 	c #BCBCBC",
"9 	c #010FB6",
"0 	c #0113E9",
"a 	c #090C29",
"b 	c #78787E",
"c 	c #010FB7",
"d 	c #0113E4",
"e 	c #090B22",
"f 	c #7C7C80",
"g 	c #BBBBBB",
"h 	c #0113E2",
"i 	c #87888B",
"j 	c #010FB9",
"k 	c #0113E1",
"l 	c #0A0C20",
"m 	c #8A8A8D",
"n 	c #0112DB",
"o 	c #090A1B",
"p 	c #8F8F91",
"q 	c #BABABA",
"r 	c #0C0D19",
"s 	c #0110C0",
"t 	c #0112DA",
"u 	c #98989A",
"v 	c #B5B5B5",
"w 	c #0110C1",
"x 	c #0112D8",
"y 	c #0A0B1A",
"z 	c #9C9C9D",
"A 	c #B4B4B4",
"B 	c #0110C2",
"C 	c #0111D2",
"D 	c #090A18",
"E 	c #A4A4A6",
"F 	c #0111D0",
"G 	c #0A0B17",
"H 	c #A8A8A8",
"I 	c #B3B3B3",
"J 	c #0A0B16",
"K 	c #0110C3",
"L 	c #0111CE",
"M 	c #AAAAAA",
"N 	c #0B0C17",
"O 	c #0110C4",
"P 	c #0110C7",
"Q 	c #0B0B17",
"R 	c #0110C5",
"S 	c #B2B2B2",
"T 	c #0C0D18",
"U 	c #B9B9B9",
"V 	c #010EA7",
"W 	c #010C8F",
"X 	c #091173",
"Y 	c #071181",
"Z 	c #0113E5",
"` 	c #010B8A",
" .	c #010DA1",
"..	c #0111D3",
"+.	c #0113EB",
"@.	c #010FB3",
"#.	c #C6C6C6",
"$.	c #B8B8B8",
"%.	c #07070E",
"&.	c #010B85",
"*.	c #010EAA",
"=.	c #010C90",
"-.	c #071076",
";.	c #0F155C",
">.	c #111441",
",.	c #0F1129",
"'.	c #07070F",
").	c #07070D",
"!.	c #191A26",
"~.	c #2D2E3B",
"{.	c #494A54",
"].	c #666669",
"^.	c #6F6F6F",
"/.	c #0A0C1C",
"(.	c #191A21",
"_.	c #4A4B59",
":.	c #323444",
"<.	c #1B1D2B",
"[.	c #0C0D16",
"}.	c #030307",
"|.	c #0A0B1C",
"1.	c #0F1238",
"2.	c #0D124E",
"3.	c #0A116B",
"4.	c #010B82",
"5.	c #010D9D",
"6.	c #0111CF",
"7.	c #010D96",
"8.	c #0E0F18",
"9.	c #414247",
"0.	c #1D1E2C",
"a.	c #353646",
"b.	c #4E4F5B",
"c.	c #6F6F73",
"d.	c #888888",
"e.	c #A1A1A1",
"f.	c #CECECE",
"g.	c #E7E7E7",
"h.	c #C3C3C3",
"i.	c #0E102E",
"j.	c #363746",
"k.	c #D8D8D8",
"l.	c #C1C1C1",
"m.	c #A9A9A9",
"n.	c #959595",
"o.	c #79797B",
"p.	c #5C5D67",
"q.	c #404251",
"r.	c #282939",
"s.	c #161725",
"t.	c #05060B",
"u.	c #2D2D31",
"v.	c #B1B1B1",
"w.	c #0F1341",
"x.	c #2A2C3A",
"y.	c #A0A0A0",
"z.	c #0D1352",
"A.	c #20212F",
"B.	c #8F8F8F",
"C.	c #0A1164",
"D.	c #161724",
"E.	c #7F7F7F",
"F.	c #040D77",
"G.	c #0113E6",
"H.	c #0D0E17",
"I.	c #6B6B70",
"J.	c #010B88",
"K.	c #0114F2",
"L.	c #06070C",
"M.	c #54555F",
"N.	c #010D9A",
"O.	c #0115FD",
"P.	c #010203",
"Q.	c #3F414E",
"R.	c #05050B",
"S.	c #E5E5E5",
"T.	c #2D2E3D",
"U.	c #0110BE",
"V.	c #090A16",
"W.	c #D9D9D9",
"X.	c #1E1F2C",
"Y.	c #0C0E22",
"Z.	c #10111B",
"`.	c #0E112E",
" +	c #05050A",
".+	c #0F133A",
"++	c #E8E8E8",
"@+	c #0F1346",
"#+	c #ACACAC",
"$+	c #090A17",
"%+	c #0E1352",
"&+	c #0D0F29",
"*+	c #0C125E",
"=+	c #969696",
"-+	c #B7B7B7",
";+	c #0F123B",
">+	c #09106B",
",+	c #8A8A8A",
"'+	c #A6A6A6",
")+	c #0F144D",
"!+	c #0C125F",
"~+	c #737375",
"{+	c #848484",
"]+	c #060F72",
"^+	c #010C8E",
"/+	c #63646A",
"(+	c #717174",
"_+	c #010B83",
":+	c #5A5B63",
"<+	c #010C95",
"[+	c #010EA6",
"}+	c #464754",
"|+	c #454653",
"1+	c #010FB2",
"2+	c #393A48",
"3+	c #333443",
"4+	c #010D9F",
"5+	c #0112DD",
"6+	c #0111D4",
"7+	c #0111CC",
"8+	c #010C97",
"9+	c #2D2F3D",
"0+	c #131421",
"a+	c #191A29",
"b+	c #202131",
"c+	c #71727E",
"                                              . +                                               ",
"                                            @ # $ %                                             ",
"                                          & * = - ; >                                           ",
"                                        , * = ' ' ) ! ~                                         ",
"                                      , { ] ' ' ' ' ^ / (                                       ",
"                                    , _ : ' ' ' ' ' ' < [ }                                     ",
"                                  | _ : ' ' ' ' ' ' ' ' 1 2 3                                   ",
"                                | _ 4 ' ' ' ' ' ' ' ' ' ' 5 6 7                                 ",
"                              8 _ 9 ' ' ' ' ' ' ' ' ' ' ' ' 0 a b                               ",
"                            8 _ c ' ' ' ' ' ' ' ' ' ' ' ' ' ' d e f                             ",
"                          g _ c ' ' ' ' ' ' ' ' ' ' ' ' ' ' ' ' h e i                           ",
"                        g _ j ' ' ' ' ' ' ' ' ' ' ' ' ' ' ' ' ' ' k l m                         ",
"                      g _ j ' ' ' ' ' ' ' ' ' ' ' ' ' ' ' ' ' ' ' ' n o p                       ",
"                    q r s ' ' ' ' ' ' ' ' ' ' ' ' ' ' ' ' ' ' ' ' ' ' t o u                     ",
"                  v _ w ' ' ' ' ' ' ' ' ' ' ' ' ' ' ' ' ' ' ' ' ' ' ' ' x y z                   ",
"                A _ B ' ' ' ' ' ' ' ' ' ' ' ' ' ' ' ' ' ' ' ' ' ' ' ' ' ' C D E                 ",
"              A _ B ' ' ' ' ' ' ' ' ' ' ' ' ' ' ' ' ' ' ' ' ' ' ' ' ' ' ' ' F G H               ",
"            I J K ' ' ' ' ' ' ' ' ' ' ' ' ' ' ' ' ' ' ' ' ' ' ' ' ' ' ' ' ' ' L G M             ",
"          I N O ' ' ' ' ' ' ' ' ' ' ' ' ' ' ' ' ' ' ' ' ' ' ' ' ' ' ' ' ' ' ' ' P J I           ",
"        I Q O ' ' ' ' ' ' ' ' ' ' ' ' ' ' ' ' ' ' ' ' ' ' ' ' ' ' ' ' ' ' ' ' ' ' R _ v         ",
"      S G R ' ' ' ' ' ' ' ' ' ' ' ' ' ' ' ' ' ' ' ' ' ' ' ' ' ' ' ' ' ' ' ' ' ' ' ' K T 8       ",
"    U T s ' ' ' ' ' ' - t B V W X Y ' ' ' ' ' ' ' ' ' ' ' Z `  .j ..+.' ' ' ' ' ' ' ' @.# #.    ",
"  $.%.&.*.=.-.;.>.,.'.).!.~.{.].^./.' ' ' ' ' ' ' ' ' ' ' *.(._.:.<.[.}.|.1.2.3.4.5.: 6.7.8..   ",
"  9.0.a.b.c.d.e.$.f.g.          h.i.' ' ' ' ' ' ' ' ' ' ' 4 j.          k.l.m.n.o.p.q.r.s.t.u.  ",
"                                v.w.' ' ' ' ' ' ' ' ' ' ' B x.                                  ",
"                                y.z.' ' ' ' ' ' ' ' ' ' ' L A.                                  ",
"                                B.C.' ' ' ' ' ' ' ' ' ' ' t D.                                  ",
"                                E.F.' ' ' ' ' ' ' ' ' ' ' G.H.                                  ",
"                                I.J.' ' ' ' ' ' ' ' ' ' ' K.L.                                  ",
"                                M.N.' ' ' ' ' ' ' ' ' ' ' O.P.                                  ",
"                                Q.] ' ' ' ' ' ' ' ' ' ' ' ' R.S.                                ",
"                                T.U.' ' ' ' ' ' ' ' ' ' ' ' V.W.                                ",
"                                X.F ' ' ' ' ' ' ' ' ' ' ' ' Y.f.                                ",
"                                Z.h ' ' ' ' ' ' ' ' ' ' ' ' `.h.                                ",
"                                 +) ' ' ' ' ' ' ' ' ' ' ' ' .+$.                                ",
"                              ++}.' ' ' ' ' ' ' ' ' ' ' ' ' @+#+                                ",
"                              k.$+' ' ' ' ' ' ' ' ' ' ' ' ' %+e.                                ",
"                              @ &+' ' ' ' ' ' ' ' ' ' ' ' ' *+=+                                ",
"                              -+;+' ' ' ' ' ' ' ' ' ' ' ' ' >+,+                                ",
"                              '+)+' ' ' ' ' ' ' ' ' ' ' ' ' F.E.                                ",
"                              n.!+' ' ' ' ' ' ' ' ' ' ' ' ' 4.~+                                ",
"                              {+]+' ' ' ' ' ' ' ' ' ' ' ' ' ^+/+                                ",
"                              (+_+' ' ' ' ' ' ' ' ' ' ' ' ' N.M.                                ",
"                              :+<+' ' ' ' ' ' ' ' ' ' ' ' ' [+}+                                ",
"                              |+V ' ' ' ' ' ' ' ' ' ' ' ' ' 1+2+                                ",
"                              3+4+5+5+5+5+5+5+6+7+7+7+7+7+7+8+9+                                ",
"                              % 0+0+0+0+0+0+0+a+b+b+b+b+b+b+b+c+                                ",
"                                                                                                "};
