/* XPM */
static char * arrowxn_xpm[] = {
"48 48 266 2",
"  	c None",
". 	c #E9E9E9",
"+ 	c #63605F",
"@ 	c #D8D8D8",
"# 	c #544B4A",
"$ 	c #000000",
"% 	c #C2C2C2",
"& 	c #706A69",
"* 	c #3B1209",
"= 	c #220F0B",
"- 	c #C8C8C8",
"; 	c #868282",
"> 	c #2D100B",
", 	c #F12901",
"' 	c #23100C",
") 	c #CECECE",
"! 	c #A1A0A0",
"~ 	c #1E0D0A",
"{ 	c #E42601",
"] 	c #FF2B01",
"^ 	c #1C0D0B",
"/ 	c #D5D5D5",
"( 	c #B8B8B8",
"_ 	c #170D0B",
": 	c #D32401",
"< 	c #160B09",
"[ 	c #DADADA",
"} 	c #CBCBCB",
"| 	c #180F0E",
"1 	c #BE2001",
"2 	c #110907",
"3 	c #E0E0E0",
"4 	c #211816",
"5 	c #9D1C02",
"6 	c #0A0504",
"7 	c #E7E7E7",
"8 	c #E6E6E6",
"9 	c #322826",
"0 	c #7E1804",
"a 	c #040202",
"b 	c #473E3D",
"c 	c #601608",
"d 	c #FE2B01",
"e 	c #FC2A01",
"f 	c #030201",
"g 	c #605A58",
"h 	c #45130A",
"i 	c #FA2A01",
"j 	c #F62901",
"k 	c #090505",
"l 	c #817D7D",
"m 	c #2F110B",
"n 	c #F22901",
"o 	c #F02801",
"p 	c #0F0908",
"q 	c #989797",
"r 	c #E52701",
"s 	c #E92701",
"t 	c #150E0C",
"u 	c #BABABA",
"v 	c #140B09",
"w 	c #CD2301",
"x 	c #E32601",
"y 	c #1B1210",
"z 	c #D3D3D3",
"A 	c #B1B1B1",
"B 	c #BFBFBF",
"C 	c #170F0E",
"D 	c #B61F01",
"E 	c #DC2501",
"F 	c #221715",
"G 	c #B3B3B3",
"H 	c #909090",
"I 	c #6D6B6A",
"J 	c #4C423F",
"K 	c #291F1C",
"L 	c #070404",
"M 	c #180C0A",
"N 	c #31130D",
"O 	c #2E2422",
"P 	c #D9D9D9",
"Q 	c #201715",
"R 	c #A71D02",
"S 	c #D62401",
"T 	c #271C1A",
"U 	c #A0A0A0",
"V 	c #808080",
"W 	c #605B5A",
"X 	c #413431",
"Y 	c #211513",
"Z 	c #070403",
"` 	c #210F0B",
" .	c #4B180F",
"..	c #771A08",
"+.	c #991A01",
"@.	c #BB2001",
"#.	c #DD2501",
"$.	c #E22601",
"%.	c #E5E5E5",
"&.	c #302624",
"*.	c #821905",
"=.	c #CF2301",
"-.	c #2E221F",
";.	c #615856",
">.	c #41322F",
",.	c #43160D",
"'.	c #6E1807",
").	c #F52901",
"!.	c #080504",
"~.	c #4C4342",
"{.	c #5D1709",
"].	c #0D0706",
"^.	c #130907",
"/.	c #37140D",
"(.	c #5B1709",
"_.	c #821601",
":.	c #A61C01",
"<.	c #CB2201",
"[.	c #080404",
"}.	c #675F5E",
"|.	c #421209",
"1.	c #F92A01",
"2.	c #D02301",
"3.	c #EE2801",
"4.	c #1B0D0A",
"5.	c #7D7877",
"6.	c #31100A",
"7.	c #F32901",
"8.	c #2E130E",
"9.	c #C3C3C3",
"0.	c #979595",
"a.	c #1F0D09",
"b.	c #E62701",
"c.	c #41170F",
"d.	c #B0B0B0",
"e.	c #AFAFAF",
"f.	c #551A0E",
"g.	c #9E9E9E",
"h.	c #CCCCCC",
"i.	c #160E0C",
"j.	c #BA1F01",
"k.	c #681809",
"l.	c #8D8D8D",
"m.	c #A7A7A7",
"n.	c #1B0C08",
"o.	c #E72701",
"p.	c #7B1703",
"q.	c #7A7A7A",
"r.	c #807C7C",
"s.	c #2A0F0A",
"t.	c #EF2801",
"u.	c #8F1801",
"v.	c #696462",
"w.	c #686361",
"x.	c #3F130B",
"y.	c #F82A01",
"z.	c #A21B01",
"A.	c #574D4B",
"B.	c #46403E",
"C.	c #62190A",
"D.	c #DA2501",
"E.	c #B51F01",
"F.	c #463936",
"G.	c #312726",
"H.	c #801905",
"I.	c #110705",
"J.	c #100A09",
"K.	c #100806",
"L.	c #621607",
"M.	c #8A1701",
"N.	c #B31E01",
"O.	c #C82201",
"P.	c #342724",
"Q.	c #DEDEDE",
"R.	c #251D1B",
"S.	c #931C04",
"T.	c #E3E3E3",
"U.	c #C0C0C0",
"V.	c #787271",
"W.	c #514340",
"X.	c #281D1A",
"Y.	c #43140B",
"Z.	c #6E1302",
"`.	c #C32101",
" +	c #211714",
".+	c #D1D1D1",
"++	c #191110",
"@+	c #AE1E01",
"#+	c #EB2801",
"$+	c #120C0A",
"%+	c #D0D0D0",
"&+	c #A8A8A8",
"*+	c #807E7D",
"=+	c #584E4C",
"-+	c #312422",
";+	c #0B0606",
">+	c #110806",
",+	c #3A130B",
"'+	c #661404",
")+	c #901801",
"!+	c #B9B9B9",
"~+	c #150C0A",
"{+	c #CE2301",
"]+	c #DB2501",
"^+	c #A1A1A1",
"/+	c #7B7B7B",
"(+	c #544D4B",
"_+	c #2F2422",
":+	c #0A0605",
"<+	c #190C0A",
"[+	c #421911",
"}+	c #6B1A0A",
"|+	c #941901",
"1+	c #020101",
"2+	c #A3A2A2",
"3+	c #1A0C09",
"4+	c #DF2601",
"5+	c #ABABAB",
"6+	c #848383",
"7+	c #5F5452",
"8+	c #4B4240",
"9+	c #929190",
"0+	c #210E0A",
"a+	c #E82701",
"b+	c #757170",
"c+	c #33120B",
"d+	c #F42901",
"e+	c #AA1D01",
"f+	c #504442",
"g+	c #5B5453",
"h+	c #4A150A",
"i+	c #FB2A01",
"j+	c #605755",
"k+	c #433B39",
"l+	c #651809",
"m+	c #891701",
"n+	c #6F6A6A",
"o+	c #E4E4E4",
"p+	c #2F2624",
"q+	c #851A05",
"r+	c #791703",
"s+	c #7D7D7D",
"t+	c #1F1715",
"u+	c #A01C03",
"v+	c #691909",
"w+	c #8C8C8C",
"x+	c #160E0D",
"y+	c #58190D",
"z+	c #9B9B9B",
"A+	c #B6B6B6",
"B+	c #47180F",
"C+	c #A09F9F",
"D+	c #E12601",
"E+	c #37160F",
"F+	c #848180",
"G+	c #29100B",
"H+	c #27110D",
"I+	c #C9C9C9",
"J+	c #6A6564",
"K+	c #3E130B",
"L+	c #484240",
"M+	c #5F180B",
"N+	c #E8E8E8",
"O+	c #332C2A",
"P+	c #DBDBDB",
"Q+	c #848382",
"                                                                                                ",
"                                      . + @                                                     ",
"                                      # $ %                                                     ",
"                                    & * = -                                                     ",
"                                  ; > , ' )                                                     ",
"                                ! ~ { ] ^ /                                                     ",
"                              ( _ : ] ] < [                                                     ",
"                            } | 1 ] ] ] 2 3                                                     ",
"                          [ 4 5 ] ] ] ] 6 7                                                     ",
"                        8 9 0 ] ] ] ] ] a                                                       ",
"                        b c d ] ] ] ] e f                                                       ",
"                      g h i ] ] ] ] ] j k                                                       ",
"                    l m n ] ] ] ] ] ] o p                                                       ",
"                  q ~ r ] ] ] ] ] ] ] s t                                                       ",
"                u v w ] ] ] ] ] ] ] ] x y                                             z A B     ",
"              ) C D ] ] ] ] ] ] ] ] ] E F                               / G H I J K L M N O     ",
"            P Q R ] ] ] ] ] ] ] ] ] ] S T                 - U V W X Y Z `  ...+.@.#.i ] $.y     ",
"          %.&.*.] ] ] ] ] ] ] ] ] ] ] =.-.  - U V ;.>.Y Z ` ,.'.+.@.#.i ] ] ] ] ] ] ] ] ).!.    ",
"          ~.{.d ] ] ] ] ] ] ] ] ] ] ] =.Z ].^./.(._.:.<.o ] ] ] ] ] ] ] ] ] ] ] ] ] ] ] ] [.7   ",
"        }.|.1.] ] ] ] ] ] ] ] ] ] ] ] d 2.3.] ] ] ] ] ] ] ] ] ] ] ] ] ] ] ] ] ] ] ] ] ] ] 4./   ",
"      5.6.7.] ] ] ] ] ] ] ] ] ] ] ] ] ] ] ] ] ] ] ] ] ] ] ] ] ] ] ] ] ] ] ] ] ] ] ] ] ] ] 8.9.  ",
"    0.a.b.] ] ] ] ] ] ] ] ] ] ] ] ] ] ] ] ] ] ] ] ] ] ] ] ] ] ] ] ] ] ] ] ] ] ] ] ] ] ] ] c.d.  ",
"  e.< S ] ] ] ] ] ] ] ] ] ] ] ] ] ] ] ] ] ] ] ] ] ] ] ] ] ] ] ] ] ] ] ] ] ] ] ] ] ] ] ] ] f.g.  ",
"h.i.j.] ] ] ] ] ] ] ] ] ] ] ] ] ] ] ] ] ] ] ] ] ] ] ] ] ] ] ] ] ] ] ] ] ] ] ] ] ] ] ] ] ] k.l.  ",
"m.n.o.] ] ] ] ] ] ] ] ] ] ] ] ] ] ] ] ] ] ] ] ] ] ] ] ] ] ] ] ] ] ] ] ] ] ] ] ] ] ] ] ] ] p.q.  ",
"  r.s.t.] ] ] ] ] ] ] ] ] ] ] ] ] ] ] ] ] ] ] ] ] ] ] ] ] ] ] ] ] ] ] ] ] ] ] ] ] ] ] ] ] u.v.  ",
"    w.x.y.] ] ] ] ] ] ] ] ] ] ] ] ] ] ] ] ] ] ] ] ] ] ] ] ] ] ] ] ] ] ] ] ] ] ] ] ] ] ] ] z.A.  ",
"      B.C.] ] ] ] ] ] ] ] ] ] ] ] ] ] ] ] D.b.] ] ] ] ] ] ] ] ] ] ] ] ] ] ] ] ] ] ] ] ] ] E.F.  ",
"      %.G.H.] ] ] ] ] ] ] ] ] ] ] ] ] ] ] I.J.K./.L.M.N.E e ] ] ] ] ] ] ] ] ] ] ] ] ] ] ] O.P.  ",
"        Q.R.S.] ] ] ] ] ] ] ] ] ] ] ] ] i a   T.U.U V.W.X.Z ` Y.Z.+.`., ] ] ] ] ] ] ] ] ] E  +  ",
"          .+++@+] ] ] ] ] ] ] ] ] ] ] ] #+$+                %+&+*+=+-+;+>+,+'+)+@.#.d ] ] t.p   ",
"            !+~+{+] ] ] ] ] ] ] ] ] ] ] ]+F                             - ^+/+(+_+:+<+[+}+|+1+  ",
"              2+3+4+] ] ] ] ] ] ] ] ] ] <.-+                                        .+5+6+7+8+  ",
"                9+0+a+] ] ] ] ] ] ] ] ] j.X                                                     ",
"                  b+c+d+] ] ] ] ] ] ] ] e+f+                                                    ",
"                    g+h+i+] ] ] ] ] ] ] +.j+                                                    ",
"                      k+l+] ] ] ] ] ] ] m+n+                                                    ",
"                      o+p+q+] ] ] ] ] ] r+s+                                                    ",
"                        @ t+u+] ] ] ] ] v+w+                                                    ",
"                          - x+j.] ] ] ] y+z+                                                    ",
"                            A+v =.] ] ] B+5+                                                    ",
"                              C+4.D+] ] E+u                                                     ",
"                                F+G+3.] H+I+                                                    ",
"                                  J+K+y.< P                                                     ",
"                                    L+M+[.N+                                                    ",
"                                    8 O+!.                                                      ",
"                                      P+Q+                                                      ",
"                                                                                                "};
