/* XPM */
static char * arrowxp_xpm[] = {
"48 48 248 2",
"  	c None",
". 	c #BCBCBC",
"+ 	c #A5A3A3",
"@ 	c #868686",
"# 	c #030101",
"$ 	c #989493",
"% 	c #9B9B9B",
"& 	c #340F08",
"* 	c #190A07",
"= 	c #969291",
"- 	c #B3B3B3",
"; 	c #411810",
"> 	c #DA2501",
", 	c #1D0B08",
"' 	c #8A8786",
") 	c #C8C8C8",
"! 	c #29120E",
"~ 	c #FF2B01",
"{ 	c #DF2601",
"] 	c #200D09",
"^ 	c #898685",
"/ 	c #DEDEDE",
"( 	c #130A08",
"_ 	c #E02601",
": 	c #210D09",
"< 	c #888484",
"[ 	c #070403",
"} 	c #F92A01",
"| 	c #888483",
"1 	c #1B1210",
"2 	c #E32601",
"3 	c #E12601",
"4 	c #7F7B7B",
"5 	c #312422",
"6 	c #CB2201",
"7 	c #220E09",
"8 	c #7E7A7A",
"9 	c #473B38",
"0 	c #B41E01",
"a 	c #E22601",
"b 	c #220D09",
"c 	c #7D7A79",
"d 	c #5D5452",
"e 	c #9C1A01",
"f 	c #230E0A",
"g 	c #7C7978",
"h 	c #737070",
"i 	c #851701",
"j 	c #230E09",
"k 	c #7B7776",
"l 	c #CACACA",
"m 	c #AAAAAA",
"n 	c #C9C9C9",
"o 	c #E8E8E8",
"p 	c #888888",
"q 	c #6E1908",
"r 	c #858180",
"s 	c #5D5553",
"t 	c #250E09",
"u 	c #25110E",
"v 	c #19110F",
"w 	c #382D2A",
"x 	c #574F4D",
"y 	c #767575",
"z 	c #969696",
"A 	c #B5B5B5",
"B 	c #D4D4D4",
"C 	c #9D9D9D",
"D 	c #561A0E",
"E 	c #210E0A",
"F 	c #83807F",
"G 	c #6A6463",
"H 	c #8E1801",
"I 	c #EE2801",
"J 	c #D42401",
"K 	c #BB2001",
"L 	c #991A01",
"M 	c #771A08",
"N 	c #541B10",
"O 	c #321610",
"P 	c #0D0706",
"Q 	c #100B0A",
"R 	c #312523",
"S 	c #514745",
"T 	c #706F6E",
"U 	c #909090",
"V 	c #B0B0B0",
"W 	c #D0D0D0",
"X 	c #3D170F",
"Y 	c #E82701",
"Z 	c #29100B",
"` 	c #787574",
" .	c #787777",
"..	c #7F1601",
"+.	c #FB2A01",
"@.	c #DE2501",
"#.	c #BE2001",
"$.	c #9D1A01",
"%.	c #7D1703",
"&.	c #5C1709",
"*.	c #3A130B",
"=.	c #190B08",
"-.	c #0F0807",
";.	c #2D1E1B",
">.	c #4E3B38",
",.	c #6C605D",
"'.	c #8A8989",
").	c #A9A9A9",
"!.	c #A6A6A6",
"~.	c #27110D",
"{.	c #230D08",
"].	c #807B7A",
"^.	c #701807",
"/.	c #F82A01",
"(.	c #D82401",
"_.	c #B81F01",
":.	c #971901",
"<.	c #771907",
"[.	c #551B10",
"}.	c #351610",
"|.	c #44140B",
"1.	c #240F0A",
"2.	c #7D7A7A",
"3.	c #959595",
"4.	c #5F190B",
"5.	c #E92701",
"6.	c #2C100A",
"7.	c #6F6A69",
"8.	c #A4A4A4",
"9.	c #4F190E",
"0.	c #EA2701",
"a.	c #6E6968",
"b.	c #3F170F",
"c.	c #2D100A",
"d.	c #6D6867",
"e.	c #C1C1C1",
"f.	c #30140E",
"g.	c #32120B",
"h.	c #6C6766",
"i.	c #200F0C",
"j.	c #290F09",
"k.	c #75706F",
"l.	c #120907",
"m.	c #A41C01",
"n.	c #140F0E",
"o.	c #040202",
"p.	c #FE2B01",
"q.	c #C92201",
"r.	c #130B09",
"s.	c #C0C0C0",
"t.	c #0D0807",
"u.	c #F12901",
"v.	c #1A0C09",
"w.	c #A3A2A2",
"x.	c #1C1311",
"y.	c #F02801",
"z.	c #2A100A",
"A.	c #817E7E",
"B.	c #2A1E1C",
"C.	c #D22301",
"D.	c #EC2801",
"E.	c #FD2B01",
"F.	c #4F170B",
"G.	c #595352",
"H.	c #392C29",
"I.	c #C22101",
"J.	c #CA2201",
"K.	c #811904",
"L.	c #37150E",
"M.	c #811702",
"N.	c #721807",
"O.	c #3C3331",
"P.	c #483C39",
"Q.	c #B21E01",
"R.	c #4B180F",
"S.	c #100807",
"T.	c #413431",
"U.	c #807E7E",
"V.	c #711806",
"W.	c #8F1B04",
"X.	c #2C2321",
"Y.	c #E3E3E3",
"Z.	c #574C4A",
"`.	c #A21B01",
" +	c #6E1706",
".+	c #210F0B",
"++	c #18100E",
"@+	c #615654",
"#+	c #A0A0A0",
"$+	c #919191",
"%+	c #63190A",
"&+	c #AF1E01",
"*+	c #191210",
"=+	c #D3D3D3",
"-+	c #655E5D",
";+	c #931901",
">+	c #901801",
",+	c #43140B",
"'+	c #382B29",
")+	c #817D7C",
"!+	c #9C9C9C",
"~+	c #57190D",
"{+	c #747271",
"]+	c #831601",
"^+	c #6E1604",
"/+	c #110B0A",
"(+	c #584E4C",
"_+	c #DDDDDD",
":+	c #A8A8A8",
"<+	c #828282",
"[+	c #741705",
"}+	c #431208",
"|+	c #0C0605",
"1+	c #2B0B05",
"2+	c #34120B",
"3+	c #0C0706",
"4+	c #8C8C8C",
"5+	c #D1D1D1",
"6+	c #BEBEBE",
"7+	c #33150F",
"8+	c #4F150A",
"9+	c #595250",
"0+	c #ACACAC",
"a+	c #D6D6D6",
"b+	c #1A0D0A",
"c+	c #E1E1E1",
"d+	c #0F0806",
"e+	c #030201",
"f+	c #080504",
"g+	c #F62901",
"h+	c #130C0B",
"i+	c #1F1513",
"j+	c #47140A",
"k+	c #635D5B",
"l+	c #2B1F1D",
"m+	c #651708",
"n+	c #423A39",
"o+	c #372927",
"p+	c #C52101",
"q+	c #E4E4E4",
"r+	c #721401",
"s+	c #17100F",
"t+	c #CECECE",
"u+	c #4C403D",
"v+	c #080404",
"w+	c #B8B8B8",
"x+	c #928E8D",
"y+	c #A2A1A1",
"                                                                                                ",
"                                                . +                                             ",
"                                                @ # $                                           ",
"                                                % & * =                                         ",
"                                                - ; > , '                                       ",
"                                                ) ! ~ { ] ^                                     ",
"                                                / ( ~ ~ _ : <                                   ",
"                                                  [ } ~ ~ _ : |                                 ",
"                                                  1 2 ~ ~ ~ 3 : 4                               ",
"                                                  5 6 ~ ~ ~ ~ 3 7 8                             ",
"                                                  9 0 ~ ~ ~ ~ ~ a b c                           ",
"                                                  d e ~ ~ ~ ~ ~ ~ a f g                         ",
"                                                  h i ~ ~ ~ ~ ~ ~ ~ 2 j k                       ",
"l m n o                                           p q ~ ~ ~ ~ ~ ~ ~ ~ { ] r                     ",
"s t u [ v w x y z A B                             C D ~ ~ ~ ~ ~ ~ ~ ~ ~ _ E F                   ",
"G H ~ ~ I J K L M N O P Q R S T U V W             A X ~ ~ ~ ~ ~ ~ ~ ~ ~ ~ Y Z `                 ",
" ...~ ~ ~ ~ ~ ~ ~ ~ ~ +.@.#.$.%.&.*.=.-.;.>.,.'.).!.~.~ ~ ~ ~ ~ ~ ~ ~ ~ ~ ~ a {.].              ",
"@ ^.~ ~ ~ ~ ~ ~ ~ ~ ~ ~ ~ ~ ~ ~ ~ ~ ~ /.(._.:.<.[.}.|.~ ~ ~ ~ ~ ~ ~ ~ ~ ~ ~ ~ 2 1.2.            ",
"3.4.~ ~ ~ ~ ~ ~ ~ ~ ~ ~ ~ ~ ~ ~ ~ ~ ~ ~ ~ ~ ~ ~ ~ ~ ~ ~ ~ ~ ~ ~ ~ ~ ~ ~ ~ ~ ~ ~ 5.6.7.          ",
"8.9.~ ~ ~ ~ ~ ~ ~ ~ ~ ~ ~ ~ ~ ~ ~ ~ ~ ~ ~ ~ ~ ~ ~ ~ ~ ~ ~ ~ ~ ~ ~ ~ ~ ~ ~ ~ ~ ~ ~ 0.6.a.        ",
"- b.~ ~ ~ ~ ~ ~ ~ ~ ~ ~ ~ ~ ~ ~ ~ ~ ~ ~ ~ ~ ~ ~ ~ ~ ~ ~ ~ ~ ~ ~ ~ ~ ~ ~ ~ ~ ~ ~ ~ ~ 0.c.d.      ",
"e.f.~ ~ ~ ~ ~ ~ ~ ~ ~ ~ ~ ~ ~ ~ ~ ~ ~ ~ ~ ~ ~ ~ ~ ~ ~ ~ ~ ~ ~ ~ ~ ~ ~ ~ ~ ~ ~ ~ ~ ~ ~ I g.h.    ",
"W i.~ ~ ~ ~ ~ ~ ~ ~ ~ ~ ~ ~ ~ ~ ~ ~ ~ ~ ~ ~ ~ ~ ~ ~ ~ ~ ~ ~ ~ ~ ~ ~ ~ ~ ~ ~ ~ ~ ~ ~ ~ ~ Y j.k.  ",
"/ l.~ ~ ~ ~ ~ ~ ~ ~ ~ ~ ~ ~ ~ ~ ~ ~ ~ ~ ~ ~ ~ ~ ~ ~ ~ ~ ~ ~ ~ ~ ~ ~ ~ ~ ~ ~ ~ ~ ~ ~ ~ ~ ~ m.n.  ",
"  o.p.~ ~ ~ ~ ~ ~ ~ ~ ~ ~ ~ ~ ~ ~ ~ ~ ~ ~ ~ ~ ~ ~ ~ ~ ~ ~ ~ ~ ~ ~ ~ ~ ~ ~ ~ ~ ~ ~ ~ ~ ~ q.r.s.  ",
"  t.u.~ ~ ~ ~ ~ ~ ~ ~ ~ ~ ~ ~ ~ ~ ~ ~ ~ ~ ~ ~ ~ ~ ~ ~ ~ ~ ~ ~ ~ ~ ~ ~ ~ ~ ~ ~ ~ ~ ~ ~ 3 v.w.    ",
"  x.3 ~ ~ ~ ~ ~ ~ ~ ~ ~ ~ ~ ~ ~ ~ ~ ~ ~ ~ ~ ~ ~ ~ ~ ~ ~ ~ ~ ~ ~ ~ ~ ~ ~ ~ ~ ~ ~ ~ ~ y.z.A.      ",
"  B.C.~ ~ ~ ~ ~ ~ ~ ~ ~ ~ ~ ~ ~ ~ ~ ~ ~ ~ ~ ~ ~ ~ D.y.~ ~ ~ ~ ~ ~ ~ ~ ~ ~ ~ ~ ~ ~ E.F.G.        ",
"  H.I.~ ~ ~ ~ ~ ~ ~ ~ ~ ~ ~ ~ ~ ~ ~ ~ ~ ~ E.J.K.L.o.M.~ ~ ~ ~ ~ ~ ~ ~ ~ ~ ~ ~ ~ ~ N.O.          ",
"  P.Q.~ ~ ~ ~ ~ ~ ~ ~ ~ ~ ~ ~ ~ ~ ~ a L R.S.T.U.) @ V.~ ~ ~ ~ ~ ~ ~ ~ ~ ~ ~ ~ ~ W.X.Y.          ",
"  Z.`.~ ~ ~ ~ ~ ~ ~ ~ ~ ~ ~ } K  +.+++@+#+/       $+%+~ ~ ~ ~ ~ ~ ~ ~ ~ ~ ~ ~ &+*+=+            ",
"  -+;+~ ~ ~ ~ ~ ~ ~ ~ 3 >+,+P '+)+s.              !+~+~ ~ ~ ~ ~ ~ ~ ~ ~ ~ ~ q.r.s.              ",
"  {+]+~ ~ ~ ~ /.K ^+E /+(+#+_+                    :+R.~ ~ ~ ~ ~ ~ ~ ~ ~ ~ 3 v.w.                ",
"  <+[+~ 3 >+}+|+'+)+s.                            - b.~ ~ ~ ~ ~ ~ ~ ~ ~ y.z.A.                  ",
"  U 1+2+3+9 4+5+                                  6+7+~ ~ ~ ~ ~ ~ ~ ~ E.8+9+                    ",
"  l d.0+o                                         n ~.~ ~ ~ ~ ~ ~ ~ ~ N.O.                      ",
"                                                  a+b+~ ~ ~ ~ ~ ~ ~ W.X.Y.                      ",
"                                                  c+d+~ ~ ~ ~ ~ ~ &+*+=+                        ",
"                                                    e+~ ~ ~ ~ ~ q.r.s.                          ",
"                                                    f+g+~ ~ ~ 3 v.w.                            ",
"                                                    h+0.~ ~ y.z.A.                              ",
"                                                    i+@.~ +.j+k+                                ",
"                                                    l+C.~ m+n+                                  ",
"                                                    o+p+W.X.q+                                  ",
"                                                    T.r+s+t+                                    ",
"                                                    u+v+w+                                      ",
"                                                    x+y+                                        ",
"                                                                                                "};
