/* XPM */
static char * arrowyd_xpm[] = {
"48 48 269 2",
"  	c None",
". 	c #979897",
"+ 	c #152116",
"@ 	c #1E2B1E",
"# 	c #273627",
"$ 	c #334133",
"% 	c #414F42",
"& 	c #4D594E",
"* 	c #5C635C",
"= 	c #6D706D",
"- 	c #7C7C7C",
"; 	c #878787",
"> 	c #919191",
", 	c #A0A0A0",
"' 	c #AAAAAA",
") 	c #B5B5B5",
"! 	c #C0C0C0",
"~ 	c #CFCFCF",
"{ 	c #D8D8D8",
"] 	c #E3E3E3",
"^ 	c #989898",
"/ 	c #0A450B",
"( 	c #01D105",
"_ 	c #01C705",
": 	c #01BB04",
"< 	c #01AB04",
"[ 	c #01A004",
"} 	c #019604",
"| 	c #018803",
"1 	c #017A04",
"2 	c #076F0A",
"3 	c #0B640C",
"4 	c #0C540D",
"5 	c #0E480F",
"6 	c #0E3D0F",
"7 	c #0E320E",
"8 	c #0B220C",
"9 	c #091709",
"0 	c #040704",
"a 	c #CACACA",
"b 	c #CDCDCD",
"c 	c #0A1B0A",
"d 	c #01FF06",
"e 	c #01FD06",
"f 	c #071107",
"g 	c #DEDEDE",
"h 	c #0B130B",
"i 	c #01E405",
"j 	c #01D705",
"k 	c #162216",
"l 	c #374638",
"m 	c #01AD04",
"n 	c #019F04",
"o 	c #4B564B",
"p 	c #767876",
"q 	c #057607",
"r 	c #0A680B",
"s 	c #898989",
"t 	c #ACACAC",
"u 	c #0E3E0F",
"v 	c #0E300F",
"w 	c #BDBDBD",
"x 	c #DFDFDF",
"y 	c #050C05",
"z 	c #01FB06",
"A 	c #01F406",
"B 	c #050B06",
"C 	c #EAEAEA",
"D 	c #182518",
"E 	c #01D005",
"F 	c #01C105",
"G 	c #283728",
"H 	c #4E584E",
"I 	c #019904",
"J 	c #028A05",
"K 	c #646A64",
"L 	c #8B8B8B",
"M 	c #0A610B",
"N 	c #0E520F",
"O 	c #9D9D9D",
"P 	c #0D2A0D",
"Q 	c #0A1A0A",
"R 	c #D2D2D2",
"S 	c #EBEBEB",
"T 	c #01F006",
"U 	c #01E305",
"V 	c #0E170E",
"W 	c #293729",
"X 	c #01BC04",
"Y 	c #01AC04",
"Z 	c #3D4A3D",
"` 	c #666C66",
" .	c #028505",
"..	c #067509",
"+.	c #7C7D7C",
"@.	c #9F9F9F",
"#.	c #0D4D0E",
"$.	c #0F3C10",
"%.	c #B2B2B2",
"&.	c #D3D3D3",
"*.	c #081509",
"=.	c #060D06",
"-.	c #E4E4E4",
";.	c #0D150D",
">.	c #01E005",
",.	c #1B281B",
"'.	c #D7D7D7",
").	c #B9B9B9",
"!.	c #858585",
"~.	c #656865",
"{.	c #9E9F9E",
"].	c #3B493C",
"^.	c #01A904",
"/.	c #019804",
"(.	c #525C53",
"_.	c #D9D9D9",
":.	c #BFBFBF",
"<.	c #A5A5A5",
"[.	c #888888",
"}.	c #696E69",
"|.	c #455446",
"1.	c #293829",
"2.	c #111C12",
"3.	c #020502",
"4.	c #0A180A",
"5.	c #0F3510",
"6.	c #0F5110",
"7.	c #08620A",
"8.	c #000100",
"9.	c #A0A1A0",
"0.	c #8D8D8D",
"a.	c #1A2A1B",
"b.	c #2F4130",
"c.	c #485849",
"d.	c #626C62",
"e.	c #848484",
"f.	c #AFAFAF",
"g.	c #C6C6C6",
"h.	c #DADADA",
"i.	c #7B7C7B",
"j.	c #057208",
"k.	c #047606",
"l.	c #000000",
"m.	c #081508",
"n.	c #0D300E",
"o.	c #0C4C0E",
"p.	c #076B09",
"q.	c #018703",
"r.	c #01A304",
"s.	c #01C205",
"t.	c #01DE05",
"u.	c #01F906",
"v.	c #085B0A",
"w.	c #565F56",
"x.	c #DDDDDD",
"y.	c #111A11",
"z.	c #018B03",
"A.	c #01BD04",
"B.	c #01A504",
"C.	c #019003",
"D.	c #037A05",
"E.	c #0A600B",
"F.	c #0F4B10",
"G.	c #0B1D0B",
"H.	c #060C06",
"I.	c #0E190E",
"J.	c #1E2E1E",
"K.	c #202B20",
"L.	c #0C410D",
"M.	c #01F606",
"N.	c #02A005",
"O.	c #1D291E",
"P.	c #E7E7E7",
"Q.	c #B4B4B4",
"R.	c #01E805",
"S.	c #01F206",
"T.	c #01D905",
"U.	c #01C405",
"V.	c #01D405",
"W.	c #01D805",
"X.	c #0A140A",
"Y.	c #C7C7C7",
"Z.	c #767976",
"`.	c #0B3D0C",
" +	c #01FC06",
".+	c #01F506",
"++	c #0B2A0B",
"@+	c #939593",
"#+	c #343F34",
"$+	c #058408",
"%+	c #08670A",
"&+	c #4D574E",
"*+	c #01C505",
"=+	c #01A605",
"-+	c #192419",
";+	c #E5E5E5",
">+	c #0B210C",
",+	c #091509",
"'+	c #5E655E",
")+	c #0A540C",
"!+	c #01FA06",
"~+	c #0A350B",
"{+	c #808480",
"]+	c #E9E9E9",
"^+	c #222D22",
"/+	c #039E06",
"(+	c #067909",
"_+	c #3E493F",
":+	c #C8C8C8",
"<+	c #01BA04",
"[+	c #111B11",
"}+	c #DCDCDC",
"|+	c #8F908F",
"1+	c #0C310D",
"2+	c #01F806",
"3+	c #01E705",
"4+	c #091909",
"5+	c #4A544A",
"6+	c #08720B",
"7+	c #0B460C",
"8+	c #6E736E",
"9+	c #E1E1E1",
"0+	c #152015",
"a+	c #01B204",
"b+	c #058A08",
"c+	c #2E382E",
"d+	c #B8B8B8",
"e+	c #01E605",
"f+	c #01C605",
"g+	c #0C160D",
"h+	c #D5D5D5",
"i+	c #757975",
"j+	c #0C450D",
"k+	c #0A210A",
"l+	c #A2A3A2",
"m+	c #058908",
"n+	c #0A540B",
"o+	c #0D170D",
"p+	c #029C06",
"q+	c #E8E8E8",
"r+	c #0B230B",
"s+	c #01F106",
"t+	c #01D605",
"u+	c #0B5D0C",
"v+	c #0B2B0C",
"w+	c #919291",
"x+	c #03A306",
"y+	c #086A0A",
"z+	c #4C554C",
"A+	c #0A150A",
"B+	c #01AE05",
"C+	c #172117",
"D+	c #E2E2E2",
"E+	c #8E908E",
"F+	c #0C330C",
"G+	c #01DF05",
"H+	c #BEBEBE",
"I+	c #08770B",
"J+	c #0B360C",
"K+	c #7E817E",
"L+	c #077C09",
"M+	c #3E483E",
"N+	c #0A190A",
"O+	c #DBDBDB",
"P+	c #707570",
"Q+	c #0B490C",
"R+	c #A9A9A9",
"S+	c #394739",
"T+	c #6C726C",
"                                                                                                ",
"                            . + @ # $ % & * = - ; > , ' ) ! ~ { ]                               ",
"                            ^ / ( _ : < [ } | 1 2 3 4 5 6 7 8 9 0 a                             ",
"                            b c d d d d d d d d d d d d d d d e f g                             ",
"                              h i d d d d d d d d d d d d d d j k                               ",
"                              l m d d d d d d d d d d d d d d n o                               ",
"                              p q d d d d d d d d d d d d d d r s                               ",
"                              t u d d d d d d d d d d d d d d v w                               ",
"                              x y z d d d d d d d d d d d d A B C                               ",
"                                D E d d d d d d d d d d d d F G                                 ",
"                                H I d d d d d d d d d d d d J K                                 ",
"                                L M d d d d d d d d d d d d N O                                 ",
"                                ! P d d d d d d d d d d d d Q R                                 ",
"                                S B T d d d d d d d d d d U V                                   ",
"                                  W X d d d d d d d d d d Y Z                                   ",
"                                  `  .d d d d d d d d d d ..+.                                  ",
"                                  @.#.d d d d d d d d d d $.%.                                  ",
"                                  &.*.d d d d d d d d d z =.-.                                  ",
"                                    ;.>.d d d d d d d d E ,.                  '.).@.!.~.{.      ",
"                                    ].^.d d d d d d d d /.(._.:.<.[.}.|.1.2.3.4.5.6.7.8.9.      ",
"        0.;.a.b.c.d.e.^ f.g.h.      i.j.d d d d d d d d k.l.m.n.o.p.q.r.s.t.u.d d d v.w.        ",
"        x.y.z.A.B.C.D.E.F.5.G.H.I.J.K.L.d d d d d d d d u.M.d d d d d d d d d d d N.O.P.        ",
"          Q.4.R.d d d d d d d d S.T.U.V.d d d d d d d d d d d d d d d d d d d d W.X.Y.          ",
"            Z.`. +d d d d d d d d d d d d d d d d d d d d d d d d d d d d d d .+++@+            ",
"              #+$+d d d d d d d d d d d d d d d d d d d d d d d d d d d d d d %+&+              ",
"              '.V *+d d d d d d d d d d d d d d d d d d d d d d d d d d d d =+-+;+              ",
"                ' >+T d d d d d d d d d d d d d d d d d d d d d d d d d d t.,+!                 ",
"                  '+)+d d d d d d d d d d d d d d d d d d d d d d d d d !+~+{+                  ",
"                  ]+^+/+d d d d d d d d d d d d d d d d d d d d d d d d (+_+                    ",
"                    :+X.j d d d d d d d d d d d d d d d d d d d d d d <+[+}+                    ",
"                      |+1+2+d d d d d d d d d d d d d d d d d d d d 3+4+)                       ",
"                        5+6+d d d d d d d d d d d d d d d d d d d e 7+8+                        ",
"                        9+0+a+d d d d d d d d d d d d d d d d d d b+c+                          ",
"                          d+4.e+d d d d d d d d d d d d d d d d f+g+h+                          ",
"                            i+j+e d d d d d d d d d d d d d d T k+l+                            ",
"                              #+m+d d d d d d d d d d d d d d n+*                               ",
"                              '.o+_ d d d d d d d d d d d d p+^+q+                              ",
"                                ' r+s+d d d d d d d d d d t+X.:+                                ",
"                                  '+u+d d d d d d d d d M.v+w+                                  ",
"                                  ]+^+x+d d d d d d d d y+z+                                    ",
"                                    :+A+T.d d d d d d B+C+D+                                    ",
"                                      E+F+u.d d d d G+,+H+                                      ",
"                                        5+I+d d d !+J+K+                                        ",
"                                        9++ <+d d L+M+                                          ",
"                                          d+N+3+: y.O+                                          ",
"                                            P+Q+G.R+                                            ",
"                                              S+T+                                              ",
"                                                                                                "};
