/* XPM */
static char * arrowyn_xpm[] = {
"48 48 297 2",
"  	c None",
". 	c #C2C2C2",
"+ 	c #656E65",
"@ 	c #E8E8E8",
"# 	c #DEDEDE",
"$ 	c #132013",
"% 	c #053B06",
"& 	c #404C40",
"* 	c #2B372C",
"= 	c #058107",
"- 	c #01FC06",
"; 	c #09540B",
"> 	c #4A544A",
", 	c #616A61",
"' 	c #09510B",
") 	c #01FE06",
"! 	c #01FF06",
"~ 	c #01F906",
"{ 	c #0B460D",
"] 	c #5B635B",
"^ 	c #949694",
"/ 	c #0A280B",
"( 	c #01F206",
"_ 	c #0B330B",
": 	c #727872",
"< 	c #C1C1C1",
"[ 	c #0A150A",
"} 	c #01D705",
"| 	c #01EB06",
"1 	c #818581",
"2 	c #DDDDDD",
"3 	c #141F14",
"4 	c #01AE05",
"5 	c #01E405",
"6 	c #0A200A",
"7 	c #929592",
"8 	c #354136",
"9 	c #057408",
"0 	c #01DB05",
"a 	c #091909",
"b 	c #A2A3A2",
"c 	c #727A72",
"d 	c #093D0A",
"e 	c #01FA06",
"f 	c #01C605",
"g 	c #0A160B",
"h 	c #BCBCBC",
"i 	c #C8C8C8",
"j 	c #000000",
"k 	c #979897",
"l 	c #A9A9A9",
"m 	c #091B09",
"n 	c #01E705",
"o 	c #01B804",
"p 	c #0D170D",
"q 	c #939393",
"r 	c #073E08",
"s 	c #0A170A",
"t 	c #BBBBBB",
"u 	c #CECECE",
"v 	c #0B150B",
"w 	c #01C505",
"x 	c #01A805",
"y 	c #111C11",
"z 	c #D2D2D2",
"A 	c #525C52",
"B 	c #019804",
"C 	c #01C205",
"D 	c #0E180E",
"E 	c #CFCFCF",
"F 	c #E2E2E2",
"G 	c #19241A",
"H 	c #02A205",
"I 	c #03A306",
"J 	c #131D13",
"K 	c #D4D4D4",
"L 	c #19261A",
"M 	c #01D205",
"N 	c #039406",
"O 	c #1E281E",
"P 	c #E3E3E3",
"Q 	c #404A40",
"R 	c #076609",
"S 	c #049207",
"T 	c #1D291E",
"U 	c #E0E0E0",
"V 	c #060E06",
"W 	c #095E0B",
"X 	c #4A534A",
"Y 	c #808480",
"Z 	c #0A310B",
"` 	c #01F606",
" .	c #066208",
"..	c #39443A",
"+.	c #ACACAC",
"@.	c #0E4110",
"#.	c #01F806",
"$.	c #0A370B",
"%.	c #767C76",
"&.	c #B2B2B2",
"*.	c #081708",
"=.	c #01DF05",
"-.	c #02AC05",
";.	c #0B140B",
">.	c #919291",
",.	c #717571",
"'.	c #047D06",
").	c #01EC06",
"!.	c #0B220B",
"~.	c #9C9C9C",
"{.	c #0C150C",
"].	c #01C405",
"^.	c #085D0A",
"/.	c #1D281E",
"(.	c #C9C9C9",
"_.	c #314031",
":.	c #01B604",
"<.	c #01D005",
"[.	c #09130A",
"}.	c #BDBDBD",
"|.	c #E6E6E6",
"1.	c #212C21",
"2.	c #038D06",
"3.	c #01DD05",
"4.	c #0B310C",
"5.	c #485249",
"6.	c #E4E4E4",
"7.	c #070E08",
"8.	c #01EF06",
"9.	c #111A11",
"0.	c #D7D7D7",
"a.	c #4B544B",
"b.	c #085E0A",
"c.	c #01AD04",
"d.	c #091309",
"e.	c #8E908E",
"f.	c #C4C4C4",
"g.	c #0D280E",
"h.	c #047F07",
"i.	c #2B362B",
"j.	c #E9E9E9",
"k.	c #838783",
"l.	c #0B300B",
"m.	c #066E09",
"n.	c #151F15",
"o.	c #BEBEBE",
"p.	c #8F8F8F",
"q.	c #095F0B",
"r.	c #01FD06",
"s.	c #094B0A",
"t.	c #3E453F",
"u.	c #081408",
"v.	c #0C480D",
"w.	c #313A31",
"x.	c #D8D8D8",
"y.	c #505A50",
"z.	c #019904",
"A.	c #01F106",
"B.	c #0C510D",
"C.	c #01B104",
"D.	c #01C905",
"E.	c #0A1E0A",
"F.	c #676E67",
"G.	c #162317",
"H.	c #01D405",
"I.	c #0F1910",
"J.	c #DCDCDC",
"K.	c #071208",
"L.	c #01EE06",
"M.	c #0A4C0B",
"N.	c #D6D6D6",
"O.	c #A7A7A7",
"P.	c #0E4610",
"Q.	c #091E0A",
"R.	c #697069",
"S.	c #6D716D",
"T.	c #038006",
"U.	c #039006",
"V.	c #0C160D",
"W.	c #A3A4A3",
"X.	c #2D3C2E",
"Y.	c #01B904",
"Z.	c #01F406",
"`.	c #095D0B",
" +	c #202B20",
".+	c #CCCCCC",
"++	c #060C06",
"@+	c #01F006",
"#+	c #01D505",
"$+	c #545D55",
"%+	c #C0C0C0",
"&+	c #0D2A0D",
"*+	c #02A905",
"=+	c #0A150B",
"-+	c #959895",
";+	c #8C8C8C",
">+	c #09630A",
",+	c #087C0B",
"'+	c #131C13",
")+	c #B8B8B8",
"!+	c #4C574C",
"~+	c #019C04",
"{+	c #0A2B0B",
"]+	c #656965",
"^+	c #142014",
"/+	c #0C350D",
"(+	c #646A64",
"_+	c #071207",
":+	c #0B360C",
"<+	c #5A615A",
"[+	c #A4A4A4",
"}+	c #0E480F",
"|+	c #0B370C",
"1+	c #596059",
"2+	c #696F69",
"3+	c #038205",
"4+	c #0C3F0D",
"5+	c #585F58",
"6+	c #2A382A",
"7+	c #01BB04",
"8+	c #0C400D",
"9+	c #575F57",
"0+	c #050B06",
"a+	c #01F506",
"b+	c #0C410D",
"c+	c #555E55",
"d+	c #0D2D0E",
"e+	c #0B430C",
"f+	c #535D53",
"g+	c #868786",
"h+	c #08670A",
"i+	c #0B440C",
"j+	c #525C53",
"k+	c #475447",
"l+	c #019E04",
"m+	c #0A410B",
"n+	c #576257",
"o+	c #131E13",
"p+	c #01B304",
"q+	c #038705",
"r+	c #0E5A10",
"s+	c #060906",
"t+	c #C5C5C5",
"u+	c #081508",
"v+	c #01AA04",
"w+	c #047F06",
"x+	c #105412",
"y+	c #0F290F",
"z+	c #080F08",
"A+	c #273927",
"B+	c #566157",
"C+	c #888888",
"D+	c #B0B0B0",
"E+	c #A0A0A0",
"F+	c #0D4B0F",
"G+	c #01B204",
"H+	c #028804",
"I+	c #0F5C10",
"J+	c #103211",
"K+	c #0A140A",
"L+	c #203120",
"M+	c #495949",
"N+	c #7D807D",
"O+	c #A8A8A8",
"P+	c #656B65",
"Q+	c #028505",
"R+	c #01EA06",
"S+	c #019003",
"T+	c #0D650F",
"U+	c #113A12",
"V+	c #081209",
"W+	c #192919",
"X+	c #405140",
"Y+	c #273627",
"Z+	c #01BE04",
"`+	c #01C305",
" @	c #096E0B",
".@	c #114312",
"+@	c #0B190B",
"@@	c #132113",
"#@	c #374937",
"$@	c #989898",
"%@	c #050A05",
"&@	c #068608",
"*@	c #145A16",
"=@	c #122F13",
"-@	c #233023",
";@	c #505950",
">@	c #828282",
",@	c #ABABAB",
"'@	c #D3D3D3",
")@	c #030403",
"!@	c #192719",
"~@	c #415141",
"{@	c #767976",
"]@	c #A2A2A2",
"^@	c #CDCDCD",
"                                                                                                ",
"                                                                  . + @                         ",
"                                                                # $ % &                         ",
"                                                                * = - ; >                       ",
"                                                              , ' ) ! ~ { ]                     ",
"                                                            ^ / ( ! ! ! ( _ :                   ",
"                                                          < [ } ! ! ! ! ! | / 1                 ",
"                                                        2 3 4 ! ! ! ! ! ! ! 5 6 7               ",
"                                                        8 9 ! ! ! ! ! ! ! ! ! 0 a b             ",
"                  .                                   c d e ! ! ! ! ! ! ! ! ! ! f g h           ",
"                i j k                               l m n ! ! ! ! ! ! ! ! ! ! ! ! o p i         ",
"                q r s t                           u v w ! ! ! ! ! ! ! ! ! ! ! ! ! ! x y z       ",
"                A B C D E                       F G H ! ! ! ! ! ! ! ! ! ! ! ! ! ! ! ! I J K     ",
"                L M ! N O P                     Q R ! ! ! ! ! ! ! ! ! ! ! ! ! ! ! ! ! ! S T #   ",
"              U V - ! ! W X                   Y Z ` ! ! ! ! ! ! ! ! ! ! ! ! ! ! ! ! ! ! !  ...  ",
"              +.@.! ! ! #.$.%.              &.*.=.! ! ! ! ! ! ! ! ! ! ! ! ! ! ! ! ! ! ! -.;.>.  ",
"              ,.'.! ! ! ! ).!.~.          E {.].! ! ! ! ! ! ! ! ! ! ! ! ! ! ! ! ! ! ` ^./.(.    ",
"              _.:.! ! ! ! ! <.[.}.      |.1.2.! ! ! ! ! ! ! ! ! ! ! ! ! ! ! ! ! ! 3.4.5.6.      ",
"              7.8.! ! ! ! ! ! 4 9.0.    a.b.! ! ! ! ! ! ! ! ! ! ! ! ! ! ! ! ! ! c.d.e.          ",
"            f.g.! ! ! ! ! ! ! ! h.i.j.k.l.` ! ! ! ! ! ! ! ! ! ! ! ! ! ! ! ! e m.n.o.            ",
"            p.q.! ! ! ! ! ! ! ! r.s.t.u.} ! ! ! ! ! ! ! ! ! ! ! ! ! ! ! ! ).v.w.x.              ",
"            y.z.! ! ! ! ! ! ! ! ! A.B.C.! ! ! ! ! ! ! ! ! ! ! ! ! ! ! ! D.E.F.                  ",
"            G.H.! ! ! ! ! ! ! ! ! ! ! ! ! ! ! ! ! ! ! ! ! ! ! ! ! ! r.h.I.&.                    ",
"          J.K.) ! ! ! ! ! ! ! ! ! ! ! ! ! ! ! ! ! ! ! ! ! ! ! ! ! L.M.i.N.                      ",
"          O.P.! ! ! ! ! ! ! ! ! ! ! ! ! ! ! ! ! ! ! ! ! ! ! ! ! D.Q.R.                          ",
"          S.T.! ! ! ! ! ! ! ! ! ! ! ! ! ! ! ! ! ! ! ! ! ! ! ! U.V.W.                            ",
"          X.Y.! ! ! ! ! ! ! ! ! ! ! ! ! ! ! ! ! ! ! ! ! ! Z.`. +.+                              ",
"          ++@+! ! ! ! ! ! ! ! ! ! ! ! ! ! ! ! ! ! ! ! ! #+/ $+@                                 ",
"        %+&+! ! ! ! ! ! ! ! ! ! ! ! ! ! ! ! ! ! ! ! ! *+=+-+                                    ",
"        ;+>+! ! ! ! ! ! ! ! ! ! ! ! ! ! ! ! ! ! ! ! ,+'+)+                                      ",
"        !+~+! ! ! ! ! ! ! ! ! ! ! ! ! ! ! ! ! ! ! - {+]+                                        ",
"        ^+} ! ! ! ! ! ! ! ! ! ! ! ! ! ! ! ! ! ! ! ! 8./+(+                                      ",
"      x._+) ! ! ! ! ! ! ! ! ! ! ! ! ! ! ! ! ! ! ! ! ! 8.:+<+                                    ",
"      [+}+! ! ! ! ! ! ! ! ! ! ! ! ! ! ! ! ! ! ! ! ! ! ! @+|+1+                                  ",
"      2+3+! ! ! ! ! ! ! ! ! ! ! ! ! ! ! ! ! ! ! ! ! ! ! ! Z.4+5+                                ",
"      6+7+! ! ! ! ! ! ! ! ! ! ! ! ! ! ! ! ! ! ! ! ! ! ! ! ! Z.8+9+                              ",
"      0+( ! ! ! ! ! ! ! ! ! ! ! ! ! ! ! ! ! ! ! ! ! ! ! ! ! ! a+b+c+                            ",
"    }.d+! ! ! ! ! ! ! ! ! ! ! ! ! ! ! ! ! ! ! ! ! ! ! ! ! ! ! ! a+e+f+                          ",
"    g+h+! ! ! ! ! ! ! ! ! ! ! ! ! ! ! ! ! ! ! ! ! ! ! ! ! ! ! ! ! ` i+j+                        ",
"    k+l+! ! ! ! ! ! ! ! ! ! ! ! ! ! ! ! ! ! ! ! ! ! ! ! ! ! ! ! ! ! Z.m+n+                      ",
"    o+} ! ! ! ! ! ! ! ! ! ! ! ! ! ! ! ! ! ! ! ! ! ! ! ! ! ! ) =.p+q+r+g.s+t+                    ",
"  N.u+) ! ! ! ! ! ! ! ! ! ! ! ! ! ! ! ! ! ! ! ! r.H.v+w+x+y+z+A+B+C+D+x.                        ",
"  E+F+! ! ! ! ! ! ! ! ! ! ! ! ! ! ! ! 3.G+H+I+J+K+L+M+N+O+x.                                    ",
"  P+Q+! ! ! ! ! ! ! ! ! ! R+7+S+T+U+V+W+X+: E+i                                                 ",
"  Y+Z+! ! ! ! a+`+z. @.@+@@@#@R.$@i j.                                                          ",
"j.%@M p+&@*@=@z+-@;@>@,@K                                                                       ",
"'@)@!@~@{@]@^@                                                                                  ",
"                                                                                                "};
