/* XPM */
static char * arrowyu_xpm[] = {
"48 48 289 2",
"  	c None",
". 	c #DDDDDD",
"+ 	c #434E43",
"@ 	c #B1B1B1",
"# 	c #E0E0E0",
"$ 	c #202E21",
"% 	c #036405",
"& 	c #081809",
"* 	c #9A9D9A",
"= 	c #DEDEDE",
"- 	c #202C21",
"; 	c #058208",
"> 	c #01FF06",
", 	c #01DD05",
"' 	c #09240A",
") 	c #717871",
"! 	c #222E23",
"~ 	c #057C08",
"{ 	c #01E705",
"] 	c #0A310B",
"^ 	c #5C655C",
"/ 	c #E4E4E4",
"( 	c #2A352A",
"_ 	c #077809",
": 	c #01F306",
"< 	c #09470A",
"[ 	c #404C41",
"} 	c #E8E8E8",
"| 	c #E5E5E5",
"1 	c #2D382D",
"2 	c #07740A",
"3 	c #01F906",
"4 	c #085A0A",
"5 	c #2F3C30",
"6 	c #E1E1E1",
"7 	c #354136",
"8 	c #09690B",
"9 	c #01FE06",
"0 	c #067608",
"a 	c #1D291D",
"b 	c #D5D5D5",
"c 	c #E9E9E9",
"d 	c #374237",
"e 	c #09650A",
"f 	c #049007",
"g 	c #142014",
"h 	c #CACACA",
"i 	c #EBEBEB",
"j 	c #414C41",
"k 	c #0A5A0B",
"l 	c #01FC06",
"m 	c #01A405",
"n 	c #0C160C",
"o 	c #B8B8B8",
"p 	c #444E44",
"q 	c #0A570B",
"r 	c #01BD04",
"s 	c #091509",
"t 	c #A0A1A0",
"u 	c #495249",
"v 	c #0B4D0C",
"w 	c #01FA06",
"x 	c #01CC05",
"y 	c #081908",
"z 	c #898E89",
"A 	c #515B52",
"B 	c #0B4A0C",
"C 	c #01DE05",
"D 	c #09250A",
"E 	c #697069",
"F 	c #555E55",
"G 	c #0A410B",
"H 	c #01F606",
"I 	c #01EC06",
"J 	c #0A380B",
"K 	c #525C52",
"L 	c #606860",
"M 	c #0B3E0C",
"N 	c #01F506",
"O 	c #01F406",
"P 	c #09490A",
"Q 	c #3E4A3E",
"R 	c #646C64",
"S 	c #0A360B",
"T 	c #01F106",
"U 	c #01FB06",
"V 	c #076409",
"W 	c #283428",
"X 	c #727972",
"Y 	c #0B330C",
"Z 	c #01F006",
"` 	c #057F08",
" .	c #1C281C",
"..	c #D4D4D4",
"+.	c #777E77",
"@.	c #0B310C",
"#.	c #01EF06",
"$.	c #029205",
"%.	c #0F1A10",
"&.	c #C4C4C4",
"*.	c #7D817D",
"=.	c #0B2A0B",
"-.	c #01EA06",
";.	c #01AE05",
">.	c #0C180C",
",.	c #B6B6B6",
"'.	c #888C88",
").	c #0B280B",
"!.	c #01E805",
"~.	c #01BF04",
"{.	c #9E9F9E",
"].	c #989A98",
"^.	c #0A1E0B",
"/.	c #084809",
"(.	c #095C0B",
"_.	c #017B04",
":.	c #019904",
"<.	c #01B704",
"[.	c #01D505",
"}.	c #01CA05",
"|.	c #091909",
"1.	c #929592",
"2.	c #9FA09F",
"3.	c #0A1C0B",
"4.	c #01DA05",
"5.	c #01EE06",
"6.	c #01C705",
"7.	c #019F04",
"8.	c #067909",
"9.	c #105111",
"0.	c #0E2B0F",
"a.	c #01A104",
"b.	c #01F806",
"c.	c #020502",
"d.	c #8F8F8F",
"e.	c #757875",
"f.	c #505D51",
"g.	c #314131",
"h.	c #172517",
"i.	c #040804",
"j.	c #081408",
"k.	c #0E310F",
"l.	c #0D4F0F",
"m.	c #076F09",
"n.	c #018E03",
"o.	c #01AC04",
"p.	c #09220A",
"q.	c #A5A6A5",
"r.	c #0A1A0A",
"s.	c #01D605",
"t.	c #01B204",
"u.	c #028B04",
"v.	c #0D630E",
"w.	c #113C11",
"x.	c #091409",
"y.	c #070C07",
"z.	c #233023",
"A.	c #4B544B",
"B.	c #797979",
"C.	c #9E9E9E",
"D.	c #3E463F",
"E.	c #0E2C0E",
"F.	c #C1C1C1",
"G.	c #D9D9D9",
"H.	c #BDBDBD",
"I.	c #A1A1A1",
"J.	c #858585",
"K.	c #626862",
"L.	c #3E4B3E",
"M.	c #212F21",
"N.	c #0B120B",
"O.	c #071508",
"P.	c #000000",
"Q.	c #B0B1B0",
"R.	c #030703",
"S.	c #082909",
"T.	c #0E270E",
"U.	c #141F14",
"V.	c #374437",
"W.	c #656865",
"X.	c #8D8D8D",
"Y.	c #D6D6D6",
"Z.	c #01B904",
"`.	c #0C5B0E",
" +	c #959595",
".+	c #E6E6E6",
"++	c #C8C8C8",
"@+	c #ABABAB",
"#+	c #C2C2C2",
"$+	c #B4B4B4",
"%+	c #7C7C7C",
"&+	c #A0A0A0",
"*+	c #162316",
"=+	c #01D905",
"-+	c #018A04",
";+	c #636A63",
">+	c #01BA04",
",+	c #2D3C2E",
"'+	c #0A1B0B",
")+	c #091009",
"!+	c #0F3B10",
"~+	c #091709",
"{+	c #989898",
"]+	c #0F4610",
"^+	c #A8A8A8",
"/+	c #777877",
"(+	c #037C05",
"_+	c #057507",
":+	c #7B7C7B",
"<+	c #515C51",
"[+	c #019C04",
"}+	c #01A404",
"|+	c #455245",
"1+	c #2E3E2F",
"2+	c #01BC04",
"3+	c #01D205",
"4+	c #192519",
"5+	c #131F13",
"6+	c #01DC05",
"7+	c #040904",
"8+	c #E7E7E7",
"9+	c #0E2F0E",
"0+	c #BEBEBE",
"a+	c #D2D2D2",
"b+	c #0B1D0B",
"c+	c #0C5E0D",
"d+	c #929292",
"e+	c #0F3D10",
"f+	c #018D04",
"g+	c #606760",
"h+	c #0B5D0D",
"i+	c #2C3B2D",
"j+	c #767876",
"k+	c #027F05",
"l+	c #01EB06",
"m+	c #090F09",
"n+	c #4E5A4F",
"o+	c #019E04",
"p+	c #09180A",
"q+	c #D3D3D3",
"r+	c #2C3B2C",
"s+	c #01BE04",
"t+	c #0F4710",
"u+	c #121D12",
"v+	c #01DF05",
"w+	c #047707",
"x+	c #7A7B7A",
"y+	c #01A504",
"z+	c #445144",
"A+	c #D0D0D0",
"B+	c #0B1F0C",
"C+	c #01D405",
"D+	c #182518",
"E+	c #0F3F10",
"F+	c #050A05",
"G+	c #0B5E0D",
"H+	c #01E505",
"I+	c #01D105",
"J+	c #01A304",
"K+	c #018F03",
"L+	c #007903",
"M+	c #08620A",
"N+	c #0C4C0D",
"O+	c #0D370E",
"P+	c #0B210B",
"Q+	c #060A06",
"R+	c #737673",
"S+	c #014302",
"T+	c #027E05",
"U+	c #0A6A0C",
"V+	c #105011",
"W+	c #113C12",
"X+	c #081208",
"Y+	c #020402",
"Z+	c #0E170E",
"`+	c #1E2B1E",
" @	c #324033",
".@	c #4C554D",
"+@	c #656965",
"@@	c #7B7B7B",
"#@	c #A7A7A7",
"$@	c #B9B9B9",
"%@	c #CDCDCD",
"&@	c #AAACAA",
"*@	c #596559",
"=@	c #747874",
"-@	c #8B8B8B",
";@	c #C9C9C9",
">@	c #DCDCDC",
"                                                                                                ",
"                                                                                                ",
"                                            . + @                                               ",
"                                          # $ % & *                                             ",
"                                        = - ; > , ' )                                           ",
"                                      # ! ~ > > > { ] ^                                         ",
"                                    / ( _ > > > > > : < [ }                                     ",
"                                  | 1 2 > > > > > > > 3 4 5 6                                   ",
"                                } 7 8 9 > > > > > > > > 9 0 a b                                 ",
"                              c d e 9 > > > > > > > > > > > f g h                               ",
"                            i j k l > > > > > > > > > > > > > m n o                             ",
"                            p q l > > > > > > > > > > > > > > > r s t                           ",
"                          u v w > > > > > > > > > > > > > > > > > x y z                         ",
"                        A B 3 > > > > > > > > > > > > > > > > > > > C D E                       ",
"                      F G H > > > > > > > > > > > > > > > > > > > > > I J K                     ",
"                    L M N > > > > > > > > > > > > > > > > > > > > > > > O P Q }                 ",
"                  R S T > > > > > > > > > > > > > > > > > > > > > > > > > U V W .               ",
"                X Y Z > > > > > > > > > > > > > > > > > > > > > > > > > > > 9 `  ...            ",
"              +.@.#.> > > > > > > > > > > > > > > > > > > > > > > > > > > > > > $.%.&.          ",
"            *.=.-.> > > > > > > > > > > > > > > > > > > > > > > > > > > > > > > > ;.>.,.        ",
"          '.).!.> > > > > > > > > > > > > > > > > > > > > > > > > > > > > > > > > > ~.s {.      ",
"        ].^.C > > > > > > > > > > > > > > > > > > > > > H /.(._.:.<.[.N > > > > > > > }.|.1.    ",
"      2.3.4.> > > > > > 5.6.7.8.9.0.a.> > > > > > > > > b.c.d.e.f.g.h.i.j.k.l.m.n.o.}.!.4.p.+.  ",
"    q.r.s.U 4.t.u.v.w.x.y.z.A.B.C.D.:.> > > > > > > > > > E.F.          G.H.I.J.K.L.M.N.i.O.P.e.",
"  Q.R.S.T.R.U.V.W.X.@ Y.          g.Z.> > > > > > > > > > `. +                          .+++@+#+",
"  $+%+&+&.}                       *+=+> > > > > > > > > > -+;+                                  ",
"                                  R.3 > > > > > > > > > > >+,+                                  ",
"                                ..'+> > > > > > > > > > > -.)+                                  ",
"                                ,.!+> > > > > > > > > > > > ~+b                                 ",
"                                {+`.> > > > > > > > > > > > ]+^+                                ",
"                                /+(+> > > > > > > > > > > > _+:+                                ",
"                                <+[+> > > > > > > > > > > > }+|+                                ",
"                                1+2+> > > > > > > > > > > > 3+4+                                ",
"                                5+6+> > > > > > > > > > > > w 7+8+                              ",
"                                R.w > > > > > > > > > > > > > 9+0+                              ",
"                              a+b+> > > > > > > > > > > > > > c+d+                              ",
"                              $+e+> > > > > > > > > > > > > > f+g+                              ",
"                               +h+> > > > > > > > > > > > > > 2+i+                              ",
"                              j+k+> > > > > > > > > > > > > > l+m+                              ",
"                              n+o+> > > > > > > > > > > > > > > p+q+                            ",
"                              r+s+> > > > > > > > > > > > > > > t+^+                            ",
"                              u+v+> > > > > > > > > > > > > > > w+x+                            ",
"                            i R.U > > > > > > > > > > > > > > > y+z+                            ",
"                            A+B+> > > > > > > > > > > > > > > > C+D+                            ",
"                            @ E+> > > > > > > > > > > > > > > > U F+|                           ",
"                             +G+> > > > > > w H+I+Z.J+K+L+M+N+O+P+Q+G.                          ",
"                            R+S+T+U+V+W+T.X+Y+Z+`+ @.@+@@@d+#@$@%@/                             ",
"                            &@*@=@-@I.,.;@>@                                                    "};
