/* XPM */
static char * arrowzn_xpm[] = {
"48 48 267 2",
"  	c None",
". 	c #DCDCDC",
"+ 	c #CACACA",
"@ 	c #B8B8B8",
"# 	c #A5A5A5",
"$ 	c #939393",
"% 	c #7D7D7D",
"& 	c #62636C",
"* 	c #616269",
"= 	c #DFDFDF",
"- 	c #AAAAAA",
"; 	c #989898",
"> 	c #868686",
", 	c #6C6C73",
"' 	c #4E505F",
") 	c #3A3B4D",
"! 	c #282A3B",
"~ 	c #171828",
"{ 	c #0A0B14",
"] 	c #010102",
"^ 	c #070813",
"/ 	c #0A0C26",
"( 	c #090D3B",
"_ 	c #080D4E",
": 	c #030B62",
"< 	c #000A77",
"[ 	c #010B83",
"} 	c #030407",
"| 	c #595A62",
"1 	c #0A0D2C",
"2 	c #0F155B",
"3 	c #0A1270",
"4 	c #010D98",
"5 	c #010EAD",
"6 	c #0110C1",
"7 	c #0112D5",
"8 	c #0113E8",
"9 	c #0115FC",
"0 	c #0115FF",
"a 	c #0111D4",
"b 	c #1A1B27",
"c 	c #64656B",
"d 	c #010C8D",
"e 	c #010EAE",
"f 	c #3B3D4A",
"g 	c #7A7A7A",
"h 	c #020C7C",
"i 	c #010B8B",
"j 	c #66676C",
"k 	c #8B8B8B",
"l 	c #091069",
"m 	c #091168",
"n 	c #8C8C8C",
"o 	c #9D9D9D",
"p 	c #0D1356",
"q 	c #0F1343",
"r 	c #AEAEAE",
"s 	c #0F1344",
"t 	c #0B0D1F",
"u 	c #CFCFCF",
"v 	c #BFBFBF",
"w 	c #0F1132",
"x 	c #0114F8",
"y 	c #D0D0D0",
"z 	c #0112D7",
"A 	c #161824",
"B 	c #E2E2E2",
"C 	c #06060E",
"D 	c #010FB3",
"E 	c #363746",
"F 	c #020305",
"G 	c #0115FA",
"H 	c #010C90",
"I 	c #5F6067",
"J 	c #0B0C14",
"K 	c #0113E9",
"L 	c #08106D",
"M 	c #888888",
"N 	c #181925",
"O 	c #0F1348",
"P 	c #A8A8A8",
"Q 	c #272837",
"R 	c #0110C5",
"S 	c #0C0E24",
"T 	c #383947",
"U 	c #010FB2",
"V 	c #E9E9E9",
"W 	c #4D4E59",
"X 	c #010DA0",
"Y 	c #0112DC",
"Z 	c #13141F",
"` 	c #63636A",
" .	c #010C8E",
"..	c #010FB9",
"+.	c #313241",
"@.	c #797979",
"#.	c #020C7D",
"$.	c #010C95",
"%.	c #585961",
"&.	c #8A8A8A",
"*.	c #08106A",
"=.	c #060E72",
"-.	c #828282",
";.	c #9C9C9C",
">.	c #0D1357",
",.	c #0E134D",
"'.	c #A4A4A4",
").	c #ADADAD",
"!.	c #0F1345",
"~.	c #0D0F29",
"{.	c #C6C6C6",
"].	c #BEBEBE",
"^.	c #0F1233",
"/.	c #0115FD",
"(.	c #040409",
"_.	c #E7E7E7",
":.	c #74757A",
"<.	c #535461",
"[.	c #5D5E67",
"}.	c #696970",
"|.	c #777778",
"1.	c #808080",
"2.	c #909090",
"3.	c #A0A0A0",
"4.	c #B0B0B0",
"5.	c #C0C0C0",
"6.	c #C8C8C8",
"7.	c #B2B2B2",
"8.	c #0C0D21",
"9.	c #0113E3",
"0.	c #0E0F18",
"a.	c #D5D5D5",
"b.	c #BBBBBB",
"c.	c #A7A7A7",
"d.	c #767678",
"e.	c #595A65",
"f.	c #3B3C4B",
"g.	c #58595F",
"h.	c #747579",
"i.	c #010104",
"j.	c #000A7A",
"k.	c #010B88",
"l.	c #010B80",
"m.	c #010B77",
"n.	c #07106E",
"o.	c #0A1166",
"p.	c #0C125C",
"q.	c #0E1454",
"r.	c #0F134B",
"s.	c #111543",
"t.	c #10133A",
"u.	c #101332",
"v.	c #0E1028",
"w.	c #0D0F21",
"x.	c #0B0F43",
"y.	c #0110BF",
"z.	c #1B1B24",
"A.	c #838383",
"B.	c #67676A",
"C.	c #4B4C56",
"D.	c #2F303E",
"E.	c #1B1C28",
"F.	c #0A0A11",
"G.	c #020205",
"H.	c #0A0B1A",
"I.	c #0F1134",
"J.	c #0D124B",
"K.	c #091063",
"L.	c #010B7D",
"M.	c #00096F",
"N.	c #010204",
"O.	c #9C9C9D",
"P.	c #737377",
"Q.	c #0B0E29",
"R.	c #0113E7",
"S.	c #0111CF",
"T.	c #0E1345",
"U.	c #081172",
"V.	c #010C8C",
"W.	c #010DA3",
"X.	c #010FBB",
"Y.	c #0111D3",
"Z.	c #0113EA",
"`.	c #0112DF",
" +	c #0A0C1F",
".+	c #969698",
"++	c #808084",
"@+	c #0A0B1F",
"#+	c #0112DD",
"$+	c #9D9D9F",
"%+	c #828285",
"&+	c #0A0C1E",
"*+	c #959597",
"=+	c #838386",
"-+	c #0112DE",
";+	c #0113E4",
">+	c #0B0D24",
",+	c #919194",
"'+	c #848487",
")+	c #090B1E",
"!+	c #0113E6",
"~+	c #0B0D25",
"{+	c #868689",
"]+	c #8C8C8E",
"^+	c #0B0C1F",
"/+	c #0B0D26",
"(+	c #838387",
"_+	c #8D8D8F",
":+	c #0113EC",
"<+	c #0B0E2D",
"[+	c #7F7F84",
"}+	c #8E8E90",
"|+	c #0114ED",
"1+	c #0B0E2F",
"2+	c #727377",
"3+	c #8F8F91",
"4+	c #0B0C1E",
"5+	c #0114F1",
"6+	c #0B0F36",
"7+	c #6D6D73",
"8+	c #909092",
"9+	c #0114F2",
"0+	c #0B0F39",
"a+	c #696A70",
"b+	c #919193",
"c+	c #0114F4",
"d+	c #0B0F3B",
"e+	c #5E5F65",
"f+	c #929294",
"g+	c #0112DB",
"h+	c #0114F7",
"i+	c #5A5B62",
"j+	c #939395",
"k+	c #0B1045",
"l+	c #56575F",
"m+	c #9A9A9C",
"n+	c #0B104F",
"o+	c #4C4D56",
"p+	c #9B9B9D",
"q+	c #0A0B1B",
"r+	c #0112D6",
"s+	c #0115FB",
"t+	c #0A1051",
"u+	c #4A4A54",
"v+	c #9C9C9E",
"w+	c #0A1054",
"x+	c #41424B",
"y+	c #9E9E9F",
"z+	c #09105E",
"A+	c #3D3E48",
"B+	c #091062",
"C+	c #3B3C46",
"D+	c #9F9FA0",
"E+	c #0A0C1A",
"F+	c #0115FE",
"G+	c #08106C",
"H+	c #32333E",
"I+	c #E8E8E8",
"J+	c #A0A0A1",
"K+	c #081070",
"L+	c #2F303B",
"M+	c #9A9A9A",
"N+	c #0C0D1E",
"O+	c #25262F",
"P+	c #E0E0E0",
"Q+	c #40414E",
"R+	c #DDDDDD",
"                                                    . + @ # $ % & *                             ",
"                              = - ; > , ' ) ! ~ { ] ^ / ( _ : < [ }                             ",
"                              | 1 2 3 [ 4 5 6 7 8 9 0 0 0 0 0 0 a b                             ",
"                              c d 0 0 0 0 0 0 0 0 0 0 0 0 0 0 0 e f                             ",
"                              g h 0 0 0 0 0 0 0 0 0 0 0 0 0 0 0 i j                             ",
"                              k l 0 0 0 0 0 0 0 0 0 0 0 0 0 0 0 m n                             ",
"                              o p 0 0 0 0 0 0 0 0 0 0 0 0 0 0 0 q r                             ",
"                              r s 0 0 0 0 0 0 0 0 0 0 0 0 0 0 0 t u                             ",
"                              v w 0 0 0 0 0 0 0 0 0 0 0 0 0 0 x }                               ",
"                              y t 0 0 0 0 0 0 0 0 0 0 0 0 0 0 z A                               ",
"                              B C 0 0 0 0 0 0 0 0 0 0 0 0 0 0 D E                               ",
"                                F G 0 0 0 0 0 0 0 0 0 0 0 0 0 H I                               ",
"                                J K 0 0 0 0 0 0 0 0 0 0 0 0 0 L M                               ",
"                                N z 0 0 0 0 0 0 0 0 0 0 0 0 0 O P                               ",
"                                Q R 0 0 0 0 0 0 0 0 0 0 0 0 0 S +                               ",
"                                T U 0 0 0 0 0 0 0 0 0 0 0 0 G } V                               ",
"                                W X 0 0 0 0 0 0 0 0 0 0 0 0 Y Z                                 ",
"                                `  .0 0 0 0 0 0 0 0 0 0 0 0 ..+.                                ",
"                                @.#.0 0 0 0 0 0 0 0 0 0 0 0 $.%.                                ",
"                                &.*.0 0 0 0 0 0 0 0 0 0 0 0 =.-.                                ",
"                                ;.>.0 0 0 0 0 0 0 0 0 0 0 0 ,.'.                                ",
"                                ).!.0 0 0 0 0 0 0 0 0 0 0 0 ~.{.                                ",
"                                ].^.0 0 0 0 0 0 0 0 0 0 0 /.(._.                                ",
"  :.<.[.}.|.1.M 2.; 3.P 4.@ 5.6.7.8.0 0 0 0 0 0 0 0 0 0 0 9.0.              V a.b.c.2.d.e.f.g.  ",
"  h.i.j.k.l.m.n.o.p.q.r.s.t.u.v.w.x.0 0 0 0 0 0 0 0 0 0 0 y.z.; A.B.C.D.E.F.G.H.I.J.K.L.M.N.O.  ",
"    P.Q.R.0 0 0 0 0 0 0 0 0 0 0 0 0 0 0 0 0 0 0 0 0 0 0 0 S.T.2 U.V.W.X.Y.Z.0 0 0 0 0 `. +.+    ",
"      ++@+`.0 0 0 0 0 0 0 0 0 0 0 0 0 0 0 0 0 0 0 0 0 0 0 0 0 0 0 0 0 0 0 0 0 0 0 0 #+t $+      ",
"        %+@+`.0 0 0 0 0 0 0 0 0 0 0 0 0 0 0 0 0 0 0 0 0 0 0 0 0 0 0 0 0 0 0 0 0 0 `.&+*+        ",
"          =+@+-+0 0 0 0 0 0 0 0 0 0 0 0 0 0 0 0 0 0 0 0 0 0 0 0 0 0 0 0 0 0 0 0 ;+>+,+          ",
"            '+)+-+0 0 0 0 0 0 0 0 0 0 0 0 0 0 0 0 0 0 0 0 0 0 0 0 0 0 0 0 0 0 !+~+{+            ",
"              ]+^+-+0 0 0 0 0 0 0 0 0 0 0 0 0 0 0 0 0 0 0 0 0 0 0 0 0 0 0 0 R./+(+              ",
"                _+^+#+0 0 0 0 0 0 0 0 0 0 0 0 0 0 0 0 0 0 0 0 0 0 0 0 0 0 :+<+[+                ",
"                  }+&+#+0 0 0 0 0 0 0 0 0 0 0 0 0 0 0 0 0 0 0 0 0 0 0 0 |+1+2+                  ",
"                    3+4+Y 0 0 0 0 0 0 0 0 0 0 0 0 0 0 0 0 0 0 0 0 0 0 5+6+7+                    ",
"                      8+4+Y 0 0 0 0 0 0 0 0 0 0 0 0 0 0 0 0 0 0 0 0 9+0+a+                      ",
"                        b+4+Y 0 0 0 0 0 0 0 0 0 0 0 0 0 0 0 0 0 0 c+d+e+                        ",
"                          f+4+g+0 0 0 0 0 0 0 0 0 0 0 0 0 0 0 0 h+x.i+                          ",
"                            j+4+g+0 0 0 0 0 0 0 0 0 0 0 0 0 0 x k+l+                            ",
"                              m+t g+0 0 0 0 0 0 0 0 0 0 0 0 G n+o+                              ",
"                                p+q+r+0 0 0 0 0 0 0 0 0 0 s+t+u+                                ",
"                                  v+H.7 0 0 0 0 0 0 0 0 s+w+x+                                  ",
"                                    y+H.7 0 0 0 0 0 0 /.z+A+                                    ",
"                                      y+H.7 0 0 0 0 /.B+C+                                      ",
"                                        D+E+a 0 0 F+G+H+I+                                      ",
"                                          J+E+a 0 K+L+_.                                        ",
"                                            M+N+n.O+P+                                          ",
"                                              p+Q+R+                                            ",
"                                                                                                "};
