/* XPM */
static char * arrowyp_xpm[] = {
"48 48 295 2",
"  	c None",
". 	c #E8E8E8",
"+ 	c #C0C0C0",
"@ 	c #979797",
"# 	c #676F67",
"$ 	c #344534",
"% 	c #101C10",
"& 	c #212921",
"* 	c #E6E6E6",
"= 	c #B8B8B8",
"- 	c #909090",
"; 	c #5E685F",
"> 	c #293829",
", 	c #091009",
"' 	c #0D210D",
") 	c #114B12",
"! 	c #07770A",
"~ 	c #01A104",
"{ 	c #01D405",
"] 	c #01A404",
"^ 	c #3A483B",
"/ 	c #989898",
"( 	c #6B706B",
"_ 	c #374937",
": 	c #0E180E",
"< 	c #091509",
"[ 	c #0F4310",
"} 	c #076E09",
"| 	c #019904",
"1 	c #01C305",
"2 	c #01EF06",
"3 	c #01FF06",
"4 	c #067208",
"5 	c #7B7C7B",
"6 	c #C8C8C8",
"7 	c #A0A0A0",
"8 	c #747874",
"9 	c #405140",
"0 	c #192919",
"a 	c #071007",
"b 	c #113A12",
"c 	c #0A660C",
"d 	c #019003",
"e 	c #01EE06",
"f 	c #0E380F",
"g 	c #B2B2B2",
"h 	c #D0D0D0",
"i 	c #A8A8A8",
"j 	c #7F807F",
"k 	c #495949",
"l 	c #1A281B",
"m 	c #070E07",
"n 	c #103211",
"o 	c #0F5C10",
"p 	c #038806",
"q 	c #01B204",
"r 	c #01E505",
"s 	c #01F806",
"t 	c #050A05",
"u 	c #E4E4E4",
"v 	c #DBDBDB",
"w 	c #B0B0B0",
"x 	c #888888",
"y 	c #536154",
"z 	c #273927",
"A 	c #091109",
"B 	c #0F290F",
"C 	c #0E540F",
"D 	c #037F06",
"E 	c #01DD05",
"F 	c #01FA06",
"G 	c #01C705",
"H 	c #1F2D1F",
"I 	c #818381",
"J 	c #010301",
"K 	c #103A10",
"L 	c #0B670D",
"M 	c #019504",
"N 	c #01C005",
"O 	c #01EC06",
"P 	c #019103",
"Q 	c #586058",
"R 	c #E0E0E0",
"S 	c #313B31",
"T 	c #094E0A",
"U 	c #01F606",
"V 	c #0C550D",
"W 	c #E9E9E9",
"X 	c #4A524A",
"Y 	c #0A360B",
"Z 	c #01EB06",
"` 	c #0A1D0B",
" .	c #CCCCCC",
"..	c #696F69",
"+.	c #0B280C",
"@.	c #01E005",
"#.	c #01E405",
"$.	c #0B130B",
"%.	c #848884",
"&.	c #091909",
"*.	c #01CE05",
"=.	c #01AC04",
"-.	c #394739",
";.	c #A1A2A1",
">.	c #09130A",
",.	c #01B804",
"'.	c #057408",
").	c #7A7B7A",
"!.	c #B3B3B3",
"~.	c #0C150C",
"{.	c #03A506",
"].	c #0E3A0F",
"^.	c #B1B1B1",
"/.	c #131D14",
"(.	c #058707",
"_.	c #01F906",
":.	c #050B05",
"<.	c #D8D8D8",
"[.	c #232E24",
"}.	c #096E0B",
"|.	c #01FD06",
"1.	c #01CA05",
"2.	c #1E2C1E",
"3.	c #E1E1E1",
"4.	c #343D34",
"5.	c #0B510D",
"6.	c #01F706",
"7.	c #586159",
"8.	c #262C26",
"9.	c #076709",
"0.	c #0B5A0C",
"a.	c #949494",
"b.	c #E7E7E7",
"c.	c #556056",
"d.	c #09260A",
"e.	c #01D005",
"f.	c #0C210C",
"g.	c #C9C9C9",
"h.	c #BBBBBB",
"i.	c #162016",
"j.	c #01E605",
"k.	c #0A170A",
"l.	c #01AE05",
"m.	c #01AE04",
"n.	c #384738",
"o.	c #DEDEDE",
"p.	c #3F4A3F",
"q.	c #0B390C",
"r.	c #01E105",
"s.	c #057607",
"t.	c #787A78",
"u.	c #B7B7B7",
"v.	c #121D13",
"w.	c #077F09",
"x.	c #01FB06",
"y.	c #0E3C0F",
"z.	c #737873",
"A.	c #0A1B0A",
"B.	c #01BB04",
"C.	c #050C05",
"D.	c #323E32",
"E.	c #0B460C",
"F.	c #01E905",
"G.	c #01CC05",
"H.	c #1D2B1D",
"I.	c #B4B4B4",
"J.	c #111B11",
"K.	c #067909",
"L.	c #01D105",
"M.	c #061906",
"N.	c #01B304",
"O.	c #545E54",
"P.	c #707870",
"Q.	c #081A09",
"R.	c #01ED06",
"S.	c #0B210B",
"T.	c #6A6A6A",
"U.	c #0B5C0D",
"V.	c #939393",
"W.	c #CFCFCF",
"X.	c #263226",
"Y.	c #0A540B",
"Z.	c #01F006",
"`.	c #0A400B",
" +	c #666C66",
".+	c #091A09",
"++	c #01E305",
"@+	c #0B210C",
"#+	c #CACACA",
"$+	c #9C9D9C",
"%+	c #0A140A",
"&+	c #039006",
"*+	c #01FE06",
"=+	c #077309",
"-+	c #384238",
";+	c #777B77",
">+	c #0A300B",
",+	c #01F406",
"'+	c #01E805",
")+	c #0A110A",
"!+	c #4F5850",
"~+	c #09240A",
"{+	c #01CD05",
"]+	c #01A004",
"^+	c #09510B",
"/+	c #01B104",
"(+	c #364536",
"_+	c #C6C6C6",
":+	c #1D281D",
"<+	c #085C0A",
"[+	c #01F206",
"}+	c #081208",
"|+	c #C3C3C3",
"1+	c #303C30",
"2+	c #067A08",
"3+	c #047807",
"4+	c #777977",
"5+	c #868886",
"6+	c #091309",
"7+	c #02A105",
"8+	c #091F09",
"9+	c #989998",
"0+	c #DDDDDD",
"a+	c #172118",
"b+	c #029B05",
"c+	c #0E3F0F",
"d+	c #AFAFAF",
"e+	c #535E54",
"f+	c #09270A",
"g+	c #0B4C0C",
"h+	c #585F58",
"i+	c #C2C2C2",
"j+	c #0A130A",
"k+	c #01C905",
"l+	c #01FC06",
"m+	c #060E06",
"n+	c #0E160E",
"o+	c #019604",
"p+	c #057F07",
"q+	c #2A342A",
"r+	c #A4A5A4",
"s+	c #01E205",
"t+	c #CDCDCD",
"u+	c #111A11",
"v+	c #029705",
"w+	c #01AA05",
"x+	c #121B12",
"y+	c #DADADA",
"z+	c #848784",
"A+	c #0A280B",
"B+	c #018603",
"C+	c #555F55",
"D+	c #C7C7C7",
"E+	c #0E170E",
"F+	c #02A705",
"G+	c #01D905",
"H+	c #B6B6B6",
"I+	c #545B54",
"J+	c #010501",
"K+	c #929292",
"L+	c #C5C5C5",
"M+	c #0D170D",
"N+	c #01F306",
"O+	c #0A2A0B",
"P+	c #878987",
"Q+	c #5D625D",
"R+	c #D4D4D4",
"S+	c #CBCBCB",
"T+	c #101B10",
"U+	c #02A305",
"V+	c #0A4C0B",
"W+	c #101A10",
"X+	c #02A505",
"Y+	c #057F08",
"Z+	c #2E392E",
"`+	c #0F1A10",
" @	c #01A705",
".@	c #01AD04",
"+@	c #101A11",
"@@	c #01AF05",
"#@	c #01D605",
"$@	c #081308",
"%@	c #B9B9B9",
"&@	c #C4C4C4",
"*@	c #01B105",
"=@	c #01F106",
"-@	c #0D180E",
";@	c #084F0A",
">@	c #535C54",
",@	c #058607",
"'@	c #283228",
")@	c #018703",
"!@	c #0D140D",
"~@	c #19241A",
"{@	c #ABABAB",
"                                                                                                ",
"                                                                                                ",
"                                                                                . + @ # $ % &   ",
"                                                                    * = - ; > , ' ) ! ~ { ] ^   ",
"                                                        . + / ( _ : < [ } | 1 2 3 3 3 3 3 4 5   ",
"                                              6 7 8 9 0 a b c d 1 e 3 3 3 3 3 3 3 3 3 3 3 f g   ",
"                                  h i j k l m n o p q r 3 3 3 3 3 3 3 3 3 3 3 3 3 3 3 3 s t u   ",
"                      v w x y z A B C D q E F 3 3 3 3 3 3 3 3 3 3 3 3 3 3 3 3 3 3 3 3 3 G H     ",
"                    I J K L M N O 3 3 3 3 3 3 3 3 3 3 3 3 3 3 3 3 3 3 3 3 3 3 3 3 3 3 3 P Q     ",
"                    R S T U 3 3 3 3 3 3 3 3 3 3 3 3 3 3 3 3 3 3 3 3 3 3 3 3 3 3 3 3 3 3 V @     ",
"                      W X Y Z 3 3 3 3 3 3 3 3 3 3 3 3 3 3 3 3 3 3 3 3 3 3 3 3 3 3 3 3 3 `  .    ",
"                          ..+.@.3 3 3 3 3 3 3 3 3 3 3 3 3 3 3 3 3 3 3 3 3 3 3 3 3 3 3 #.$.      ",
"                            %.&.*.3 3 3 3 3 3 3 3 3 3 3 3 3 3 3 3 3 3 3 3 3 3 3 3 3 3 =.-.      ",
"                              ;.>.,.3 3 3 3 3 3 3 3 3 3 3 3 3 3 3 3 3 3 3 3 3 3 3 3 3 '.).      ",
"                                !.~.{.3 3 3 3 3 3 3 3 3 3 3 3 3 3 3 3 3 3 3 3 3 3 3 3 ].^.      ",
"                                  6 /.(.3 3 3 3 3 3 3 3 3 3 3 3 3 3 3 3 3 3 3 3 3 3 _.:.u       ",
"                                    <.[.}.|.3 3 3 3 3 3 3 3 3 3 3 3 3 3 3 3 3 3 3 3 1.2.        ",
"                                      3.4.5.6.3 3 3 3 3 3 3 3 3 3 3 3 3 3 3 3 3 3 3 P 7.        ",
"                                        . 8.9.3 3 3 3 3 3 3 3 3 3 3 3 3 3 3 3 3 3 3 0.a.        ",
"                                      b.c.d.e.3 3 3 3 3 3 3 3 3 3 3 3 3 3 3 3 3 3 3 f.g.        ",
"                                    h.i.}.6.3 3 3 3 3 3 3 3 3 3 3 3 3 3 3 3 3 3 3 j.$.          ",
"                                  %.k.l.3 3 3 3 3 3 3 3 3 3 3 3 3 3 3 3 3 3 3 3 3 m.n.          ",
"                              o.p.q.r.3 3 3 3 3 3 3 3 3 3 3 3 3 3 3 3 3 3 3 3 3 3 s.t.          ",
"                            u.v.w.x.3 3 3 3 3 3 3 3 3 3 3 3 3 3 3 3 3 3 3 3 3 3 3 y.w           ",
"                          z.A.B.3 3 3 3 3 3 3 3 3 3 3 3 3 3 3 3 3 3 3 3 3 3 3 3 F C.u           ",
"                      <.D.E.F.3 3 3 3 3 3 3 3 3 3 3 3 3 3 3 3 3 3 3 3 3 3 3 3 3 G.H.            ",
"                    I.J.K.x.3 3 3 3 3 3 3 3 3 3 3 3 3 3 L.M.N.3 3 3 3 3 3 3 3 3 M O.            ",
"                  P.Q.B.3 3 3 3 3 3 3 3 3 3 3 3 3 3 3 R.S.T.>.L.3 3 3 3 3 3 3 3 U.V.            ",
"              W.X.Y.Z.3 3 3 3 3 3 3 3 3 3 3 3 3 3 3 x.`. +  ;..+++3 3 3 3 3 3 3 @+#+            ",
"            $+%+&+*+3 3 3 3 3 3 3 3 3 3 3 3 3 3 3 3 =+-+      ;+>+,+3 3 3 3 3 '+)+              ",
"        b.!+~+{+3 3 3 3 3 3 3 3 3 3 3 3 3 3 3 3 3 ]+i.o.        !+^+|.3 3 3 3 /+(+              ",
"      _+:+<+[+3 3 3 3 3 3 3 3 3 3 3 3 3 3 3 3 3 {+}+|+            1+2+3 3 3 3 3+4+              ",
"    5+6+7+3 3 3 3 3 3 3 3 3 3 3 3 3 3 3 3 3 3 Z 8+9+              0+a+b+3 3 3 c+d+              ",
"  e+f+e.3 3 3 3 3 3 3 3 3 3 3 3 3 3 3 3 3 3 |.g+h+                  i+j+k+3 l+m+3.              ",
"0+n+o+3 3 3 3 3 3 3 3 3 3 3 3 3 3 3 3 3 3 3 p+q+W                     r+&.s+e.l                 ",
"  t+u+v+3 3 3 3 3 3 3 3 3 3 3 3 3 3 3 3 3 w+x+y+                        z+A+B+C+                ",
"    D+E+F+3 3 3 3 3 3 3 3 3 3 3 3 3 3 3 G+6+H+                            I+J+K+                ",
"      L+M+w+3 3 3 3 3 3 3 3 3 3 3 3 3 N+O+P+                                Q+R+                ",
"        S+T+U+3 3 3 3 3 3 3 3 3 3 3 |.V+h+                                                      ",
"          #+W+X+3 3 3 3 3 3 3 3 3 3 Y+Z+                                                        ",
"            #+`+ @3 3 3 3 3 3 3 3 .@+@<.                                                        ",
"              L+: @@3 3 3 3 3 3 #@$@%@                                                          ",
"                &@: *@3 3 3 3 =@d.5+                                                            ",
"                  &@-@q 3 3 *+;@>@                                                              ",
"                    |+-@N.3 ,@'@.                                                               ",
"                      %@M+)@!@W.                                                                ",
"                        = ~@{@                                                                  ",
"                                                                                                "};
