/* XPM */
static char * controller_xpm[] = {
"48 48 49 1",
" 	c None",
".	c #000000",
"+	c #000103",
"@	c #000407",
"#	c #000406",
"$	c #000305",
"%	c #000001",
"&	c #003955",
"*	c #004C71",
"=	c #002537",
"-	c #000709",
";	c #006799",
">	c #0089CD",
",	c #004263",
"'	c #000304",
")	c #030000",
"!	c #020000",
"~	c #050100",
"{	c #080100",
"]	c #7A1300",
"^	c #B91D00",
"/	c #6A1100",
"(	c #0B0100",
"_	c #580E00",
":	c #851500",
"<	c #4C0C00",
"[	c #040100",
"}	c #090100",
"|	c #050000",
"1	c #022C00",
"2	c #0FFC00",
"3	c #000400",
"4	c #010900",
"5	c #033B00",
"6	c #033900",
"7	c #033A00",
"8	c #000100",
"9	c #0A0A00",
"0	c #0B0B00",
"a	c #090900",
"b	c #060600",
"c	c #242500",
"d	c #898C00",
"e	c #818400",
"f	c #2F3000",
"g	c #AFB200",
"h	c #A5A800",
"i	c #040400",
"j	c #020300",
"                                                ",
"                                                ",
"     .           ..           .           .     ",
"     .           ..           .           .     ",
"     .           ..           .           .     ",
"     .           ..       +@@#$@@@.       .     ",
"     .           ..       %&*****=-       .     ",
"     .           ..       %;>>>>>,-       .     ",
"     .           ..       ........'       .     ",
"     .           ..           .           .     ",
"     .           ..           .           .     ",
"     .           ..           .           .     ",
"     .           ..           .           .     ",
"     .           ..           .           .     ",
" )!!!!!!!~       ..           .           .     ",
" {]^^^^^/(       ..           .           .     ",
" {_:::::<(       ..           .           .     ",
" [(((}(((|       ..           .           .     ",
"     .        ........        .           .     ",
"     .        12222223        .           .     ",
"     .        45567558        .           .     ",
"     .        ........        .           .     ",
"     .           ..           .           .     ",
"     .           ..           .           .     ",
"     .           ..           .           .     ",
"     .           ..           .           .     ",
"     .           ..           .           .     ",
"     .           ..           .           .     ",
"     .           ..           .           .     ",
"     .           ..           .           .     ",
"     .           ..           .           .     ",
"     .           ..           .           .     ",
"     .           ..           .           .     ",
"     .           ..           .           .     ",
"     .           ..           .           .     ",
"     .           ..           .        900a900b ",
"     .           ..           .       .cddddde. ",
"     .           ..           .       .fgggggh. ",
"     .           ..           .       .iiiiiiij ",
"     .           ..           .           .     ",
"     .           ..           .           .     ",
"     .           ..           .           .     ",
"     .           ..           .           .     ",
"     .           ..           .           .     ",
"     .           ..           .           .     ",
"     .           ..           .           .     ",
"                                                ",
"                                                "};
