<?xml version="1.0" encoding="UTF-8" standalone="no"?>
<!-- Created with Inkscape (http://www.inkscape.org/) -->

<svg
   xmlns:dc="http://purl.org/dc/elements/1.1/"
   xmlns:cc="http://creativecommons.org/ns#"
   xmlns:rdf="http://www.w3.org/1999/02/22-rdf-syntax-ns#"
   xmlns:svg="http://www.w3.org/2000/svg"
   xmlns="http://www.w3.org/2000/svg"
   xmlns:sodipodi="http://sodipodi.sourceforge.net/DTD/sodipodi-0.dtd"
   xmlns:inkscape="http://www.inkscape.org/namespaces/inkscape"
   width="64px"
   height="64px"
   id="svg2985"
   version="1.1"
   inkscape:version="0.48.3.1 r9886"
   sodipodi:docname="Neues Dokument 2">
  <defs
     id="defs2987" />
  <sodipodi:namedview
     id="base"
     pagecolor="#ffffff"
     bordercolor="#666666"
     borderopacity="1.0"
     inkscape:pageopacity="0.0"
     inkscape:pageshadow="2"
     inkscape:zoom="11.313708"
     inkscape:cx="37.429575"
     inkscape:cy="27.225687"
     inkscape:current-layer="layer1"
     showgrid="true"
     inkscape:document-units="px"
     inkscape:grid-bbox="true"
     inkscape:snap-grids="false"
     inkscape:snap-to-guides="false"
     inkscape:snap-page="true"
     inkscape:window-width="1615"
     inkscape:window-height="1026"
     inkscape:window-x="65"
     inkscape:window-y="24"
     inkscape:window-maximized="1" />
  <metadata
     id="metadata2990">
    <rdf:RDF>
      <cc:Work
         rdf:about="">
        <dc:format>image/svg+xml</dc:format>
        <dc:type
           rdf:resource="http://purl.org/dc/dcmitype/StillImage" />
        <dc:title></dc:title>
      </cc:Work>
    </rdf:RDF>
  </metadata>
  <g
     id="layer1"
     inkscape:label="Layer 1"
     inkscape:groupmode="layer">
    <rect
       style="fill:#f0f0f0;fill-opacity:1;fill-rule:nonzero;stroke:none"
       id="rect4282"
       width="64"
       height="64"
       x="0"
       y="0" />
    <path
       style="fill:#f7f90c;fill-opacity:1;stroke:#000000;stroke-width:1px;stroke-linecap:butt;stroke-linejoin:miter;stroke-opacity:1"
       d="m 4.7272727,54.363636 c 0,0 39.7824683,-43.103364 52.3636363,-31.818182 C 69.672077,33.830636 54.167181,59.724058 39.272727,59.818182 24.378273,59.912306 16.909091,18.363637 16.909091,18.363637 L 6.9090909,22.363636 18.545454,3.0909091 36.909091,16.545455 26,17.818182 c 0,0 4.450272,33.434698 14.181818,33.818182 C 49.913364,52.019848 55.728683,35.54544 52,30 48.271317,24.45456 35.282572,34.843689 25.105422,44.464642 17.835329,51.337413 12,57.818182 12,57.818182 z"
       id="path3761"
       inkscape:connector-curvature="0"
       sodipodi:nodetypes="czzccccczzscc" />
    <path
       style="fill:#f7f90c;fill-opacity:1;stroke:none"
       d="m 22.159091,36.613636 c 0,0 3.880348,-3.134523 6.022727,-4.75 0.797084,2.831847 1.616455,5.745645 2.5,8.363636 -1.778243,1.526134 -5.295454,4.727274 -5.295454,4.727274 -1.310606,-2.863637 -2.121212,-4.765608 -3.227273,-8.34091 z"
       id="path3763"
       inkscape:connector-curvature="0"
       sodipodi:nodetypes="ccccc" />
    <rect
       style="fill:#000000;fill-opacity:0;fill-rule:nonzero;stroke:none"
       id="rect3765"
       width="64"
       height="64"
       x="0"
       y="0" />
  </g>
</svg>
