/* XPM */
static char * curlyarrow_xpm[] = {
"64 64 484 2",
"  	c None",
". 	c #989898",
"+ 	c #ABABAB",
"@ 	c #070703",
"# 	c #313127",
"$ 	c #CFCFCF",
"% 	c #1C1D14",
"& 	c #B5B709",
"* 	c #9C9D09",
"= 	c #13130A",
"- 	c #888886",
"; 	c #757570",
"> 	c #52530D",
", 	c #F7F90C",
"' 	c #D1D30A",
") 	c #2E2E0D",
"! 	c #4E4E46",
"~ 	c #CBCBCB",
"{ 	c #111108",
"] 	c #DCDE0B",
"^ 	c #EFF10C",
"/ 	c #6B6B0D",
"( 	c #1E1E16",
"_ 	c #BABABA",
": 	c #414137",
"< 	c #86870A",
"[ 	c #AAAC08",
"} 	c #161609",
"| 	c #787874",
"1 	c #A1A1A1",
"2 	c #2C2D0D",
"3 	c #F3F50C",
"4 	c #DBDD0B",
"5 	c #3B3B0C",
"6 	c #414136",
"7 	c #D9D9D9",
"8 	c #1C1C12",
"9 	c #BCBD09",
"0 	c #7B7C0A",
"a 	c #18180F",
"b 	c #ADADAD",
"c 	c #70706A",
"d 	c #57580C",
"e 	c #B8BA09",
"f 	c #1B1B0B",
"g 	c #686863",
"h 	c #C9C9C9",
"i 	c #141409",
"j 	c #E1E30B",
"k 	c #E4E50B",
"l 	c #48490E",
"m 	c #33332A",
"n 	c #D0D0D0",
"o 	c #3B3B30",
"p 	c #8B8C09",
"q 	c #F6F80C",
"r 	c #8B8D0B",
"s 	c #14140C",
"t 	c #9E9E9D",
"u 	c #9C9C9C",
"v 	c #2E2E0C",
"w 	c #F4F60C",
"x 	c #C6C70A",
"y 	c #22230B",
"z 	c #585851",
"A 	c #BEBF09",
"B 	c #EAEC0B",
"C 	c #58590D",
"D 	c #28281E",
"E 	c #C6C6C6",
"F 	c #6B6C65",
"G 	c #5C5D0C",
"H 	c #131309",
"I 	c #DFE10B",
"J 	c #A1A208",
"K 	c #868706",
"L 	c #696A09",
"M 	c #4A4B0E",
"N 	c #171707",
"O 	c #000000",
"P 	c #616161",
"Q 	c #3F3F34",
"R 	c #8B8C0A",
"S 	c #E9EB0B",
"T 	c #A0A108",
"U 	c #3A3A0F",
"V 	c #1D1D0B",
"W 	c #050502",
"X 	c #18180E",
"Y 	c #353526",
"Z 	c #505141",
"` 	c #6A6B62",
" .	c #888888",
"..	c #A4A4A4",
"+.	c #BFBFBF",
"@.	c #DADADA",
"#.	c #2C2C0C",
"$.	c #C3C409",
"%.	c #60610D",
"&.	c #0B0B05",
"*.	c #888907",
"=.	c #959607",
"-.	c #474740",
";.	c #1A1A10",
">.	c #BDBE09",
",.	c #919209",
"'.	c #2E2E11",
").	c #202018",
"!.	c #7F7F7E",
"~.	c #848484",
"{.	c #525310",
"].	c #373728",
"^.	c #6B6B65",
"/.	c #5C5D0D",
"(.	c #101008",
"_.	c #4F4F45",
":.	c #AFAFAF",
"<.	c #CCCCCC",
"[.	c #E6E70B",
"}.	c #101009",
"|.	c #898988",
"1.	c #565649",
"2.	c #3A3A2C",
"3.	c #2F3021",
"4.	c #303121",
"5.	c #545447",
"6.	c #DBDBDB",
"7.	c #040402",
"8.	c #1B1B08",
"9.	c #202016",
"0.	c #7F7F7C",
"a.	c #12120B",
"b.	c #D8D8D8",
"c.	c #C7C7C7",
"d.	c #676760",
"e.	c #1D1D12",
"f.	c #27280E",
"g.	c #65650C",
"h.	c #979807",
"i.	c #B9BB09",
"j.	c #C2C309",
"k.	c #9FA008",
"l.	c #5E5F0D",
"m.	c #0F0F08",
"n.	c #7C7C77",
"o.	c #3E3E3E",
"p.	c #4F4F46",
"q.	c #454538",
"r.	c #3D3E11",
"s.	c #B2B2B2",
"t.	c #B4B4B4",
"u.	c #3E3E32",
"v.	c #18180A",
"w.	c #D4D60A",
"x.	c #DEE00B",
"y.	c #3F400D",
"z.	c #44443B",
"A.	c #DCDCDC",
"B.	c #787876",
"C.	c #757609",
"D.	c #68680B",
"E.	c #878786",
"F.	c #BDBDBD",
"G.	c #A2A309",
"H.	c #F1F30C",
"I.	c #59590D",
"J.	c #48483E",
"K.	c #ACACAC",
"L.	c #3F4011",
"M.	c #989907",
"N.	c #56564B",
"O.	c #CACACA",
"P.	c #4A4A3D",
"Q.	c #21210B",
"R.	c #9B9C08",
"S.	c #F2F40C",
"T.	c #3D3E0D",
"U.	c #7B7B76",
"V.	c #0B0C06",
"W.	c #CACC0A",
"X.	c #26261A",
"Y.	c #77776E",
"Z.	c #121207",
"`.	c #8A8B07",
" +	c #151509",
".+	c #C8C8C8",
"++	c #363629",
"@+	c #B6B809",
"#+	c #242419",
"$+	c #4B4C0B",
"%+	c #898A08",
"&+	c #757571",
"*+	c #363610",
"=+	c #B6B6B6",
"-+	c #5B5B52",
";+	c #1B1B09",
">+	c #A9AA08",
",+	c #EDEF0C",
"'+	c #353510",
")+	c #69690C",
"!+	c #848483",
"~+	c #B9B9B9",
"{+	c #68680D",
"]+	c #F0F20C",
"^+	c #A6A708",
"/+	c #5C5C0F",
"(+	c #1E1E0C",
"_+	c #050503",
":+	c #3D3D0E",
"<+	c #5A5A0E",
"[+	c #909090",
"}+	c #0C0C07",
"|+	c #E8E90B",
"1+	c #A3A408",
"2+	c #777772",
"3+	c #1A1A0B",
"4+	c #AFB109",
"5+	c #929309",
"6+	c #3E3F32",
"7+	c #949494",
"8+	c #D7D7D7",
"9+	c #999999",
"0+	c #121209",
"a+	c #BBBC09",
"b+	c #A5A608",
"c+	c #48483B",
"d+	c #414134",
"e+	c #E0E20B",
"f+	c #10100A",
"g+	c #D1D1D1",
"h+	c #343429",
"i+	c #494A0D",
"j+	c #E2E40B",
"k+	c #A8A908",
"l+	c #25260C",
"m+	c #444439",
"n+	c #C4C4C4",
"o+	c #A0A0A0",
"p+	c #2D2D0C",
"q+	c #13130B",
"r+	c #828280",
"s+	c #68680C",
"t+	c #292A0D",
"u+	c #0F0F09",
"v+	c #87880A",
"w+	c #D6D80A",
"x+	c #3B3B0B",
"y+	c #2F2F23",
"z+	c #B1B1B1",
"A+	c #C8C90A",
"B+	c #080804",
"C+	c #606105",
"D+	c #767706",
"E+	c #959608",
"F+	c #7E7E79",
"G+	c #66665F",
"H+	c #8B8C07",
"I+	c #21210D",
"J+	c #CECECE",
"K+	c #2A2A1E",
"L+	c #C1C209",
"M+	c #D1D20A",
"N+	c #4D4E04",
"O+	c #48490D",
"P+	c #292920",
"Q+	c #C2C2C2",
"R+	c #878787",
"S+	c #6D6E0B",
"T+	c #2B2B0F",
"U+	c #C5C5C5",
"V+	c #767672",
"W+	c #71720B",
"X+	c #F6F70C",
"Y+	c #151601",
"Z+	c #1A1A0A",
"`+	c #70706B",
" @	c #939393",
".@	c #60600E",
"+@	c #1D1D0C",
"@@	c #D3D3D3",
"#@	c #C3C3C3",
"$@	c #22220C",
"%@	c #5F6005",
"&@	c #909109",
"*@	c #15150C",
"=@	c #A9A9A9",
"-@	c #8D8D8D",
";@	c #65660D",
">@	c #0E0E07",
",@	c #BEC009",
"'@	c #6B6B05",
")@	c #5D5E0C",
"!@	c #2A2A20",
"~@	c #CDCDCD",
"{@	c #767673",
"]@	c #7B7C07",
"^@	c #0D0D08",
"/@	c #45453F",
"(@	c #8F9006",
"_@	c #F0F30C",
":@	c #1C1C01",
"<@	c #35350C",
"[@	c #545449",
"}@	c #9D9E08",
"|@	c #B7B909",
"1@	c #3B3B2C",
"2@	c #5D5D53",
"3@	c #1D1D06",
"4@	c #505004",
"5@	c #484804",
"6@	c #161608",
"7@	c #70706D",
"8@	c #232317",
"9@	c #CED00A",
"0@	c #868708",
"a@	c #6B6B66",
"b@	c #49493F",
"c@	c #43430C",
"d@	c #E8EA0B",
"e@	c #1D1D01",
"f@	c #EFF20C",
"g@	c #7C7E07",
"h@	c #565651",
"i@	c #D6D6D6",
"j@	c #F5F70C",
"k@	c #474811",
"l@	c #9F9F9F",
"m@	c #37372C",
"n@	c #5A5B0C",
"o@	c #7A7B06",
"p@	c #B2B309",
"q@	c #AFB008",
"r@	c #898989",
"s@	c #5D5D0E",
"t@	c #E7E80B",
"u@	c #0E0E08",
"v@	c #28281D",
"w@	c #74750A",
"x@	c #D7D90A",
"y@	c #303002",
"z@	c #27280D",
"A@	c #353529",
"B@	c #ACAE08",
"C@	c #4E4E43",
"D@	c #212117",
"E@	c #83840A",
"F@	c #404003",
"G@	c #DCDD0B",
"H@	c #8B8D08",
"I@	c #535349",
"J@	c #1B1B0A",
"K@	c #3E3E0F",
"L@	c #8F9109",
"M@	c #666705",
"N@	c #525248",
"O@	c #C5C60A",
"P@	c #1F1F15",
"Q@	c #0D0D01",
"R@	c #B1B208",
"S@	c #6F700B",
"T@	c #BEBEBE",
"U@	c #181809",
"V@	c #ECEE0B",
"W@	c #52530E",
"X@	c #8A8A89",
"Y@	c #A8A909",
"Z@	c #54550E",
"`@	c #151512",
" #	c #5A5A0D",
".#	c #111109",
"+#	c #2E2E23",
"@#	c #17170E",
"##	c #B0B0B0",
"$#	c #14140B",
"%#	c #B2B409",
"&#	c #4F500E",
"*#	c #45453D",
"=#	c #76770B",
"-#	c #53534A",
";#	c #6F6F69",
">#	c #3A3A0E",
",#	c #939392",
"'#	c #A8A8A8",
")#	c #15150B",
"!#	c #4A4A42",
"~#	c #73736E",
"{#	c #62620C",
"]#	c #EEF00C",
"^#	c #AAAAAA",
"/#	c #989897",
"(#	c #20200B",
"_#	c #9FA009",
":#	c #45460E",
"<#	c #4E4E47",
"[#	c #D2D2D2",
"}#	c #979795",
"|#	c #CFD10A",
"1#	c #16160A",
"2#	c #C0C0C0",
"3#	c #C0C109",
"4#	c #42420D",
"5#	c #56564E",
"6#	c #7B7B77",
"7#	c #59590E",
"8#	c #96970A",
"9#	c #27271C",
"0#	c #5F5F57",
"a#	c #1D1D09",
"b#	c #38380D",
"c#	c #81817D",
"d#	c #46470D",
"e#	c #5B5B53",
"f#	c #8B8C0B",
"g#	c #1B1B11",
"h#	c #9D9D9D",
"i#	c #7B7B78",
"j#	c #72730A",
"k#	c #46463B",
"l#	c #AEAEAE",
"m#	c #4B4C0D",
"n#	c #56564D",
"o#	c #A7A7A7",
"p#	c #25250C",
"q#	c #42420F",
"r#	c #202114",
"s#	c #0D0D07",
"t#	c #25250E",
"u#	c #6A6A0D",
"v#	c #CBCD0A",
"w#	c #91920A",
"x#	c #222218",
"y#	c #DDDDDD",
"z#	c #BABB09",
"A#	c #50510D",
"B#	c #515148",
"C#	c #D8DA0A",
"D#	c #E5E60B",
"E#	c #A1A209",
"F#	c #191910",
"G#	c #B4B609",
"H#	c #56570D",
"I#	c #4D4D43",
"J#	c #16160E",
"K#	c #9FA00A",
"L#	c #3F3F3C",
"M#	c #404036",
"N#	c #82830B",
"O#	c #202017",
"P#	c #35352A",
"Q#	c #939408",
"R#	c #77780B",
"S#	c #92928F",
"T#	c #28290B",
"U#	c #50510B",
"V#	c #303125",
"W#	c #19190A",
"X#	c #888909",
"Y#	c #EBED0B",
"Z#	c #8A8B0B",
"`#	c #72726B",
" $	c #ADAF08",
".$	c #696A62",
"+$	c #4B4B41",
"@$	c #111107",
"#$	c #1F1F16",
"$$	c #7D7D78",
"%$	c #232319",
"&$	c #B7B7B7",
"*$	c #1C1C13",
"=$	c #54550C",
"-$	c #C4C50A",
";$	c #D2D40A",
">$	c #848509",
",$	c #30300E",
"'$	c #212118",
")$	c #959594",
"!$	c #888884",
"~$	c #27271B",
"{$	c #37370F",
"]$	c #414110",
"^$	c #2A2A0E",
"/$	c #202015",
"($	c #696A63",
"_$	c #B8B8B8",
"                                                                                                                                ",
"                                                                                                                                ",
"                                    .                                                                                           ",
"                                  + @ # $                                                                                       ",
"                                  % & * = -                                                                                     ",
"                                ; > , , ' ) !                                                                                   ",
"                              ~ { ] , , , ^ / ( _                                                                               ",
"                              : < , , , , , , [ } |                                                                             ",
"                            1 2 3 , , , , , , , 4 5 6 7                                                                         ",
"                            8 9 , , , , , , , , , 3 0 a b                                                                       ",
"                          c d , , , , , , , , , , , , e f g                                                                     ",
"                        h i j , , , , , , , , , , , , , k l m n                                                                 ",
"                        o p , , , , , , , , , , , , , , , q r s t                                                               ",
"                      u v w , , , , , , , , , , , , , , , , , x y z                                                             ",
"                      a A , , , , , , , , , , , , , , , , , , , B C D E                                                         ",
"                    F G , , , , , , , , , , , , , , , , , , , , , , * = -                                                       ",
"                  h H I , , , , , , , , , , , , , , , , w ] A J K L M N O P                                                     ",
"                  Q R , , , , , S k , , , , , , , T U V W X Y Z `  ...+.@.                                                      ",
"                u #.3 , , , $.%.&.*., , , , , , , =.-.n                                                                         ",
"                ;.>., S ,.'.).!.~.{., , , , , , , >.].                                                                          ",
"              ^./.$.%.(._.:.    <.V , , , , , , , [.}.                                        E |.1.2.3.4.5.- 6.                ",
"            E 7.8.9.0.7           a.I , , , , , , , } b.                                c.d.e.f.g.h.i.x j.k.l.m.n.              ",
"            o.p.:.                q.[ , , , , , , , r.s.                            t.u.v.0 w., , , , , , , , x.y.z.            ",
"            A.                    B.C., , , , , , , D.E.                        F.6 f.G.H., , , , , , , , , , , w I.J.          ",
"                                  K.L., , , , , , , M.N.                    O.P.Q.R.w , , , , , , , , , , , , , , S.T.U.        ",
"                                    V.^ , , , , , , W.X.                  Y.Z.`.H., , , , , , , , , , , , , , , , , x. +.+      ",
"                                    ++@+, , , , , , 3 &.              s.#+$+4 , , , , , , , , , , , , , , , , , , , , %+_.      ",
"                                    &+C., , , , , , , *+=+          -+;+>+, , , , , , , , , , , q q , , , , , , , , , ,+i b.    ",
"                                    t.'+, , , , , , , )+!+      ~+9.{+,+, , , , , , , , ]+^+/+(+_+&.:+A , , , , , , , , <+[+    ",
"                                      }+|+, , , , , , 1+P.    2+3+4+, , , , , , , , 3 5+v.6+7+8+    9+0+a+, , , , , , , b+c+    ",
"                                      d+[ , , , , , , e+f+g+h+i+j+, , , , , , , q k+l+m+n+            o+p+q , , , , , , j+q+    ",
"                                      r+s+, , , , , , , t+u+v+q , , , , , , , w+x+y+z+                  #+A+, , , , , , q B+    ",
"                                      <.f q , , , , , , C+D+, , , , , , , , E+{ F+                      G+H+, , , , , , , I+J+  ",
"                                        K+L+, , , , , , M+N+, , , , , , I O+P+Q+                        R+S+, , , , , , , T+U+  ",
"                                        V+W+, , , , , , X+Y+w , , , , A Z+`+                             @.@, , , , , , , +@@@  ",
"                                        #@$@, , , , , , , %@i., , , &@*@=@                              -@;@, , , , , , , >@    ",
"                                          9., , , , , , , ,@'@, ^ )@!@~@                                {@]@, , , , , , |+^@    ",
"                                          /@(@, , , , , , _@:@j <@!                                     [@}@, , , , , , |@1@    ",
"                                        2@3@4@, , , , , , , 5@6@7@                                      8@9@, , , , , , 0@a@    ",
"                                      b@c@d@e@f@, , , , , , g@h@                                      i@i j@, , , , , , k@l@    ",
"                                    m@n@S., o@p@, , , , , , q@#+                                      r@s@, , , , , , t@u@      ",
"                                b.v@w@q , , x@y@, , , , , , q z@t.                                    A@B@, , , , , , M.C@      ",
"                              g+D@E@, , , , , F@G@, , , , , , H@I@                                  Q+J@3 , , , , , , K@1       ",
"                            O.8 L@, , , , , , ^+M@, , , , , , t@(.8+                                N@E@, , , , , , O@P@        ",
"                          Q+a * , , , , , , , ]+Q@R@, , , , , , S@d.                              T@U@V@, , , , , , W@X@        ",
"                        ~+*@Y@, , , , , , , 3 Z@`@ #, , , , , , j .#b.                            +#k., , , , , , A+@#          ",
"                      ##$#%#, , , , , , , H.&#*#b..#4 , , , , , , =#-#                          ;#l , , , , , , q >#,#          ",
"                    '#)#9 , , , , , , , ]+M !#    ~#{#, , , , , , ]#y ^#                      /#(#[., , , , , , _#h+            ",
"                  '#H j., , , , , , , ]#:#<#        $#w., , , , , , e ;.[#                  }#Z+|#, , , , , , 4 1#2#            ",
"                ^#H 3#, , , , , , , ]#4#5#          6#7#, , , , , , , 8#9#@.              0#a#|#, , , , , , S.b#c#              ",
"              K.H A , , , , , , , ]+d#e#              8 a+, , , , , , , f#g#h#      O.i#@#l.d@, , , , , , , j#k#                ",
"            l#H 9 , , , , , , , S.m#n#                o#p#^ , , , , , , , i.q#m.r#s#t#u#v#, , , , , , , , w#x#y#                ",
"          t.0+z#, , , , , , , 3 A#B#                    B#=#, , , , , , , , , H.C#D#, , , , , , , , , , E#F#$                   ",
"        2#)#G#, , , , , , , j@H#I#                      @.J#G#, , , , , , , , , , , , , , , , , , , , K#@#Q+                    ",
"        L#8.k.3 , , , , , , g.M#                          t.1#w., , , , , , , , , , , , , , , , , , N#O#O.                      ",
"          o#P#Q.Q#]+, , , R#h+                              S#T#[., , , , , , , , , , , , , , , k U#V#7                         ",
"              s.6 W#X#Y#Z#D                                   `#v I , , , , , , , , , , , , ,  $Z+.$                            ",
"                  F.+$@$#$8+                                    $$v.@+, , , , , , , , , , %#b#%$&$                              ",
"                      .+n                                         b *$=$-$, , , , , ;$>$,$'$)$                                  ",
"                                                                      !$~$W#{$]$^$i /$($t.                                      ",
"                                                                          7 _$s.h                                               ",
"                                                                                                                                ",
"                                                                                                                                ",
"                                                                                                                                "};
