/* XPM */
static char * export_xpm[] = {
"48 48 276 2",
"  	c None",
". 	c #0F2330",
"+ 	c #255877",
"@ 	c #0D202C",
"# 	c #183A4F",
"$ 	c #4FBCFF",
"% 	c #132D3D",
"& 	c #102532",
"* 	c #071218",
"= 	c #071319",
"- 	c #4EB9FB",
"; 	c #010304",
"> 	c #020405",
", 	c #44A2DC",
"' 	c #040A0D",
") 	c #020506",
"! 	c #4BB2F1",
"~ 	c #3988B8",
"{ 	c #060E13",
"] 	c #040B10",
"^ 	c #439FD7",
"/ 	c #2E6D94",
"( 	c #050B0E",
"_ 	c #060F14",
": 	c #3B8BBD",
"< 	c #22516E",
"[ 	c #3278A3",
"} 	c #153143",
"| 	c #020509",
"1 	c #2A6589",
"2 	c #0A161E",
"3 	c #21506C",
"4 	c #4EBBFD",
"5 	c #010405",
"6 	c #020608",
"7 	c #000001",
"8 	c #060F13",
"9 	c #17384C",
"0 	c #46A7E2",
"a 	c #03090B",
"b 	c #03080A",
"c 	c #1B4158",
"d 	c #193C51",
"e 	c #030609",
"f 	c #070F14",
"g 	c #3B8CBE",
"h 	c #060D14",
"i 	c #03070A",
"j 	c #3C8EC1",
"k 	c #4BB2F2",
"l 	c #3276A0",
"m 	c #132C3D",
"n 	c #060D12",
"o 	c #071117",
"p 	c #30729B",
"q 	c #050C11",
"r 	c #040A0E",
"s 	c #47AAE6",
"t 	c #2B698D",
"u 	c #0D1E27",
"v 	c #03070B",
"w 	c #245575",
"x 	c #050A0E",
"y 	c #060E14",
"z 	c #03090C",
"A 	c #48ACE9",
"B 	c #26597A",
"C 	c #020507",
"D 	c #4AAFEE",
"E 	c #163649",
"F 	c #000000",
"G 	c #050D11",
"H 	c #061015",
"I 	c #112A39",
"J 	c #204D68",
"K 	c #3A89BA",
"L 	c #45A4DF",
"M 	c #3277A1",
"N 	c #02080A",
"O 	c #0E212D",
"P 	c #4CB5F5",
"Q 	c #4FBBFE",
"R 	c #3D90C4",
"S 	c #1F4A65",
"T 	c #04090C",
"U 	c #000101",
"V 	c #1D455D",
"W 	c #0F2431",
"X 	c #1D455E",
"Y 	c #2B668A",
"Z 	c #3681AF",
"` 	c #429ED6",
" .	c #4DB8F9",
"..	c #30739C",
"+.	c #03080B",
"@.	c #05090C",
"#.	c #163548",
"$.	c #4DB8FA",
"%.	c #3A8BBC",
"&.	c #2E6E95",
"*.	c #1F4964",
"=.	c #2E6E93",
"-.	c #03090D",
";.	c #2C698E",
">.	c #2B6588",
",.	c #3680AD",
"'.	c #2A6386",
").	c #3D92C6",
"!.	c #275B7B",
"~.	c #040A0F",
"{.	c #44A1DA",
"].	c #22506D",
"^.	c #04090D",
"/.	c #08141B",
"(.	c #48ADEA",
"_.	c #214D6A",
":.	c #04090B",
"<.	c #102734",
"[.	c #4DB7F8",
"}.	c #1F4B65",
"|.	c #193A4F",
"1.	c #4EBAFC",
"2.	c #1C4259",
"3.	c #245675",
"4.	c #1B3F56",
"5.	c #050C10",
"6.	c #18374B",
"7.	c #040B0D",
"8.	c #3783B2",
"9.	c #04090E",
"0.	c #4099CF",
"a.	c #050E12",
"b.	c #46A6E1",
"c.	c #4CB4F4",
"d.	c #122B39",
"e.	c #0A1821",
"f.	c #4AB0EF",
"g.	c #4AB1F0",
"h.	c #102531",
"i.	c #FFE94F",
"j.	c #686227",
"k.	c #1B3139",
"l.	c #192A2F",
"m.	c #635E26",
"n.	c #FEE84F",
"o.	c #FCE64E",
"p.	c #494720",
"q.	c #254A5C",
"r.	c #49AFED",
"s.	c #19292C",
"t.	c #6F6928",
"u.	c #635A1F",
"v.	c #27240C",
"w.	c #F7E24D",
"x.	c #8E822C",
"y.	c #393412",
"z.	c #0F0E05",
"A.	c #060502",
"B.	c #1E1B09",
"C.	c #464016",
"D.	c #95882E",
"E.	c #FBE54E",
"F.	c #F4DF4C",
"G.	c #2C2E18",
"H.	c #0A1010",
"I.	c #78702A",
"J.	c #EAD648",
"K.	c #2C280E",
"L.	c #070602",
"M.	c #010100",
"N.	c #EBD749",
"O.	c #E8D448",
"P.	c #A79934",
"Q.	c #4F4818",
"R.	c #5F571D",
"S.	c #DECB45",
"T.	c #F9E44D",
"U.	c #D6C442",
"V.	c #897D2A",
"W.	c #F3DE4B",
"X.	c #FDE74E",
"Y.	c #94872E",
"Z.	c #312D0F",
"`.	c #090803",
" +	c #0B0A03",
".+	c #332F10",
"++	c #C7B63E",
"@+	c #28250C",
"#+	c #0E0D04",
"$+	c #443E15",
"%+	c #C1B03C",
"&+	c #F0DB4A",
"*+	c #5A521C",
"=+	c #171507",
"-+	c #827728",
";+	c #625A1E",
">+	c #2B270D",
",+	c #4E4718",
"'+	c #D5C342",
")+	c #383311",
"!+	c #685F20",
"~+	c #121006",
"{+	c #A39532",
"]+	c #25220B",
"^+	c #111005",
"/+	c #030301",
"(+	c #BCAC3A",
"_+	c #554E1A",
":+	c #1D1A09",
"<+	c #0A0903",
"[+	c #0C0B04",
"}+	c #655C1F",
"|+	c #494317",
"1+	c #DDCA44",
"2+	c #BEAE3B",
"3+	c #7F7427",
"4+	c #5B531C",
"5+	c #8B7F2B",
"6+	c #DBC844",
"7+	c #514A19",
"8+	c #F8E34D",
"9+	c #EDD949",
"0+	c #DFCC45",
"a+	c #D9C643",
"b+	c #706623",
"c+	c #EFDA4A",
"d+	c #1F1C0A",
"e+	c #3A3512",
"f+	c #675E20",
"g+	c #E4D047",
"h+	c #A89A34",
"i+	c #29250D",
"j+	c #696021",
"k+	c #BDAD3B",
"l+	c #7D7227",
"m+	c #322E0F",
"n+	c #A69833",
"o+	c #C4B33D",
"p+	c #A59733",
"q+	c #C9B83E",
"r+	c #B1A237",
"s+	c #C3B23C",
"t+	c #524B19",
"u+	c #E7D348",
"v+	c #58501B",
"w+	c #776D25",
"x+	c #91842D",
"y+	c #E0CD45",
"z+	c #E9D548",
"A+	c #534C1A",
"B+	c #DCC944",
"C+	c #8A7E2B",
"D+	c #DAC744",
"E+	c #8C802B",
"F+	c #CCBA3F",
"G+	c #2A260D",
"H+	c #050502",
"I+	c #131106",
"J+	c #080702",
"K+	c #040401",
"L+	c #020201",
"M+	c #4B4517",
"N+	c #F5E04C",
"O+	c #877B2A",
"P+	c #221F0B",
"Q+	c #F2DD4B",
"R+	c #302C0F",
"S+	c #0D0C04",
"T+	c #433D15",
"U+	c #C0AF3B",
"V+	c #59511C",
"W+	c #6B6221",
"X+	c #5C541D",
"Y+	c #2E2A0E",
"Z+	c #645B1F",
"`+	c #D2C041",
"                                                                                                ",
"                                  . + + + + + + + + + + + + + @                                 ",
"                                  # $ $ $ $ $ $ $ $ $ $ $ $ $ %                                 ",
"                                  & $ $ $ $ $ $ $ $ $ $ $ $ $ *                                 ",
"                                  = $ $ $ $ $ $ $ $ $ $ $ $ - ;                                 ",
"                                  > $ $ $ $ $ $ $ $ $ $ $ $ , '                                 ",
"                                  ) ! $ $ $ $ $ $ $ $ $ $ $ ~ {                                 ",
"                                  ] ^ $ $ $ $ $ $ $ $ $ $ $ / (                                 ",
"                                  _ : $ $ $ $ $ $ $ $ $ $ $ <                                   ",
"                                  { [ $ $ $ $ $ $ $ $ $ $ $ }                                   ",
"                                  | 1 $ $ $ $ $ $ $ $ $ $ $ 2                                   ",
"                                    3 $ $ $ $ $ $ $ $ $ $ 4 5                                   ",
"    6 7 8                           9 $ $ $ $ $ $ $ $ $ $ 0 a                                   ",
"      b c d e f                     . $ $ $ $ $ $ $ $ $ $ g h                                   ",
"        i j k l m e n               o $ $ $ $ $ $ $ $ $ $ p q                                   ",
"          r ^ $ $ s t u v i         > $ $ $ $ $ $ $ $ $ $ w                   x y z ; > 5       ",
"            * A $ $ $ $ ^ B * ]     C D $ $ $ $ $ $ $ $ $ E F   > G r ; H I J / K L M v         ",
"            N O P $ $ $ $ $ Q R S T U ^ $ $ $ $ $ $ $ $ $ V W X Y Z `  .$ $ $ $ $ ..+.          ",
"              @.#.4 $ $ $ $ $ $ $ $.%.$.$ $ $ $ $ $ $ $ $ $ $ $ $ $ $ $ $ $ $ $ &.z             ",
"                x *.$ $ $ $ $ $ $ $ $ $ $ $ $ $ $ $ $ $ $ $ $ $ $ $ $ $ $ $ $ =.a               ",
"                  -.;.$ $ $ $ $ $ $ $ $ $ $ $ $ $ $ $ $ $ $ $ $ $ $ $ $ $ $ >.a                 ",
"                    a ,.$ $ $ $ $ $ $ $ $ $ $ $ $ $ $ $ $ $ $ $ $ $ $ $ $ '.z                   ",
"                      b ).$ $ $ $ $ $ $ $ $ $ $ $ $ $ $ $ $ $ $ $ $ $ $ !.z                     ",
"                        ~.{.$ $ $ $ $ $ $ $ $ $ $ $ $ $ $ $ $ $ $ $ Q ].^.                      ",
"                          /.(.$ $ $ $ $ $ $ $ $ $ $ $ $ $ $ $ $ $ Q _.^.                        ",
"                          :.<.[.$ $ $ $ $ $ $ $ $ $ $ $ $ $ $ $ Q }.x                           ",
"                            ' |.4 $ $ $ $ $ $ $ $ $ $ $ $ $ $ 1.2.r                             ",
"                              T 3.$ $ $ $ $ $ $ $ $ $ $ $ $ 1.4.5.                              ",
"                                z / $ $ $ $ $ $ $ $ $ $ $  .6.7.                                ",
"                                  v 8.$ $ $ $ $ $ $ $ $ [.#.9.                                  ",
"                                    ^.0.$ $ $ $ $ $ $ P % '                                     ",
"                                      a.b.$ $ $ $ $ c.d.'                                       ",
"                                        e.f.$ $ $ g.h.-.                                        ",
"i.i.i.i.i.i.i.i.i.i.i.i.i.i.i.i.i.i.i.i.j.k. .$ f.l.m.n.i.i.i.i.i.i.i.i.i.i.i.i.i.i.i.i.i.i.i.i.",
"i.i.i.i.i.i.i.i.i.i.i.i.i.i.i.i.i.i.i.i.o.p.q.r.s.t.i.i.i.i.i.i.i.i.i.u.F v.i.i.i.i.i.i.i.i.i.i.",
"i.i.w.x.y.z.A.B.C.D.E.i.i.i.i.i.i.i.i.i.i.F.G.H.I.i.i.i.i.i.i.i.i.i.i.u.F v.i.i.i.i.i.i.i.i.i.i.",
"i.J.K.F F F L.M.F F N.i.i.i.i.i.i.i.i.i.i.i.O.P.i.i.i.i.i.i.i.i.i.i.i.u.F v.i.i.i.i.i.i.i.i.i.i.",
"i.Q.F F R.S.n.T.U.V.W.i.X.Y.Z.`. +.+++i.o.V.@+A.#+$+%+i.i.i.&+*+ +=+-+;+F v.i.i.X.x.>+L.z.,+'+i.",
"O.M.F )+n.i.i.i.i.i.i.i.!+F F ~+>+L.{+i.R.F F ]+^+F /+(+i.i._+F F :+<+[+F v.i.i.}+F A.|+>+F z.1+",
"2+F F 3+i.i.4+F F F 5+6+M.F 7+8+i.9+0+a+F F b+i.c+d+F e+i.1+F F f+i.g+z.F v.i.6+M.F h+i.o.i+F j+",
"k+F F 3+i.i.l+m+F F 5+n+F F o+i.i.i.i.p+F F q+i.i.j+F A.i.r+F F s+i.i.t+F v.i.n+F F F F F F F )+",
"u+M.F y.n.i.i.w.F F 5+n+F F o+i.i.i.i.p+F F q+i.i.j+F A.i.r+F F q+i.i.v+F v.i.n+F F }+w+w+w+w+x+",
"i.,+F F u.y+n.z+F F 5+6+M.F A+T.i.c+y+a+F F b+i.&+d+F e+i.B+F F C+i.8+B.F v.i.D+F F E+i.i.i.F+s+",
"i.O.G+F F F H+F F F 5+i.!+F F I+K.J+{+i.R.F F ]+~+F /+(+i.i.A+F K+t+K.L+F v.i.i.;+F F e+M+]+F 5+",
"i.i.N+O+.+[+J+P+C.Y.Q+i.X.Y.R+J+ +.+++i.o.V.@+H+S+T+U+i.i.i.c+V+<+~+W+X+F v.i.i.o.x.Y+L.[+v.Z+`+",
"i.i.i.i.i.i.i.i.i.i.i.i.i.i.i.i.i.i.i.i.i.i.i.i.i.i.i.i.i.i.i.i.i.i.i.i.i.i.i.i.i.i.i.i.i.i.i.i.",
"i.i.i.i.i.i.i.i.i.i.i.i.i.i.i.i.i.i.i.i.i.i.i.i.i.i.i.i.i.i.i.i.i.i.i.i.i.i.i.i.i.i.i.i.i.i.i.i.",
"i.i.i.i.i.i.i.i.i.i.i.i.i.i.i.i.i.i.i.i.i.i.i.i.i.i.i.i.i.i.i.i.i.i.i.i.i.i.i.i.i.i.i.i.i.i.i.i."};
