/* XPM */
static char * first_xpm[] = {
"32 32 231 2",
"  	c None",
". 	c #E3E3E3",
"+ 	c #E6E6E6",
"@ 	c #E9E9E9",
"# 	c #505046",
"$ 	c #9F9F9F",
"% 	c #444444",
"& 	c #D8D8D8",
"* 	c #DEDEDE",
"= 	c #27271D",
"- 	c #7E7E7E",
"; 	c #464639",
"> 	c #060601",
", 	c #888888",
"' 	c #252525",
") 	c #CBCBCB",
"! 	c #353528",
"~ 	c #131301",
"{ 	c #828282",
"] 	c #E5E5E5",
"^ 	c #3A3A2F",
"/ 	c #5B5907",
"( 	c #615F09",
"_ 	c #8E8E8E",
": 	c #232323",
"< 	c #CDCDCD",
"[ 	c #3D3D33",
"} 	c #6C6908",
"| 	c #6A6708",
"1 	c #898989",
"2 	c #5C5A07",
"3 	c #F5EF00",
"4 	c #5E5C0B",
"5 	c #949494",
"6 	c #212121",
"7 	c #CFCFCF",
"8 	c #525248",
"9 	c #525008",
"0 	c #F6F000",
"a 	c #625F0A",
"b 	c #919191",
"c 	c #3A392E",
"d 	c #5D5B06",
"e 	c #F8F200",
"f 	c #59570C",
"g 	c #999999",
"h 	c #1F1F1F",
"i 	c #D1D1D1",
"j 	c #63635C",
"k 	c #43410B",
"l 	c #F2EC00",
"m 	c #E4E4E4",
"n 	c #39382D",
"o 	c #666407",
"p 	c #F7F100",
"q 	c #53520D",
"r 	c #1D1D1D",
"s 	c #D3D3D3",
"t 	c #7D7C77",
"u 	c #302F0A",
"v 	c #EAE500",
"w 	c #514F0E",
"x 	c #A1A1A1",
"y 	c #676507",
"z 	c #4D4C0E",
"A 	c #A5A5A5",
"B 	c #1B1B1B",
"C 	c #D5D5D5",
"D 	c #92928F",
"E 	c #26250B",
"F 	c #E4DE00",
"G 	c #48470E",
"H 	c #A8A8A8",
"I 	c #38382C",
"J 	c #686606",
"K 	c #47460F",
"L 	c #AAAAAA",
"M 	c #191919",
"N 	c #D7D7D7",
"O 	c #A2A2A1",
"P 	c #1A1A09",
"Q 	c #D7D200",
"R 	c #413F0F",
"S 	c #B1B1B1",
"T 	c #696606",
"U 	c #42400F",
"V 	c #B0B0B0",
"W 	c #181818",
"X 	c #B7B7B7",
"Y 	c #17170B",
"Z 	c #CBC600",
"` 	c #39380F",
" .	c #B8B8B8",
"..	c #6B6806",
"+.	c #3C3B0F",
"@.	c #B6B6B6",
"#.	c #171717",
"$.	c #D9D9D9",
"%.	c #C3C3C3",
"&.	c #15150B",
"*.	c #B9B400",
"=.	c #302F0E",
"-.	c #C1C1C1",
";.	c #37372B",
">.	c #6C6907",
",.	c #36350F",
"'.	c #BBBBBB",
").	c #151515",
"!.	c #C0C0C0",
"~.	c #1C1B11",
"{.	c #AAA601",
"].	c #28280D",
"^.	c #BDBDBD",
"/.	c #6C6A07",
"(.	c #111111",
"_.	c #202016",
":.	c #938F03",
"<.	c #1E1D0A",
"[.	c #303024",
"}.	c #757307",
"|.	c #2A2A0E",
"1.	c #C7C7C7",
"2.	c #0F0F04",
"3.	c #6A6806",
"4.	c #111102",
"5.	c #626006",
"6.	c #25240D",
"7.	c #CCCCCC",
"8.	c #0B0B07",
"9.	c #33320B",
"0.	c #EDE800",
"a.	c #0C0C04",
"b.	c #302F0B",
"c.	c #1F1E0B",
"d.	c #0D0D0D",
"e.	c #616159",
"f.	c #3F3E09",
"g.	c #080804",
"h.	c #6D6C66",
"i.	c #35340B",
"j.	c #ECE700",
"k.	c #19190A",
"l.	c #0B0B0B",
"m.	c #E2E2E2",
"n.	c #4D4C42",
"o.	c #585508",
"p.	c #020201",
"q.	c #403F0A",
"r.	c #F0EA00",
"s.	c #131308",
"t.	c #DCDCDC",
"u.	c #0A0A0A",
"v.	c #E8E8E8",
"w.	c #37372C",
"x.	c #787605",
"y.	c #53534A",
"z.	c #4D4B09",
"A.	c #F4EE00",
"B.	c #0E0E06",
"C.	c #080808",
"D.	c #DDDDDD",
"E.	c #25251A",
"F.	c #8F8C02",
"G.	c #E7E200",
"H.	c #0F0F09",
"I.	c #EBEBEB",
"J.	c #47473D",
"K.	c #5A5809",
"L.	c #090904",
"M.	c #070707",
"N.	c #D0D0D0",
"O.	c #19190F",
"P.	c #A9A500",
"Q.	c #E0DA00",
"R.	c #18180E",
"S.	c #3B3B30",
"T.	c #696607",
"U.	c #030301",
"V.	c #050505",
"W.	c #BFBFBF",
"X.	c #14140A",
"Y.	c #C0BB00",
"Z.	c #D8D300",
"`.	c #1F1F14",
" +	c #303026",
".+	c #7D7A06",
"++	c #030303",
"@+	c #171709",
"#+	c #D3CE00",
"$+	c #CFCA00",
"%+	c #27271A",
"&+	c #27271C",
"*+	c #898604",
"=+	c #EFE900",
"-+	c #090905",
";+	c #010101",
">+	c #929290",
",+	c #21200A",
"'+	c #E2DC00",
")+	c #C7C300",
"!+	c #302F21",
"~+	c #1F1F15",
"{+	c #989402",
"]+	c #E9E400",
"^+	c #0E0E08",
"/+	c #767671",
"(+	c #32310B",
"_+	c #B4B000",
":+	c #373728",
"<+	c #CECECE",
"[+	c #1A1A10",
"}+	c #A5A101",
"|+	c #14140B",
"1+	c #020202",
"2+	c #54544D",
"3+	c #232205",
"4+	c #3F3E2F",
"5+	c #C6C6C6",
"6+	c #17170D",
"7+	c #B3AF00",
"8+	c #DED800",
"9+	c #1A1A0F",
"0+	c #EAEAEA",
"a+	c #48483D",
"b+	c #15150A",
"c+	c #9F9B00",
"d+	c #A7A7A7",
"e+	c #0C0C05",
"f+	c #242417",
"g+	c #999997",
"h+	c #47473F",
"                                                                ",
"                                                                ",
"                            . +                     @ # $       ",
"      % &                 * = -                   @ ; > ,       ",
"      ' )               + ! ~ {                 ] ^ / ( _       ",
"      : <             @ [ } | 1               ] ^ 2 3 4 5       ",
"      6 7             8 9 0 a b             ] c d 0 e f g       ",
"      h i           j k l e f g           m n o p e e q $       ",
"      r s         t u v e e w x         m n y p e e e z A       ",
"      B C       D E F e e e G H       m I J p e e e e K L       ",
"      M N     O P Q e e e e R S     m I T p e e e e e U V       ",
"      W &   X Y Z e e e e e `  .  m I ..p e e e e e e +.@.      ",
"      #.$.%.&.*.e e e e e e =.-.. ;.>.p e e e e e e e ,.'.      ",
"      ).!.~.{.e e e e e e e ].^.;./.p e e e e e e e e =.-.      ",
"      (._.:.e e e e e e e e <.[.}.e e e e e e e e e e |.1.      ",
"      2.3.e e e e e e e e e 4.5.p e e e e e e e e e e 6.7.      ",
"      8.9.0.e e e e e e e e a.b.v e e e e e e e e e e c.i       ",
"      d.e.f.l e e e e e e e g.h.i.j.e e e e e e e e e k.N       ",
"      l.m.n.o.p e e e e e p p.  e.q.r.e e e e e e e e s.t.      ",
"      u.+ v.w.x.e e e e e r.g.    y.z.A.e e e e e e e B.m.      ",
"      C.v.  D.E.F.e e e e G.H.    I.J.K.0 e e e e e e L.v.      ",
"      M.@     N.O.P.e e e Q.R.      v.S.T.e e e e e e U.        ",
"      V.I.      W.X.Y.e e Z.`.        .  +.+e e e e 3 U.        ",
"      ++          L @+#+e $+%+          D.&+*+e e e =+-+        ",
"      ;+            >+,+'+)+!+            N ~+{+e e ]+^+        ",
"      ;+              /+(+_+:+              <+[+}+e F |+        ",
"      1+                2+3+4+                5+6+7+8+9+        ",
"      #.                0+[ a+                  '.b+c+`.        ",
"                          ] N                     d+e+f+        ",
"                                                    g+h+        ",
"                                                                ",
"                                                                "};
