/* XPM */
static char * flip_xpm[] = {
"48 48 398 2",
"  	c None",
". 	c #060000",
"+ 	c #0D0100",
"@ 	c #010000",
"# 	c #0C0200",
"$ 	c #430800",
"% 	c #040100",
"& 	c #000000",
"* 	c #1F0400",
"= 	c #B51F00",
"- 	c #0D0200",
"; 	c #C22600",
"> 	c #902000",
", 	c #0F0400",
"' 	c #050100",
") 	c #090200",
"! 	c #0A0200",
"~ 	c #9A2100",
"{ 	c #DD3700",
"] 	c #601B00",
"^ 	c #160600",
"/ 	c #7D1F00",
"( 	c #0D0300",
"_ 	c #6C1800",
": 	c #DB3A00",
"< 	c #D74100",
"[ 	c #2E0F00",
"} 	c #220C00",
"| 	c #D54100",
"1 	c #3A1000",
"2 	c #360C00",
"3 	c #D73B00",
"4 	c #D54300",
"5 	c #D14A00",
"6 	c #090400",
"7 	c #2E1200",
"8 	c #D04B00",
"9 	c #C33E00",
"0 	c #150500",
"a 	c #C93800",
"b 	c #D44500",
"c 	c #CF4D00",
"d 	c #B44A00",
"e 	c #070300",
"f 	c #3A1A00",
"g 	c #CA5400",
"h 	c #993300",
"i 	c #AF3000",
"j 	c #CA5500",
"k 	c #894100",
"l 	c #0E0800",
"m 	c #462500",
"n 	c #C55E00",
"o 	c #C95600",
"p 	c #CE4E00",
"q 	c #581D00",
"r 	c #0B0300",
"s 	c #8A2500",
"t 	c #C45E00",
"u 	c #613300",
"v 	c #060400",
"w 	c #533100",
"x 	c #BF6700",
"y 	c #C94B00",
"z 	c #1F0A00",
"A 	c #0C0300",
"B 	c #601800",
"C 	c #CB5400",
"D 	c #C55D00",
"E 	c #C06600",
"F 	c #351F00",
"G 	c #020200",
"H 	c #5C3D00",
"I 	c #BA6F00",
"J 	c #AE3F00",
"K 	c #080300",
"L 	c #2D0900",
"M 	c #D53B00",
"N 	c #D34700",
"O 	c #CD5100",
"P 	c #C75A00",
"Q 	c #C16400",
"R 	c #BB6D00",
"S 	c #100A00",
"T 	c #080800",
"U 	c #654900",
"V 	c #B57700",
"W 	c #BA6E00",
"X 	c #C06500",
"Y 	c #C65B00",
"Z 	c #CC5100",
"` 	c #7A2900",
" .	c #0C0400",
"..	c #110300",
"+.	c #C73200",
"@.	c #D64100",
"#.	c #D04C00",
"$.	c #C36000",
"%.	c #BD6A00",
"&.	c #AD6E00",
"*.	c #040300",
"=.	c #0C0A00",
"-.	c #6D5600",
";.	c #B07E00",
">.	c #B67500",
",.	c #BC6B00",
"'.	c #C26100",
").	c #C95700",
"!.	c #CE4D00",
"~.	c #3B1200",
"{.	c #0B0200",
"].	c #090100",
"^.	c #AD2500",
"/.	c #DA3B00",
"(.	c #D34600",
"_.	c #B97000",
":.	c #875C00",
"<.	c #0D0C00",
"[.	c #736300",
"}.	c #AC8500",
"|.	c #B27B00",
"1.	c #B97100",
"2.	c #C65C00",
"3.	c #C24100",
"4.	c #100400",
"5.	c #0B0100",
"6.	c #891800",
"7.	c #DF3400",
"8.	c #D83F00",
"9.	c #644900",
"0.	c #040400",
"a.	c #0B0B00",
"b.	c #7A7000",
"c.	c #A88B00",
"d.	c #AF8100",
"e.	c #B57600",
"f.	c #CA5600",
"g.	c #D14B00",
"h.	c #9C2E00",
"i.	c #0E0100",
"j.	c #570B00",
"k.	c #E42B00",
"l.	c #DD3600",
"m.	c #D64200",
"n.	c #C85800",
"o.	c #C16300",
"p.	c #B37900",
"q.	c #695000",
"r.	c #322B00",
"s.	c #2E2C00",
"t.	c #2C2F00",
"u.	c #212700",
"v.	c #202900",
"w.	c #1D2900",
"x.	c #1B2A00",
"y.	c #142200",
"z.	c #132100",
"A.	c #121F00",
"B.	c #111E00",
"C.	c #0D1600",
"D.	c #0B1300",
"E.	c #0C1100",
"F.	c #0C1000",
"G.	c #080900",
"H.	c #070800",
"I.	c #837F00",
"J.	c #A59000",
"K.	c #B37A00",
"L.	c #C85900",
"M.	c #CF4E00",
"N.	c #270300",
"O.	c #E22100",
"P.	c #E32D00",
"Q.	c #DC3800",
"R.	c #D54400",
"S.	c #CE4F00",
"T.	c #C75B00",
"U.	c #BF6600",
"V.	c #B87100",
"W.	c #B17C00",
"X.	c #AA8800",
"Y.	c #A49300",
"Z.	c #9D9E00",
"`.	c #96A900",
" +	c #8FB300",
".+	c #89BE00",
"++	c #82C800",
"@+	c #7DD100",
"#+	c #77D900",
"$+	c #74DF00",
"%+	c #72E200",
"&+	c #74E000",
"*+	c #77DA00",
"=+	c #7CD200",
"-+	c #82C900",
";+	c #88BF00",
">+	c #8FB400",
",+	c #95AA00",
"'+	c #9C9F00",
")+	c #A39400",
"!+	c #B17D00",
"~+	c #B87200",
"{+	c #CD5000",
"]+	c #D53700",
"^+	c #220700",
"/+	c #100100",
"(+	c #D51400",
"_+	c #E92300",
":+	c #E22E00",
"<+	c #C55C00",
"[+	c #BE6800",
"}+	c #B77300",
"|+	c #B07F00",
"1+	c #A98A00",
"2+	c #A29500",
"3+	c #9BA100",
"4+	c #94AC00",
"5+	c #8DB700",
"6+	c #86C200",
"7+	c #7FCD00",
"8+	c #78D800",
"9+	c #6DEA00",
"0+	c #6BED00",
"a+	c #78D900",
"b+	c #7FCE00",
"c+	c #85C300",
"d+	c #8CB800",
"e+	c #93AD00",
"f+	c #9AA200",
"g+	c #A19600",
"h+	c #B77400",
"i+	c #BE6900",
"j+	c #CC5200",
"k+	c #BE2700",
"l+	c #290200",
"m+	c #F01800",
"n+	c #E22F00",
"o+	c #DB3B00",
"p+	c #AF8000",
"q+	c #A19700",
"r+	c #93AE00",
"s+	c #8CB900",
"t+	c #84C500",
"u+	c #7DD000",
"v+	c #76DB00",
"w+	c #6FE700",
"x+	c #68F200",
"y+	c #64F900",
"z+	c #6FE800",
"A+	c #76DC00",
"B+	c #84C600",
"C+	c #8BBA00",
"D+	c #92AF00",
"E+	c #99A300",
"F+	c #A19800",
"G+	c #A88C00",
"H+	c #BD6900",
"I+	c #E13000",
"J+	c #881500",
"K+	c #AF1200",
"L+	c #E82400",
"M+	c #440700",
"N+	c #0B0000",
"O+	c #340500",
"P+	c #E92400",
"Q+	c #DD1600",
"R+	c #120100",
"S+	c #B61A00",
"T+	c #72E100",
"U+	c #95A900",
"V+	c #DB3900",
"W+	c #EA2200",
"X+	c #D21400",
"Y+	c #0F0100",
"Z+	c #3F0800",
"`+	c #986700",
" @	c #352900",
".@	c #393000",
"+@	c #3F3D00",
"@@	c #464B00",
"#@	c #4C5900",
"$@	c #4D6600",
"%@	c #517400",
"&@	c #558400",
"*@	c #579000",
"=@	c #5A9B00",
"-@	c #62AB00",
";@	c #67B100",
">@	c #6DB600",
",@	c #78BC00",
"'@	c #83BC00",
")@	c #98A500",
"!@	c #9F9A00",
"~@	c #E42C00",
"{@	c #E12000",
"]@	c #220300",
"^@	c #0A0100",
"/@	c #BD2100",
"(@	c #845500",
"_@	c #090600",
":@	c #070900",
"<@	c #090C00",
"[@	c #0A0D00",
"}@	c #0B1000",
"|@	c #080E00",
"1@	c #080C00",
"2@	c #060A00",
"3@	c #040500",
"4@	c #010100",
"5@	c #060600",
"6@	c #0D0D00",
"7@	c #625A00",
"8@	c #D73F00",
"9@	c #DE3400",
"0@	c #E42900",
"a@	c #480900",
"b@	c #4A0D00",
"c@	c #784800",
"d@	c #0D0900",
"e@	c #090900",
"f@	c #6B5D00",
"g@	c #DA3C00",
"h@	c #E03100",
"i@	c #741300",
"j@	c #080100",
"k@	c #C32600",
"l@	c #6A3B00",
"m@	c #080500",
"n@	c #0C0B00",
"o@	c #826700",
"p@	c #9D1F00",
"q@	c #080000",
"r@	c #571000",
"s@	c #E03200",
"t@	c #D93C00",
"u@	c #5D3000",
"v@	c #090700",
"w@	c #996F00",
"x@	c #D93D00",
"y@	c #BC2B00",
"z@	c #CB2800",
"A@	c #4B2300",
"B@	c #B07400",
"C@	c #CD3300",
"D@	c #180500",
"E@	c #641100",
"F@	c #CF4C00",
"G@	c #391800",
"H@	c #0A0600",
"I@	c #D73A00",
"J@	c #380D00",
"K@	c #D22700",
"L@	c #DF3300",
"M@	c #290F00",
"N@	c #1C1000",
"O@	c #5F1700",
"P@	c #711100",
"Q@	c #180800",
"R@	c #341A00",
"S@	c #8D2200",
"T@	c #DD2200",
"U@	c #E32C00",
"V@	c #512300",
"W@	c #B22B00",
"X@	c #800F00",
"Y@	c #020100",
"Z@	c #060200",
"`@	c #6D2800",
" #	c #CA2E00",
".#	c #130400",
"+#	c #E61A00",
"@#	c #D92000",
"##	c #070100",
"$#	c #100600",
"%#	c #892A00",
"&#	c #DD3000",
"*#	c #2E0800",
"=#	c #8F0B00",
"-#	c #CB1500",
";#	c #110500",
">#	c #A62900",
",#	c #550F00",
"'#	c #170100",
")#	c #B80C00",
"!#	c #C42600",
"~#	c #E62700",
"{#	c #831300",
"]#	c #0F0000",
"^#	c #520200",
"/#	c #140100",
"(#	c #E22000",
"_#	c #AF1500",
":#	c #110000",
"<#	c #D21300",
"[#	c #090000",
"}#	c #180100",
"|#	c #220100",
"1#	c #0C0000",
"                                                                                                ",
"                                                                                                ",
"                                                                                                ",
"                                                                                                ",
"                                  .                                                             ",
"                                + @                                                             ",
"                              # $ %                             &                               ",
"                              * = -                             &                               ",
"                            # ; > ,                             ' )                             ",
"                          ! ~ { ]                               ^ / #                           ",
"                        ( _ : < [                               } | 1 )                         ",
"                      ! 2 3 4 5 6                               7 8 9 ,                         ",
"                      0 a b c d e                               f g c h !                       ",
"                    ) i b c j k l                               m n o p q r                     ",
"                  ! s 4 c j t u v                               w x t o y z                     ",
"                A B < 5 C D E F                               G H I x n g J K                   ",
"              ! L M N O P Q R S                               T U V W X Y Z `  .                ",
"              ..+.@.#.o $.%.&.*.                              =.-.;.>.,.'.).!.~.{.              ",
"            ].^./.(.O Y E _.:.=.                              <.[.}.|.1.x 2.Z 3.4.              ",
"          5.6.7.8.5 j $.%.>.9.0.                              a.b.c.d.e.,.$.f.g.h.!             ",
"        i.j.k.l.m.c n.o.W p.q.r.s.t.u.v.w.x.y.z.A.B.C.D.E.F.G.H.I.J.}.K.I Q L.M.m.B (           ",
"        N.O.P.Q.R.S.T.U.V.W.X.Y.Z.`. +.+++@+#+$+%+&+*+=+-+;+>+,+'+)+X.!+~+x Y {+b ]+^+          ",
"      /+(+_+:+: b O <+[+}+|+1+2+3+4+5+6+7+8+%+9+0+9+%+a+b+c+d+e+f+g+c.|+h+i+D j+(./.k+].        ",
"      l+m+_+n+o+(.j+D i+h+p+c.q+f+r+s+t+u+v+w+x+y+x+z+A+@+B+C+D+E+F+G+d.>.H+t j+N /.I+J++       ",
"      i.K+_+n+o+(.j+D i+h+p+c.q+f+r+s+t+u+v+w+x+y+x+z+A+@+B+C+D+E+F+G+d.>.H+t j+N /.I+L+M+N+    ",
"        O+_+:+: b O 2.[+}+|+1+2+3+4+5+6+7+8+%+9+0+9+%+a+b+c+d+e+f+g+c.|+h+i+D j+(./.n+P+Q+R+    ",
"        5.S+P.Q.R.S.T.E V.W.X.Y.Z.`. +.+++@+a+$+T+$+*+=+-+;+>+U+'+)+X.!+~+x Y {+b V+:+W+X+Y+    ",
"          Z+k.l.m.c n.o.W `+ @.@+@@@#@$@%@&@*@=@-@;@>@,@'@d+D+)@!@J.}.K.I Q L.M.m.{ ~@{@]@      ",
"          ^@/@7.8.5 j $.%.(@_@      & :@<@[@}@}@|@1@2@3@4@4@5@6@7@c.p+e.,.$.f.g.8@9@0@a@#       ",
"            b@I+/.(.O Y E c@d@                                e@f@}.|.1.x 2.Z N g@h@i@+         ",
"            j@k@{ @.#.o $.l@m@                                n@o@;.>.,.'.).c m.Q.p@^@          ",
"            q@r@s@t@(.{+P u@                                  v@w@V W X Y Z N x@y@{.            ",
"              j@z@{ < 5 C A@                                  G B@I U.n g 8 @.C@D@              ",
"              ! E@I+: 4 F@G@                                  H@W U.t o c R.I@J@{.              ",
"                j@K@L@g@b M@                                  N@X n o p b x@O@(                 ",
"                - P@~@9@x@Q@                                  R@Y g c b x@S@!                   ",
"                  5.T@U@9@r                                   V@Z 8 R.x@W@)                     ",
"                  i.X@P+U@Y@                                Z@`@N < :  #.#                      ",
"                    Y++#@###                                $#%#x@{ &#*#!                       ",
"                    Y+=#-#-                                 ;#>#s@P.,#+                         ",
"                      '#)#R+                                # !#~#{#+                           ",
"                      ]#^#/#                                % (#_#^@                            ",
"                        @ :#                                ^@<#i.                              ",
"                        ]#[#                                }#|#                                ",
"                                                            & 1#                                ",
"                                                            [#                                  ",
"                                                                                                ",
"                                                                                                "};
