/* XPM */
static char * gcode_xpm[] = {
"48 48 312 2",
"  	c None",
". 	c #050300",
"+ 	c #0F0901",
"@ 	c #100A01",
"# 	c #0C0701",
"$ 	c #040200",
"% 	c #040300",
"& 	c #080600",
"* 	c #0E0A01",
"= 	c #161001",
"- 	c #140F00",
"; 	c #080401",
"> 	c #070401",
", 	c #432705",
"' 	c #86510A",
") 	c #B26E0C",
"! 	c #C6800C",
"~ 	c #D78F0D",
"{ 	c #E8A00E",
"] 	c #E9A60D",
"^ 	c #DFA30B",
"/ 	c #CF9C09",
"( 	c #B28A08",
"_ 	c #8D7006",
": 	c #5F4E04",
"< 	c #1B1701",
"[ 	c #0C0900",
"} 	c #191600",
"| 	c #060200",
"1 	c #201002",
"2 	c #9C550C",
"3 	c #E98612",
"4 	c #F09011",
"5 	c #F19510",
"6 	c #F19B0F",
"7 	c #F1A10F",
"8 	c #F1A60E",
"9 	c #F1AC0D",
"0 	c #F1B10C",
"a 	c #F1B70B",
"b 	c #F1BC0A",
"c 	c #F1C10A",
"d 	c #F1C609",
"e 	c #F1CA08",
"f 	c #F1CF07",
"g 	c #D3B806",
"h 	c #817203",
"i 	c #1D1A01",
"j 	c #131100",
"k 	c #070301",
"l 	c #934D0D",
"m 	c #EF8313",
"n 	c #F08A12",
"o 	c #F08F11",
"p 	c #F1B20C",
"q 	c #F1C209",
"r 	c #F1C709",
"s 	c #F1CC08",
"t 	c #F1D007",
"u 	c #F1D506",
"v 	c #F1D906",
"w 	c #F1DC05",
"x 	c #F0DD05",
"y 	c #030300",
"z 	c #000000",
"A 	c #160B02",
"B 	c #D16D11",
"C 	c #F08313",
"D 	c #F08912",
"E 	c #F1A00F",
"F 	c #F1BD0A",
"G 	c #F1C808",
"H 	c #F1CD08",
"I 	c #F1D207",
"J 	c #F1D706",
"K 	c #F1DB06",
"L 	c #F1DF05",
"M 	c #F1E204",
"N 	c #F1E404",
"O 	c #150A02",
"P 	c #DD7212",
"Q 	c #F08213",
"R 	c #F08812",
"S 	c #F08E11",
"T 	c #F19410",
"U 	c #F19A10",
"V 	c #EEB00C",
"W 	c #C29309",
"X 	c #A88407",
"Y 	c #967A06",
"Z 	c #9B8105",
"` 	c #AC9306",
" .	c #C4AB06",
"..	c #EDD506",
"+.	c #F1DD05",
"@.	c #F1E105",
"#.	c #F1E504",
"$.	c #F1E804",
"%.	c #F1E903",
"&.	c #060301",
"*.	c #D36C12",
"=.	c #F08113",
"-.	c #F08712",
";.	c #F08D11",
">.	c #F19311",
",.	c #F19910",
"'.	c #F19F0F",
").	c #F1A50E",
"!.	c #CA900B",
"~.	c #563F04",
"{.	c #0A0800",
"].	c #130F01",
"^.	c #151101",
"/.	c #131000",
"(.	c #0F0D00",
"_.	c #111000",
":.	c #0D0B00",
"<.	c #050500",
"[.	c #282601",
"}.	c #7B7702",
"|.	c #D3CE03",
"1.	c #F1ED03",
"2.	c #030100",
"3.	c #934B0D",
"4.	c #F08013",
"5.	c #F08613",
"6.	c #F08C12",
"7.	c #F19211",
"8.	c #F19810",
"9.	c #F19E0F",
"0.	c #F0A30E",
"a.	c #7A5607",
"b.	c #0D0A01",
"c.	c #181202",
"d.	c #060600",
"e.	c #2E2E00",
"f.	c #B3B201",
"g.	c #190C02",
"h.	c #EF7E14",
"i.	c #F08513",
"j.	c #F08B12",
"k.	c #F19111",
"l.	c #F19710",
"m.	c #F19D0F",
"n.	c #F1A30E",
"o.	c #634605",
"p.	c #1A1301",
"q.	c #954E0D",
"r.	c #F08413",
"s.	c #F19610",
"t.	c #F19C0F",
"u.	c #F1A20E",
"v.	c #9B6C08",
"w.	c #181101",
"x.	c #030200",
"y.	c #E77D12",
"z.	c #ECA30E",
"A.	c #191201",
"B.	c #281503",
"C.	c #F1A40E",
"D.	c #A07109",
"E.	c #241A02",
"F.	c #613607",
"G.	c #F1A80D",
"H.	c #5F4405",
"I.	c #352702",
"J.	c #864C0A",
"K.	c #271D02",
"L.	c #9F5E0C",
"M.	c #F1AA0D",
"N.	c #F1AF0C",
"O.	c #3D3A01",
"P.	c #706D01",
"Q.	c #706E01",
"R.	c #706C01",
"S.	c #706A02",
"T.	c #706902",
"U.	c #706603",
"V.	c #706303",
"W.	c #706103",
"X.	c #090800",
"Y.	c #B66C0D",
"Z.	c #F1A10E",
"`.	c #F1A70E",
" +	c #F1AD0D",
".+	c #EFB10C",
"++	c #8C8402",
"@+	c #F1E704",
"#+	c #F1DE05",
"$+	c #F1D507",
"%+	c #141001",
"&+	c #B66F0D",
"*+	c #EFB40B",
"=+	c #8C8302",
"-+	c #F1E304",
";+	c #F1D806",
">+	c #F1D307",
",+	c #F1CE07",
"'+	c #F1C908",
")+	c #F1C409",
"!+	c #A2640A",
"~+	c #8C8102",
"{+	c #F1D606",
"]+	c #F1C309",
"^+	c #F1BE0A",
"/+	c #89560A",
"(+	c #F1A90D",
"_+	c #F1AE0C",
":+	c #F1B40C",
"<+	c #F1B90B",
"[+	c #261E02",
"}+	c #595202",
"|+	c #A19104",
"1+	c #A19004",
"2+	c #A18F04",
"3+	c #A49005",
"4+	c #F1CB08",
"5+	c #F1B80B",
"6+	c #140F01",
"7+	c #633F06",
"8+	c #F1AB0D",
"9+	c #F1B00C",
"0+	c #F1B50B",
"a+	c #F1BA0B",
"b+	c #5D4904",
"c+	c #342B02",
"d+	c #0F0E00",
"e+	c #120F00",
"f+	c #040400",
"g+	c #F1C509",
"h+	c #291B02",
"i+	c #F1B60B",
"j+	c #9D7C07",
"k+	c #251E01",
"l+	c #F1BF0A",
"m+	c #140E01",
"n+	c #E89D0E",
"o+	c #EBBA0A",
"p+	c #010000",
"q+	c #966609",
"r+	c #927506",
"s+	c #1C1601",
"t+	c #140D01",
"u+	c #1B1201",
"v+	c #F0A80D",
"w+	c #524203",
"x+	c #1C1701",
"y+	c #020100",
"z+	c #976909",
"A+	c #EEBC0A",
"B+	c #644F04",
"C+	c #110D01",
"D+	c #140C01",
"E+	c #080500",
"F+	c #D79A0C",
"G+	c #F1BB0A",
"H+	c #BA9008",
"I+	c #423303",
"J+	c #151001",
"K+	c #110C00",
"L+	c #0F0B01",
"M+	c #060500",
"N+	c #3C2903",
"O+	c #F08D12",
"P+	c #140B02",
"Q+	c #191301",
"R+	c #E3A40C",
"S+	c #E8AE0B",
"T+	c #B78809",
"U+	c #A27708",
"V+	c #916807",
"W+	c #A07209",
"X+	c #B57E0A",
"Y+	c #E79E0D",
"Z+	c #1D1401",
"`+	c #D89C0C",
" @	c #140A02",
".@	c #0A0700",
"+@	c #A37408",
"@@	c #F1AE0D",
"#@	c #E87B13",
"$@	c #934B0C",
"%@	c #2E2002",
"&@	c #AE7909",
"*@	c #ED8413",
"=@	c #B6620E",
"-@	c #6A3809",
";@	c #0F0701",
">@	c #1B0D03",
",@	c #0E0901",
"'@	c #563A05",
")@	c #956409",
"!@	c #BA7C0C",
"~@	c #CC860D",
"{@	c #DF900E",
"]@	c #E48E0F",
"^@	c #D7830F",
"/@	c #C9790E",
"(@	c #A35F0C",
"_@	c #7A4509",
":@	c #492706",
"<@	c #0C0601",
"[@	c #150A01",
"}@	c #110702",
"|@	c #090600",
"1@	c #110B01",
"2@	c #0F0A01",
"3@	c #090501",
"4@	c #060400",
"5@	c #100901",
"6@	c #160D01",
"7@	c #0D0700",
"                                                                                                ",
"                                                                                                ",
"                                                                                                ",
"                                                                                                ",
"                                                                                                ",
"                                                                                                ",
"                                                                                                ",
"                                                                                                ",
"                                                                                                ",
"                                                                                                ",
"                                                                                                ",
"                                                                                                ",
"                                                                                                ",
"                                          . + @ # $ % & * = -                                   ",
"                                    ; > , ' ) ! ~ { ] ^ / ( _ : < [ }                           ",
"                                | 1 2 3 4 5 6 7 8 9 0 a b c d e f g h i j                       ",
"                              k l m n o 5 6 7 8 9 p a b q r s t u v w x y                       ",
"                          z A B C D o 5 6 E 8 9 p a F q G H I J K L M N y                       ",
"                          O P Q R S T U E 8 9 V W X Y Z `  ...+.@.#.$.%.y                       ",
"                        &.*.=.-.;.>.,.'.).!.~.{.].^./.(._.:.<.[.}.|.1.1.y                       ",
"                      2.3.4.5.6.7.8.9.0.a.b.c.                  y d.e.f.y                       ",
"                      g.h.i.j.k.l.m.n.o.p.                            d.z                       ",
"                    z q.r.n 4 s.t.u.v.w.                                                        ",
"                    x.y.R S T U E z.A.                                                          ",
"                    B.5.6.7.8.9.C.D.E.                                                          ",
"                  z F.n 4 s.t.u.G.H.I.                                                          ",
"                  z J.S T U E 8 9 K.                                                            ",
"                  z L.7.8.9.C.M.N.*               z O.P.Q.Q.Q.R.S.T.U.V.W.X.                    ",
"                  z Y.5 6 Z.`. +.+x.              z ++@+$.@+#.M #+v $+f e %+                    ",
"                  z &+8.9.C.M.N.*+x.              z =+-+-+M L w ;+>+,+'+)+%+                    ",
"                  z !+6 Z.`.9 p a b.              z ~+L #+w v {+I H G ]+^+%+                    ",
"                  z /+9.n.(+_+:+<+[+              z }+|+1+2+3+f 4+r q F 5+6+                    ",
"                  z 7+E ).8+9+0+a+b+c+              d+j j e+f+'+g+c b a p 6+                    ",
"                    h+u.`.9 0 i+a+j+k+                      x.]+l+a+i+0 9 m+                    ",
"                    x.n+G. +p i+a+o+^.                      x.F <+:+9+8+8 m+                    ",
"                    p+q+(+ +p i+a+F r+s+                    x.i+p _+(+).E t+                    ",
"                      u+v+ +p 0+<+b l+w+x+                  x.9+9 G.n.9.U t+                    ",
"                      y+z+ +0 :+a a+b A+B+C+                x.M.8 Z.m.8.>.D+                    ",
"                        E+F+N.p 0+a <+a+G+H+I+& 6+J+K+C+L+M+N+C.'.6 l.7.O+P+                    ",
"                          Q+R+9+p :+0+i+a i+i+S+T+U+V+W+X+Y+Z.m.,.5 4 6.-.P+                    ",
"                          z Z+`+N.0 p p p 0 0 N. +8+G.8 u.'.6 l.>.o n 5.=. @                    ",
"                              .@+@ + +@@ +9 8+M.G.).u.'.t.,.5 k.O+R r.#@$@k                     ",
"                                M+%@&@v+G.`.8 C.u.'.t.,.s.7.o j.*@=@-@;@>@                      ",
"                                    & ,@'@)@!@~@{@,.]@^@/@(@_@:@<@[@}@                          ",
"                                          |@1@2@3@z 4@<@5@6@7@                                  ",
"                                                                                                ",
"                                                                                                ",
"                                                                                                "};
