/* XPM */
static char * last_xpm[] = {
"32 32 240 2",
"  	c None",
". 	c #AEAEAE",
"+ 	c #5A5953",
"@ 	c #EAEAEA",
"# 	c #ABABAB",
"$ 	c #D6D6D6",
"% 	c #939393",
"& 	c #030301",
"* 	c #4A4940",
"= 	c #A7A7A7",
"- 	c #767676",
"; 	c #404032",
"> 	c #28281C",
", 	c #DFDFDF",
"' 	c #989898",
") 	c #56540C",
"! 	c #57550A",
"~ 	c #424239",
"{ 	c #E8E8E8",
"] 	c #919191",
"^ 	c #5F5F5F",
"/ 	c #484839",
"( 	c #333202",
"_ 	c #37372A",
": 	c #E7E7E7",
"< 	c #9E9E9E",
"[ 	c #54530D",
"} 	c #F5EF00",
"| 	c #58560A",
"1 	c #414138",
"2 	c #8F8F8F",
"3 	c #616161",
"4 	c #515043",
"5 	c #A5A100",
"6 	c #6A6708",
"7 	c #3E3E34",
"8 	c #E9E9E9",
"9 	c #A4A4A4",
"0 	c #4E4D0E",
"a 	c #F8F200",
"b 	c #585609",
"c 	c #8D8D8D",
"d 	c #636363",
"e 	c #58584C",
"f 	c #9E9A00",
"g 	c #F6F000",
"h 	c #514F09",
"i 	c #535349",
"j 	c #A9A9A9",
"k 	c #48470F",
"l 	c #595708",
"m 	c #3B3A31",
"n 	c #E6E6E6",
"o 	c #8B8B8B",
"p 	c #656565",
"q 	c #606056",
"r 	c #959100",
"s 	c #F2EC00",
"t 	c #43410B",
"u 	c #64645D",
"v 	c #AFAFAF",
"w 	c #43410F",
"x 	c #E5E5E5",
"y 	c #898989",
"z 	c #676767",
"A 	c #686860",
"B 	c #8D8A00",
"C 	c #EAE500",
"D 	c #2F2F0A",
"E 	c #7F7E79",
"F 	c #B4B4B4",
"G 	c #3D3C0F",
"H 	c #5A5808",
"I 	c #3B3B31",
"J 	c #888888",
"K 	c #686868",
"L 	c #70706B",
"M 	c #858200",
"N 	c #E3DD00",
"O 	c #25240B",
"P 	c #939390",
"Q 	c #B9B9B9",
"R 	c #38370F",
"S 	c #3A3A30",
"T 	c #868686",
"U 	c #6A6A6A",
"V 	c #787877",
"W 	c #7C7901",
"X 	c #D6D100",
"Y 	c #191909",
"Z 	c #A3A3A2",
"` 	c #BFBFBF",
" .	c #32310F",
"..	c #5B5908",
"+.	c #3A3A2F",
"@.	c #848484",
"#.	c #6C6C6C",
"$.	c #7F7F7F",
"%.	c #757203",
"&.	c #C5C100",
"*.	c #15150A",
"=.	c #B8B8B8",
"-.	c #C5C5C5",
";.	c #2C2B0E",
">.	c #5B5907",
",.	c #39392F",
"'.	c #828282",
").	c #6E6E6E",
"!.	c #878787",
"~.	c #6C6A07",
"{.	c #B9B400",
"].	c #15150C",
"^.	c #C4C4C4",
"/.	c #CACACA",
"(.	c #26260D",
"_.	c #5C5A07",
":.	c #39392E",
"<.	c #E4E4E4",
"[.	c #808080",
"}.	c #707070",
"|.	c #8E8E8E",
"1.	c #656309",
"2.	c #A29E01",
"3.	c #1B1A11",
"4.	c #B7B7B7",
"5.	c #21200C",
"6.	c #5C5A06",
"7.	c #39382D",
"8.	c #797979",
"9.	c #717171",
"0.	c #979797",
"a.	c #5C5A0B",
"b.	c #918D03",
"c.	c #1F1F16",
"d.	c #1A1A09",
"e.	c #F4EE00",
"f.	c #555308",
"g.	c #2A291E",
"h.	c #737373",
"i.	c #3F3D05",
"j.	c #101004",
"k.	c #43410C",
"l.	c #35352F",
"m.	c #757575",
"n.	c #4B4A0E",
"o.	c #9C9802",
"p.	c #1C1C14",
"q.	c #0F0E06",
"r.	c #F3ED00",
"s.	c #4A480B",
"t.	c #5D5D55",
"u.	c #777777",
"v.	c #44420F",
"w.	c #B3AF00",
"x.	c #16160D",
"y.	c #C0C0C0",
"z.	c #0A0904",
"A.	c #4F4F46",
"B.	c #787878",
"C.	c #B6B6B6",
"D.	c #3C3B0F",
"E.	c #C8C300",
"F.	c #16160A",
"G.	c #BCBCBC",
"H.	c #040402",
"I.	c #666409",
"J.	c #434339",
"K.	c #BEBEBE",
"L.	c #33320F",
"M.	c #D9D400",
"N.	c #1B1A0A",
"O.	c #A7A7A6",
"P.	c #020201",
"Q.	c #767406",
"R.	c #38382C",
"S.	c #7B7B7B",
"T.	c #C6C6C6",
"U.	c #2B2B0E",
"V.	c #232209",
"W.	c #8E8E8B",
"X.	c #070703",
"Y.	c #F0EA00",
"Z.	c #858204",
"`.	c #2E2D22",
" +	c #E1E1E1",
".+	c #7D7D7D",
"++	c #CECECE",
"@+	c #23220C",
"#+	c #EDE800",
"$+	c #34330A",
"%+	c #706F6A",
"&+	c #0C0C07",
"*+	c #959103",
"=+	c #25251A",
"-+	c #DBDBDB",
";+	c #4A4809",
">+	c #595950",
",+	c #12120A",
"'+	c #E5DF00",
")+	c #D0D0D0",
"!+	c #6F6F6F",
"~+	c #818181",
"{+	c #DDDDDD",
"]+	c #131308",
"^+	c #636108",
"/+	c #EBEBEB",
"(+	c #18180E",
"_+	c #DFD900",
":+	c #B0AC00",
"<+	c #17170D",
"[+	c #C8C8C8",
"}+	c #6D6D6D",
"|+	c #838383",
"1+	c #0B0A05",
"2+	c #817E05",
"3+	c #2F2E24",
"4+	c #1E1D12",
"5+	c #BCB700",
"6+	c #15150B",
"7+	c #BDBDBD",
"8+	c #6B6B6B",
"9+	c #858585",
"0+	c #9A9602",
"a+	c #D8D8D8",
"b+	c #232316",
"c+	c #D4CF00",
"d+	c #C7C300",
"e+	c #B3B3B3",
"f+	c #050502",
"g+	c #29291B",
"h+	c #A7A300",
"i+	c #181809",
"j+	c #727272",
"k+	c #929292",
"l+	c #2E2E29",
"m+	c #2F2E20",
"n+	c #0E0E05",
"o+	c #91918F",
"p+	c #414139",
"q+	c #83837E",
"                                                                ",
"                                                                ",
"                            . + @                               ",
"      # $                   % & * @                     = -     ",
"      ; > ,                 ' ) ! ~ {                   ] ^     ",
"      / ( _ :               < [ } | 1 {                 2 3     ",
"      4 5 6 7 8             9 0 a } b 1 {               c d     ",
"      e f g h i             j k a a } l m n             o p     ",
"      q r a s t u           v w a a a } l m x           y z     ",
"      A B a a C D E         F G a a a a } H I x         J K     ",
"      L M a a a N O P       Q R a a a a a } H S x       T U     ",
"      V W a a a a X Y Z     `  .a a a a a a } ..+.x     @.#.    ",
"      $.%.a a a a a &.*.=.  -.;.a a a a a a a } >.,.x   '.).    ",
"      !.~.a a a a a a {.].^./.(.a a a a a a a a } _.:.<.[.}.    ",
"      |.1.a a a a a a a 2.3.4.5.a a a a a a a a a g 6.7.8.9.    ",
"      0.a.a a a a a a a a b.c.d.a a a a a a a a a a e.f.g.h.    ",
"      < [ a a a a a a a a a i.j.a a a a a a a a a a s k.l.m.    ",
"      = n.a a a a a a a a o.p.q.a a a a a a a a a r.s.t.8.u.    ",
"      . v.a a a a a a a w.x.y.z.a a a a a a a a g ! A.  B.B.    ",
"      C.D.a a a a a a E.F.G.  H.a a a a a a a a I.J.@   u.8.    ",
"      K.L.a a a a a M.N.O.    P.g a a a a a a Q.R.:     m.S.    ",
"      T.U.a a a a N V.W.      X.Y.a a a a a Z.`. +      h..+    ",
"      ++@+a a a #+$+%+        &+C a a a a *+=+-+        9.$.    ",
"      $ N.a a e.;+>+          ,+'+a a a 2.3.)+          !+~+    ",
"      {+]+a a ^+~ /+          (+_+a a :+<+[+            }+|+    ",
"      n 1+a 2+3+<.            4+M.a 5+6+7+              8+9+    ",
"        & 0+c.a+              b+c+d+F.e+                U T     ",
"        f+].T.                g+h+i+O.                  j+k+    ",
"        l+F                   m+n+o+                            ",
"                              p+q+                              ",
"                                                                ",
"                                                                "};
