/* XPM */
static char * logo64_xpm[] = {
"64 64 508 2",
"  	c None",
". 	c #00FFF3",
"+ 	c #000000",
"@ 	c #00E8DD",
"# 	c #008983",
"$ 	c #00B1A9",
"% 	c #009E96",
"& 	c #00B4AC",
"* 	c #011E1E",
"= 	c #024040",
"- 	c #024A4A",
"; 	c #024141",
"> 	c #022627",
", 	c #011A1B",
"' 	c #023C3E",
") 	c #025054",
"! 	c #02585E",
"~ 	c #023F44",
"{ 	c #012326",
"] 	c #013439",
"^ 	c #02565E",
"/ 	c #01383E",
"( 	c #008F88",
"_ 	c #012424",
": 	c #024646",
"< 	c #035757",
"[ 	c #036162",
"} 	c #024C4F",
"| 	c #024042",
"1 	c #024C50",
"2 	c #025D64",
"3 	c #02747C",
"4 	c #026F79",
"5 	c #015159",
"6 	c #016571",
"7 	c #014E58",
"8 	c #00A19A",
"9 	c #012222",
"0 	c #012A2A",
"a 	c #024C4D",
"b 	c #03696C",
"c 	c #03666A",
"d 	c #025B5F",
"e 	c #014044",
"f 	c #014348",
"g 	c #026E77",
"h 	c #027F8B",
"i 	c #027885",
"j 	c #01626E",
"k 	c #01454E",
"l 	c #013E46",
"m 	c #012B2B",
"n 	c #024B4D",
"o 	c #036F73",
"p 	c #037379",
"q 	c #02686F",
"r 	c #013C41",
"s 	c #01393E",
"t 	c #026E79",
"u 	c #028997",
"v 	c #028D9D",
"w 	c #016C79",
"x 	c #01373E",
"y 	c #013D46",
"z 	c #012829",
"A 	c #012729",
"B 	c #025154",
"C 	c #02777F",
"D 	c #026C74",
"E 	c #014147",
"F 	c #014046",
"G 	c #027480",
"H 	c #0291A3",
"I 	c #027280",
"J 	c #013D45",
"K 	c #01353D",
"L 	c #012A2B",
"M 	c #012C2D",
"N 	c #02555A",
"O 	c #027C85",
"P 	c #01444B",
"Q 	c #01454C",
"R 	c #027986",
"S 	c #0296A9",
"T 	c #027584",
"U 	c #004049",
"V 	c #013740",
"W 	c #012628",
"X 	c #012C2F",
"Y 	c #01585E",
"Z 	c #02808B",
"` 	c #02727D",
" .	c #01464E",
"..	c #027D8C",
"+.	c #029AAF",
"@.	c #017687",
"#.	c #014953",
"$.	c #135B0A",
"%.	c #197A0E",
"&.	c #012C2E",
"*.	c #012D30",
"=.	c #015C63",
"-.	c #028491",
";.	c #027581",
">.	c #014851",
",.	c #028192",
"'.	c #019EB4",
").	c #017789",
"!.	c #003E48",
"~.	c #01424C",
"{.	c #012E31",
"].	c #02646C",
"^.	c #02828F",
"/.	c #02808E",
"(.	c #02707D",
"_.	c #014A54",
":.	c #01525D",
"<.	c #02879A",
"[.	c #019AB0",
"}.	c #0198AE",
"|.	c #017788",
"1.	c #004752",
"2.	c #014854",
"3.	c #01373B",
"4.	c #015860",
"5.	c #02737F",
"6.	c #016874",
"7.	c #015C67",
"8.	c #015E6A",
"9.	c #017080",
"0.	c #0193A7",
"a.	c #018FA4",
"b.	c #017586",
"c.	c #016D7E",
"d.	c #016A7B",
"e.	c #014F5C",
"f.	c #013135",
"g.	c #027C88",
"h.	c #028693",
"i.	c #027C8B",
"j.	c #014C56",
"k.	c #014750",
"l.	c #027889",
"m.	c #0194A9",
"n.	c #019FB7",
"o.	c #018094",
"p.	c #004955",
"q.	c #016475",
"r.	c #019BB4",
"s.	c #016D80",
"t.	c #01353A",
"u.	c #028896",
"v.	c #028A9A",
"w.	c #027A89",
"x.	c #01454F",
"y.	c #018597",
"z.	c #01A1B9",
"A.	c #01A4BC",
"B.	c #017C90",
"C.	c #016778",
"D.	c #01B0CF",
"E.	c #01768B",
"F.	c #135C0A",
"G.	c #197B0E",
"H.	c #014F57",
"I.	c #028897",
"J.	c #027988",
"K.	c #016977",
"L.	c #015864",
"M.	c #016371",
"N.	c #0190A6",
"O.	c #019BB2",
"P.	c #018AA0",
"Q.	c #017588",
"R.	c #015C6C",
"S.	c #018097",
"T.	c #01B7D8",
"U.	c #017B91",
"V.	c #12610A",
"W.	c #18810D",
"X.	c #18800D",
"Y.	c #197F0D",
"Z.	c #197E0E",
"`.	c #197D0E",
" +	c #01525B",
".+	c #028697",
"++	c #01626F",
"@+	c #015561",
"#+	c #016F7E",
"$+	c #01879B",
"%+	c #0190A7",
"&+	c #01879E",
"*+	c #01A1BF",
"=+	c #01BFE1",
"-+	c #005565",
";+	c #126609",
">+	c #18880C",
",+	c #18870D",
"'+	c #18860D",
")+	c #18850D",
"!+	c #18840D",
"~+	c #18830D",
"{+	c #197C0E",
"]+	c #015B65",
"^+	c #004751",
"/+	c #018194",
"(+	c #01A2BB",
"_+	c #01AAC4",
":+	c #01889E",
"<+	c #004C59",
"[+	c #01687A",
"}+	c #01A9C7",
"|+	c #01BCDF",
"1+	c #00C5EA",
"2+	c #004C5B",
"3+	c #116B09",
"4+	c #178E0C",
"5+	c #178D0C",
"6+	c #178B0C",
"7+	c #188A0C",
"8+	c #18890C",
"9+	c #18820D",
"0+	c #01545F",
"a+	c #004D58",
"b+	c #00454F",
"c+	c #01889D",
"d+	c #01ABC6",
"e+	c #01AFCC",
"f+	c #00434F",
"g+	c #01677A",
"h+	c #01B5D6",
"i+	c #00C9F0",
"j+	c #005B6D",
"k+	c #117008",
"l+	c #17950B",
"m+	c #17940B",
"n+	c #17930B",
"o+	c #17920B",
"p+	c #17900B",
"q+	c #178F0C",
"r+	c #01616F",
"s+	c #018A9D",
"t+	c #004F5A",
"u+	c #004853",
"v+	c #018DA3",
"w+	c #01B4D2",
"x+	c #018AA2",
"y+	c #004551",
"z+	c #016C80",
"A+	c #00BADD",
"B+	c #00CEF6",
"C+	c #005364",
"D+	c #107507",
"E+	c #169B0A",
"F+	c #169A0A",
"G+	c #16990B",
"H+	c #16980B",
"I+	c #17960B",
"J+	c #178C0C",
"K+	c #016472",
"L+	c #018EA3",
"M+	c #015663",
"N+	c #00525F",
"O+	c #0194AC",
"P+	c #01B8D8",
"Q+	c #018FA9",
"R+	c #004C5A",
"S+	c #00758B",
"T+	c #00C0E5",
"U+	c #00D2FC",
"V+	c #005667",
"W+	c #107907",
"X+	c #15A10A",
"Y+	c #16A00A",
"Z+	c #169F0A",
"`+	c #169D0A",
" @	c #169C0A",
".@	c #17910B",
"+@	c #017283",
"@@	c #0192A8",
"#@	c #015966",
"$@	c #005665",
"%@	c #0199B3",
"&@	c #01BCDE",
"*@	c #0193AD",
"=@	c #00505F",
"-@	c #007A92",
";@	c #00C6EC",
">@	c #00D4FF",
",@	c #004E5D",
"'@	c #107F07",
")@	c #15A809",
"!@	c #15A609",
"~@	c #15A509",
"{@	c #15A309",
"]@	c #16A10A",
"^@	c #17900C",
"/@	c #015B69",
"(@	c #0198AF",
"_@	c #016171",
":@	c #0195AE",
"<@	c #01B2D2",
"[@	c #009AB7",
"}@	c #005D6F",
"|@	c #008098",
"1@	c #00BEE4",
"2@	c #00CDF7",
"3@	c #00D3FE",
"4@	c #0F8306",
"5@	c #14AE08",
"6@	c #15AC08",
"7@	c #15AA09",
"8@	c #15A409",
"9@	c #15A20A",
"0@	c #16970B",
"a@	c #188B0C",
"b@	c #18870C",
"c@	c #01525F",
"d@	c #01A6C2",
"e@	c #0191A9",
"f@	c #017E94",
"g@	c #017286",
"h@	c #018AA3",
"i@	c #00B9DB",
"j@	c #00B3D6",
"k@	c #0096B3",
"l@	c #008AA5",
"m@	c #00839D",
"n@	c #00AACD",
"o@	c #006E85",
"p@	c #0F8805",
"q@	c #14B408",
"r@	c #14B208",
"s@	c #14B008",
"t@	c #15AB08",
"u@	c #15A909",
"v@	c #169E0A",
"w@	c #016070",
"x@	c #01B7D6",
"y@	c #0196B2",
"z@	c #005362",
"A@	c #00687B",
"B@	c #00B5D8",
"C@	c #00CCF4",
"D@	c #00CDF6",
"E@	c #0090AD",
"F@	c #004553",
"G@	c #0089A5",
"H@	c #0093B0",
"I@	c #0E8C05",
"J@	c #13B907",
"K@	c #14B707",
"L@	c #14B507",
"M@	c #14B308",
"N@	c #14AD08",
"O@	c #15AB09",
"P@	c #014C58",
"Q@	c #0190A9",
"R@	c #01AFCF",
"S@	c #01A8C6",
"T@	c #007990",
"U@	c #00778E",
"V@	c #0094B1",
"W@	c #00D0FA",
"X@	c #00A5C6",
"Y@	c #006A7F",
"Z@	c #0086A1",
"`@	c #00A8CA",
" #	c #006D82",
".#	c #0E9104",
"+#	c #13BE06",
"@#	c #13BC07",
"##	c #13BA07",
"$#	c #14B407",
"%#	c #14B108",
"&#	c #16960B",
"*#	c #013E49",
"=#	c #016678",
"-#	c #01A6C4",
";#	c #00BDE1",
">#	c #00B1D3",
",#	c #0090AC",
"'#	c #006479",
")#	c #008CA8",
"!#	c #00CBF4",
"~#	c #00C3EB",
"{#	c #00AFD3",
"]#	c #006478",
"^#	c #0D9404",
"/#	c #12C306",
"(#	c #13C106",
"_#	c #13BB07",
":#	c #13B807",
"<#	c #15A709",
"[#	c #00343D",
"}#	c #005666",
"|#	c #00A4C3",
"1#	c #009CBC",
"2#	c #004D5D",
"3#	c #007991",
"4#	c #00C9F2",
"5#	c #00849F",
"6#	c #00414E",
"7#	c #00677C",
"8#	c #0D9804",
"9#	c #12C805",
"0#	c #12C506",
"a#	c #13C206",
"b#	c #13BF06",
"c#	c #14B807",
"d#	c #005F71",
"e#	c #00AACB",
"f#	c #00A0C1",
"g#	c #005465",
"h#	c #007F99",
"i#	c #00CCF5",
"j#	c #0088A3",
"k#	c #004A59",
"l#	c #005F73",
"m#	c #0D9B03",
"n#	c #12CC05",
"o#	c #14B607",
"p#	c #14AF08",
"q#	c #00404C",
"r#	c #006578",
"s#	c #00B0D2",
"t#	c #005668",
"u#	c #005060",
"v#	c #006175",
"w#	c #0D9D03",
"x#	c #11CF04",
"y#	c #12CB05",
"z#	c #12C705",
"A#	c #13C006",
"B#	c #00272E",
"C#	c #003742",
"D#	c #007D96",
"E#	c #00839E",
"F#	c #005567",
"G#	c #00333E",
"H#	c #005161",
"I#	c #007289",
"J#	c #007188",
"K#	c #005E72",
"L#	c #00313B",
"M#	c #003844",
"N#	c #0D9F03",
"O#	c #11D004",
"P#	c #12CD05",
"Q#	c #12C905",
"R#	c #13BC06",
"S#	c #19800D",
"T#	c #12C605",
"U#	c #12CA05",
"V#	c #12CF04",
"W#	c #11D304",
"X#	c #10CC04",
"Y#	c #0DAF02",
"Z#	c #0DB202",
"`#	c #0DB602",
" $	c #0CB902",
".$	c #0CBB01",
"+$	c #0CBE01",
"@$	c #0CBF01",
"#$	c #0CBD01",
"$$	c #0CBA01",
"%$	c #0CB702",
"&$	c #0DB402",
"*$	c #0DB102",
"=$	c #0EAE02",
"-$	c #10CA04",
";$	c #11D104",
">$	c #15A209",
",$	c #12C406",
"'$	c #11D504",
")$	c #11D903",
"!$	c #10DD03",
"~$	c #10E102",
"{$	c #0FE502",
"]$	c #0FE901",
"^$	c #0FEE01",
"/$	c #0EF200",
"($	c #0EF600",
"_$	c #0FEC01",
":$	c #0FEF01",
"<$	c #0FED01",
"[$	c #0FEA01",
"}$	c #0FE702",
"|$	c #10E302",
"1$	c #10DF03",
"2$	c #10DB03",
"3$	c #11D704",
"4$	c #11D404",
"5$	c #11D803",
"6$	c #10DC03",
"7$	c #10E202",
"8$	c #0FE802",
"9$	c #10E502",
"0$	c #10DE03",
"a$	c #11D703",
"b$	c #11D204",
"c$	c #10E003",
"d$	c #10E002",
"e$	c #11D604",
"f$	c #10DA03",
"g$	c #16990A",
"h$	c #13BD06",
"i$	c #197E0D",
". . . . . . . . . . . . . . . . . . . . . . . . . . . . . . . . . + + + + + + . . . . . . . . . . . . . . . . . . . . . . . . . ",
". . . . . . . . . . . . . . . . . . . . . . . . . . . . . . . . . + + + + + + . . . . . . . . . . . . . . . . . . . . . . . . . ",
". . . . . . . . . . . . . . . . . . . . . . . . . . . . . . . . . + + + + + + . . . . . . . . . . . . . . . . . . . . . . . . . ",
". . . . . . . . . . . . . . . . . . . . . . . . . . . . . . . . . + + + + + + . . . . . . . . . . . . . . . . . . . . . . . . . ",
". . . . . . . . . . . . . . . . . . . . . . . . . . . . . . . . . + + + + + + . . . . . . . . . . . . . . . . . . . . . . . . . ",
". . . . . . . . . . . . . . . . . . . . . . . . . . . . . . . . . + + + + + + . . . . . . . . . . . . . . . . . . . . . . . . . ",
". . . . . . . . . . . . . . . . . . . . . . . . . . . . . . . . . + + + + + + . . . . . . . . . . . . . . . . . . . . . . . . . ",
". . . . . . . . . . . . . . . . . . . . . . . . . . . . . . . . . + + + + + + . . . . . . . . . . . . . . . . . . . . . . . . . ",
". . . . . . . . . . . . . . . . . . . . . . . . . . . . . . . . . + + + + + + . . . . . . . . . . . . . . . . . . . . . . . . . ",
". . . . . . . . . . . . . . . . . . . . . . . . . . . . . . . . . + + + + + + . . . . . . . . . . . . . . . . . . . . . . . . . ",
". . . . . . . . . . . . . . . . . . . . . . . . . . . . . . . . . + + + + + + . . . . . . . . . . . . . . . . . . . . . . . . . ",
". . . . . . . . . . . . . . . . . . . . . . . . . . . . . . . . . + + + + + + . . . . . . . . . . . . . . . . . . . . . . . . . ",
". . . . . . . . . . . . . . . . . . . . . . . . . . . . . . . . . + + + + + + . . . . . . . . . . . . . . . . . . . . . . . . . ",
". . . . . . . . . . . . . . . . . . . . . . . . . . . . . . . . . + + + + + + . . . . . . . . . . . . . . . . . . . . . . . . . ",
". . . . . . . . . . . . . . . . . . . . . . . . . . . . @ # # $ % + + + + + + # $ % % @ . . . . . . . . . . . . . . . . . . . . ",
". . . . . . . . . . . . . . . . . . . . . . . . . . . . & * = - ; > , ' ) ! ~ { ] ^ / ( . . . . . . . . . . . . . . . . . . . . ",
". . . . . . . . . . . . . . . . . . . . . . . . . . . . ( _ : < [ } | 1 2 3 4 5 5 6 7 8 . . . . . . . . . . . . . . . . . . . . ",
". . . . . . . . . . . . . . . . . . . . . . . . . . . . ( 9 0 a b c d e f g h i j k l 8 . . . . . . . . . . . . . . . . . . . . ",
". . . . . . . . . . . . . . . . . . . . . . . . . . . . & m 9 n o p q r s t u v w x y & . . . . . . . . . . . . . . . . . . . . ",
". . . . . . . . . . . . . . . . . . . . . . . . . . . . 8 z A B p C D E F G v H I J K ( . . . . . . . . . . . . . . . . . . . . ",
". . . . . . . . . . . . . . . . . . . . . . . . . . . . 8 L M N C O 4 P Q R H S T U V ( . . . . . . . . . . . . . . . . . . . . ",
". . . . . . . . . . . . . . . . . . . . . . . . . . . . ( W X Y O Z ` Q  ...S +.@.U #.$.%.%.%.%.%.%.%.%.%.%.%.%.%.%.%.%.%.%.%.%.",
". . . . . . . . . . . . . . . . . . . . . . . . . . . . 8 &.*.=.Z -.;.Q >.,.+.'.).!.~.$.%.%.%.%.%.%.%.%.%.%.%.%.%.%.%.%.%.%.%.%.",
". . . . . . . . . . . . . . . . . . . . . . . . . . . . 8 {.s ].^./.(._.:.<.[.}.|.1.2.$.%.%.%.%.%.%.%.%.%.%.%.%.%.%.%.%.%.%.%.%.",
". . . . . . . . . . . . . . . . . . . . . . . . . . . . & 3.4.5./.6.7.8.9.0.a.b.c.d.e.$.%.%.%.%.%.%.%.%.%.%.%.%.%.%.%.%.%.%.%.%.",
". . . . . . . . . . . . . . . . . . . . . . . . . . . . ( f.g.h.i.j.k.l.m.n.o.p.q.r.s.$.%.%.%.%.%.%.%.%.%.%.%.%.%.%.%.%.%.%.%.%.",
". . . . . . . . . . . . . . . . . . . . . . . . . . . . ( t.u.v.w.k.x.y.z.A.B.!.C.D.E.F.G.%.%.%.%.%.%.%.%.%.%.%.%.%.%.%.%.%.%.%.",
". . . . . . . . . . . . . . . . . . . . . . . . . . . . & H.I.J.K.L.M.N.O.P.Q.R.S.T.U.V.W.W.X.Y.Z.`.G.%.%.%.%.%.%.%.%.%.%.%.%.%.",
". . . . . . . . . . . . . . . . . . . . . . . . . . . . 8  +.+++@+#+$+n.%+C.s.&+*+=+-+;+>+,+'+)+!+~+W.X.Z.{+%.%.%.%.%.%.%.%.%.%.",
". . . . . . . . . . . . . . . . . . . . . . . . . . . . 8 ]+.+:.^+/+(+_+:+<+[+}+|+1+2+3+4+4+5+6+7+8+,+'+!+9+X.`.G.%.%.%.%.%.%.%.",
". . . . . . . . . . . . . . . . . . . . . . . . . . . . ( 0+<.a+b+c+d+e+:+f+g+h+1+i+j+k+l+m+n+o+p+q+5+6+8+,+)+9+X.Z.G.%.%.%.%.%.",
". . . . . . . . . . . . . . . . . . . . . . . . . . . . 8 r+s+t+u+v+e+w+x+y+z+A+i+B+C+D+E+F+G+H+I+m+o+p+4+J+7+,+)+9+Y.{+%.%.%.%.",
". . . . . . . . . . . . . . . . . . . . . . . . . . . . 8 K+L+M+N+O+w+P+Q+R+S+T+B+U+V+W+X+Y+Z+`+ @F+H+I+n+.@4+J+8+'+~+X.`.%.%.%.",
". . . . . . . . . . . . . . . . . . . . . . . . . . . . & +@@@#@$@%@P+&@*@=@-@;@U+>@,@'@)@!@~@{@]@Z+`+E+H+l+n+^@5+7+,+!+W.Z.%.%.",
". . . . . . . . . . . . . . . . . . . . . . . . . . . . ( /@(@q._@:@<@=+[@}@|@1@2@3@j+4@5@6@7@)@!@8@9@Z+`+F+0@m+.@4+a@b@!+W.`.%.",
". . . . . . . . . . . . . . . . . . . . . . . . . . . . ( c@d@e@f@g@h@i@j@k@l@m@n@3@o@p@q@r@s@5@t@u@!@8@]@v@E+H+m+.@4+7+,+~+X.{+",
". . . . . . . . . . . . . . . . . . . . . . . . . . . . & w@w+x@y@z@A@B@C@D@E@F@G@>@H@I@J@K@L@M@s@N@O@)@8@]@v@E+0@m+p+5+8+'+9+Z.",
". . . . . . . . . . . . . . . . . . . . . . . . . . . . 8 P@Q@R@S@T@U@V@j@W@X@Y@Z@`@ #.#+#@###K@$#%#5@t@)@8@]@v@F+&#n+q+6+>+!+X.",
". . . . . . . . . . . . . . . . . . . . . . . . . . . . 8 *#=#-#;#>#,#'#)#!#~#{#Z@]#j+^#/#(#+#_#:#L@r@5@O@<#8@Y+ @H+l+.@5+8+)+W.",
". . . . . . . . . . . . . . . . . . . . . . . . . . . . ( [#}#|#i+B+1#2#3#4#>@>@5#6#7#8#9#0#a#b#_#c#$#%#N@u@!@9@v@F+I+o+4+7+'+9+",
". . . . . . . . . . . . . . . . . . . . . . . . . . . . 8 *#d#e#B+U+f#g#h#i#>@>@j#k#l#m#n#9#0#(#+###o#M@p#t@<#{@Z+E+0@n+q+6+,+~+",
". . . . . . . . . . . . . . . . . . . . . . . . . . . . 8 q#r#s#U+>@f#t#m@D@>@3@G@u#v#w#x#y#z#/#A#@#c#$#s@6@)@8@Y+ @H+n+q+6+,+~+",
". . . . . . . . . . . . . . . . . . . . . . . . . . . . & B#C#D#E#E#F#G#H#E@I#J#K#L#M#N#O#P#Q#0#(#R#:#$#s@6@)@8@Y+ @H+n+q+6+,+~+",
"%.%.%.%.%.%.G.S#!+>+J+p+m+G+`+]@~@u@N@r@o###+#a#T#U#V#W#X#Y#Z#`# $.$+$@$@$#$$$%$&$*$=$-$;$P#Q#0#(#@#:#$#s@6@)@{@Z+E+0@n+q+7+'+9+",
"%.%.%.%.%.%.`.W.)+8+4+o+I+F+v@>$<#t@p#M@K@@#A#,$9#n#O#'$)$!$~${$]$^$/$($/$^$]${$~$!$)$'$O#n#9#,$A#@#K@M@p#t@<#>$v@F+I+o+4+8+)+W.",
"%.%.%.%.%.%.Z.9+'+7+q+n+0@E+Z+{@)@6@s@$#:#@#(#0#Q#P#;$'$)$!$~${$]$_$:$:$<$[$}$|$1$2$3$W#V#U#T#a#+###o#r@N@u@~@]@`+G+m+p+J+>+!+S#",
"%.%.%.%.%.G.Y.~+,+6+q+n+H+ @Y+8@)@6@s@$#:#R#(#0#Q#P#O#4$5$6$1$7${$}$8$8$}$9$7$0$2$a$W#O#n#9#,$A#@#K@M@p#t@<#{@Z+E+0@o+4+7+'+9+Z.",
"%.%.%.%.%.G.Y.~+,+6+q+n+H+ @Y+8@)@6@s@$#c#@#A#/#z#y#x#b$'$)$2$0$c$~$7$~$d$0$6$)$e$W#x#n#9#,$A#@#:#$#s@6@)@8@Y+ @H+m+^@J+>+!+S#G.",
"%.%.%.%.%.G.Y.~+,+6+q+n+0@E+Z+{@<#t@p#M@o###+#(#0#9#n#x#b$4$3$5$f$2$2$f$)$5$e$W#O#P#U#z#/#A#@#:#L@%#N@u@~@]@`+g$l+.@5+8+)+W.`.%.",
"%.%.%.%.%.%.Z.9+'+7+4+o+I+F+v@9@!@u@N@%#$#c#_#b#a#0#9#y#P#x#;$b$W#4$4$W#b$;$x#P#U#9#0#a#+#_#c#$#s@N@u@~@]@v@F+I+o+4+7+'+9+Z.%.%.",
"%.%.%.%.%.%.`.W.)+8+5+.@l+H+ @Y+8@<#O@5@r@L@:#_#+#(#/#T#9#U#y#n#P#P#P#n#n#U#9#T#,$a#b#@#J@o#M@p#6@)@~@]@`+F+I+o+4+7+'+~+Y.G.%.%.",
"%.%.%.%.%.%.{+X.!+>+6+q+n+&#F+v@]@8@)@t@5@%#$#K@##@#+#(#a#,$0#T#T#T#T#T#0#/#a#A#+#_#J@o#M@s@N@7@<#{@Y+ @G+l+o+4+7+'+~+Y.G.%.%.%.",
"%.%.%.%.%.%.G.Z.9+'+8+5+p+m+0@E+v@]@8@)@7@N@s@M@L@K@J@_#@#+#b#b#A#A#b#b#+#h$_#J@K@L@M@s@5@t@)@~@9@v@E+H+m+.@5+7+'+9+Y.G.%.%.%.%.",
"%.%.%.%.%.%.%.{+X.~+,+7+4+.@m+H+E+v@]@8@!@u@t@5@s@r@q@L@o#K@:#J@J@J@:#c#K@o#$#M@%#p#6@7@)@~@>$Z+ @G+I+n+q+J+>+)+W.Z.%.%.%.%.%.%.",
"%.%.%.%.%.%.%.%.`.W.!+,+a@4+.@m+0@F+`+Z+9@8@!@)@7@6@5@p#s@%#r@r@r@r@%#%#s@p#N@6@7@)@!@8@]@Z+ @g$&#n+p+5+7+,+~+X.`.%.%.%.%.%.%.%.",
"%.%.%.%.%.%.%.%.%.Z.W.!+,+7+5+^@n+l+H+E+`+Z+]@{@~@!@)@u@7@7@t@t@t@t@O@7@u@)@<#~@{@9@Y+`+E+G+I+n+.@4+a@>+)+9+Z.G.%.%.%.%.%.%.%.%.",
"%.%.%.%.%.%.%.%.%.%.`.X.~+'+8+J+4+.@n+I+H+F+ @`+Z+Y+X+>${@8@8@8@8@8@8@{@>$]@Y+v@`+E+g$0@l+o+^@5+a@>+)+9+Y.{+%.%.%.%.%.%.%.%.%.%.",
"%.%.%.%.%.%.%.%.%.%.%.{+Y.9+)+,+7+J+4+p+o+m+I+H+G+F+E+ @`+`+v@v@v@`+`+ @E+F+G+H+I+m+o+p+4+J+7+,+)+9+Y.{+%.%.%.%.%.%.%.%.%.%.%.%.",
"%.%.%.%.%.%.%.%.%.%.%.%.G.Z.X.9+)+,+8+6+5+q+p+o+n+m+l+I+I+0@0@0@0@&#I+l+m+n+o+.@q+4+J+7+>+'+~+W.i${+%.%.%.%.%.%.%.%.%.%.%.%.%.%.",
"%.%.%.%.%.%.%.%.%.%.%.%.%.%.G.`.X.9+!+)+,+8+7+6+5+4+4+q+^@^@^@^@^@q+q+4+5+J+6+7+>+,+)+~+W.Y.`.G.%.%.%.%.%.%.%.%.%.%.%.%.%.%.%.%.",
"%.%.%.%.%.%.%.%.%.%.%.%.%.%.%.%.%.{+Z.X.W.~+!+)+'+,+>+>+8+8+8+8+8+8+>+b@'+)+!+~+9+X.Z.`.G.%.%.%.%.%.%.%.%.%.%.%.%.%.%.%.%.%.%.%.",
"%.%.%.%.%.%.%.%.%.%.%.%.%.%.%.%.%.%.%.%.G.`.Z.Y.X.W.W.9+9+9+9+9+9+9+W.X.S#Y.`.{+G.%.%.%.%.%.%.%.%.%.%.%.%.%.%.%.%.%.%.%.%.%.%.%.",
"%.%.%.%.%.%.%.%.%.%.%.%.%.%.%.%.%.%.%.%.%.%.%.%.%.%.G.G.G.{+{+G.G.G.%.%.%.%.%.%.%.%.%.%.%.%.%.%.%.%.%.%.%.%.%.%.%.%.%.%.%.%.%.%.",
"%.%.%.%.%.%.%.%.%.%.%.%.%.%.%.%.%.%.%.%.%.%.%.%.%.%.%.%.%.%.%.%.%.%.%.%.%.%.%.%.%.%.%.%.%.%.%.%.%.%.%.%.%.%.%.%.%.%.%.%.%.%.%.%."};
