/* XPM */
static char * logo48_xpm[] = {
"48 48 396 2",
"  	c None",
". 	c #00FFF3",
"+ 	c #00BFB6",
"@ 	c #000000",
"# 	c #016D68",
"$ 	c #012928",
"% 	c #013837",
"& 	c #013232",
"* 	c #01201F",
"= 	c #012727",
"- 	c #012B2B",
"; 	c #012A2B",
"> 	c #012B2C",
", 	c #014346",
"' 	c #014649",
") 	c #005351",
"! 	c #014E4A",
"~ 	c #013131",
"{ 	c #024949",
"] 	c #036465",
"^ 	c #025457",
"/ 	c #023D40",
"( 	c #015157",
"_ 	c #02737C",
": 	c #026D78",
"< 	c #01525B",
"[ 	c #015862",
"} 	c #01716E",
"| 	c #01625E",
"1 	c #023535",
"2 	c #024F4F",
"3 	c #036C70",
"4 	c #025B5F",
"5 	c #014348",
"6 	c #015960",
"7 	c #027B87",
"8 	c #027481",
"9 	c #015F6B",
"0 	c #016D6B",
"a 	c #023A3A",
"b 	c #037278",
"c 	c #026067",
"d 	c #01494F",
"e 	c #015E67",
"f 	c #02818F",
"g 	c #027A88",
"h 	c #016675",
"i 	c #005E5D",
"j 	c #015C58",
"k 	c #023D3F",
"l 	c #02595E",
"m 	c #027980",
"n 	c #02656D",
"o 	c #014C53",
"p 	c #01636E",
"q 	c #028797",
"r 	c #027F8F",
"s 	c #01616F",
"t 	c #016B7A",
"u 	c #035A4E",
"v 	c #06DEBA",
"w 	c #01504E",
"x 	c #023F42",
"y 	c #025D64",
"z 	c #027F89",
"A 	c #026771",
"B 	c #014D55",
"C 	c #016773",
"D 	c #028D9E",
"E 	c #028295",
"F 	c #016371",
"G 	c #016E7E",
"H 	c #0B5322",
"I 	c #197A0E",
"J 	c #016965",
"K 	c #014146",
"L 	c #02626A",
"M 	c #028491",
"N 	c #026B76",
"O 	c #014E57",
"P 	c #016A78",
"Q 	c #0292A7",
"R 	c #018699",
"S 	c #016473",
"T 	c #017081",
"U 	c #0B5524",
"V 	c #016B68",
"W 	c #01464B",
"X 	c #02646E",
"Y 	c #028694",
"Z 	c #026C79",
"` 	c #01505A",
" .	c #016D7C",
"..	c #0195AA",
"+.	c #01889D",
"@.	c #016676",
"#.	c #017285",
"$.	c #0B4E1D",
"%.	c #01514F",
"&.	c #016069",
"*.	c #016671",
"=.	c #026E7B",
"-.	c #016F7D",
";.	c #017687",
">.	c #018194",
",.	c #018297",
"'.	c #017E94",
").	c #01849B",
"!.	c #0B5424",
"~.	c #027F8C",
"{.	c #016774",
"].	c #01525C",
"^.	c #017282",
"/.	c #0196AB",
"(.	c #018094",
"_.	c #016575",
":.	c #017B90",
"<.	c #01A1BD",
"[.	c #019BB7",
"}.	c #0A5422",
"|.	c #18800D",
"1.	c #197F0D",
"2.	c #197E0E",
"3.	c #197D0E",
"4.	c #197B0E",
"5.	c #016E6B",
"6.	c #028A9A",
"7.	c #016C79",
"8.	c #01505B",
"9.	c #01798A",
"0.	c #01A4BD",
"a.	c #01879C",
"b.	c #016171",
"c.	c #01AFCE",
"d.	c #00A4C4",
"e.	c #0A4F1A",
"f.	c #18890C",
"g.	c #18880C",
"h.	c #18870D",
"i.	c #18850D",
"j.	c #18830D",
"k.	c #18810D",
"l.	c #197C0E",
"m.	c #015755",
"n.	c #0290A2",
"o.	c #015764",
"p.	c #01ACC6",
"q.	c #018CA4",
"r.	c #01687A",
"s.	c #01869E",
"t.	c #00B5D8",
"u.	c #00AACB",
"v.	c #09591F",
"w.	c #17920B",
"x.	c #17900B",
"y.	c #178F0C",
"z.	c #178D0C",
"A.	c #188B0C",
"B.	c #18860D",
"C.	c #016361",
"D.	c #0294A9",
"E.	c #017788",
"F.	c #015C6A",
"G.	c #01869B",
"H.	c #01B1CF",
"I.	c #0191AA",
"J.	c #016C7F",
"K.	c #008CA6",
"L.	c #00BCE1",
"M.	c #00AFD2",
"N.	c #095D1F",
"O.	c #169A0A",
"P.	c #16990B",
"Q.	c #16970B",
"R.	c #17950B",
"S.	c #17900C",
"T.	c #188A0C",
"U.	c #0199AF",
"V.	c #017A8C",
"W.	c #01606F",
"X.	c #018AA2",
"Y.	c #01B7D7",
"Z.	c #0196B1",
"`.	c #006F84",
" +	c #0091AD",
".+	c #00C3E9",
"++	c #00B3D7",
"@+	c #095E1D",
"#+	c #15A209",
"$+	c #16A10A",
"%+	c #169F0A",
"&+	c #169C0A",
"*+	c #17940B",
"=+	c #006B69",
"-+	c #019EB5",
";+	c #017E91",
">+	c #016273",
",+	c #018FA8",
"'+	c #01BEE0",
")+	c #0099B6",
"!+	c #007086",
"~+	c #0095B3",
"{+	c #00C8F0",
"]+	c #00B2D6",
"^+	c #095F1A",
"/+	c #15AA09",
"(+	c #15A809",
"_+	c #15A609",
":+	c #15A309",
"<+	c #169D0A",
"[+	c #16960B",
"}+	c #18820D",
"|+	c #005755",
"1+	c #019FB8",
"2+	c #018298",
"3+	c #0194AF",
"4+	c #00BEE3",
"5+	c #009DBB",
"6+	c #007890",
"7+	c #009BBA",
"8+	c #00C6EE",
"9+	c #00B0D4",
"0+	c #09691F",
"a+	c #14B208",
"b+	c #14B008",
"c+	c #14AD08",
"d+	c #15A709",
"e+	c #16A00A",
"f+	c #17930B",
"g+	c #007271",
"h+	c #018096",
"i+	c #018DA5",
"j+	c #0094B0",
"k+	c #0093B0",
"l+	c #009DBC",
"m+	c #00A4C5",
"n+	c #00A1C2",
"o+	c #00A0C0",
"p+	c #087120",
"q+	c #13BA07",
"r+	c #14B707",
"s+	c #14B407",
"t+	c #15AD08",
"u+	c #15A909",
"v+	c #15A509",
"w+	c #178E0C",
"x+	c #18840D",
"y+	c #016677",
"z+	c #0197B1",
"A+	c #00BADD",
"B+	c #008FAA",
"C+	c #00657A",
"D+	c #009AB9",
"E+	c #00CDF6",
"F+	c #007289",
"G+	c #008DAA",
"H+	c #09711A",
"I+	c #13C106",
"J+	c #13BD06",
"K+	c #14B607",
"L+	c #15A409",
"M+	c #169B0A",
"N+	c #17960B",
"O+	c #17910B",
"P+	c #178C0C",
"Q+	c #005554",
"R+	c #017286",
"S+	c #00A0BE",
"T+	c #00C1E7",
"U+	c #0099B7",
"V+	c #00A0C1",
"W+	c #00D1FB",
"X+	c #00A9CB",
"Y+	c #007991",
"Z+	c #0094B2",
"`+	c #097C22",
" @	c #12C705",
".@	c #13C306",
"+@	c #13BF06",
"@@	c #14B108",
"#@	c #15AC08",
"$@	c #16980B",
"%@	c #007171",
"&@	c #00778D",
"*@	c #00A6C7",
"=@	c #00C6ED",
"-@	c #009DBD",
";@	c #00748C",
">@	c #00A3C4",
",@	c #00D2FC",
"'@	c #007B94",
")@	c #0096B5",
"!@	c #087F20",
"~@	c #12CC05",
"{@	c #13C206",
"]@	c #13BE06",
"^@	c #13B907",
"/@	c #14B308",
"(@	c #14AE08",
"_@	c #16990A",
":@	c #006C6C",
"<@	c #007B93",
"[@	c #00ACCE",
"}@	c #00CAF3",
"|@	c #009CBC",
"1@	c #00758D",
"2@	c #00D2FD",
"3@	c #007A93",
"4@	c #0097B6",
"5@	c #087A1A",
"6@	c #11CF04",
"7@	c #12CA05",
"8@	c #12C506",
"9@	c #13C006",
"0@	c #14B507",
"a@	c #14AF08",
"b@	c #139B47",
"c@	c #139F46",
"d@	c #12A246",
"e@	c #12A745",
"f@	c #11AB45",
"g@	c #11AF44",
"h@	c #11B344",
"i@	c #11B744",
"j@	c #10BB43",
"k@	c #10C042",
"l@	c #0FC442",
"m@	c #0FC841",
"n@	c #0ECD41",
"o@	c #0ED041",
"p@	c #0ED540",
"q@	c #0ED940",
"r@	c #0DDD3F",
"s@	c #0BAF2C",
"t@	c #076D14",
"u@	c #077E1E",
"v@	c #07831E",
"w@	c #067715",
"x@	c #067617",
"y@	c #067F1B",
"z@	c #07851C",
"A@	c #067616",
"B@	c #07751C",
"C@	c #07771D",
"D@	c #0DAF0D",
"E@	c #11D004",
"F@	c #12CB05",
"G@	c #12C505",
"H@	c #13B807",
"I@	c #12C306",
"J@	c #12C905",
"K@	c #12CF04",
"L@	c #11D404",
"M@	c #11DA03",
"N@	c #10DF03",
"O@	c #10E502",
"P@	c #0FEA01",
"Q@	c #0FF001",
"R@	c #0EF500",
"S@	c #0EF101",
"T@	c #0FEB01",
"U@	c #0FE602",
"V@	c #10E002",
"W@	c #10DB03",
"X@	c #11D504",
"Y@	c #12C406",
"Z@	c #18870C",
"`@	c #169E0A",
" #	c #11D903",
".#	c #10E302",
"+#	c #0FE802",
"@#	c #0FEC01",
"##	c #10E102",
"$#	c #10DC03",
"%#	c #11D703",
"&#	c #11D204",
"*#	c #12CD05",
"=#	c #13BC07",
"-#	c #12C805",
";#	c #11D704",
">#	c #10DE03",
",#	c #10DA03",
"'#	c #11D604",
")#	c #12CE05",
"!#	c #11D104",
"~#	c #11D803",
"{#	c #11D304",
"]#	c #13BC06",
"^#	c #13BB07",
"/#	c #19800D",
"(#	c #15AB08",
"_#	c #12C605",
":#	c #14B807",
"<#	c #197E0D",
"[#	c #15A20A",
"}#	c #178B0C",
". . . . . . . . . . . . . . . . . . . . . . . . + @ @ @ @ + . . . . . . . . . . . . . . . . . . ",
". . . . . . . . . . . . . . . . . . . . . . . . + @ @ @ @ + . . . . . . . . . . . . . . . . . . ",
". . . . . . . . . . . . . . . . . . . . . . . . + @ @ @ @ + . . . . . . . . . . . . . . . . . . ",
". . . . . . . . . . . . . . . . . . . . . . . . + @ @ @ @ + . . . . . . . . . . . . . . . . . . ",
". . . . . . . . . . . . . . . . . . . . . . . . + @ @ @ @ + . . . . . . . . . . . . . . . . . . ",
". . . . . . . . . . . . . . . . . . . . . . . . + @ @ @ @ + . . . . . . . . . . . . . . . . . . ",
". . . . . . . . . . . . . . . . . . . . . . . . + @ @ @ @ + . . . . . . . . . . . . . . . . . . ",
". . . . . . . . . . . . . . . . . . . . . . . . + @ @ @ @ + . . . . . . . . . . . . . . . . . . ",
". . . . . . . . . . . . . . . . . . . . . . . . + @ @ @ @ + . . . . . . . . . . . . . . . . . . ",
". . . . . . . . . . . . . . . . . . . . . . . . + @ @ @ @ + . . . . . . . . . . . . . . . . . . ",
". . . . . . . . . . . . . . . . . . . . . . . . + @ @ @ @ + . . . . . . . . . . . . . . . . . . ",
". . . . . . . . . . . . . . . . . . . . . # $ % & * = - ; > , ' ) . . . . . . . . . . . . . . . ",
". . . . . . . . . . . . . . . . . . . . . ! ~ { ] ^ / ( _ : < [ } . . . . . . . . . . . . . . . ",
". . . . . . . . . . . . . . . . . . . . . | 1 2 3 4 5 6 7 8 [ 9 0 . . . . . . . . . . . . . . . ",
". . . . . . . . . . . . . . . . . . . . . | a ^ b c d e f g 9 h i . . . . . . . . . . . . . . . ",
". . . . . . . . . . . . . . . . . . . . . j k l m n o p q r s t u v v v v v v v v v v v v v v v ",
". . . . . . . . . . . . . . . . . . . . . w x y z A B C D E F G H I I I I I I I I I I I I I I I ",
". . . . . . . . . . . . . . . . . . . . . J K L M N O P Q R S T U I I I I I I I I I I I I I I I ",
". . . . . . . . . . . . . . . . . . . . . V W X Y Z `  ...+.@.#.$.I I I I I I I I I I I I I I I ",
". . . . . . . . . . . . . . . . . . . . . %.&.*.=.-.G ;.>.,.'.).!.I I I I I I I I I I I I I I I ",
". . . . . . . . . . . . . . . . . . . . . } ~.{.].^./.(._.:.<.[.}.|.1.2.3.4.I I I I I I I I I I ",
". . . . . . . . . . . . . . . . . . . . . 5.6.7.8.9.0.a.b.'.c.d.e.f.g.h.i.j.k.1.l.I I I I I I I ",
". . . . . . . . . . . . . . . . . . . . . m.n.^.o.(.p.q.r.s.t.u.v.w.x.y.z.A.f.B.j.|.3.I I I I I ",
". . . . . . . . . . . . . . . . . . . . . C.D.E.F.G.H.I.J.K.L.M.N.O.P.Q.R.w.S.z.T.h.j.|.l.I I I ",
". . . . . . . . . . . . . . . . . . . . . V U.V.W.X.Y.Z.`. +.+++@+#+$+%+&+O.Q.*+x.z.f.i.k.3.I I ",
". . . . . . . . . . . . . . . . . . . . . =+-+;+>+,+'+)+!+~+{+]+^+/+(+_+:+$+<+O.[+w.y.T.B.}+3.I ",
". . . . . . . . . . . . . . . . . . . . . |+1+2+J.3+4+5+6+7+8+9+0+a+b+c+/+d+:+e+&+Q.f+y.T.B.k.l.",
". . . . . . . . . . . . . . . . . . . . . g+h+i+Z.j+k+l+m+n+o+n+p+q+r+s+b+t+u+v+e+&+Q.f+w+f.x+1.",
". . . . . . . . . . . . . . . . . . . . . g+y+z+A+B+C+D+E+m+F+G+H+I+J+q+K+a+c+u+L+%+M+N+O+P+h.k.",
". . . . . . . . . . . . . . . . . . . . . Q+R+S+T+U+F+V+W+X+Y+Z+`+ @.@+@q+K+@@#@d+#+<+$@f+z.g.j.",
". . . . . . . . . . . . . . . . . . . . . %@&@*@=@-@;@>@,@X+'@)@!@~@ @{@]@^@/@(@u+L+%+_@*+w+f.x+",
". . . . . . . . . . . . . . . . . . . . . :@<@[@}@|@1@m+2@X+3@4@5@6@7@8@9@q+0@a@/+v+%+O.*+y.f.x+",
"b@b@b@b@b@c@d@e@f@g@h@i@j@k@l@m@n@o@p@q@r@s@t@u@v@w@x@y@z@A@B@C@D@E@F@G@9@q+0@a@/+L+%+_@*+w+f.j.",
"I I I I 4.k.B.P+O+Q.&+#+(+c+/@H@]@I@J@K@L@M@N@O@P@Q@R@S@T@U@V@W@X@6@7@Y@+@^@s+(@u+:+<+$@w.z.h.}+",
"I I I I l.}+Z@z.w.$@`@:+u+(@s+^@+@Y@J@6@L@ #N@.#+#T@@#P@U@##$#%#&#*# @{@=#r+@@#@_+$+M+N+S.T.i.1.",
"I I I I 3.}+g.z.f+$@`@:+u+(@/@^@]@.@-#*#&#;#W@>###.#.###>#,#'#&#*#-#.@]@H@/@(@(+:+<+$@w.z.g.}+3.",
"I I I I 3.}+g.z.w.$@<+#+d+t+a+r+=#9@8@J@)#!#X@%# #M@ #~#'#{#6@F@ @{@J+H@/@(@u+L+%+_@*+y.f.x+1.I ",
"I I I I l.k.h.P+O+N+M+e+v+/+a@s+H@]#I+Y@-#F@*#6@E@!#E@6@*#7@ @I@+@^#r+a+(@u+L+%+O.R.y.T.i.|.I I ",
"I I I I I /#i.T.y.*+P.<+#+d+(#a@/@r+^#]@I+Y@G@ @ @ @ @_#Y@I++@^#:#s+b+#@d+:+`@_@*+y.T.i.|.4.I I ",
"I I I I I 3.}+h.P+O+R.O.`@#+_+/+(@@@0@r+q+=#J+]@]@]@]@=#^#H@K+/@b+#@(+L+e+&+Q.f+w+f.i.|.4.I I I ",
"I I I I I I 1.x+g.z.O+R._@<+$+L+(+(#c+b+a+/@0@0@0@0@s+/@a+b+c+/+d+L+e+<+P.R.x.P+g.j.<#I I I I I ",
"I I I I I I 4.|.x+g.P+x.*+$@M+`@$+L+_+(+/+(##@#@#@#@(#/+(+d+L+[#%+&+$@R.O+z.f.i.k.l.I I I I I I ",
"I I I I I I I 4.1.j.h.A.w+O+*+Q.O.&+`@e+$+#+:+:+:+:+#+$+%+<+M+P.[+f+S.z.f.B.}+2.I I I I I I I I ",
"I I I I I I I I I 2.k.x+g.A.z.S.w.*+N+$@P.O.O.O.O.O.P.$@N+*+w.S.z.A.g.i.k.2.I I I I I I I I I I ",
"I I I I I I I I I I 4.2.k.x+B.g.T.P+w+y.S.O+O+O+O+x.S.w+z.}#f.h.i.}+1.l.I I I I I I I I I I I I ",
"I I I I I I I I I I I I I l.1.k.}+x+i.B.Z@g.g.g.g.h.B.i.x+}+|.2.l.I I I I I I I I I I I I I I I ",
"I I I I I I I I I I I I I I I I I l.3.2.<#1.1.1.1.2.3.l.4.I I I I I I I I I I I I I I I I I I I ",
"I I I I I I I I I I I I I I I I I I I I I I I I I I I I I I I I I I I I I I I I I I I I I I I I "};
