/* XPM */
static char * logo_xpm[] = {
"32 32 366 2",
"  	c None",
". 	c #FFFFFF",
"+ 	c #BEBEBE",
"@ 	c #676767",
"# 	c #646464",
"$ 	c #868686",
"% 	c #CBCBCB",
"& 	c #FDFDFD",
"* 	c #FEFEFE",
"= 	c #BEBEBD",
"- 	c #696868",
"; 	c #636463",
"> 	c #858585",
", 	c #C9C9CA",
"' 	c #FBFBFB",
") 	c #69696A",
"! 	c #626263",
"~ 	c #848484",
"{ 	c #C7C8C8",
"] 	c #FCFCFC",
"^ 	c #FAFAFA",
"/ 	c #FAF9FA",
"( 	c #BCBCBC",
"_ 	c #6B6A6B",
": 	c #626262",
"< 	c #828282",
"[ 	c #C4C4C4",
"} 	c #F7F7F7",
"| 	c #F5F5F5",
"1 	c #FAFAFB",
"2 	c #F8F8F8",
"3 	c #F6F6F6",
"4 	c #F2F2F2",
"5 	c #B9B9B9",
"6 	c #6C6B6C",
"7 	c #616161",
"8 	c #818181",
"9 	c #BFBFBF",
"0 	c #EDEDED",
"a 	c #EEEEEE",
"b 	c #F9F9F9",
"c 	c #F1F1F1",
"d 	c #ECECEC",
"e 	c #E7E8E8",
"f 	c #B2B2B2",
"g 	c #6D6D6D",
"h 	c #616060",
"i 	c #80807F",
"j 	c #B6B7B7",
"k 	c #E0E0E0",
"l 	c #E1E1E1",
"m 	c #E8E8E8",
"n 	c #EBEBEC",
"o 	c #F5F5F4",
"p 	c #F3F3F3",
"q 	c #E6E7E6",
"r 	c #D9D9D8",
"s 	c #B0B0B0",
"t 	c #6E6F6E",
"u 	c #60605F",
"v 	c #7F7F7F",
"w 	c #D2D3D2",
"x 	c #D3D3D3",
"y 	c #D9D9D9",
"z 	c #E6E7E7",
"A 	c #EDEEEE",
"B 	c #EBEBEB",
"C 	c #E2E2E2",
"D 	c #A6A6A6",
"E 	c #807F7F",
"F 	c #5F5F5F",
"G 	c #A1A2A1",
"H 	c #989999",
"I 	c #BEBFBE",
"J 	c #C6C6C6",
"K 	c #CECECE",
"L 	c #D2D2D2",
"M 	c #DADADA",
"N 	c #F2F1F2",
"O 	c #F2F2F3",
"P 	c #ECECEB",
"Q 	c #D7D7D7",
"R 	c #D0D0D1",
"S 	c #AFAFAE",
"T 	c #A7A7A7",
"U 	c #6F6F6F",
"V 	c #727372",
"W 	c #949494",
"X 	c #949594",
"Y 	c #ADAEAD",
"Z 	c #C3C3C3",
"` 	c #C7C7C7",
" .	c #CBCACA",
"..	c #D0D0D0",
"+.	c #F4F4F4",
"@.	c #EDECED",
"#.	c #CFCFCF",
"$.	c #CACACA",
"%.	c #B1B1B1",
"&.	c #A8A7A7",
"*.	c #909090",
"=.	c #949394",
"-.	c #9B9B9B",
";.	c #BDBDBD",
">.	c #D6D6D7",
",.	c #ECECED",
"'.	c #F0F0F0",
").	c #E5E5E5",
"!.	c #D0CFD0",
"~.	c #C1C2C1",
"{.	c #C9C9C9",
"].	c #B3B3B3",
"^.	c #979796",
"/.	c #717170",
"(.	c #888887",
"_.	c #787878",
":.	c #919292",
"<.	c #A5A5A5",
"[.	c #C8C8C9",
"}.	c #B6B6B6",
"|.	c #C9CAC9",
"1.	c #D0CFCF",
"2.	c #EAEAEA",
"3.	c #DEDEDE",
"4.	c #C6C7C6",
"5.	c #8E8E8E",
"6.	c #7C7D7C",
"7.	c #878787",
"8.	c #767576",
"9.	c #8B8B8B",
"0.	c #AFAFAF",
"a.	c #BCC0BD",
"b.	c #A5ADA4",
"c.	c #ACB3AB",
"d.	c #B3B9B2",
"e.	c #B8C0B7",
"f.	c #BFC6BE",
"g.	c #C4CCC4",
"h.	c #D0D7CF",
"i.	c #DAE2D9",
"j.	c #E3EAE2",
"k.	c #E8F0E7",
"l.	c #EBF2EA",
"m.	c #E6E6E6",
"n.	c #C7C6C6",
"o.	c #90908F",
"p.	c #6C6C6C",
"q.	c #737373",
"r.	c #878888",
"s.	c #B4B3B3",
"t.	c #92B28E",
"u.	c #6DAA66",
"v.	c #6DAA67",
"w.	c #6DAB67",
"x.	c #6DAB66",
"y.	c #6EAA66",
"z.	c #C3C2C3",
"A.	c #BABABA",
"B.	c #B0B1B1",
"C.	c #B1B0B1",
"D.	c #B3B2B2",
"E.	c #919191",
"F.	c #8D8E8D",
"G.	c #5D5E5E",
"H.	c #757576",
"I.	c #818182",
"J.	c #B6B5B6",
"K.	c #90AE8D",
"L.	c #68A761",
"M.	c #6AA762",
"N.	c #69A762",
"O.	c #69A863",
"P.	c #69A763",
"Q.	c #6BA763",
"R.	c #6AA862",
"S.	c #6AA863",
"T.	c #6BA864",
"U.	c #6BA963",
"V.	c #DDDDDD",
"W.	c #D0D1D0",
"X.	c #ACACAC",
"Y.	c #B6B7B6",
"Z.	c #B8B8B8",
"`.	c #808080",
" +	c #5E5E5E",
".+	c #737473",
"++	c #ACADAD",
"@+	c #7D9E7A",
"#+	c #64A55C",
"$+	c #64A45C",
"%+	c #63A45C",
"&+	c #63A55C",
"*+	c #E9E9E9",
"=+	c #BDBEBD",
"-+	c #B4B4B4",
";+	c #A8A8A8",
">+	c #BBBBBB",
",+	c #8A8B8B",
"'+	c #787979",
")+	c #8D8D8C",
"!+	c #9FA0A0",
"~+	c #698A65",
"{+	c #5FA257",
"]+	c #5FA157",
"^+	c #5EA257",
"/+	c #C6C7C7",
"(+	c #C0C0BF",
"_+	c #797878",
":+	c #606060",
"<+	c #6B6B6B",
"[+	c #8B8C8C",
"}+	c #779973",
"|+	c #5AA052",
"1+	c #5A9E53",
"2+	c #5B9F52",
"3+	c #5A9F52",
"4+	c #5A9F53",
"5+	c #5AA053",
"6+	c #DAD9D9",
"7+	c #BDBDBE",
"8+	c #C1C1C1",
"9+	c #828283",
"0+	c #7A7A7A",
"a+	c #6A696A",
"b+	c #656565",
"c+	c #7FA37C",
"d+	c #569C4D",
"e+	c #559C4E",
"f+	c #559D4E",
"g+	c #569D4E",
"h+	c #569D4D",
"i+	c #559D4D",
"j+	c #559C4D",
"k+	c #DCDBDB",
"l+	c #C8C8C8",
"m+	c #B5B5B5",
"n+	c #A9A9A9",
"o+	c #C4C4C3",
"p+	c #9C9C9C",
"q+	c #8C8C8C",
"r+	c #797979",
"s+	c #5C5C5D",
"t+	c #7EA27A",
"u+	c #519A48",
"v+	c #519A49",
"w+	c #519949",
"x+	c #509948",
"y+	c #FAFCFA",
"z+	c #F9FBF9",
"A+	c #F8FAF8",
"B+	c #F7F9F7",
"C+	c #F0F2F0",
"D+	c #E8E9E7",
"E+	c #DADCDA",
"F+	c #CED0CE",
"G+	c #C5C7C5",
"H+	c #BEBFBD",
"I+	c #B5B7B5",
"J+	c #A9ABA9",
"K+	c #C6C8C6",
"L+	c #777977",
"M+	c #949693",
"N+	c #737573",
"O+	c #595C59",
"P+	c #6A6B69",
"Q+	c #686967",
"R+	c #83A57F",
"S+	c #4C9743",
"T+	c #4D9744",
"U+	c #4C9744",
"V+	c #E3E3E3",
"W+	c #D4D4D4",
"X+	c #CDCCCC",
"Y+	c #B2B1B2",
"Z+	c #BABAB9",
"`+	c #9D9D9D",
" @	c #99999A",
".@	c #686868",
"+@	c #5D5D5E",
"@@	c #696969",
"#@	c #A2A2A2",
"$@	c #5A9754",
"%@	c #48953F",
"&@	c #47953F",
"*@	c #48943F",
"=@	c #47943F",
"-@	c #599E52",
";@	c #599F51",
">@	c #589E52",
",@	c #589D50",
"'@	c #569B4E",
")@	c #559B4E",
"!@	c #53994B",
"~@	c #52984B",
"{@	c #52974A",
"]@	c #509649",
"^@	c #509548",
"/@	c #4E9446",
"(@	c #4C9143",
"_@	c #4C9144",
":@	c #4C9044",
"<@	c #4D9145",
"[@	c #4A9243",
"}@	c #44923B",
"|@	c #43923A",
"1@	c #43923B",
"2@	c #43913A",
"3@	c #3E9035",
"4@	c #3E8F35",
"5@	c #3E8F36",
"6@	c #3F8F35",
"7@	c #3F9035",
"8@	c #3A8D31",
"9@	c #398C30",
"0@	c #398D30",
"a@	c #3A8C30",
"b@	c #3A8D30",
"c@	c #398C31",
"d@	c #398D31",
"e@	c #35892C",
"f@	c #358A2B",
"g@	c #358B2C",
"h@	c #358A2C",
"i@	c #35892B",
"j@	c #348A2C",
"k@	c #308726",
"l@	c #318726",
"m@	c #308727",
"n@	c #318727",
"o@	c #308626",
"p@	c #308827",
"q@	c #308826",
"r@	c #2C8521",
"s@	c #2C8522",
"t@	c #2B8422",
"u@	c #2C8422",
"v@	c #2B8421",
"w@	c #2B8522",
"x@	c #27821D",
"y@	c #26821D",
"z@	c #27821C",
"A@	c #27811D",
"B@	c #27821E",
"C@	c #238018",
"D@	c #237F18",
"E@	c #227F19",
"F@	c #227F18",
"G@	c #227E18",
"H@	c #228019",
"I@	c #228018",
"J@	c #1E7D13",
"K@	c #1E7C12",
"L@	c #1E7C13",
"M@	c #1D7C13",
"N@	c #1D7D14",
"O@	c #1D7D13",
"P@	c #1E7D14",
"Q@	c #19790F",
"R@	c #19790E",
"S@	c #197A0E",
"T@	c #197A0F",
"U@	c #147709",
"V@	c #137709",
"W@	c #147609",
"X@	c #147708",
"Y@	c #137609",
". . . . . . . . . . . . . . + @ # $ % . & . . . . . . . . . . . ",
". . * . * . * . * . * . * . = - ; > , * ' . * . * . * . * . * . ",
". * * * * * * * * * * & & & + ) ! ~ { ] ^ & & & * * * * * * * * ",
". * * . * . * . * * & & ' / ( _ : < [ } | ^ 1 & & * * . * . * * ",
". * * * . * . * * ] ' 2 3 4 5 6 7 8 9 0 a 4 | 2 ' ] * * . * . * ",
". * * . * . * * ] b | c d e f g h i j k l m n c o b ] * * . * * ",
". * * * . * * ' b p a q k r s t u v f w x y k z A p 2 ' * * . * ",
". * * . * * ] 2 4 B C y x s D E F G H I J K L M C B N 2 ' * * * ",
". * * * * ] b O P l Q R K S T U V W X Y Z `  ...Q l B 4 b ] * * ",
". * * . & ' +.@.C Q #.$.% %.&.U *.< =.-.K ;.[ $.#.>.C ,.+.' & * ",
". * * & & } '.).y !.$.~.{.].^./.(._.:.<.[.}.;.Z |.1.y ).'.} & & ",
". * * * ^ +.2.3.L % Z ( 4.f 5.6.7.8.9.0.a.b.c.d.e.f.g.h.i.j.k.l.",
". * & ] b '.m.Q #.n.9 }.+ %.o.$ p.q.r.s.t.u.v.w.u.u.x.y.u.x.y.x.",
". * * ] 3 0 k x % z.A.B.C.D.E.F.G.H.I.J.K.L.M.N.O.P.Q.R.S.T.T.U.",
". * & ^ | 2.V.W.{.9 }.X.Y.Z.*.`. +.+7.++@+#+$+#+#+%+#+#+#+#+&+&+",
". * & ' p *+M #.` =+-+;+9 >+,+'+ +t )+!+~+{+]+{+{+{+^+]+{+{+{+{+",
". * & ^ p m M K /+( ].&.(+A.7._+:+<+[+> }+|+1+2+3+|+4+3+|+5+|+4+",
". * & ' p m 6+#.J 7+f ;+8+f 9+0+7 a+,+b+c+d+e+f+g+h+i+i+d+j+h+g+",
". * & ^ | *+k+#.l++ m+n+o+p+q+r+s+6 6.~ t+u+v+v+v+w+w+v+x+v+v+v+",
"y+z+A+B+C+D+E+F+G+H+I+J+K+L+M+N+O+P+Q+p+R+S+T+U+U+U+U+U+S+S+U+U+",
". * * ] 2 a V+W+X+Z ( Y+Z+`+ @.@+@@@@@#@$@%@%@%@&@&@%@%@%@*@&@=@",
"-@;@3+-@>@,@'@)@!@~@{@]@^@^@/@(@_@:@<@[@}@}@|@|@|@|@|@|@1@|@2@|@",
"3@4@4@4@5@4@6@4@4@3@4@5@3@4@4@6@4@4@4@4@4@4@3@3@4@4@3@5@5@7@6@6@",
"8@9@0@9@0@a@a@b@c@9@a@9@a@b@a@0@a@b@8@0@c@d@9@8@a@b@b@9@a@0@d@a@",
"e@f@f@g@h@f@e@f@f@h@i@h@e@f@i@f@f@h@h@h@j@h@h@h@h@h@f@h@i@f@h@e@",
"k@l@k@m@n@n@m@k@k@o@p@m@m@k@n@m@k@m@o@n@k@k@m@m@n@n@m@q@m@m@m@m@",
"r@s@s@s@t@u@s@s@u@v@s@s@s@t@s@u@u@u@u@s@s@w@s@s@u@u@u@r@u@s@s@s@",
"x@y@x@x@z@A@A@x@x@A@x@x@A@x@z@x@x@x@x@y@x@A@z@y@x@B@x@x@x@A@x@x@",
"C@D@D@D@D@E@F@G@F@F@F@F@F@D@F@F@F@H@F@D@F@F@F@D@D@I@F@E@F@E@F@F@",
"J@K@L@M@N@J@L@M@O@L@L@N@L@L@O@J@J@J@L@M@L@L@L@L@L@J@M@L@J@P@L@L@",
"Q@R@S@S@R@S@S@S@T@S@R@S@S@S@R@T@Q@Q@S@T@Q@S@S@S@R@S@S@T@S@S@S@T@",
"U@V@W@U@U@V@U@X@W@Y@U@U@W@W@U@X@U@U@U@U@U@U@U@U@U@U@U@U@U@U@W@U@"};
