/* XPM */
static char * logo32_xpm[] = {
"32 32 210 2",
"  	c None",
". 	c #00FFF3",
"+ 	c #007F79",
"@ 	c #000000",
"# 	c #017E79",
"$ 	c #01605D",
"% 	c #014846",
"& 	c #002E2D",
"* 	c #003535",
"= 	c #014443",
"- 	c #016F70",
"; 	c #017D7A",
"> 	c #015956",
", 	c #025050",
"' 	c #025557",
") 	c #025C61",
"! 	c #02636A",
"~ 	c #026A74",
"{ 	c #02717E",
"] 	c #017376",
"^ 	c #016966",
"/ 	c #027887",
"( 	c #017578",
"_ 	c #01605E",
": 	c #017E90",
"< 	c #047060",
"[ 	c #0DBC80",
"} 	c #016766",
"| 	c #025E65",
"1 	c #02646E",
"2 	c #026B77",
"3 	c #027281",
"4 	c #017889",
"5 	c #018093",
"6 	c #086443",
"7 	c #197A0E",
"8 	c #016767",
"9 	c #01616A",
"0 	c #016773",
"a 	c #016E7C",
"b 	c #017484",
"c 	c #017A8D",
"d 	c #018096",
"e 	c #085F3F",
"f 	c #016A6A",
"g 	c #016672",
"h 	c #016D7B",
"i 	c #017383",
"j 	c #01798B",
"k 	c #017F94",
"l 	c #01859D",
"m 	c #086A48",
"n 	c #197E0E",
"o 	c #197C0E",
"p 	c #017F92",
"q 	c #01859B",
"r 	c #018CA4",
"s 	c #0193AD",
"t 	c #08663F",
"u 	c #188B0C",
"v 	c #18890C",
"w 	c #18870D",
"x 	c #18840D",
"y 	c #18800D",
"z 	c #016A6B",
"A 	c #018DA5",
"B 	c #0194AE",
"C 	c #009AB8",
"D 	c #07764C",
"E 	c #16980B",
"F 	c #17950B",
"G 	c #17920B",
"H 	c #178F0C",
"I 	c #18860D",
"J 	c #18810D",
"K 	c #01777A",
"L 	c #01879E",
"M 	c #018EA7",
"N 	c #0093B0",
"O 	c #009AB9",
"P 	c #077243",
"Q 	c #15A409",
"R 	c #16A10A",
"S 	c #169D0A",
"T 	c #16990A",
"U 	c #17940B",
"V 	c #188A0C",
"W 	c #197D0E",
"X 	c #01686C",
"Y 	c #01879D",
"Z 	c #018DA6",
"` 	c #0194AF",
" .	c #00A1C2",
"..	c #00A3C4",
"+.	c #077D49",
"@.	c #14B008",
"#.	c #15AC08",
"$.	c #15A809",
"%.	c #15A309",
"&.	c #16970B",
"*.	c #17910B",
"=.	c #018085",
"-.	c #019AB6",
";.	c #00A1C0",
">.	c #00A8CA",
",.	c #00AACC",
"'.	c #078249",
").	c #13BB07",
"!.	c #14B607",
"~.	c #14B108",
"{.	c #15AB08",
"].	c #15A509",
"^.	c #169E0A",
"/.	c #17900C",
"(.	c #01747A",
"_.	c #068749",
":.	c #12C406",
"<.	c #13BF06",
"[.	c #13B807",
"}.	c #15AA09",
"|.	c #169B0A",
"1.	c #178C0C",
"2.	c #018187",
"3.	c #068949",
"4.	c #12CC05",
"5.	c #13BD06",
"6.	c #14B507",
"7.	c #14AD08",
"8.	c #178D0C",
"9.	c #18850D",
"0.	c #0DBE80",
"a.	c #0CC280",
"b.	c #0CC67F",
"c.	c #0CCA7F",
"d.	c #0BCE7E",
"e.	c #0BD27E",
"f.	c #0AD67D",
"g.	c #0ADB7D",
"h.	c #0ADF7C",
"i.	c #09E37C",
"j.	c #09E77B",
"k.	c #079448",
"l.	c #058844",
"m.	c #058B44",
"n.	c #058840",
"o.	c #059049",
"p.	c #05833C",
"q.	c #058C49",
"r.	c #099425",
"s.	c #11CF04",
"t.	c #12C705",
"u.	c #14AE08",
"v.	c #15A609",
"w.	c #19800D",
"x.	c #18880C",
"y.	c #17900B",
"z.	c #16990B",
"A.	c #15A909",
"B.	c #14B208",
"C.	c #13BA07",
"D.	c #13C206",
"E.	c #12CB05",
"F.	c #11D304",
"G.	c #10DB03",
"H.	c #10E402",
"I.	c #0FEC01",
"J.	c #0EF200",
"K.	c #0FEE01",
"L.	c #0FE602",
"M.	c #10DE03",
"N.	c #11D604",
"O.	c #12CE05",
"P.	c #12C506",
"Q.	c #17930B",
"R.	c #18820D",
"S.	c #169A0A",
"T.	c #15A20A",
"U.	c #12CA05",
"V.	c #11D204",
"W.	c #11D903",
"X.	c #10DF03",
"Y.	c #10E502",
"Z.	c #10E302",
"`.	c #10DD03",
" +	c #11D704",
".+	c #11D004",
"++	c #12C805",
"@+	c #13C006",
"#+	c #16A00A",
"$+	c #197F0D",
"%+	c #14B707",
"&+	c #13BE06",
"*+	c #11D104",
"=+	c #11D504",
"-+	c #11D703",
";+	c #12C605",
">+	c #178E0C",
",+	c #17960B",
"'+	c #14B807",
")+	c #12C905",
"!+	c #18830D",
"~+	c #197B0E",
"{+	c #14AF08",
"]+	c #14B308",
"^+	c #13BC07",
"/+	c #16960B",
"(+	c #169C0A",
"_+	c #169F0A",
":+	c #18870C",
"<+	c #178B0C",
". . . . . . . . . . . . . . . . + @ @ + . . . . . . . . . . . . ",
". . . . . . . . . . . . . . . . + @ @ + . . . . . . . . . . . . ",
". . . . . . . . . . . . . . . . + @ @ + . . . . . . . . . . . . ",
". . . . . . . . . . . . . . . . + @ @ + . . . . . . . . . . . . ",
". . . . . . . . . . . . . . . . + @ @ + . . . . . . . . . . . . ",
". . . . . . . . . . . . . . . . + @ @ + . . . . . . . . . . . . ",
". . . . . . . . . . . . . . . . + @ @ + . . . . . . . . . . . . ",
". . . . . . . . . . . . . . # $ % & * = - ; . . . . . . . . . . ",
". . . . . . . . . . . . . . > , ' ) ! ~ { ] . . . . . . . . . . ",
". . . . . . . . . . . . . . ^ ' ) ! ~ { / ( . . . . . . . . . . ",
". . . . . . . . . . . . . . _ ) ! ~ { / : < [ [ [ [ [ [ [ [ [ [ ",
". . . . . . . . . . . . . . } | 1 2 3 4 5 6 7 7 7 7 7 7 7 7 7 7 ",
". . . . . . . . . . . . . . 8 9 0 a b c d e 7 7 7 7 7 7 7 7 7 7 ",
". . . . . . . . . . . . . . f g h i j k l m n o 7 7 7 7 7 7 7 7 ",
". . . . . . . . . . . . . . - 3 4 p q r s t u v w x y o 7 7 7 7 ",
". . . . . . . . . . . . . . z 4 p q A B C D E F G H u I J o 7 7 ",
". . . . . . . . . . . . . . K c d L M N O P Q R S T U H V x W 7 ",
". . . . . . . . . . . . . . X Y Z ` C  ...+.@.#.$.%.S &.*.V x W ",
". . . . . . . . . . . . . . =.s -.;.>.,.,.'.).!.~.{.].^.&./.v J ",
". . . . . . . . . . . . . . (.-.;.>.,.,.,._.:.<.[.~.}.%.|.U 1.x ",
". . . . . . . . . . . . . . 2.;.>.,.,.,.,.3.4.:.5.6.7.].S F 8.9.",
"[ [ [ 0.a.b.c.d.e.f.g.h.i.j.k.l.m.n.o.p.q.r.s.t.<.!.u.v.^.F 8.9.",
"7 7 7 w.x.y.z.R A.B.C.D.E.F.G.H.I.J.K.L.M.N.O.P.5.6.#.Q |.Q.u R.",
"7 7 7 J v *.S.T.}.B.C.D.U.V.W.X.H.Y.Z.`. +.+++@+[.@.$.#+&.H w $+",
"7 7 7 J v *.z.#+$.@.%+&+P.E.*+=+-+-+=+*+4.;+<.[.~.A.R S.G V R.7 ",
"7 7 7 $+w >+,+S Q {.B.'+5.D.;+)+U.)+t.:.@+).6.u.$.R T G V !+~+7 ",
"7 7 7 ~+!+V *.E ^.Q }.{+]+%+C.^+^+^+C.%+]+u.A.%.S &./.v R.~+7 7 ",
"7 7 7 7 W x V *./+(+R ].$.{.7.u.{+u.#.A.v.T.S E G 1.I $+7 7 7 7 ",
"7 7 7 7 7 W !+x.8.G ,+S.S _+#+R R #+^.(+E F y.1.I J ~+7 7 7 7 7 ",
"7 7 7 7 7 7 7 $+!+:+u >+y.G Q.Q.Q.G y.>+<+:+!+$+7 7 7 7 7 7 7 7 ",
"7 7 7 7 7 7 7 7 7 o $+R.x 9.I I 9.x !+y W 7 7 7 7 7 7 7 7 7 7 7 ",
"7 7 7 7 7 7 7 7 7 7 7 7 7 7 7 7 7 7 7 7 7 7 7 7 7 7 7 7 7 7 7 7 "};
