/* XPM */
static char * machine_xpm[] = {
"48 48 61 1",
" 	c None",
".	c #9DA7A8",
"+	c #84B1B8",
"@	c #8EAEB3",
"#	c #9AA7AA",
"$	c #85B0B8",
"%	c #18DCFF",
"&	c #3ECDE7",
"*	c #99A8AB",
"=	c #7E7E7E",
"-	c #84AEB5",
";	c #93A1A3",
">	c #565656",
",	c #627153",
"'	c #708E51",
")	c #7E9468",
"!	c #84AEB2",
"~	c #90A299",
"{	c #7DAA4E",
"]	c #A5FF46",
"^	c #A5E75F",
"/	c #87B5B0",
"(	c #9BBA96",
"_	c #97E149",
":	c #88C14B",
"<	c #90BA63",
"[	c #85B1B1",
"}	c #95AD97",
"|	c #585A55",
"1	c #5B6355",
"2	c #747A71",
"3	c #84ACB4",
"4	c #8F9E9E",
"5	c #9EA5A7",
"6	c #3CCDE7",
"7	c #1CDAFC",
"8	c #81B1BA",
"9	c #9EA8A9",
"0	c #9EA7A8",
"a	c #1BDAFC",
"b	c #7EB3BC",
"c	c #84B0B8",
"d	c #9CA8A9",
"e	c #8FADB2",
"f	c #59C2D5",
"g	c #9DA6A8",
"h	c #686868",
"i	c #7B995C",
"j	c #96D257",
"k	c #767676",
"l	c #837E6D",
"m	c #8F8561",
"n	c #908861",
"o	c #918B60",
"p	c #908661",
"q	c #787878",
"r	c #A29155",
"s	c #CCAA32",
"t	c #938860",
"u	c #B09949",
"v	c #7B7A71",
"                                                ",
"                             .+++++@#           ",
"                             $%%%%%&*           ",
"                             $%%%%%&*           ",
"                             $%%%%%&*           ",
"                             $%%%%%&*           ",
"                             $%%%%%&*           ",
"                             $%%%%%&*           ",
"                            =-%%%%%&;           ",
"  >,'''''''''''''''''''''''')!%%%%%&~''''''',>  ",
"  >{]]]]]]]]]]]]]]]]]]]]]]]]^/%%%%%&(]]]]]]]{>  ",
"  >{]_::::::::::::::::::::::<[%%%%%&}:::::_]{>  ",
"  >{]{|11111111111111111111123%%%%%&41111|{]{>  ",
"  >{]{>                      $%%%%%&*    >{]{>  ",
"  >{]{>                      $%%%%%&*    >{]{>  ",
"  >{]{>                      $%%%%%&*    >{]{>  ",
"  >{]{>                      $%%%%%&*    >{]{>  ",
"  >{]{>                      $%%%%%&*    >{]{>  ",
"  >{]{>                      $%%%%%&*    >{]{>  ",
"  >{]{>                      $%%%%%&*    >{]{>  ",
"  >{]{>                      $%%%%%&*    >{]{>  ",
"  >{]{>                      $%%%%%&*    >{]{>  ",
"  >{]{>                      $%%%%%&*    >{]{>  ",
"  >{]{>                      $%%%%%&*    >{]{>  ",
"  >{]{>                      $%%%%%&*    >{]{>  ",
"  >{]{>                      $%%%%%&*    >{]{>  ",
"  >{]{>                      $%%%%%&*    >{]{>  ",
"  >{]{>                      56%%%789    >{]{>  ",
"  >{]{>                       0&%ab.     >{]{>  ",
"  >{]{>                        c%&d      >{]{>  ",
"  >{]{>                        $%&*      >{]{>  ",
"  >{]{>                        e&f*      >{]{>  ",
"  >{]{>                        .##g      >{]{>  ",
"  >{]{>                                  >{]{>  ",
"  >{]{>                                  >{]{>  ",
"  >{]{>                                  >{]{>  ",
"  >{]{>                                  >{]{>  ",
"  >{]{>                                  >{]{>  ",
"  >{]{>                                  >{]{>  ",
"  >{]{>                                  >{]{>  ",
"  hijih                                  hijih  ",
"klmnonmppppppppppppppppppppppppppppppppppmnonmlk",
"qrssssssssssssssssssssssssssssssssssssssssssssrq",
"qrssssssssssssssssssssssssssssssssssssssssssssrq",
"qrssssssssssssssssssssssssssssssssssssssssssssrq",
"qrssssssssssssssssssssssssssssssssssssssssssssrq",
"qtuuuuuuuuuuuuuuuuuuuuuuuuuuuuuuuuuuuuuuuuuuuutq",
" vvvvvvvvvvvvvvvvvvvvvvvvvvvvvvvvvvvvvvvvvvvvvv "};
