/* XPM */
static char * machine_xpm[] = {
"40 40 8 1",
" 	c #000200",
".	c #212320",
"+	c #323331",
"@	c #494B48",
"#	c #5B5D5A",
"$	c #747673",
"%	c #8B8D8A",
"&	c #A6A8A4",
"                    $$$%%%              ",
"                   #$$%%%&%             ",
"                   %&&&&&&%             ",
"                   %&&&&&&%             ",
"                   %&&&&&&%             ",
"                   %&&&&&&%             ",
"                   %&&&&&&%             ",
"                   %&&&&&&$             ",
"                   %&&&&&&$             ",
"                   %&&&&&&$             ",
"                   %&&&%&&$             ",
"                   $&&%$&&$             ",
"                   $&&%$&&$             ",
"                   $&&%$&&$             ",
"                   $&&%$&&$             ",
"         +$$$$$$$##%&&%$&&$++++..       ",
"         @&&&&&&&&&%&&%$&&%&&&&%@       ",
"         +%#@@@###$%&&%$&&%%&&&&@       ",
"         @$@       $&&%$&&#...@%@       ",
"         @$@       $&&%#$%@   +%@       ",
"         @$@       @&&$.      +%@       ",
"         +$@        $&+       +%@       ",
"         +$@        .@        +%@       ",
"         +$@        .+        +%@       ",
"         +$@        +$.       @%+       ",
"         +$@        @$.       %%@       ",
"         +$@     +@#%&&%&&&%$$%%###@++. ",
"        ++$@    @%&&&&&&&&&&&&%%#$$$$##.",
"        ++%@@%&&&&&&&&&&&&&&&&%%#$$$#@@.",
"       +%&&%&&&&&&&&&&&&&&&&&%$$#$##@@@.",
"    .+@%&&&&&&&&&&&&&&&&&&&&%#%$@#@@@@. ",
"   @%%%%&&%%&&&&%%%&&&&&&&%%$$%$@@@@+.  ",
"   #&&&&%%%%%%%%%%%&&&&&&%%%$#%$@@@+    ",
"   #&&&&&&&&&&&%%%%%&&&%%%$#@@%$@+.     ",
"   @&&&&&&&&&&&&&&&%%%%%%$#@@@#@+       ",
"   .$%&&&&&&&&&&&&&&&&&&%#@@@@@.        ",
"      .+#$%&&&&&&&&&&&&&%#@@@+          ",
"           .@#$%&&&&&&&&%#@@.           ",
"                .@#$%&&&%#+             ",
"                    .+@$$+              "};
