/* XPM */
static char * machine_xpm[] = {
"32 32 181 2",
"  	c None",
". 	c #787A77",
"+ 	c #737572",
"@ 	c #838582",
"# 	c #8A8C89",
"$ 	c #828481",
"% 	c #676966",
"& 	c #868884",
"* 	c #8B8D89",
"= 	c #959794",
"- 	c #939592",
"; 	c #A8AAA6",
"> 	c #60625F",
", 	c #7F817F",
"' 	c #A9ABA7",
") 	c #A7A9A5",
"! 	c #A4A6A2",
"~ 	c #585A58",
"{ 	c #7E807D",
"] 	c #A6A8A4",
"^ 	c #595B58",
"/ 	c #A3A5A2",
"( 	c #535552",
"_ 	c #A2A4A0",
": 	c #474946",
"< 	c #A5A7A3",
"[ 	c #484A47",
"} 	c #7C7E7B",
"| 	c #8F918D",
"1 	c #A3A5A1",
"2 	c #666865",
"3 	c #9C9E9B",
"4 	c #757774",
"5 	c #A1A39F",
"6 	c #9D9F9C",
"7 	c #777976",
"8 	c #2E2F2D",
"9 	c #818380",
"0 	c #626461",
"a 	c #878986",
"b 	c #5F605E",
"c 	c #3B3C3A",
"d 	c #3E3F3D",
"e 	c #3C3D3B",
"f 	c #292B28",
"g 	c #0C0E0C",
"h 	c #373936",
"i 	c #8D8F8C",
"j 	c #8C8E8A",
"k 	c #949692",
"l 	c #9D9F9B",
"m 	c #8C8E8B",
"n 	c #959894",
"o 	c #B1B3AF",
"p 	c #B4B6B2",
"q 	c #161816",
"r 	c #7A7C79",
"s 	c #353734",
"t 	c #121412",
"u 	c #141614",
"v 	c #1C1E1C",
"w 	c #1B1D1B",
"x 	c #1C1E1B",
"y 	c #727471",
"z 	c #5A5C5A",
"A 	c #4C4E4A",
"B 	c #50524E",
"C 	c #70726E",
"D 	c #151715",
"E 	c #404240",
"F 	c #2C2E2B",
"G 	c #696B68",
"H 	c #9EA09D",
"I 	c #6B6D6A",
"J 	c #797B78",
"K 	c #8F918E",
"L 	c #2E302D",
"M 	c #3D3E3C",
"N 	c #7D7F7C",
"O 	c #161815",
"P 	c #3E403E",
"Q 	c #363835",
"R 	c #969895",
"S 	c #292928",
"T 	c #747673",
"U 	c #5C5E5B",
"V 	c #2A2B29",
"W 	c #1F211E",
"X 	c #1F211F",
"Y 	c #3A3B39",
"Z 	c #161916",
"` 	c #373836",
" .	c #585A57",
"..	c #060806",
"+.	c #4D4F4C",
"@.	c #0D0F0D",
"#.	c #565855",
"$.	c #131512",
"%.	c #0A0C09",
"&.	c #949693",
"*.	c #070907",
"=.	c #050705",
"-.	c #080A08",
";.	c #2C2D2B",
">.	c #2B2D2B",
",.	c #2B2D2A",
"'.	c #797B77",
").	c #9B9D9A",
"!.	c #ADAFAB",
"~.	c #B0B2AE",
"{.	c #B2B4B0",
"].	c #ACAEAA",
"^.	c #929491",
"/.	c #8B8D8A",
"(.	c #636562",
"_.	c #6B6D69",
":.	c #5B5D5A",
"<.	c #494B48",
"[.	c #3F413E",
"}.	c #0F110E",
"|.	c #262625",
"1.	c #80827F",
"2.	c #343633",
"3.	c #454745",
"4.	c #6E706D",
"5.	c #ABADA9",
"6.	c #767875",
"7.	c #5E605D",
"8.	c #262825",
"9.	c #080907",
"0.	c #9A9C98",
"a.	c #6C6E6B",
"b.	c #252724",
"c.	c #272926",
"d.	c #A1A3A0",
"e.	c #515350",
"f.	c #323431",
"g.	c #9A9C99",
"h.	c #979995",
"i.	c #989A97",
"j.	c #9C9E9A",
"k.	c #868885",
"l.	c #8E908D",
"m.	c #9B9D99",
"n.	c #464845",
"o.	c #4A4C49",
"p.	c #191A18",
"q.	c #9FA19D",
"r.	c #868886",
"s.	c #898B88",
"t.	c #888A87",
"u.	c #5F615E",
"v.	c #4B4D4A",
"w.	c #414240",
"x.	c #333532",
"y.	c #0D0E0C",
"z.	c #555754",
"A.	c #474846",
"B.	c #A4A6A3",
"C.	c #3E403D",
"D.	c #0E100E",
"E.	c #10120F",
"F.	c #2A2C2A",
"G.	c #8D8F8B",
"H.	c #989A96",
"I.	c #A7A9A4",
"J.	c #575956",
"K.	c #444643",
"L.	c #232422",
"M.	c #0B0D0B",
"N.	c #191B19",
"O.	c #242624",
"P.	c #313331",
"Q.	c #5D5F5B",
"R.	c #777975",
"S.	c #9EA09C",
"T.	c #AFB1AD",
"U.	c #919390",
"V.	c #2F302E",
"W.	c #0E100D",
"X.	c #424341",
"                                . + @ # $                       ",
"                              % & * = - ; >                     ",
"                              , ' ) ) ) ! ~                     ",
"                              { ) ] ] ] ! ~                     ",
"                              { ) ] ] ] ! ^                     ",
"                              { ) ] ] ] / (                     ",
"                              { ) ] ] ] _ :                     ",
"                              { ) < ] ] _ [                     ",
"                              } ) ] | 1 _ [                     ",
"                              2 ; 3 4 5 _ [                     ",
"                              % ; 6 7 5 _ [                     ",
"                              2 ; 6 7 5 _ :                     ",
"              8 9 { { { { 4 0 a ) 6 7 5 _ b c d e f g           ",
"              h ! i j j k - l m ) 6 7 5 1 n o p o $ q           ",
"              h r s t u v w x y ; l . < 1 z A B C 9 D           ",
"              E y F           G ; H I J K L     M N O           ",
"              P + F           Q ) R h           e N O           ",
"              S T F             U 2             e N O           ",
"              V T F             W X             Y { Z           ",
"              V T F             `  ...          +.+ @.          ",
"              V T F             #.0 $.@.@.@.%.  &.7 x *.=.      ",
"            -.;.+ >.      ,.2 '.).!.1 ~.{.].^.i /.r (._.:.<.[.}.",
"            v |.1.2.3.I 4.^.) ' ] < ] ] < ] ) 5./.r G 6.6.7.( 8.",
"          9.(.0.5 # 1 ] ) ] ] < ] ] ] ] ] < ; ^.+ I a.> U [ +.b.",
"      c.M % d.] 1 < ] ] < 1 1 < ] ] ] < < ! &.U m 0 e.<.[ [ F   ",
"    f.R g.h.i.j.k.l.j.m.m.a k.! < < ] ) g.# } a.# (.n.o.[.p.    ",
"    h 5 ) ) q.m.3 j.m.j.r.s.t.^.; ; m.&.# 7 u.v.K 2 w.x.y.      ",
"    ,.5 ) < ] ] ] ] ] ] 1 1 < /.m m # /.T z.[ : u.A.u           ",
"    g > 9 l H _ B.] ] ] ] < < ) ) ) ' K z.: <.: C.D.            ",
"          E.F.n.U 1.G.H./ 5.' ; I.< ) K J.o.K.L.                ",
"                  M.N.O.P.Q.R./.S.T.].U.^ V.W.                  ",
"                            ..*.F X.I J 8                       "};
