/* XPM */
static char * material_xpm[] = {
"40 40 8 1",
" 	c #000200",
".	c #1E201D",
"+	c #2F302E",
"@	c #4C4D4B",
"#	c #5C5D5B",
"$	c #737572",
"%	c #888A87",
"&	c #A5A7A4",
"                                        ",
"                                        ",
"                                        ",
"                                        ",
"                                        ",
"                                        ",
"                                        ",
".                                       ",
".                                       ",
".                                       ",
".                    ..                 ",
".                  .@#$@@               ",
".                .@#$$$$$$@             ",
".              .@$$$$$$$$$$$@           ",
".            +@$$$$$$$$%$$$$$$.         ",
".         .##$$$$$$$$##&&&%%%$#         ",
".        .#%$$$$$$$#@@#&&&&&&%#         ",
".        .&&&%%%$##@@@#&&&&&&&#         ",
".        .&&&&&&%#@@@@#%&&&&&&#         ",
".        .&&&&&&%@@@##$$$$%%%%#         ",
".        .&&&&&&%@@#$$$$$$$$$#@.        ",
".        .&&&&&&%##$$$$$$$$$#@@+        ",
".        .&&&&&&&%%$$$$$$$$#@@@.        ",
".         &&&&&&&&&&%%%$$#@@@@+         ",
".         %&&&&&&&&&&&&&%@@@@.          ",
".           @%&&&&&&&&&&%@@@+           ",
".             @%%&&&&&&&%@@.            ",
".                 @%%&&&%#              ",
".                                       ",
".                                       ",
".                                       ",
".                                       ",
".                                       ",
".                                       ",
".                                       ",
".                                       ",
"                                        ",
"                                        ",
"                                        ",
"                                        "};
