/* XPM */
static char * material_xpm[] = {
"32 32 8 1",
" 	c None",
".	c #1E201D",
"+	c #4C4D4B",
"@	c #5C5D5B",
"#	c #737572",
"$	c #2F302E",
"%	c #888A87",
"&	c #A5A7A4",
"                                ",
"                                ",
"                                ",
"                                ",
"                                ",
"                                ",
"                 ..             ",
"               .+@#++           ",
"             .+@#######+        ",
"           .+#############+     ",
"         $+########%#######+    ",
"      .@@########@@&&&%%%#@@    ",
"     .@%#######@++@&&&&&&&@@    ",
"     .&&&%%%#@@+++@&&&&&&&@@    ",
"     .&&&&&&%@++++@%&&&&&&@@    ",
"     .&&&&&&%+++@@####%%%%@+    ",
"     .&&&&&&%++@#########@++    ",
"     .&&&&&&%@@#########@++.    ",
"     .&&&&&&&%%########@+++.    ",
"      &&&&&&&&&&%%%##@++++$     ",
"      %&&&&&&&&&&&&&%++++.      ",
"        +%&&&&&&&&&&%+++$       ",
"          +%%&&&&&&&%++.        ",
"              +%%&&&%@          ",
"                 +%&+           ",
"                                ",
"                                ",
"                                ",
"                                ",
"                                ",
"                                ",
"                                "};
