/* XPM */
static char * modify_xpm[] = {
"48 48 219 2",
"  	c None",
". 	c #0D0A00",
"+ 	c #070500",
"@ 	c #1A1500",
"# 	c #AC8B00",
"$ 	c #493B00",
"% 	c #0B0900",
"& 	c #0C0900",
"* 	c #8D7100",
"= 	c #C59F00",
"- 	c #A48400",
"; 	c #332900",
"> 	c #292100",
", 	c #907500",
"' 	c #1E1700",
") 	c #9D7F00",
"! 	c #C39E00",
"~ 	c #846900",
"{ 	c #131000",
"] 	c #3E3200",
"^ 	c #C09B00",
"/ 	c #755E00",
"( 	c #0C0A00",
"_ 	c #0A0800",
": 	c #0A0700",
"< 	c #AA8900",
"[ 	c #B89400",
"} 	c #594700",
"| 	c #090700",
"1 	c #080600",
"2 	c #3C3000",
"3 	c #AD8C00",
"4 	c #413500",
"5 	c #0B0800",
"6 	c #292200",
"7 	c #9F8000",
"8 	c #2E2600",
"9 	c #0E0B00",
"0 	c #A98900",
"a 	c #1E1800",
"b 	c #090600",
"c 	c #514200",
"d 	c #B69300",
"e 	c #7D6400",
"f 	c #110E00",
"g 	c #0B0700",
"h 	c #665200",
"i 	c #BD9900",
"j 	c #BF9A00",
"k 	c #130F00",
"l 	c #0C0B00",
"m 	c #0F0C00",
"n 	c #765F00",
"o 	c #C29D00",
"p 	c #896E00",
"q 	c #0D0B00",
"r 	c #161200",
"s 	c #836A00",
"t 	c #C19B00",
"u 	c #0D0B01",
"v 	c #241C00",
"w 	c #977A00",
"x 	c #483A01",
"y 	c #141413",
"z 	c #080808",
"A 	c #090800",
"B 	c #342B00",
"C 	c #A88800",
"D 	c #B79400",
"E 	c #070706",
"F 	c #7F7F7F",
"G 	c #8E8E8E",
"H 	c #3D3D3D",
"I 	c #4B3C00",
"J 	c #B29000",
"K 	c #604D00",
"L 	c #0A0907",
"M 	c #0E0E0E",
"N 	c #656565",
"O 	c #9C9C9C",
"P 	c #858585",
"Q 	c #2D2D2D",
"R 	c #090909",
"S 	c #594800",
"T 	c #AB8A00",
"U 	c #141414",
"V 	c #6F6F6F",
"W 	c #9D9D9D",
"X 	c #7C7C7C",
"Y 	c #212121",
"Z 	c #0A0A0A",
"` 	c #040300",
" .	c #242424",
"..	c #737373",
"+.	c #151515",
"@.	c #303030",
"#.	c #898989",
"$.	c #626262",
"%.	c #0B0B0B",
"&.	c #040404",
"*.	c #050505",
"=.	c #3C3C3C",
"-.	c #909090",
";.	c #979797",
">.	c #535353",
",.	c #070707",
"'.	c #292929",
").	c #545454",
"!.	c #999999",
"~.	c #8F8F8F",
"{.	c #3F3F3F",
"].	c #060606",
"^.	c #0D0D0D",
"/.	c #A1A1A1",
"(.	c #969696",
"_.	c #3E3E3E",
":.	c #45458A",
"<.	c #46468E",
"[.	c #484894",
"}.	c #4C4C9D",
"|.	c #4D4D9F",
"1.	c #5B5BA7",
"2.	c #6E6EB4",
"3.	c #7C7CBC",
"4.	c #8989C5",
"5.	c #636363",
"6.	c #252525",
"7.	c #696969",
"8.	c #A7A7A7",
"9.	c #8D8D8D",
"0.	c #323232",
"a.	c #444487",
"b.	c #45458B",
"c.	c #46468F",
"d.	c #494995",
"e.	c #4C4C9C",
"f.	c #5050A1",
"g.	c #6363AD",
"h.	c #7777B9",
"i.	c #8484C0",
"j.	c #8C8CC7",
"k.	c #101010",
"l.	c #191919",
"m.	c #A6A6A6",
"n.	c #7E7E7E",
"o.	c #5D5D9C",
"p.	c #4E4E9F",
"q.	c #5D5DA9",
"r.	c #7070B5",
"s.	c #7E7EBF",
"t.	c #8A8AC5",
"u.	c #787878",
"v.	c #8A8A8A",
"w.	c #8686BF",
"x.	c #7D7DB6",
"y.	c #60609E",
"z.	c #4E4E9E",
"A.	c #7070B6",
"B.	c #C2C2ED",
"C.	c #DADAFE",
"D.	c #2A2A2A",
"E.	c #7F7FB8",
"F.	c #6363A1",
"G.	c #4F4F9C",
"H.	c #7F7FC0",
"I.	c #C9C9F2",
"J.	c #D8D8FF",
"K.	c #D7D7FF",
"L.	c #DCDCFF",
"M.	c #434343",
"N.	c #7D7D7D",
"O.	c #8686BE",
"P.	c #8282BF",
"Q.	c #5757A5",
"R.	c #8787C4",
"S.	c #CECEF6",
"T.	c #4C4C4C",
"U.	c #9E9E9E",
"V.	c #1E1E1E",
"W.	c #8989C1",
"X.	c #8585C0",
"Y.	c #5A5AA7",
"Z.	c #5050A2",
"`.	c #9191CD",
" +	c #CBCBF6",
".+	c #5E5E5E",
"++	c #6A6A6A",
"@+	c #8B8BC3",
"#+	c #8787C0",
"$+	c #8585C1",
"%+	c #5D5DA8",
"&+	c #5959A7",
"*+	c #A3A3D9",
"=+	c #D1D1FB",
"-+	c #D8D8FC",
";+	c #010101",
">+	c #9191C7",
",+	c #8787C2",
"'+	c #6060AA",
")+	c #6161AD",
"!+	c #ABABDF",
"~+	c #D4D4FD",
"{+	c #D6D6FE",
"]+	c #CACAF4",
"^+	c #9393CB",
"/+	c #7979BB",
"(+	c #B9B9E9",
"_+	c #D2D2FA",
":+	c #8B8BC4",
"<+	c #A8A8D9",
"[+	c #CCCCF5",
"}+	c #9090C6",
"|+	c #C6C6F1",
"1+	c #9494CA",
"2+	c #CECEF7",
"3+	c #D5D5FE",
"4+	c #C9C9F3",
"5+	c #D2D2FB",
"6+	c #D4D4FC",
"                                                                                                ",
"                                                                                                ",
"                                                                                                ",
"                                                                                                ",
"          . +                                                                                   ",
"          @ # $ %                                                                               ",
"        & * = = - ; %                                                                           ",
"        > = = = = = , ' .                                                                       ",
"      % ) = = = = = = ! ~ { .                                                                   ",
"      ] = = = = = = = = = ^ / ( _                                                               ",
"    : < = = = = = = = = = = = [ } |                                                             ",
"  1 2 = = = = = = = = = = = = = = 3 4 _                                                         ",
"    5 6 ) = = = = = = = = = = = = = = 7 8 9                                                     ",
"        _ 2 0 = = = = = = = = = = = = = = , a .                                                 ",
"            b c d = = = = = = = = = = = = = ! e f .                                             ",
"              g _ h i = = = = = = = = = = = = = j k                                             ",
"                  l m n o = = = = = = = = = = = p q                                             ",
"                      m r s = = = = = = = = = t u                                               ",
"                          ( v w = = = = = = = x y z z                                           ",
"                              A B C = = = = D E F G H z                                         ",
"                                  _ I J = = K L M N O P Q R                                     ",
"                                      | S T |     R U V W X Y Z                                 ",
"                                        & ` |         R  .F W ..+.R                             ",
"                                                          z @.#.O $.%.R         &.              ",
"                                                              *.=.-.;.>.z ,.  Z '.z Z           ",
"                                                                ,.z ).!.~.{.].^./.(._.].        ",
"                        :.<.[.}.|.1.2.3.4.                          Z M 5.O 6.7.8.8.8.9.0.Z     ",
"          a.b.c.d.e.|.|.|.|.|.|.|.|.|.|.|.|.f.g.h.i.j.                  R k.l.m.8.8.8.8.8.n.R   ",
"    o.p.|.|.|.|.|.|.|.|.|.|.|.|.|.|.|.|.|.|.|.|.|.|.|.|.q.r.s.t.          R u.8.8.8.8.8.8.v.z   ",
"    w.x.y.z.|.|.|.|.|.|.|.|.|.|.|.|.|.|.|.|.|.|.|.|.|.|.|.|.A.B.C.         .8.8.8.8.8.8.8.D.    ",
"    w.w.w.E.F.G.|.|.|.|.|.|.|.|.|.|.|.|.|.|.|.|.|.|.|.|.H.I.J.K.L.        ,.M.!.8.8.8.8.N.R     ",
"    w.w.w.w.w.O.P.Q.|.|.|.|.|.|.|.|.|.|.|.|.|.|.|.|.R.S.K.K.K.K.L.            ,.T.U.8.m.V.      ",
"    O.w.w.w.w.w.w.W.X.Y.|.|.|.|.|.|.|.|.|.|.|.Z.`. +K.K.K.K.K.K.L.              Z R .+++%.      ",
"      @+w.w.w.w.w.w.w.#+$+%+|.|.|.|.|.|.|.&+*+=+K.K.K.K.K.K.K.K.-+                  %.;+        ",
"        >+w.w.w.w.w.w.w.w.#+,+'+|.|.|.)+!+~+K.K.K.K.K.K.K.K.{+]+                                ",
"          ^+w.w.w.w.w.w.w.w.w.#+,+/+(+{+K.K.K.K.K.K.K.K.K._+                                    ",
"              :+w.w.w.w.w.w.w.w.w.<+K.K.K.K.K.K.K.K.K.K.[+                                      ",
"                }+w.w.w.w.w.w.w.w.<+K.K.K.K.K.K.K.K.~+|+                                        ",
"                  1+#+w.w.w.w.w.w.<+K.K.K.K.K.K.K.2+                                            ",
"                      :+w.w.w.w.w.<+K.K.K.K.K.3+4+                                              ",
"                        }+w.w.w.w.<+K.K.K.K.5+                                                  ",
"                          1+#+w.w.<+K.K.K.]+                                                    ",
"                              :+w.<+K.6+                                                        ",
"                                }+<+2+                                                          ",
"                                                                                                ",
"                                                                                                ",
"                                                                                                ",
"                                                                                                "};
