/* XPM */
static char * next_xpm[] = {
"32 32 237 2",
"  	c None",
". 	c #E7E7E7",
"+ 	c #979797",
"@ 	c #5B6060",
"# 	c #495253",
"$ 	c #4A5253",
"% 	c #7B7C7C",
"& 	c #B6B6B6",
"* 	c #787A7A",
"= 	c #090E0F",
"- 	c #0D3B42",
"; 	c #00778A",
"> 	c #00899E",
", 	c #008498",
"' 	c #03606F",
") 	c #0D292E",
"! 	c #1D2628",
"~ 	c #A4A4A4",
"{ 	c #E1E1E1",
"] 	c #2C3435",
"^ 	c #0B363D",
"/ 	c #00B6D3",
"( 	c #00D2F3",
"_ 	c #009AB2",
": 	c #0B2023",
"< 	c #575D5E",
"[ 	c #E4E4E4",
"} 	c #2B3335",
"| 	c #075764",
"1 	c #00D0F1",
"2 	c #00C9E9",
"3 	c #0B3B42",
"4 	c #505658",
"5 	c #4D5657",
"6 	c #064C58",
"7 	c #00CCEC",
"8 	c #0C3136",
"9 	c #7F8283",
"0 	c #9E9F9F",
"a 	c #0A2327",
"b 	c #00CAE9",
"c 	c #00BAD7",
"d 	c #091213",
"e 	c #CCCCCC",
"f 	c #E6E6E6",
"g 	c #0F1618",
"h 	c #00A4BE",
"i 	c #0099B1",
"j 	c #006F81",
"k 	c #008095",
"l 	c #00A6C0",
"m 	c #00CFEF",
"n 	c #037586",
"o 	c #404A4B",
"p 	c #7A7E7E",
"q 	c #094650",
"r 	c #0096AD",
"s 	c #0A1F22",
"t 	c #2A373A",
"u 	c #5D6364",
"v 	c #6D6E6E",
"w 	c #555C5D",
"x 	c #1B2628",
"y 	c #0A1C1F",
"z 	c #017D91",
"A 	c #091315",
"B 	c #CECECE",
"C 	c #E8E8E8",
"D 	c #0C1314",
"E 	c #00B2CE",
"F 	c #028195",
"G 	c #131D1E",
"H 	c #BCBCBC",
"I 	c #BABABA",
"J 	c #2A3335",
"K 	c #0A3C44",
"L 	c #00C7E7",
"M 	c #056675",
"N 	c #5E6566",
"O 	c #929393",
"P 	c #0C4048",
"Q 	c #0C1517",
"R 	c #D1D1D1",
"S 	c #585E5F",
"T 	c #0A3036",
"U 	c #00CBEB",
"V 	c #00BDDB",
"W 	c #080E0F",
"X 	c #E9E9E9",
"Y 	c #242F30",
"Z 	c #0098AF",
"` 	c #00D1F2",
" .	c #0B2F34",
"..	c #989898",
"+.	c #464E4F",
"@.	c #085C6A",
"#.	c #0E3137",
"$.	c #B1B1B1",
"%.	c #CBCBCB",
"&.	c #091719",
"*.	c #1C2628",
"=.	c #DEDEDE",
"-.	c #0C1415",
";.	c #00B4D0",
">.	c #036C7C",
",.	c #686D6D",
"'.	c #767979",
").	c #075D6B",
"!.	c #0A4C56",
"~.	c #898A8A",
"{.	c #7E8182",
"].	c #0A464F",
"^.	c #00A3BD",
"/.	c #212D2F",
"(.	c #2A3638",
"_.	c #081214",
":.	c #D8D8D8",
"<.	c #091011",
"[.	c #00BDDA",
"}.	c #00CBEA",
"|.	c #050909",
"1.	c #EBEBEB",
"2.	c #CDCDCD",
"3.	c #CFCFCF",
"4.	c #E3E3E3",
"5.	c #060C0D",
"6.	c #00B3CF",
"7.	c #141E1F",
"8.	c #535B5D",
"9.	c #017385",
"0.	c #0D2529",
"a.	c #C5C5C5",
"b.	c #D6D6D6",
"c.	c #101719",
"d.	c #737475",
"e.	c #A7A7A7",
"f.	c #008297",
"g.	c #4B5456",
"h.	c #A9A9A9",
"i.	c #0E363D",
"j.	c #0E454E",
"k.	c #969696",
"l.	c #232C2D",
"m.	c #020F11",
"n.	c #8B8B8B",
"o.	c #5E6466",
"p.	c #085966",
"q.	c #898989",
"r.	c #050B0B",
"s.	c #00CDED",
"t.	c #085A67",
"u.	c #0C0E0E",
"v.	c #08535E",
"w.	c #0E444D",
"x.	c #A3A3A3",
"y.	c #1C282A",
"z.	c #00A9C3",
"A.	c #0E4149",
"B.	c #A8A8A8",
"C.	c #192426",
"D.	c #00AEC9",
"E.	c #017C90",
"F.	c #0B3E46",
"G.	c #00CEEE",
"H.	c #0F3136",
"I.	c #B9B9B9",
"J.	c #0E292E",
"K.	c #C2C2C2",
"L.	c #DFDFDF",
"M.	c #283132",
"N.	c #0092A9",
"O.	c #0B1C1E",
"P.	c #D0D0D0",
"Q.	c #BEBEBE",
"R.	c #0E2A2F",
"S.	c #DBDBDB",
"T.	c #D2D2D2",
"U.	c #888888",
"V.	c #343D3E",
"W.	c #040809",
"X.	c #0E3A41",
"Y.	c #00B8D5",
"Z.	c #919191",
"`.	c #0A515C",
" +	c #030506",
".+	c #EAEAEA",
"++	c #C3C3C3",
"@+	c #222B2C",
"#+	c #060D0E",
"$+	c #0C4953",
"%+	c #008A9F",
"&+	c #00C6E5",
"*+	c #00C5E4",
"=+	c #080D0E",
"-+	c #616768",
";+	c #007688",
">+	c #010202",
",+	c #354041",
"'+	c #0A262B",
")+	c #00A1BB",
"!+	c #00B0CC",
"~+	c #182325",
"{+	c #3A4648",
"]+	c #050809",
"^+	c #10191A",
"/+	c #07535E",
"(+	c #00C2E1",
"_+	c #009CB5",
":+	c #2D3A3C",
"<+	c #737778",
"[+	c #0A1416",
"}+	c #027789",
"|+	c #00D0F0",
"1+	c #00889D",
"2+	c #475254",
"3+	c #060A0A",
"4+	c #010303",
"5+	c #C7C7C7",
"6+	c #2F383A",
"7+	c #0D3238",
"8+	c #00ADC8",
"9+	c #007486",
"0+	c #646969",
"a+	c #30393B",
"b+	c #10181A",
"c+	c #060B0C",
"d+	c #030708",
"e+	c #0A1C1E",
"f+	c #020404",
"g+	c #969798",
"h+	c #0F181A",
"i+	c #07606F",
"j+	c #045764",
"k+	c #818181",
"l+	c #C8C8C8",
"m+	c #5B6364",
"n+	c #CACACA",
"                                                                ",
"                                                                ",
"                        . + @ # $ % &                           ",
"                      * = - ; > , ' ) ! ~                       ",
"                  { ] ^ / ( ( ( ( ( ( _ : <                     ",
"                [ } | 1 ( ( ( ( ( ( ( ( 2 3 4                   ",
"                5 6 1 ( ( ( ( ( ( ( ( ( ( 7 8 9                 ",
"              0 a b ( ( ( ( ( ( ( ( ( ( ( ( c d e               ",
"            f g h ( ( ( 1 i ; j k l m ( ( ( ( n o               ",
"            p q ( ( ( r s t u v w x y z 1 ( ( b A B             ",
"          C D E ( ( F G H           I J K L ( ( M N             ",
"          O P ( ( l Q R                 S T U ( V W X           ",
"          Y Z ( `  ...                    +.@.( ( #.$.          ",
"        %.&.1 ( i *.                      =.-.;.( >.,.          ",
"        '.).( ( !.~.                        {.].( ^./.          ",
"        (._ ( ` _.:.                        C <.[.}.|.1.  2.3.  ",
"      4.5.U ( 6.7.                            8.9.( 0.a.b.c.d.  ",
"      e.- ( ( f.g.                            h.i.( j.k.l.m.n.  ",
"      o.9.( ( p.q.                            { r.s.t.u.v.w.x.  ",
"      y.z.( ( A.B.                              C.D.E.F.G.H.I.  ",
"    C |.s.( ( J.K.                            L.M.N.( ( ( O.P.  ",
"    Q.R.( ( ( _.S.                      T.U.V.W.X.Y.( ( ( W..   ",
"    Z.`.( ( (  +.+                  ++@+#+$+%+&+( ( ( ( *+=+    ",
"    -+;+( ( 1 >+                    :.,+'+)+( ( ( ( ( ( !+~+    ",
"    {+N.( ( }.]+                        0 ^+/+(+( ( ( ( _+:+    ",
"    x D.( ( s. +                          C <+[+}+|+( ( 1+2+    ",
"    3+!+&+( ( 4+                              5+6+7+8+( 9+0+    ",
"    a+b+c+d+e+f+X                                 g+h+i+j+k+    ",
"          . 3.l+                                    { m+4+..    ",
"                                                        n+[     ",
"                                                                ",
"                                                                "};
