/* XPM */
static char * play_xpm[] = {
"32 32 113 2",
"  	c None",
". 	c #565F56",
"+ 	c #5E655E",
"@ 	c #2F3F2F",
"# 	c #042004",
"$ 	c #364236",
"% 	c #E1E1E1",
"& 	c #253525",
"* 	c #00C600",
"= 	c #057F05",
"- 	c #162116",
"; 	c #C8C8C8",
"> 	c #1C2A1C",
", 	c #00D300",
"' 	c #00FF00",
") 	c #02A602",
"! 	c #0B140B",
"~ 	c #A8A8A8",
"{ 	c #142114",
"] 	c #00DD00",
"^ 	c #00C500",
"/ 	c #0A190A",
"( 	c #7D807D",
"_ 	c #0D160D",
": 	c #00E800",
"< 	c #00E300",
"[ 	c #0B300B",
"} 	c #575F57",
"| 	c #EBEBEB",
"1 	c #060C06",
"2 	c #00F300",
"3 	c #0B4E0B",
"4 	c #364136",
"5 	c #E0E0E0",
"6 	c #010301",
"7 	c #00FD00",
"8 	c #00FC00",
"9 	c #077707",
"0 	c #1A231A",
"a 	c #CACACA",
"b 	c #E8E8E8",
"c 	c #040904",
"d 	c #029D02",
"e 	c #0D170D",
"f 	c #B2B2B2",
"g 	c #DDDDDD",
"h 	c #081308",
"i 	c #898B89",
"j 	c #D4D4D4",
"k 	c #0B1D0B",
"l 	c #00DE00",
"m 	c #0B2A0B",
"n 	c #5A605A",
"o 	c #C9C9C9",
"p 	c #0D280D",
"q 	c #00EE00",
"r 	c #094209",
"s 	c #445144",
"t 	c #BFBFBF",
"u 	c #0E320E",
"v 	c #00E900",
"w 	c #0A3E0A",
"x 	c #3C473C",
"y 	c #B5B5B5",
"z 	c #0F3D0F",
"A 	c #00BF00",
"B 	c #081608",
"C 	c #7C807C",
"D 	c #ABABAB",
"E 	c #0F480F",
"F 	c #039003",
"G 	c #0C140C",
"H 	c #A1A1A1",
"I 	c #0D530D",
"J 	c #00F900",
"K 	c #086608",
"L 	c #1F2A1F",
"M 	c #CECECE",
"N 	c #979797",
"O 	c #0C5E0C",
"P 	c #00E500",
"Q 	c #0B380B",
"R 	c #475147",
"S 	c #E5E5E5",
"T 	c #8C8C8C",
"U 	c #096909",
"V 	c #0A1B0A",
"W 	c #828282",
"X 	c #057405",
"Y 	c #039903",
"Z 	c #0E170E",
"` 	c #ADADAD",
" .	c #787878",
"..	c #017F01",
"+.	c #253225",
"@.	c #6A6F6A",
"#.	c #008900",
"$.	c #00E600",
"%.	c #0B390B",
"&.	c #4F5A4F",
"*.	c #5C645C",
"=.	c #009400",
"-.	c #0B1E0B",
";.	c #8B908B",
">.	c #4F5B4F",
",.	c #024D02",
"'.	c #0E180E",
").	c #AAAAAA",
"!.	c #4A544A",
"~.	c #1D2A1D",
"{.	c #CDCDCD",
"].	c #D8D8D8",
"^.	c #E6E6E6",
"                                                                ",
"                                                                ",
"                                                                ",
"                                                                ",
"                    . +                                         ",
"                    @ # $ %                                     ",
"                    & * = - ;                                   ",
"                    > , ' ) ! ~                                 ",
"                    { ] ' ' ^ / (                               ",
"                    _ : ' ' ' < [ } |                           ",
"                    1 2 ' ' ' ' 2 3 4 5                         ",
"                    6 7 ' ' ' ' ' 8 9 0 a                       ",
"                  b c ' ' ' ' ' ' ' ' d e f                     ",
"                  g h ' ' ' ' ' ' ' ' ' ^ / i                   ",
"                  j k ' ' ' ' ' ' ' ' ' ' l m n                 ",
"                  o p ' ' ' ' ' ' ' ' ' ' ' q r s               ",
"                  t u ' ' ' ' ' ' ' ' ' ' ' v w x               ",
"                  y z ' ' ' ' ' ' ' ' ' ' A B C                 ",
"                  D E ' ' ' ' ' ' ' ' ' F G D                   ",
"                  H I ' ' ' ' ' ' ' J K L M                     ",
"                  N O ' ' ' ' ' ' P Q R S                       ",
"                  T U ' ' ' ' ' * V C                           ",
"                  W X ' ' ' ' Y Z `                             ",
"                   ...' ' J K +.j                               ",
"                  @.#.' $.%.&.b                                 ",
"                  *.=.* -.;.                                    ",
"                  >.,.'.).                                      ",
"                  !.~.{.                                        ",
"                  ].^.                                          ",
"                                                                ",
"                                                                ",
"                                                                "};
