/* XPM */
static char * prev_xpm[] = {
"32 32 236 2",
"  	c None",
". 	c #DEDEDE",
"+ 	c #929292",
"@ 	c #606566",
"# 	c #444D4E",
"$ 	c #535A5B",
"% 	c #6D7070",
"& 	c #C7C7C7",
"* 	c #DBDBDB",
"= 	c #565C5D",
"- 	c #0A1314",
"; 	c #0A4A54",
"> 	c #007284",
", 	c #008CA2",
"' 	c #008196",
") 	c #065F6D",
"! 	c #091719",
"~ 	c #2C3536",
"{ 	c #BDBDBD",
"] 	c #0E1516",
"^ 	c #085C6A",
"/ 	c #00C6E6",
"( 	c #00D2F3",
"_ 	c #00D0F0",
": 	c #037A8C",
"< 	c #080F10",
"[ 	c #999999",
"} 	c #C0C0C0",
"| 	c #0C1415",
"1 	c #0195AC",
"2 	c #00ACC7",
"3 	c #081315",
"4 	c #9E9F9F",
"5 	c #DCDCDC",
"6 	c #141C1D",
"7 	c #0193AB",
"8 	c #00A8C2",
"9 	c #091213",
"0 	c #C9C9C9",
"a 	c #4E5657",
"b 	c #06606F",
"c 	c #028094",
"d 	c #252F30",
"e 	c #EAEAEA",
"f 	c #0A191C",
"g 	c #00C9E9",
"h 	c #00BEDC",
"i 	c #008EA5",
"j 	c #00788B",
"k 	c #006E80",
"l 	c #008599",
"m 	c #00BBD8",
"n 	c #0B3A42",
"o 	c #858788",
"p 	c #4C5556",
"q 	c #027586",
"r 	c #00B1CD",
"s 	c #094A54",
"t 	c #070D0E",
"u 	c #3D494B",
"v 	c #626566",
"w 	c #6C6E6E",
"x 	c #485355",
"y 	c #0D1618",
"z 	c #09525D",
"A 	c #00AAC4",
"B 	c #0E1517",
"C 	c #E5E5E5",
"D 	c #D7D7D7",
"E 	c #081112",
"F 	c #00C6E5",
"G 	c #018EA4",
"H 	c #7C7F80",
"I 	c #E3E3E3",
"J 	c #E8E8E8",
"K 	c #5D6567",
"L 	c #0A2A2F",
"M 	c #828384",
"N 	c #797C7C",
"O 	c #075A67",
"P 	c #0F1618",
"Q 	c #C2C2C2",
"R 	c #5E6567",
"S 	c #09444E",
"T 	c #00A5BF",
"U 	c #151F20",
"V 	c #293537",
"W 	c #009BB3",
"X 	c #00BAD7",
"Y 	c #0A1416",
"Z 	c #C3C3C3",
"` 	c #EBEBEB",
" .	c #192224",
"..	c #0098AF",
"+.	c #0D2D32",
"@.	c #AAAAAA",
"#.	c #DFDFDF",
"$.	c #060D0E",
"%.	c #00CCEC",
"&.	c #094E58",
"*.	c #747778",
"=.	c #9A9A9A",
"-.	c #0C353B",
";.	c #017A8D",
">.	c #A4A4A4",
",.	c #0E4047",
"'.	c #00AAC5",
").	c #0E1618",
"!.	c #00B6D3",
"~.	c #00C1DF",
"{.	c #080D0E",
"].	c #ADADAD",
"^.	c #747677",
"/.	c #036777",
"(.	c #085561",
"_.	c #7D7F80",
":.	c #525B5D",
"<.	c #007C90",
"[.	c #0E3136",
"}.	c #B2B2B2",
"|.	c #010101",
"1.	c #727677",
"2.	c #071112",
"3.	c #D5D5D5",
"4.	c #949494",
"5.	c #0B4D58",
"6.	c #036878",
"7.	c #6E7172",
"8.	c #0C1314",
"9.	c #061012",
"0.	c #979898",
"a.	c #1B2729",
"b.	c #00AEC9",
"c.	c #009CB4",
"d.	c #263234",
"e.	c #CCCCCC",
"f.	c #0B1C1E",
"g.	c #00A1BA",
"h.	c #243032",
"i.	c #1D292B",
"j.	c #00889D",
"k.	c #091214",
"l.	c #040708",
"m.	c #00C2E1",
"n.	c #026B7B",
"o.	c #696D6D",
"p.	c #0A1011",
"q.	c #00C2E0",
"r.	c #00CEEE",
"s.	c #070E0F",
"t.	c #323F41",
"u.	c #0098B0",
"v.	c #051D20",
"w.	c #00D1F2",
"x.	c #0D454E",
"y.	c #9F9F9F",
"z.	c #202C2E",
"A.	c #0D3F46",
"B.	c #A6A6A6",
"C.	c #4D5758",
"D.	c #008498",
"E.	c #0E2A2F",
"F.	c #9B9B9B",
"G.	c #3A4648",
"H.	c #0093AA",
"I.	c #026776",
"J.	c #737677",
"K.	c #6B6F70",
"L.	c #007082",
"M.	c #087485",
"N.	c #0A1A1C",
"O.	c #11181A",
"P.	c #5E6162",
"Q.	c #596162",
"R.	c #007C8F",
"S.	c #3C484A",
"T.	c #868686",
"U.	c #075C6A",
"V.	c #00A9C3",
"W.	c #046979",
"X.	c #0E292E",
"Y.	c #080D0D",
"Z.	c #63696A",
"`.	c #6C7070",
" +	c #00B7D4",
".+	c #111A1B",
"++	c #9D9D9D",
"@+	c #0D4953",
"#+	c #046271",
"$+	c #8F9293",
"%+	c #777878",
"&+	c #01697A",
"*+	c #060C0D",
"=+	c #E1E1E1",
"-+	c #B4B4B4",
";+	c #0F363C",
">+	c #0092A9",
",+	c #091B1E",
"'+	c #4C5657",
")+	c #D9D9D9",
"!+	c #7F7F7F",
"~+	c #046372",
"{+	c #C1C1C1",
"]+	c #CBCBCB",
"^+	c #0C2023",
"/+	c #00B0CC",
"(+	c #0A363D",
"_+	c #263133",
":+	c #7C7C7C",
"<+	c #026675",
"[+	c #A0A0A0",
"}+	c #E2E2E2",
"|+	c #067182",
"1+	c #7F8182",
"2+	c #747576",
"3+	c #006B7C",
"4+	c #00CDED",
"5+	c #04505C",
"6+	c #818282",
"7+	c #050809",
"8+	c #0097AE",
"9+	c #0B2529",
"0+	c #434D4E",
"a+	c #D6D6D6",
"b+	c #717475",
"c+	c #051113",
"d+	c #071214",
"e+	c #020404",
"f+	c #0A1112",
"g+	c #9D9E9F",
"h+	c #171F20",
"i+	c #182123",
"j+	c #E0E0E0",
"k+	c #C5C5C5",
"l+	c #DADADA",
"m+	c #C6C6C6",
"                                                                ",
"                                                                ",
"                          . + @ # $ % &                         ",
"                      * = - ; > , ' ) ! ~ &                     ",
"                    { ] ^ / ( ( ( ( ( _ : < [                   ",
"                  } | 1 ( ( ( ( ( ( ( ( ( 2 3 4                 ",
"                5 6 7 ( ( ( ( ( ( ( ( ( ( ( 8 9 0               ",
"                a b ( ( ( ( ( ( ( ( ( ( ( ( ( c d e             ",
"              } f g ( ( ( ( h i j k l m ( ( ( ( n o             ",
"              p q ( ( ( r s t u v w x y z g ( ( A B C           ",
"            D E F ( ( G 9 H I         J K L / ( ( s M           ",
"            N O ( ( G P Q                 R S ( ( T U           ",
"            V W ( X Y Z                   `  ...( ( +.@.        ",
"          #.$.%.( &.*.                      =.-.( ( ;.p         ",
"          >.,.( '.).C                       e | !.( ~.{.J       ",
"    ].    ^./.( (._.                          :.<.( ( [.}.      ",
"    |.1.  u i %.2.3.                          4.5.( ( 6.7.      ",
"    8.9.0.a.b.c.d.                            e.f.( ( g.h.      ",
"    i.j.k.l.m.n.o.                              p.q.( r.s.#.    ",
"    t...u.v.w.x.y.                              z.A ( ( A.B.    ",
"    C.D.( ( ( E.F.                              G.H.( ( I.J.    ",
"    K.L.( ( ( M.N.O.P.].e                       Q.R.( ( i S.    ",
"    T.U.( ( ( ( ( V.W.X.Y.Z.                    `.L.( (  +.+    ",
"    ++@+( ( ( ( ( ( g #+- $+                    %+&+( ( w.*+=+  ",
"    -+;+( ( ( ( ( >+,+'+)+                      !+~+( ( ( X.{+  ",
"    ]+^+( ( ( /+(+_+{+                          :+<+( ( ( x.[+  ",
"    }+*+( r.|+| 1+`                             2+3+( 4+q.5+6+  ",
"      7+8+9+0+a+                                b+c+d+e+f+U g+  ",
"      h+i+].                                    j+k+l+          ",
"      m+J                                                       ",
"                                                                ",
"                                                                "};
