/* XPM */
static char * redo_xpm[] = {
"32 32 251 2",
"  	c None",
". 	c #E4E4E4",
"+ 	c #C1C1C1",
"@ 	c #B3B3B3",
"# 	c #07070A",
"$ 	c #C6C6C6",
"% 	c #D3D3D3",
"& 	c #000000",
"* 	c #1C1C27",
"= 	c #E6E6E6",
"- 	c #05050A",
"; 	c #080B5C",
"> 	c #484851",
", 	c #1B1C29",
"' 	c #0008C9",
") 	c #0B0D30",
"! 	c #8C8C8E",
"~ 	c #EBEBEB",
"{ 	c #D1D1D1",
"] 	c #BEBEBE",
"^ 	c #AFAFAF",
"/ 	c #B0B0B0",
"( 	c #B4B4B4",
"_ 	c #CDCDCD",
": 	c #E9E9E9",
"< 	c #3C3D4A",
"[ 	c #0007AE",
"} 	c #0008D5",
"| 	c #0A0A14",
"1 	c #C7C7C7",
"2 	c #A3A3A3",
"3 	c #505158",
"4 	c #1C1D29",
"5 	c #030307",
"6 	c #0A0B1D",
"7 	c #0E1032",
"8 	c #111343",
"9 	c #11123D",
"0 	c #0C0C20",
"a 	c #030306",
"b 	c #040407",
"c 	c #000698",
"d 	c #000AFF",
"e 	c #0309A0",
"f 	c #1E1E28",
"g 	c #D8D8D8",
"h 	c #626369",
"i 	c #08090F",
"j 	c #0E1045",
"k 	c #010790",
"l 	c #0008CC",
"m 	c #000AF6",
"n 	c #000AFC",
"o 	c #0009E3",
"p 	c #000AF7",
"q 	c #090D5F",
"r 	c #515159",
"s 	c #919193",
"t 	c #0B0B14",
"u 	c #05096F",
"v 	c #0009E0",
"w 	c #0008CF",
"x 	c #00058C",
"y 	c #060965",
"z 	c #0C0F45",
"A 	c #101243",
"B 	c #111342",
"C 	c #111350",
"D 	c #0D1062",
"E 	c #020787",
"F 	c #0007B5",
"G 	c #000AF4",
"H 	c #0B0C29",
"I 	c #949496",
"J 	c #53545B",
"K 	c #0A0C2E",
"L 	c #0008D4",
"M 	c #02088C",
"N 	c #0A0B20",
"O 	c #181825",
"P 	c #575862",
"Q 	c #8C8C8C",
"R 	c #ABABAB",
"S 	c #919191",
"T 	c #707073",
"U 	c #010102",
"V 	c #000AF3",
"W 	c #020781",
"X 	c #181820",
"Y 	c #5A5A61",
"Z 	c #090B3F",
"` 	c #0009F0",
" .	c #0008C3",
"..	c #0A0B1F",
"+.	c #44444F",
"@.	c #BCBCBC",
"#.	c #BABABA",
"$.	c #0D0E2E",
"%.	c #000AFA",
"&.	c #080B6C",
"*.	c #1A1A24",
"=.	c #C8C8C8",
"-.	c #999999",
";.	c #0A0B26",
">.	c #0107AC",
",.	c #0D0D18",
"'.	c #78787A",
").	c #050973",
"!.	c #0009E7",
"~.	c #0B0D3B",
"{.	c #42424C",
"].	c #E3E3E3",
"^.	c #0F0F18",
"/.	c #0008C6",
"(.	c #0008D1",
"_.	c #0B0C16",
":.	c #2C2D3B",
"<.	c #0007B7",
"[.	c #0A0B1C",
"}.	c #79797D",
"|.	c #8F8F90",
"1.	c #0B0E4E",
"2.	c #000AFE",
"3.	c #0C0E35",
"4.	c #9B9B9C",
"5.	c #E5E5E5",
"6.	c #06060C",
"7.	c #04098E",
"8.	c #0F0F19",
"9.	c #31313F",
"0.	c #0007B0",
"a.	c #0007B8",
"b.	c #21222F",
"c.	c #AAAAAA",
"d.	c #000001",
"e.	c #262631",
"f.	c #07070D",
"g.	c #080C69",
"h.	c #848486",
"i.	c #A4A4A4",
"j.	c #5C5D63",
"k.	c #E8E8E8",
"l.	c #D5D5D5",
"m.	c #0F113F",
"n.	c #B2B2B2",
"o.	c #C4C4C4",
"p.	c #0E0F2D",
"q.	c #0C0C21",
"r.	c #CECECE",
"s.	c #CACACA",
"t.	c #0D0E26",
"u.	c #C3C3C3",
"v.	c #E1E1E1",
"w.	c #06060D",
"x.	c #0D1050",
"y.	c #A1A1A1",
"z.	c #11111B",
"A.	c #0009DC",
"B.	c #02088D",
"C.	c #50515A",
"D.	c #DADADA",
"E.	c #22232F",
"F.	c #04040E",
"G.	c #A8A8A8",
"H.	c #51515B",
"I.	c #010695",
"J.	c #0009ED",
"K.	c #090911",
"L.	c #DEDEDE",
"M.	c #13141E",
"N.	c #040984",
"O.	c #00069D",
"P.	c #40404D",
"Q.	c #0D0E37",
"R.	c #090C6D",
"S.	c #505058",
"T.	c #878788",
"U.	c #090A14",
"V.	c #0108AE",
"W.	c #070811",
"X.	c #DCDCDC",
"Y.	c #0B0C32",
"Z.	c #68686E",
"`.	c #2F303B",
" +	c #0C0E3C",
".+	c #0008D8",
"++	c #080B58",
"@+	c #89898A",
"#+	c #979798",
"$+	c #0B0C36",
"%+	c #0009EB",
"&+	c #0B0D3E",
"*+	c #31323D",
"=+	c #B8B8B8",
"-+	c #A7A7A7",
";+	c #373743",
">+	c #080919",
",+	c #020899",
"'+	c #0108B7",
")+	c #0C0C16",
"!+	c #33343F",
"~+	c #040981",
"{+	c #010798",
"]+	c #0C0D2E",
"^+	c #0B0B13",
"/+	c #2E2E3E",
"(+	c #333441",
"_+	c #1C1D28",
":+	c #040509",
"<+	c #0E103F",
"[+	c #0006A1",
"}+	c #0108A4",
"|+	c #0F0F1A",
"1+	c #BFBFBF",
"2+	c #D7D7D7",
"3+	c #0108A9",
"4+	c #0007BC",
"5+	c #0007BB",
"6+	c #000AF9",
"7+	c #070B6C",
"8+	c #181822",
"9+	c #C9C9C9",
"0+	c #0F1019",
"a+	c #040A9D",
"b+	c #0008CB",
"c+	c #0B0D34",
"d+	c #3E3E48",
"e+	c #D0D0D0",
"f+	c #1E1F28",
"g+	c #0B0D4F",
"h+	c #0009E5",
"i+	c #0009DE",
"j+	c #070A65",
"k+	c #0C0C15",
"l+	c #919192",
"m+	c #707074",
"n+	c #0B0C15",
"o+	c #070B5E",
"p+	c #0007AA",
"q+	c #0009EA",
"r+	c #0008D7",
"s+	c #000697",
"t+	c #0B0D46",
"u+	c #6D6D72",
"v+	c #E2E2E2",
"w+	c #838385",
"x+	c #2D2E3D",
"y+	c #010103",
"z+	c #151521",
"A+	c #4C4C57",
"B+	c #9D9D9D",
"                                            . +                 ",
"                                            @ # $               ",
"                                            % & * =             ",
"                                              - ; >             ",
"                                              , ' ) !           ",
"                            ~ { ] ^ / / ( _ : < [ } | 1         ",
"                    = 2 3 4 5 6 7 8 8 8 9 0 a b c d e f =       ",
"                g h i j k l m d d d d d d d n o p d d q r       ",
"              s t u v d d d w x y z A B C D E F d d d G H I     ",
"            J K L d d m M N O P Q R / / 2 S T U V d d d W X     ",
"          Y Z ` d d  ...+.@.                #.$.d d %.&.*.=.    ",
"        -.;.` d d >.,.R                     '.).d !.~.{.].      ",
"      . ^./.d d (._.+                       :.<./.[.}.          ",
"      |.1.d d 2.3.4.                      5.6.7.8.^             ",
"      9.0.d d a.b.                        c.d.e.%               ",
"      f.` d d g.h.                        i.j.k.                ",
"    l.[.d d d m.n.                                              ",
"    o.p.d d d q.r.                                              ",
"    s.t.d d d p.u.                                              ",
"    v.w.2.d d x.y.                                ].'.          ",
"      z.A.d d B.C.                              D.E.F.G.        ",
"      H.I.d d J.K.L.                          ] M.N.O.P.        ",
"      G.Q.d d d R.S.                        T.U.V.d V W.X.      ",
"        M. .d d G Y.Z.                  #.`. +.+d d d ++@+      ",
"        #+$+n d d %+&+*+=+        ].-+;+>+,+2.d d d '+)+@.      ",
"          !+~+d d d n {+]+^+/+(+_+:+<+[+m d d d d }+|+1+        ",
"          2+z.3+d d d d d v 4+5+w m d d d d d 6+7+8+9+          ",
"            1 0+a+d d d d d d d d d d d d d b+c+d+v.            ",
"              e+f+g+h+d d d d d d d d d i+j+k+l+                ",
"                k.m+n+o+p+q+d d 6+r+s+t+)+u+L.                  ",
"                    v+w+x+k+a & y+z+A+B+5.                      ",
"                                                                "};
