/* XPM */
static char * setup_xpm[] = {
"48 48 184 2",
"  	c None",
". 	c #080B0D",
"+ 	c #090E11",
"@ 	c #131A1F",
"# 	c #5C8299",
"$ 	c #446172",
"% 	c #0C1114",
"& 	c #202D34",
"* 	c #99D8FF",
"= 	c #72A1BE",
"- 	c #5C829A",
"; 	c #5B8097",
"> 	c #6C98B4",
", 	c #7FB4D4",
"' 	c #91CDF2",
") 	c #5A7E93",
"! 	c #1E1D10",
"~ 	c #50451A",
"{ 	c #38331A",
"] 	c #1F1E12",
"^ 	c #090906",
"/ 	c #0B0C0A",
"( 	c #1E2321",
"_ 	c #313D3E",
": 	c #43575F",
"< 	c #527387",
"[ 	c #638CA5",
"} 	c #76A6C4",
"| 	c #88C0E3",
"1 	c #97D5FC",
"2 	c #53758A",
"3 	c #719FBC",
"4 	c #12130D",
"5 	c #B1932B",
"6 	c #CCAA32",
"7 	c #BE9E2E",
"8 	c #A68B29",
"9 	c #8E7723",
"0 	c #76621D",
"a 	c #5D4E1A",
"b 	c #443D1B",
"c 	c #2C2916",
"d 	c #14140C",
"e 	c #040503",
"f 	c #141714",
"g 	c #27302F",
"h 	c #3A4B4F",
"i 	c #4A6674",
"j 	c #8FCAEF",
"k 	c #455E6C",
"l 	c #0A0906",
"m 	c #37494F",
"n 	c #82B8D9",
"o 	c #10120F",
"p 	c #9A8126",
"q 	c #C8A731",
"r 	c #B2952C",
"s 	c #826C20",
"t 	c #15140D",
"u 	c #7EB2D2",
"v 	c #496472",
"w 	c #252312",
"x 	c #B7992D",
"y 	c #262313",
"z 	c #5B7F95",
"A 	c #91CCF1",
"B 	c #1C2221",
"C 	c #7A6620",
"D 	c #2D2B19",
"E 	c #486370",
"F 	c #272413",
"G 	c #BE9F2F",
"H 	c #AE912B",
"I 	c #10110D",
"J 	c #7AACCB",
"K 	c #2C393D",
"L 	c #5A4D1C",
"M 	c #38341B",
"N 	c #6D9AB6",
"O 	c #202725",
"P 	c #A08527",
"Q 	c #867022",
"R 	c #050606",
"S 	c #393317",
"T 	c #CAA831",
"U 	c #433C1C",
"V 	c #658EA8",
"W 	c #2C3737",
"X 	c #947B24",
"Y 	c #705D1B",
"Z 	c #C1A12F",
"` 	c #4E451D",
" .	c #38484D",
"..	c #846E20",
"+.	c #5B4E1B",
"@.	c #54778C",
"#.	c #425A66",
"$.	c #75611D",
"%.	c #685719",
"&.	c #5F4F17",
"*.	c #605018",
"=.	c #C2A230",
"-.	c #66551A",
";.	c #4C6A7D",
">.	c #4D6B7E",
",.	c #65541A",
"'.	c #312E19",
").	c #374D5B",
"!.	c #527388",
"~.	c #2A393F",
"{.	c #61531D",
"].	c #6E5B1B",
"^.	c #486373",
"/.	c #587C92",
"(.	c #54491C",
"_.	c #61521B",
":.	c #4D6B7D",
"<.	c #89C1E4",
"[.	c #0E0F0C",
"}.	c #6E5C1B",
"|.	c #476170",
"1.	c #648DA6",
"2.	c #2D393A",
"3.	c #4F6D7F",
"4.	c #423B1A",
"5.	c #715E1C",
"6.	c #45606E",
"7.	c #709EBA",
"8.	c #32301A",
"9.	c #BC9D2E",
"0.	c #0A0C0A",
"a.	c #98D6FD",
"b.	c #94D0F6",
"c.	c #151917",
"d.	c #73601C",
"e.	c #455E6A",
"f.	c #7CAECE",
"g.	c #232315",
"h.	c #1B1B11",
"i.	c #262413",
"j.	c #CAA932",
"k.	c #435B67",
"l.	c #0025FF",
"m.	c #87BFE1",
"n.	c #14150E",
"o.	c #48401B",
"p.	c #5D839B",
"q.	c #273234",
"r.	c #7F6B20",
"s.	c #69571A",
"t.	c #4B697A",
"u.	c #0024FF",
"v.	c #93D0F5",
"w.	c #060605",
"x.	c #78641D",
"y.	c #3D515A",
"z.	c #79ABCA",
"A.	c #13130D",
"B.	c #2A250F",
"C.	c #0026FF",
"D.	c #070806",
"E.	c #C3A330",
"F.	c #A68A29",
"G.	c #1B201E",
"H.	c #6189A2",
"I.	c #567A90",
"J.	c #0027FF",
"K.	c #564715",
"L.	c #5D4D17",
"M.	c #010101",
"N.	c #8FCAEE",
"O.	c #5E849C",
"P.	c #89C2E5",
"Q.	c #0A0F13",
"R.	c #395160",
"S.	c #2A3C46",
"T.	c #0B0F12",
"U.	c #1CFF00",
"V.	c #1DFF00",
"W.	c #1BFF00",
"X.	c #FF0002",
"Y.	c #FF0001",
"Z.	c #66AC01",
"`.	c #E51D02",
"                                                                                                ",
"                                                                                                ",
"                                                                                                ",
"                                                                                                ",
"                      . + + + + + + + + + + + + + + + + + + + + + + + + + + + + + + + + +       ",
"                      @ # # # # # # # # # # # # # # # # # # # # # # # # # # # # # # # # $ %     ",
"                      & * * * * * * * * * * * * * * * * * * * * * * * * * * * * * * * * = %     ",
"                      & * * * * * * * * * * * * - ; > , ' * * * * * * * * * * * * * * * = %     ",
"                      & * * * * * * * * * * * ) ! ~ { ] ^ / ( _ : < [ } | 1 * * * * * * = %     ",
"                      & * * * * 2 ' * * * * 3 4 5 6 6 6 6 7 8 9 0 a b c d e f g h i j * = %     ",
"                      & * * * k l m * * * n o p 6 6 6 6 6 6 6 6 6 6 6 6 6 q r p s t u * = %     ",
"                      & * * v w x y z * A B C 6 6 6 6 6 6 6 6 6 6 6 6 6 6 6 6 6 6 D } * = %     ",
"                      & * E F G 6 H I J K L 6 6 6 6 6 6 6 6 6 6 6 6 6 6 6 6 6 6 6 M N * = %     ",
"                      & * O P 6 6 6 Q R S T 6 6 6 6 6 6 6 6 6 6 6 6 6 6 6 6 6 6 6 U V * = %     ",
"                      & * W X 6 6 6 6 Y Z 6 6 6 6 6 6 6 6 6 6 6 6 6 6 6 6 6 6 6 6 ` - * = %     ",
"                      & *  ...6 6 6 6 6 6 6 6 6 6 6 6 6 6 6 6 6 6 6 6 6 6 6 6 6 6 +.@.* = %     ",
"                      & * #.$.6 6 6 6 6 6 6 6 6 6 6 6 %.&.&.&.&.&.*.=.6 6 6 6 6 6 -.;.* = %     ",
"                      & * >.,.6 6 6 6 6 6 6 6 6 6 6 6 '.).!.!.!.!.~.{.6 6 6 6 6 6 ].^.* = %     ",
"                      & * /.(.6 6 6 6 6 6 6 6 6 6 6 6 _.:.* * * * <.[.r 6 6 6 6 6 }.|.* = %     ",
"                      & * 1.U 6 6 6 6 6 6 6 6 6 6 6 6 9 2.* * * * * 3.4.6 6 6 6 6 5.6.* = %     ",
"                      & * 7.8.6 6 6 6 6 6 6 6 6 6 6 6 9.0.a.* * * * b.c.p 6 6 6 6 d.e.* = %     ",
"                      & * f.g.6 6 6 6 6 6 6 6 6 6 6 6 6 h., * * * * * 1.i.j.6 6 6 $.k.* = %     ",
"          l.          & * m.n.6 6 6 6 6 6 6 6 6 6 6 6 6 o.p.* * * * * * q.r.6 6 6 s.t.* = %     ",
"        l.l.u.        & * v.w.6 6 6 6 6 6 6 6 6 6 6 6 6 x.y.* * * * * * z.A.&.&.&.B.; * = %     ",
"        C.l.l.        & * * D.E.6 6 6 6 6 6 6 6 6 6 6 6 F.G.* * * * * * * H.!.!.!.I.v.* = %     ",
"      J.u.l.C.        & * * f K.&.&.&.&.&.&.&.&.&.&.&.&.L.M.N.* * * * * * * * * * * * * = %     ",
"          l.          & * * O.!.!.!.!.!.!.!.!.!.!.!.!.!.!.!.P.* * * * * * * * * * * * * = %     ",
"          l.          & * * * * * * * * * * * * * * * * * * * * * * * * * * * * * * * * = %     ",
"          C.          Q.R.R.R.R.R.R.R.R.R.R.R.R.R.R.R.R.R.R.R.R.R.R.R.R.R.R.R.R.R.R.R.R.S.T.    ",
"          l.                                                                                    ",
"          l.                                                                                    ",
"          l.                                                                                    ",
"          l.                                                                                    ",
"          l.                  U.U.U.V.                                                          ",
"          l.                  W.U.U.                                                            ",
"          l.              U.U.V.U.                                                              ",
"          l.            U.U.    V.                                                              ",
"          l.        W.U.                                                                        ",
"          l.    V.U.                                                                            ",
"          l.U.U.U.                        X.Y.                                                  ",
"          l.Z.`.X.X.X.X.X.X.X.X.X.X.X.X.X.X.X.X.X.                                              ",
"                                          X.X.X.                                                ",
"                                          Y.                                                    ",
"                                                                                                ",
"                                                                                                ",
"                                                                                                ",
"                                                                                                ",
"                                                                                                "};
