/* XPM */
static char * stereo3D_xpm[] = {
"48 48 771 2",
"  	c None",
". 	c #BFBBBE",
"+ 	c #E2BABE",
"@ 	c #BCBBBE",
"# 	c #B4BBBE",
"$ 	c #9DE6BB",
"% 	c #9DEABB",
"& 	c #9DE6BD",
"* 	c #9DDCBD",
"= 	c #E4C9BD",
"- 	c #F5BBBE",
"; 	c #F5BABE",
"> 	c #F1BBBE",
", 	c #DDBABE",
"' 	c #9DE8BA",
") 	c #9DEDBA",
"! 	c #9CECBC",
"~ 	c #9DEDC0",
"{ 	c #E4EBC2",
"] 	c #F5E6C3",
"^ 	c #F5D7C2",
"/ 	c #F5C3BE",
"( 	c #F5BABD",
"_ 	c #F4BBBE",
": 	c #C2BBBE",
"< 	c #9DE7B9",
"[ 	c #9CEDB8",
"} 	c #9EEEBD",
"| 	c #9DEDBF",
"1 	c #E4EEC3",
"2 	c #F5EEC6",
"3 	c #F5ECC9",
"4 	c #F5E8C8",
"5 	c #F5D7C4",
"6 	c #F5C6C0",
"7 	c #F2BABD",
"8 	c #DCBABE",
"9 	c #B7BABE",
"0 	c #9CE7B8",
"a 	c #9DEDB8",
"b 	c #9DEEBB",
"c 	c #9CEDBE",
"d 	c #E2EDC1",
"e 	c #F5EECA",
"f 	c #F5EFCF",
"g 	c #F5EDD0",
"h 	c #F5E6CB",
"i 	c #F5CEC1",
"j 	c #F5BFBF",
"k 	c #EEBABD",
"l 	c #D0BABD",
"m 	c #9DE8B8",
"n 	c #9CEDB7",
"o 	c #9CEDBA",
"p 	c #9DEDBD",
"q 	c #E4EDC1",
"r 	c #F5EDC4",
"s 	c #F5EDC8",
"t 	c #F5EECE",
"u 	c #F5EFD1",
"v 	c #F5EFD6",
"w 	c #F5EDD7",
"x 	c #F5E1CE",
"y 	c #F5C5C2",
"z 	c #F4BABE",
"A 	c #D3BBBE",
"B 	c #9DE7B8",
"C 	c #9DEDB7",
"D 	c #9CEDBC",
"E 	c #E3EEC0",
"F 	c #F5EEC9",
"G 	c #F5EECD",
"H 	c #F5EED1",
"I 	c #F5EFD5",
"J 	c #F5EFDA",
"K 	c #F5EFDD",
"L 	c #F5EBDA",
"M 	c #F5CFC6",
"N 	c #E8BABD",
"O 	c #9DE0B3",
"P 	c #9DE9A4",
"Q 	c #9DEAAE",
"R 	c #9DEBB5",
"S 	c #DCEDBD",
"T 	c #F4EDC2",
"U 	c #F5EED0",
"V 	c #F5EED5",
"W 	c #F5EFD9",
"X 	c #F5F0E0",
"Y 	c #F5F1E4",
"Z 	c #F5EFE4",
"` 	c #F5E0D6",
" .	c #F5C1C1",
"..	c #EABBBE",
"+.	c #9DBC7A",
"@.	c #9CB550",
"#.	c #9DC66A",
"$.	c #A0D381",
"%.	c #D5E09E",
"&.	c #DCE8B4",
"*.	c #E8EBC4",
"=.	c #EEEDCE",
"-.	c #F3EFD5",
";.	c #F5F0DF",
">.	c #F5F2E9",
",.	c #F5F1EA",
"'.	c #F5E8E0",
").	c #EBBABD",
"!.	c #9DAEA6",
"~.	c #9D9A44",
"{.	c #9D9638",
"].	c #9E9639",
"^.	c #B89633",
"/.	c #CEA84C",
"(.	c #D7C473",
"_.	c #D3DBA3",
":.	c #D4E9C8",
"<.	c #DFEDD5",
"[.	c #ECF0DF",
"}.	c #F3F0E4",
"|.	c #F5F3ED",
"1.	c #F5F2EE",
"2.	c #F5E8E2",
"3.	c #F5BDBF",
"4.	c #E8BBBE",
"5.	c #9D9F80",
"6.	c #9D943D",
"7.	c #9C9938",
"8.	c #B99639",
"9.	c #DA9038",
"0.	c #C89439",
"a.	c #D69338",
"b.	c #CEA858",
"c.	c #CED3A1",
"d.	c #D7EBD5",
"e.	c #DCF0E2",
"f.	c #EBF1E9",
"g.	c #F5F3EC",
"h.	c #F5F4F0",
"i.	c #F5F5F3",
"j.	c #F5E3DF",
"k.	c #F5BBBF",
"l.	c #D7BBBE",
"m.	c #9D9657",
"n.	c #9D953B",
"o.	c #A29237",
"p.	c #CA953A",
"q.	c #CE8F3A",
"r.	c #CE923B",
"s.	c #D79636",
"t.	c #D39138",
"u.	c #D3AA63",
"v.	c #CEE1C5",
"w.	c #CEF1E7",
"x.	c #D6F3EC",
"y.	c #F3F5F1",
"z.	c #F5F4F2",
"A.	c #F5D0CF",
"B.	c #C4BABE",
"C.	c #9DA797",
"D.	c #9D943A",
"E.	c #9D903B",
"F.	c #BB933B",
"G.	c #D39440",
"H.	c #CE933E",
"I.	c #DA8E3D",
"J.	c #C9923D",
"K.	c #D2923A",
"L.	c #CEA460",
"M.	c #CEDEC7",
"N.	c #C7F1EA",
"O.	c #D6F4F0",
"P.	c #F2F5F3",
"Q.	c #F5F5F5",
"R.	c #F5F1EF",
"S.	c #E2BBBE",
"T.	c #9E9D70",
"U.	c #9D9141",
"V.	c #C6943F",
"W.	c #CF9040",
"X.	c #DB9441",
"Y.	c #D79240",
"Z.	c #D3923D",
"`.	c #D38C3C",
" +	c #C6913C",
".+	c #C6A25F",
"++	c #D6E3D2",
"@+	c #D4F4EF",
"#+	c #DBF5F3",
"$+	c #F5DEDB",
"%+	c #F2BABE",
"&+	c #9EEBE9",
"*+	c #D6E2DF",
"=+	c #EFBEC1",
"-+	c #CBBABE",
";+	c #9CAEA7",
">+	c #9D9E6E",
",+	c #A99D6F",
"'+	c #CA9C73",
")+	c #C69D6E",
"!+	c #C59956",
"~+	c #CC924A",
"{+	c #C79141",
"]+	c #CE9441",
"^+	c #CF913D",
"/+	c #CDB48A",
"(+	c #CEF0E9",
"_+	c #D7F5F2",
":+	c #EBF5F5",
"<+	c #F5EBE9",
"[+	c #F5BAB8",
"}+	c #CAB899",
"|+	c #DFF3F1",
"1+	c #EDF5F5",
"2+	c #F5EEEB",
"3+	c #F5CDCB",
"4+	c #E8BBBF",
"5+	c #B5B8BA",
"6+	c #B6B5B4",
"7+	c #A9ACA4",
"8+	c #AF9E7F",
"9+	c #BB9453",
"0+	c #C78E41",
"a+	c #CE903D",
"b+	c #D2E2D3",
"c+	c #C8F4F1",
"d+	c #D5F5F3",
"e+	c #F5F1EE",
"f+	c #F5B8B5",
"g+	c #F5B487",
"h+	c #E8B746",
"i+	c #EEF1ED",
"j+	c #F0F5F3",
"k+	c #F5F5F2",
"l+	c #F5F1EC",
"m+	c #F5E3DA",
"n+	c #F1BEC0",
"o+	c #9FACA3",
"p+	c #A79558",
"q+	c #C7944C",
"r+	c #C6D0B7",
"s+	c #CEF3EE",
"t+	c #CEF4F1",
"u+	c #F3F4F2",
"v+	c #F5F2EF",
"w+	c #F5BD97",
"x+	c #F5B63E",
"y+	c #F1B741",
"z+	c #F0EDE6",
"A+	c #EFF3F0",
"B+	c #F5F3EE",
"C+	c #F5F1E9",
"D+	c #F5E8DB",
"E+	c #F3C0C0",
"F+	c #CCBBBE",
"G+	c #9EADA3",
"H+	c #A79656",
"I+	c #BFCAA6",
"J+	c #C7F4EE",
"K+	c #F2F4F0",
"L+	c #F5F0EA",
"M+	c #F5BA88",
"N+	c #F5B83E",
"O+	c #F1B83D",
"P+	c #F0EADE",
"Q+	c #F1F2EC",
"R+	c #F5EBDF",
"S+	c #F5EBDD",
"T+	c #F4F0E5",
"U+	c #F5F0E4",
"V+	c #F5E2D2",
"W+	c #EFBBBE",
"X+	c #9D9E75",
"Y+	c #B5D5B4",
"Z+	c #C7F1E7",
"`+	c #CEF2EA",
" @	c #F4F3EC",
".@	c #F5EDE5",
"+@	c #F5C292",
"@@	c #F5B73D",
"#@	c #F3BD41",
"$@	c #F1E8D4",
"%@	c #F1F0E6",
"&@	c #F5E3CB",
"*@	c #F5A667",
"=@	c #E9D0A5",
"-@	c #E9E9D3",
";@	c #F4EBD9",
">@	c #F5C7C2",
",@	c #C6BABE",
"'@	c #9DC29C",
")@	c #B5EAD1",
"!@	c #C9F1E3",
"~@	c #E9F1E6",
"{@	c #F5F1E7",
"]@	c #F5E8D9",
"^@	c #F5B678",
"/@	c #F5B941",
"(@	c #F0B33C",
"_@	c #F0E7CC",
":@	c #F0EFDF",
"<@	c #F5E1C1",
"[@	c #F5983A",
"}@	c #E1972D",
"|@	c #DABF80",
"1@	c #EBEAD1",
"2@	c #F4D8C7",
"3@	c #E6BABD",
"4@	c #9DD1BD",
"5@	c #B1D0BE",
"6@	c #D3D5BF",
"7@	c #E9DFC1",
"8@	c #E9EBCB",
"9@	c #E9EFD8",
"0@	c #F2F0DC",
"a@	c #F5DDCC",
"b@	c #F5B778",
"c@	c #F4B83D",
"d@	c #F2B538",
"e@	c #F2E5C1",
"f@	c #F0EED8",
"g@	c #F5E1C0",
"h@	c #F59542",
"i@	c #E99530",
"j@	c #D7A147",
"k@	c #DAE0B6",
"l@	c #F1E5CC",
"m@	c #F0BBBE",
"n@	c #9DD0BC",
"o@	c #9DEBB6",
"p@	c #9DEDBB",
"q@	c #BCECBD",
"r@	c #F3EDC2",
"s@	c #F5EEC7",
"t@	c #F5EFCD",
"u@	c #F5EED4",
"v@	c #F5E8D0",
"w@	c #F5C8BF",
"x@	c #F5B575",
"y@	c #F0AC37",
"z@	c #EFB23B",
"A@	c #F0E2B3",
"B@	c #EDEED1",
"C@	c #F5DFC3",
"D@	c #F59F79",
"E@	c #E4952F",
"F@	c #E39425",
"G@	c #D6D095",
"H@	c #EFE7C8",
"I@	c #F2BDBE",
"J@	c #B0BABE",
"K@	c #9ED2BC",
"L@	c #9DEDB2",
"M@	c #9FEEB4",
"N@	c #C9EFB9",
"O@	c #F4EEBC",
"P@	c #F5EEC0",
"Q@	c #F5EFCA",
"R@	c #F5EECB",
"S@	c #F5E9CA",
"T@	c #F5C9BF",
"U@	c #F5B8BA",
"V@	c #EDAD78",
"W@	c #E0AE37",
"X@	c #ECAF33",
"Y@	c #ECE1A6",
"Z@	c #E9EDC9",
"`@	c #F5E0C3",
" #	c #F5A996",
".#	c #E39D2F",
"+#	c #D6942C",
"@#	c #DFBF6E",
"##	c #EAE7C5",
"$#	c #F3C3BE",
"%#	c #B8BBBE",
"&#	c #9DEDAE",
"*#	c #9EEEAF",
"=#	c #BEEEB3",
"-#	c #F4EEB6",
";#	c #F5EEB9",
">#	c #F5EFBE",
",#	c #F5EDC1",
"'#	c #F5DDBD",
")#	c #F5C5BE",
"!#	c #F5BABA",
"~#	c #DAA477",
"{#	c #E4A733",
"]#	c #EDA431",
"^#	c #EBE3A1",
"/#	c #E9EDC3",
"(#	c #F5DFBF",
"_#	c #F5B0A3",
":#	c #E99934",
"<#	c #E29D2B",
"[#	c #E1B860",
"}#	c #E7E7BF",
"|#	c #F3C6BE",
"1#	c #9DD3BB",
"2#	c #9DEDAA",
"3#	c #9DEEA9",
"4#	c #C8EFAE",
"5#	c #F4EEB0",
"6#	c #F5EEB3",
"7#	c #F5EFB7",
"8#	c #F5EEB8",
"9#	c #F5EFBA",
"0#	c #F5EEBB",
"a#	c #F5E2BB",
"b#	c #F4A575",
"c#	c #E5A535",
"d#	c #E89F30",
"e#	c #E9E198",
"f#	c #EBEDBD",
"g#	c #F5DEBC",
"h#	c #F5ABA2",
"i#	c #E3943A",
"j#	c #D6952B",
"k#	c #DDBB5C",
"l#	c #E5E7BA",
"m#	c #9ED1BB",
"n#	c #9DECA9",
"o#	c #9EEDA9",
"p#	c #B4EDAC",
"q#	c #F4EDAB",
"r#	c #F5EEAD",
"s#	c #F5EEAF",
"t#	c #F5EEB1",
"u#	c #F5EEB2",
"v#	c #F5EDB3",
"w#	c #F5EBB5",
"x#	c #F5D3B9",
"y#	c #F2A130",
"z#	c #E69F2C",
"A#	c #E8DF8F",
"B#	c #E9ECB7",
"C#	c #F5E0BB",
"D#	c #F5A695",
"E#	c #E4922D",
"F#	c #D2982B",
"G#	c #D7B859",
"H#	c #EAE7BB",
"I#	c #F3C2BE",
"J#	c #BBBBBE",
"K#	c #9DD2BB",
"L#	c #9ED0BB",
"M#	c #DFD8BA",
"N#	c #DFE1B6",
"O#	c #E3E9A1",
"P#	c #EAEDA8",
"Q#	c #F2EEAB",
"R#	c #F5EEAC",
"S#	c #F5EDAB",
"T#	c #F5E3B3",
"U#	c #F5A577",
"V#	c #F59432",
"W#	c #DFA02D",
"X#	c #E9E088",
"Y#	c #E9ECB1",
"Z#	c #F5DEB6",
"`#	c #F59E78",
" $	c #E89C2E",
".$	c #CE9E31",
"+$	c #E5D178",
"@$	c #F1E6BA",
"#$	c #F3BFBE",
"$$	c #9DBC98",
"%$	c #ADE791",
"&$	c #D0EDA2",
"*$	c #E9EDA5",
"=$	c #F5EDA5",
"-$	c #F5E9AA",
";$	c #F5B275",
">$	c #F59735",
",$	c #E7952B",
"'$	c #E2E184",
")$	c #E5EDAB",
"!$	c #F5DD9E",
"~$	c #F59A43",
"{$	c #E3972F",
"]$	c #D7D093",
"^$	c #EBE8B5",
"/$	c #F4E1BA",
"($	c #9DAA9F",
"_$	c #A4C566",
":$	c #CDEB94",
"<$	c #D8EE9F",
"[$	c #F2EEA0",
"}$	c #F5EBA3",
"|$	c #F5AF6C",
"1$	c #F59934",
"2$	c #EA972A",
"3$	c #E8E17E",
"4$	c #E9ECA7",
"5$	c #F5E18D",
"6$	c #F5BC65",
"7$	c #E6E9C4",
"8$	c #F5F4E4",
"9$	c #F5F1D5",
"0$	c #F5D7BC",
"a$	c #E7BBBE",
"b$	c #9EA490",
"c$	c #AD9F55",
"d$	c #CFE782",
"e$	c #D4EE9D",
"f$	c #E8EE9D",
"g$	c #F5EB9E",
"h$	c #F5B96E",
"i$	c #F58F35",
"j$	c #ED9732",
"k$	c #D3E17E",
"l$	c #E4EDAB",
"m$	c #F5F1CE",
"n$	c #F5F5EB",
"o$	c #F5BFB7",
"p$	c #F5F4E0",
"q$	c #F5ECC4",
"r$	c #F5C3BD",
"s$	c #C9BBBE",
"t$	c #9E996A",
"u$	c #CE9548",
"v$	c #D1E479",
"w$	c #CEEE98",
"x$	c #E8ED9A",
"y$	c #F5B06F",
"z$	c #F59C38",
"A$	c #E99F34",
"B$	c #E1E17B",
"C$	c #E5EDA2",
"D$	c #F5F5EC",
"E$	c #F5DEA9",
"F$	c #F5F5E9",
"G$	c #F5EFC7",
"H$	c #F5DDBA",
"I$	c #EFBCBE",
"J$	c #A39C7A",
"K$	c #BA9447",
"L$	c #C69743",
"M$	c #C7E677",
"N$	c #C8EE95",
"O$	c #E9EE97",
"P$	c #F5E9A2",
"Q$	c #F5A479",
"R$	c #F59E39",
"S$	c #DEA038",
"T$	c #D6E17A",
"U$	c #E1EEA8",
"V$	c #F5F2C9",
"W$	c #F5EFB9",
"X$	c #F5EDB5",
"Y$	c #F5E3B7",
"Z$	c #F4BFBE",
"`$	c #B9BABE",
" %	c #9EAEA8",
".%	c #B5B7B8",
"+%	c #B3B8B8",
"@%	c #ACA698",
"#%	c #E09A65",
"$%	c #C29342",
"%%	c #C6913F",
"&%	c #DE9C3F",
"*%	c #CFEA83",
"=%	c #CEEE94",
"-%	c #ECED94",
";%	c #F5E5AF",
">%	c #F5B7B1",
",%	c #F5A47C",
"'%	c #D59F3B",
")%	c #C7E078",
"!%	c #DDEEA0",
"~%	c #F5EDA3",
"{%	c #F5EAAD",
"]%	c #F5DCB8",
"^%	c #F2BDBD",
"/%	c #D0BBBE",
"(%	c #9E9F85",
"_%	c #9E9344",
":%	c #AD9655",
"<%	c #CD9760",
"[%	c #C89A6B",
"}%	c #E59967",
"|%	c #C59459",
"1%	c #C59149",
"2%	c #CF9042",
"3%	c #C69441",
"4%	c #CF933C",
"5%	c #CE983D",
"6%	c #C8D457",
"7%	c #D3EE8F",
"8%	c #DBEF93",
"9%	c #F4ED97",
"0%	c #F4B8B8",
"a%	c #A2AE8F",
"b%	c #B7E07B",
"c%	c #DAECA6",
"d%	c #F5E5B3",
"e%	c #F5CBBC",
"f%	c #EBBCBE",
"g%	c #B2BABD",
"h%	c #9EA99D",
"i%	c #9F9245",
"j%	c #9F953D",
"k%	c #C59241",
"l%	c #D3943F",
"m%	c #CD903D",
"n%	c #C9903E",
"o%	c #C79040",
"p%	c #D48E3B",
"q%	c #C7903F",
"r%	c #CF8F3A",
"s%	c #C8AE3F",
"t%	c #CED252",
"u%	c #D3EB84",
"v%	c #D8EE91",
"w%	c #F3EE92",
"x%	c #F5EBA5",
"y%	c #F5C7BC",
"z%	c #9FD3AE",
"A%	c #CBD3B8",
"B%	c #EEC2BD",
"C%	c #D9BBBE",
"D%	c #9EB0AB",
"E%	c #9F9456",
"F%	c #9E903A",
"G%	c #A79341",
"H%	c #C3903B",
"I%	c #C68F3D",
"J%	c #D0913B",
"K%	c #C9903C",
"L%	c #CF9038",
"M%	c #CE8E3B",
"N%	c #D3B644",
"O%	c #C7DC5C",
"P%	c #D3ED84",
"Q%	c #C7F29C",
"R%	c #F3EF92",
"S%	c #F5EF92",
"T%	c #F5EE95",
"U%	c #F5E0B4",
"V%	c #C0BABD",
"W%	c #9E996B",
"X%	c #9F943C",
"Y%	c #9E933C",
"Z%	c #B69238",
"`%	c #E4903A",
" &	c #C68F3B",
".&	c #C8BA4A",
"+&	c #C7DB68",
"@&	c #CDDE6A",
"#&	c #C8EF99",
"$&	c #E3F2A6",
"%&	c #F4F5C5",
"&&	c #F4F3AE",
"*&	c #F5F094",
"=&	c #F5EE90",
"-&	c #F5E9A6",
";&	c #F5C5BC",
">&	c #ECBABE",
",&	c #9DDBBF",
"'&	c #9DEFB5",
")&	c #9FF4C0",
"!&	c #9FF1B2",
"~&	c #D3ED9C",
"{&	c #F5EE9F",
"]&	c #F5F2B1",
"^&	c #F5F4BF",
"/&	c #F5F5C5",
"(&	c #F5F5CD",
"_&	c #F5F5DC",
":&	c #F5F5E2",
"<&	c #F5F5DA",
"[&	c #F5F4B5",
"}&	c #F5F093",
"|&	c #F5EF90",
"1&	c #F5EC9F",
"2&	c #F5D6B9",
"3&	c #9DE3C3",
"4&	c #9EF5E3",
"5&	c #9DF5E7",
"6&	c #9EF5E9",
"7&	c #A3F5EA",
"8&	c #F5F5EA",
"9&	c #F5F5DF",
"0&	c #F5F5C4",
"a&	c #F5F19F",
"b&	c #F5EF8F",
"c&	c #F5EE8F",
"d&	c #F5EE98",
"e&	c #F5DDB6",
"f&	c #DBBABD",
"g&	c #9DF5D7",
"h&	c #9DF5ED",
"i&	c #9EF5F0",
"j&	c #9FF5EE",
"k&	c #C1F5EE",
"l&	c #F5F5E5",
"m&	c #F5F5DD",
"n&	c #F5F5C3",
"o&	c #F5F3AA",
"p&	c #F5EF8E",
"q&	c #F5EE9A",
"r&	c #F5E2B4",
"s&	c #F5BDBE",
"t&	c #E9BABD",
"u&	c #9EEBAE",
"v&	c #9DF3AE",
"w&	c #9EF2A9",
"x&	c #9FF2AB",
"y&	c #C7F2A3",
"z&	c #F5F2A4",
"A&	c #F5F096",
"B&	c #F5F097",
"C&	c #F5EF8C",
"D&	c #F5F08F",
"E&	c #F5EF91",
"F&	c #F5ED9C",
"G&	c #F5DEB5",
"H&	c #F5BEBE",
"I&	c #ECBBBE",
"J&	c #9DE9A9",
"K&	c #9DEF8C",
"L&	c #9EEF8C",
"M&	c #9FEF8C",
"N&	c #C5EF8D",
"O&	c #F5EF8D",
"P&	c #F5F08D",
"Q&	c #F5EBA0",
"R&	c #F5D7B8",
"S&	c #F5BCBD",
"T&	c #9EE9AA",
"U&	c #9DEF8D",
"V&	c #9FF08E",
"W&	c #9EEF8D",
"X&	c #CBEF8D",
"Y&	c #F5E8AB",
"Z&	c #F5CEBB",
"`&	c #F5BCBE",
" *	c #E9BBBE",
".*	c #9EF08E",
"+*	c #CDEF8E",
"@*	c #F5F08E",
"#*	c #F5F090",
"$*	c #F5EF93",
"%*	c #F5ECA1",
"&*	c #F5C1BD",
"**	c #D7BABE",
"=*	c #9CE9A9",
"-*	c #9CEF8E",
";*	c #9DEF8E",
">*	c #F5EF94",
",*	c #F5EBA1",
"'*	c #9DE9AA",
")*	c #9CEF8D",
"!*	c #9BEF8E",
"~*	c #F5E9A5",
"{*	c #F5E0B6",
"]*	c #F5C3BC",
"^*	c #BEBBBE",
"/*	c #9CEF8F",
"(*	c #9CEF91",
"_*	c #9AEE97",
":*	c #C2EBA3",
"<*	c #F5E3B2",
"[*	c #EBBBBE",
"}*	c #C2BABE",
"|*	c #9CE5B1",
"1*	c #9DE3B4",
"2*	c #9ACEBA",
"3*	c #BFC0BD",
"4*	c #F4BFBD",
"5*	c #EEBABE",
"6*	c #DEBABE",
"                      . + @ #                                                                   ",
"              $ % & * = - ; > ,                                                                 ",
"              ' ) ! ~ { ] ^ / ( _ + :                                                           ",
"              < [ } | 1 2 3 4 5 6 - 7 8 9                                                       ",
"              0 a b c d 2 e f g h i j ; k l                                                     ",
"              m n o p q r s t u v w x y - z A                                                   ",
"              B C a D E r F G H I J K L M - ; N                                                 ",
"              O P Q R S T 2 G U V W X Y Z `  .; ..                                              ",
"                +.@.#.$.%.&.*.=.-.W ;.Y >.,.'.- - ).                                            ",
"                !.~.{.].^./.(._.:.<.[.}.>.|.1.2.3.- 4.                                          ",
"                  5.6.7.8.9.0.a.b.c.d.e.f.g.h.i.j.k.- l.                                        ",
"                    m.n.o.p.q.r.s.t.u.v.w.x.y.i.z.A.- ( B.                                      ",
"                    C.D.E.F.G.H.I.J.K.L.M.N.O.P.Q.R.; ; S.                                      ",
"                      T.U.V.W.X.Y.Z.`. +.+++@+#+Q.Q.$+; %+  &+*+=+-+                            ",
"                      ;+>+,+'+)+!+~+{+]+^+/+(+_+:+Q.<+- [+}+|+1+2+3+4+                          ",
"                            5+  6+7+8+9+0+a+b+c+d+Q.e+f+g+h+i+j+k+l+m+n+                        ",
"                                      o+p+q+r+s+t+u+v+w+x+y+z+A+B+g.C+D+E+F+                    ",
"                                        G+H+I+N.J+K+L+M+N+O+P+Q+R+S+T+U+V+W+                    ",
"                                          X+Y+Z+`+ @.@+@@@#@$@%@&@*@=@-@;@>@,@                  ",
"                                          '@)@!@~@{@]@^@/@(@_@:@<@[@}@|@1@2@3@                  ",
"                                4@  5@6@7@8@9@0@;.X a@b@c@d@e@f@g@h@i@j@k@l@m@                  ",
"                              n@o@p@q@r@s@t@u u@v v@w@x@y@z@A@B@C@D@E@F@G@H@I@J@                ",
"                              K@L@M@N@O@P@2 Q@R@S@T@U@V@W@X@Y@Z@`@ #.#+#@###$#%#                ",
"                              K@&#*#=#-#;#>#P@,#'#)#!#~#{#]#^#/#(#_#:#<#[#}#|#@                 ",
"                              1#2#3#4#5#6#7#8#9#0#a#U@b#c#d#e#f#g#h#i#j#k#l#|#%#                ",
"                              m#n#o#p#q#r#s#t#u#v#w#x#D@y#z#A#B#C#D#E#F#G#H#I#J#                ",
"                                K#n@L#M#N#O#P#Q#R#S#T#U#V#W#X#Y#Z#`# $.$+$@$#$                  ",
"                                          $$%$&$*$=$-$;$>$,$'$)$!$~${$]$^$/$m@                  ",
"                                          ($_$:$<$[$}$|$1$2$3$4$5$6$7$8$9$0$a$                  ",
"                                          b$c$d$e$f$g$h$i$j$k$l$m$n$o$p$q$r$s$                  ",
"                                          t$u$v$w$x$g$y$z$A$B$C$D$E$F$G$H$I$                    ",
"                                        J$K$L$M$N$O$P$Q$R$S$T$U$V$W$X$Y$Z$`$                    ",
"                       %  .%+%      @%#%$%%%&%*%=%-%;%>%,%'%)%!%~%{%]%^%/%                      ",
"                    (%_%:%<%[%}%|%1%2%3%4%5%6%7%8%9%]%; 0%a%b%c%d%e%f%g%                        ",
"                  h%i%j%k%l%m%n%o%p%q%r%s%t%u%v%w%x%y%( 4.  z%A%B%C%                            ",
"                D%E%F%G%H%I%J%K%L%M%N%O%P%Q%R%S%T%U%; ; V%                                      ",
"                W%X%Y%Z%`% &.&+&@&#&$&%&&&*&=&=&-&;&( >&                                        ",
"            ,&'&)&!&~&{&]&^&/&(&_&:&<&[&}&|&=&1&2&( - :                                         ",
"          3&4&5&6&7&n$8&D$n$n$F$9&0&a&b&c&b&d&e&; ; f&                                          ",
"          g&h&i&j&k&D$n$l&m&n&o&*&S%p&b&|&q&r&s&- t&                                            ",
"          u&v&w&x&y&z&A&B&C&D&p&p&b&p&E&F&G&H&- I&                                              ",
"          J&K&L&M&N&O&P&O&O&p&p&p&p&S%Q&R&S&( >&                                                ",
"          T&U&V&W&X&O&O&p&p&D&O&b&T%Y&Z&`&;  *                                                  ",
"          J&U&.*W&+*@*p&p&O&#*$*%*e&&*; _ **                                                    ",
"          =*-*;*.*+*O&@*p&>*,*r&y%- ( >&@                                                       ",
"          '*;*)*!*X&E&d&~*{*]*; - m@^*                                                          ",
"          =*/*(*_*:*<*x#/ ; z [*}*                                                              ",
"          |*=*1*2*3*4*z 5*6*                                                                    "};
