/* XPM */
static char * stop_xpm[] = {
"32 32 126 2",
"  	c None",
". 	c #E2E2E2",
"+ 	c #E0E0E0",
"@ 	c #E9E9E9",
"# 	c #AAAAAA",
"$ 	c #080404",
"% 	c #110707",
"& 	c #110606",
"* 	c #0B0404",
"= 	c #5D5353",
"- 	c #838383",
"; 	c #730505",
"> 	c #FF0000",
", 	c #A40000",
"' 	c #564949",
") 	c #737070",
"! 	c #840000",
"~ 	c #A00000",
"{ 	c #5A4E4E",
"] 	c #635A5A",
"^ 	c #950000",
"/ 	c #9B0000",
"( 	c #5F5454",
"_ 	c #534545",
": 	c #A70000",
"< 	c #970000",
"[ 	c #625959",
"} 	c #423232",
"| 	c #B90000",
"1 	c #930000",
"2 	c #665E5E",
"3 	c #322222",
"4 	c #CA0000",
"5 	c #8F0000",
"6 	c #6A6363",
"7 	c #211414",
"8 	c #DC0000",
"9 	c #8B0000",
"0 	c #6E6868",
"a 	c #0F0909",
"b 	c #EE0000",
"c 	c #870000",
"d 	c #716E6E",
"e 	c #040202",
"f 	c #FD0000",
"g 	c #820000",
"h 	c #757373",
"i 	c #DEDEDE",
"j 	c #120707",
"k 	c #7F0000",
"l 	c #787878",
"m 	c #CECECE",
"n 	c #220C0C",
"o 	c #7B0202",
"p 	c #7C7C7C",
"q 	c #BDBDBD",
"r 	c #340F0F",
"s 	c #770404",
"t 	c #808080",
"u 	c #ACACAC",
"v 	c #460F0F",
"w 	c #848484",
"x 	c #9C9C9C",
"y 	c #570D0D",
"z 	c #6E0707",
"A 	c #888888",
"B 	c #8B8B8B",
"C 	c #6A0808",
"D 	c #6A0909",
"E 	c #7A7A7A",
"F 	c #650A0A",
"G 	c #909090",
"H 	c #6B6565",
"I 	c #8C0000",
"J 	c #610B0B",
"K 	c #949494",
"L 	c #5B4F4F",
"M 	c #9E0000",
"N 	c #5D0C0C",
"O 	c #989898",
"P 	c #4A3B3B",
"Q 	c #B00000",
"R 	c #590D0D",
"S 	c #9B9B9B",
"T 	c #3A2A2A",
"U 	c #810000",
"V 	c #BB0000",
"W 	c #CC0000",
"X 	c #DB0000",
"Y 	c #EA0000",
"Z 	c #F90000",
"` 	c #540D0D",
" .	c #9F9F9F",
"..	c #928C8C",
"+.	c #4D4141",
"@.	c #403232",
"#.	c #312323",
"$.	c #221616",
"%.	c #130C0C",
"&.	c #050303",
"*.	c #090404",
"=.	c #170A0A",
"-.	c #260E0E",
";.	c #351010",
">.	c #441111",
",.	c #541010",
"'.	c #630D0D",
").	c #730909",
"!.	c #820303",
"~.	c #910000",
"{.	c #AF0000",
"].	c #3B0A0A",
"^.	c #A4A4A4",
"/.	c #E7E7E7",
"(.	c #D8D8D8",
"_.	c #CACACA",
":.	c #BCBCBC",
"<.	c #AEAEAE",
"[.	c #A0A0A0",
"}.	c #919191",
"|.	c #757575",
"1.	c #676363",
"2.	c #595050",
"3.	c #4B3F3F",
"4.	c #413636",
"5.	c #C8C8C8",
"                                                                ",
"                                                                ",
"                                                                ",
"                                                                ",
"                . + + + + + + + + + + + + + + + + + @           ",
"              # $ % % % % % % % % % & & & & & & & * =           ",
"              - ; > > > > > > > > > > > > > > > > , '           ",
"              ) ! > > > > > > > > > > > > > > > > ~ {           ",
"              ] ^ > > > > > > > > > > > > > > > > / (           ",
"              _ : > > > > > > > > > > > > > > > > < [           ",
"              } | > > > > > > > > > > > > > > > > 1 2           ",
"              3 4 > > > > > > > > > > > > > > > > 5 6           ",
"              7 8 > > > > > > > > > > > > > > > > 9 0           ",
"              a b > > > > > > > > > > > > > > > > c d           ",
"              e f > > > > > > > > > > > > > > > > g h           ",
"            i j > > > > > > > > > > > > > > > > > k l           ",
"            m n > > > > > > > > > > > > > > > > > o p           ",
"            q r > > > > > > > > > > > > > > > > > s t           ",
"            u v > > > > > > > > > > > > > > > > > ; w           ",
"            x y > > > > > > > > > > > > > > > > > z A           ",
"            B C > > > > > > > > > > > > > > > > > D B           ",
"            E o > > > > > > > > > > > > > > > > > F G           ",
"            H I > > > > > > > > > > > > > > > > > J K           ",
"            L M > > > > > > > > > > > > > > > > > N O           ",
"            P Q > > > > > > > > > > > > > > > > > R S           ",
"            T U V W X Y Z > > > > > > > > > > > > `  .          ",
"            ..+.@.#.$.%.&.*.=.-.;.>.,.'.).!.~.~ {.].^.          ",
"                          /.(._.:.<.[.}.- |.1.2.3.4.5.          ",
"                                                                ",
"                                                                ",
"                                                                ",
"                                                                "};
