/* XPM */
static char * tool_drilling_xpm[] = {
"48 48 12 1",
" 	c None",
".	c #000000",
"+	c #3B3B3B",
"@	c #00FF00",
"#	c #969696",
"$	c #38FB38",
"%	c #B0F4B0",
"&	c #B8F3B8",
"*	c #40FB40",
"=	c #3BFB3B",
"-	c #2D3C2D",
";	c #003F00",
"                       ..                       ",
"                       ..                       ",
"                       ..                       ",
"                       ..                       ",
"                       ..                       ",
"                       ..                       ",
"                                                ",
"                                                ",
"                                                ",
"                       ++                       ",
"@@@@@@@@@@@@@@@@@@     ++     @@@@@@@@@@@@@@@@@@",
"@@@@@@@@@@@@@@@@@@            @@@@@@@@@@@@@@@@@@",
"@@@@@@@@@@@@@@@@@@            @@@@@@@@@@@@@@@@@@",
"@@@@@@@@@@@@@@@@@@     ##     @@@@@@@@@@@@@@@@@@",
"@@@@@@@@@@@@@@@@@@     ++     @@@@@@@@@@@@@@@@@@",
"@@@@@@@@@@@@@@@@@@     ++     @@@@@@@@@@@@@@@@@@",
"@@@@@@@@@@@@@@@@@@     ++     @@@@@@@@@@@@@@@@@@",
"@@@@@@@@@@@@@@@@@@     ++     @@@@@@@@@@@@@@@@@@",
"@@@@@@@@@@@@@@@@@@     ++     @@@@@@@@@@@@@@@@@@",
"@@@@@@@@@@@@@@@@@@            @@@@@@@@@@@@@@@@@@",
"@@@@@@@@@@@@@@@@@@            @@@@@@@@@@@@@@@@@@",
"@@@@@@@@@@@@@@@@@@            @@@@@@@@@@@@@@@@@@",
"@@@@@@@@@@@@@@@@@@            @@@@@@@@@@@@@@@@@@",
"@@@@@@@@@@@@@@@@@@     ++     @@@@@@@@@@@@@@@@@@",
"@@@@@@@@@@@@@@@@@@            @@@@@@@@@@@@@@@@@@",
"@@@@@@@@@@@@@@@@@@            @@@@@@@@@@@@@@@@@@",
"@@@@@@@@@@@@@@@@@@            @@@@@@@@@@@@@@@@@@",
"@@@@@@@@@@@@@@@@@@     ++     @@@@@@@@@@@@@@@@@@",
"@@@@@@@@@@@@@@@@@@     ++     @@@@@@@@@@@@@@@@@@",
"@@@@@@@@@@@@@@@@@@     ++     @@@@@@@@@@@@@@@@@@",
"@@@@@@@@@@@@@@@@@@     ++     @@@@@@@@@@@@@@@@@@",
"@@@@@@@@@@@@@@@@@@     ++     @@@@@@@@@@@@@@@@@@",
"@@@@@@@@@@@@@@@@@@     ++     @@@@@@@@@@@@@@@@@@",
"@@@@@@@@@@@@@@@@@@            @@@@@@@@@@@@@@@@@@",
"@@@@@@@@@@@@@@@@@@            @@@@@@@@@@@@@@@@@@",
"@@@@@@@@@@@@@@@@@@            @@@@@@@@@@@@@@@@@@",
"@@@@@@@@@@@@@@@@@@     ++     @@@@@@@@@@@@@@@@@@",
"@@@@@@@@@@@@@@@@@@     ##     @@@@@@@@@@@@@@@@@@",
"@@@@@@@@@@@@@@@@@@            @@@@@@@@@@@@@@@@@@",
"@@@@@@@@@@@@@@@@@@$%        &*@@@@@@@@@@@@@@@@@@",
"@@@@@@@@@@@@@@@@@@@@$% ## &*@@@@@@@@@@@@@@@@@@@@",
"@@@@@@@@@@@@@@@@@@@@@@=--=@@@@@@@@@@@@@@@@@@@@@@",
"@@@@@@@@@@@@@@@@@@@@@@@;;@@@@@@@@@@@@@@@@@@@@@@@",
"@@@@@@@@@@@@@@@@@@@@@@@;;@@@@@@@@@@@@@@@@@@@@@@@",
"@@@@@@@@@@@@@@@@@@@@@@@;;@@@@@@@@@@@@@@@@@@@@@@@",
"@@@@@@@@@@@@@@@@@@@@@@@;;@@@@@@@@@@@@@@@@@@@@@@@",
"@@@@@@@@@@@@@@@@@@@@@@@;;@@@@@@@@@@@@@@@@@@@@@@@",
"@@@@@@@@@@@@@@@@@@@@@@@@@@@@@@@@@@@@@@@@@@@@@@@@"};
