/* XPM */
static char * tool_3D_xpm[] = {
"48 48 194 2",
"  	c None",
". 	c #60F554",
"+ 	c #60F553",
"@ 	c #33832C",
"# 	c #4ABD40",
"$ 	c #2D7227",
"% 	c #2C6F26",
"& 	c #081507",
"* 	c #3FA137",
"= 	c #60F453",
"- 	c #50CC45",
"; 	c #0C1E0A",
"> 	c #307A29",
", 	c #5FF554",
"' 	c #000000",
") 	c #56DC4B",
"! 	c #122E10",
"~ 	c #296A24",
"{ 	c #5FF352",
"] 	c #000B0C",
"^ 	c #005D64",
"/ 	c #006B72",
"( 	c #006D75",
"_ 	c #002124",
": 	c #00090A",
"< 	c #5AE64E",
"[ 	c #183D15",
"} 	c #1E4E1A",
"| 	c #5DEC50",
"1 	c #003D42",
"2 	c #00E9FA",
"3 	c #00B5C2",
"4 	c #00D7E6",
"5 	c #00C8D7",
"6 	c #001B1D",
"7 	c #000A0A",
"8 	c #5EEF51",
"9 	c #22561D",
"0 	c #153713",
"a 	c #59E34D",
"b 	c #000909",
"c 	c #00C2D0",
"d 	c #006F78",
"e 	c #00BCCA",
"f 	c #00D9E8",
"g 	c #003236",
"h 	c #000D0E",
"i 	c #60F452",
"j 	c #10280E",
"k 	c #55D849",
"l 	c #5FF553",
"m 	c #000B0B",
"n 	c #00585E",
"o 	c #008C96",
"p 	c #00BFCD",
"q 	c #00E4F4",
"r 	c #005257",
"s 	c #368A2F",
"t 	c #0A1A09",
"u 	c #4EC743",
"v 	c #00D2E1",
"w 	c #00A0AC",
"x 	c #00CFDF",
"y 	c #00838C",
"z 	c #000A0B",
"A 	c #61F654",
"B 	c #41A638",
"C 	c #081407",
"D 	c #46B23C",
"E 	c #000D0D",
"F 	c #00727A",
"G 	c #00646B",
"H 	c #00AAB6",
"I 	c #009DA8",
"J 	c #48B83E",
"K 	c #3E9F36",
"L 	c #000F10",
"M 	c #00DDED",
"N 	c #00D0E0",
"O 	c #00DEEE",
"P 	c #00B7C4",
"Q 	c #001011",
"R 	c #61F554",
"S 	c #000E0E",
"T 	c #009AA5",
"U 	c #00CCDB",
"V 	c #002022",
"W 	c #000D0F",
"X 	c #000303",
"Y 	c #004145",
"Z 	c #004247",
"` 	c #003A3E",
" .	c #007C86",
"..	c #00E7F8",
"+.	c #00DCEC",
"@.	c #003B3F",
"#.	c #00363A",
"$.	c #006B73",
"%.	c #00E5F6",
"&.	c #005D63",
"*.	c #000B0D",
"=.	c #00747D",
"-.	c #001A1C",
";.	c #002D30",
">.	c #008B94",
",.	c #003134",
"'.	c #001C1E",
").	c #00D7E7",
"!.	c #00A8B4",
"~.	c #60F653",
"{.	c #005056",
"].	c #000E0F",
"^.	c #00B7C5",
"/.	c #00C0CE",
"(.	c #001516",
"_.	c #00080A",
":.	c #317D2A",
"<.	c #35872E",
"[.	c #3A9332",
"}.	c #47B63E",
"|.	c #61F553",
"1.	c #00818A",
"2.	c #0096A2",
"3.	c #00282B",
"4.	c #000C0C",
"5.	c #2E7427",
"6.	c #2B6E25",
"7.	c #266221",
"8.	c #3B9733",
"9.	c #61F453",
"0.	c #007079",
"a.	c #00E2F2",
"b.	c #004C51",
"c.	c #000C0D",
"d.	c #004348",
"e.	c #00E8F9",
"f.	c #003E43",
"g.	c #007C85",
"h.	c #00B3C0",
"i.	c #001F21",
"j.	c #002B2E",
"k.	c #00E1F2",
"l.	c #008F99",
"m.	c #000809",
"n.	c #008E98",
"o.	c #001719",
"p.	c #00D0DF",
"q.	c #00383C",
"r.	c #00545A",
"s.	c #006870",
"t.	c #006067",
"u.	c #00E6F7",
"v.	c #005E64",
"w.	c #00B2C0",
"x.	c #00555B",
"y.	c #00454A",
"z.	c #00E0F0",
"A.	c #008A93",
"B.	c #008791",
"C.	c #00D6E6",
"D.	c #00464B",
"E.	c #000C0E",
"F.	c #002427",
"G.	c #00CEDE",
"H.	c #001213",
"I.	c #00BBC9",
"J.	c #001416",
"K.	c #00CEDD",
"L.	c #00A2AE",
"M.	c #002729",
"N.	c #001E20",
"O.	c #00DBEA",
"P.	c #00272A",
"Q.	c #006E76",
"R.	c #007B84",
"S.	c #004A50",
"T.	c #00C4D2",
"U.	c #00A5B1",
"V.	c #00E4F5",
"W.	c #007078",
"X.	c #00A4B0",
"Y.	c #00191B",
"Z.	c #008A94",
"`.	c #00737C",
" +	c #00393F",
".+	c #004246",
"++	c #002B2F",
"@+	c #001D1E",
"#+	c #00B1BE",
"$+	c #0096A0",
"%+	c #004A4F",
"&+	c #00D6E5",
"*+	c #00494E",
"=+	c #00777F",
"                                                                                                ",
"                                                                                                ",
"                                                                                                ",
"                                                                                                ",
"                                                                                                ",
"                                                                                                ",
"            . + + + + + + + + + + + +                                                           ",
"          + + @ @ @ @ @ @ @ @ @ @ @ # +                                                         ",
"          + + $ $ $ $ $ $ $ $ $ $ % & * + =                                                     ",
"            . + + + + + + + + + + + - ; > + ,                                                   ",
"                            '       + ) ! ~ { +                                                 ",
"        ] ^ / ( ( ( ( ( ( ( _ :       + < [ } | +                                               ",
"        1 2 2 2 2 2 2 2 2 3 4 5 6 7     + 8 9 0 a +                                             ",
"      b c 2 2 2 2 2 2 2 2 d e 2 f g h     i = $ j k l                                           ",
"    m n 2 2 2 2 2 2 2 2 o p 2 2 2 q r ]     i + s t u +                                         ",
"    : v 2 2 2 2 2 2 2 2 w x 2 2 2 2 2 y z     A + B C D + .                                     ",
"  E F 2 2 2 2 2 2 2 2 G H 2 2 2 2 2 2 2 I 7       + J & K + .                                   ",
"  L M 2 2 2 2 2 2 2 f N O 2 2 2 2 2 2 2 2 P Q       + - ; > + R                                 ",
"S o 2 2 2 2 2 2 2 2 G T 2 2 2 2 2 2 2 2 2 2 U V W     + ) ! ~ { +                               ",
"X Y Z Z Z Z Z Z Z `  ...2 2 2 2 2 2 2 2 2 2 2 +.@.h     + < [ } | +                             ",
"#.( ( ( ( ( ( ( ( $.h n 2 2 2 2 2 2 2 2 2 2 2 2 %.&.*.    + 8 9 0 a +                           ",
"=.2 2 2 2 2 2 2 2 2 5 -.;.%.2 2 2 2 2 2 2 2 2 2 2 2 >.:     i = $ j k l                         ",
"=.2 2 2 2 2 2 2 2 2 2 f ,.'.).2 2 2 2 2 2 2 2 2 2 2 2 !.]     , + s t u + + + + + + + + + + ~.  ",
"=.2 2 2 2 2 2 2 2 2 2 2 q {.].^.2 2 2 2 2 2 2 2 2 2 2 2 /.(._.  = + * & :.@ @ @ @ <.[.[.[.}.+ |.",
"=.2 2 2 2 2 2 2 2 2 2 2 2 2 1.z 2.2 2 2 2 2 2 2 2 2 2 2 2 v 3.4.    + # 5.$ $ $ $ 6.7.7.7.8.+ 9.",
"=.2 2 2 2 2 2 2 2 2 2 2 2 2 2 I z 0.2 2 2 2 2 2 2 2 2 2 2 2 a.b.c.    . + + + + + + + + + + +   ",
"=.2 2 2 2 2 2 2 2 2 2 2 2 2 2 2 P L d.2 2 2 2 2 2 2 2 2 2 2 2 e.F m                             ",
"f.g.g.g.g.g.g.g.g.g.h.2 2 2 2 2 2 U i.j.k.2 2 2 2 2 2 2 2 2 2 2 2 l.m.                        ' ",
"' ' ' ' ' ' ' ' ' ' _.n.2 2 2 2 2 2 +.` o.p.2 2 2 2 2 2 2 2 2 2 2 2 q.r.( ( ( ( ( ( ( ( ( ( s.] ",
"                      ] t...2 2 2 2 2 u.v.].w.2 2 2 2 2 2 2 2 2 2 3 4 2 2 2 2 2 2 2 2 2 2 2 x.' ",
"                        h y.z.2 2 2 2 2 2 A.: B.2 2 2 2 2 2 2 2 2 d e 2 2 2 2 2 2 2 2 2 2 C.z D.",
"                          E.F.G.2 2 2 2 2 2 !.c.t.2 2 2 2 2 2 2 o p 2 2 2 2 2 2 2 2 2 2 2 @.{.=.",
"                              H.I.2 2 2 2 2 2 /.J.` ..2 2 2 2 2 w x 2 2 2 2 2 2 2 2 2 2 p : K.=.",
"                                7 L.2 2 2 2 2 2 v M.N.O.2 2 2 G H 2 2 2 2 2 2 2 2 2 2 2 P.Q.2 =.",
"                                  z R.2 2 2 2 2 2 a.S.H.T.2 f N O 2 2 2 2 2 2 2 2 2 2 U.].+.2 =.",
"                                    c.n V.2 2 2 2 2 e.W.c.X.G T 2 2 2 2 2 2 2 2 2 2 2 Y.Z.2 2 `.",
"                                      c. ++.2 2 2 2 2 2 l.7 #..+Z Z Z Z Z Z Z Z Z Z ++'.%.2 %.@+",
"                                        m i.U 2 2 2 2 2 2 h.( ( ( ( ( ( ( ( ( ( ( ( 6 `.2 2 Z.].",
"                                            L #+2 2 2 2 2 2 2 2 2 2 2 2 2 2 2 2 2 2 ` =.2 O L   ",
"                                              b $+2 2 2 2 2 2 2 2 2 2 2 2 2 2 2 2 2 ` =.2 Q.S   ",
"                                                m F e.2 2 2 2 2 2 2 2 2 2 2 2 2 2 2 ` =.N b     ",
"                                                  c.%+a.2 2 2 2 2 2 2 2 2 2 2 2 2 2 ` =.{.b     ",
"                                                    E ;.&+2 2 2 2 2 2 2 2 2 2 2 2 2 ` *+:       ",
"                                                      z o.T.2 2 2 2 2 2 2 2 2 2 2 2 ` '         ",
"                                                          E.=+g.g.g.g.g.g.g.g.g.g.g.i.c.        ",
"                                                            ' ' ' ' ' ' ' ' ' ' ' ' '           ",
"                                                                                                ",
"                                                                                                "};
