/* XPM */
static char * tool_2D_xpm[] = {
"48 48 109 2",
"  	c None",
". 	c #30DC21",
"+ 	c #30DB21",
"@ 	c #30DC22",
"# 	c #2CC71E",
"$ 	c #23A118",
"% 	c #25A919",
"& 	c #2DCF1F",
"* 	c #31DB21",
"= 	c #31DB20",
"- 	c #219617",
"; 	c #0D3A09",
"> 	c #0B3007",
", 	c #020B02",
"' 	c #0F440A",
") 	c #28B91C",
"! 	c #2ED220",
"~ 	c #1B7D13",
"{ 	c #041303",
"] 	c #24A319",
"^ 	c #30DB22",
"/ 	c #30DA21",
"( 	c #25A719",
"_ 	c #041403",
": 	c #2DCC1F",
"< 	c #12520C",
"[ 	c #1A7812",
"} 	c #219817",
"| 	c #0E410A",
"1 	c #28B41B",
"2 	c #082706",
"3 	c #30DA22",
"4 	c #27B01B",
"5 	c #092B06",
"6 	c #209216",
"7 	c #0F460A",
"8 	c #31DC21",
"9 	c #2FDC21",
"0 	c #0F450A",
"a 	c #1D8614",
"b 	c #1F8F15",
"c 	c #061C04",
"d 	c #2ED320",
"e 	c #29BC1C",
"f 	c #155E0E",
"g 	c #051804",
"h 	c #28B61B",
"i 	c #2ABE1D",
"j 	c #16660F",
"k 	c #0B3308",
"l 	c #061D04",
"m 	c #041203",
"n 	c #051503",
"o 	c #16640F",
"p 	c #2CCB1F",
"q 	c #2FDB21",
"r 	c #1B7A12",
"s 	c #24A519",
"t 	c #1E8814",
"u 	c #082205",
"v 	c #2BC21D",
"w 	c #2FD620",
"x 	c #28B51B",
"y 	c #229B17",
"z 	c #0C3808",
"A 	c #30DB20",
"B 	c #186F11",
"C 	c #186C10",
"D 	c #13550D",
"E 	c #26AF1A",
"F 	c #072005",
"G 	c #30D921",
"H 	c #0A2E07",
"I 	c #1E8A15",
"J 	c #31DB22",
"K 	c #2FDB22",
"L 	c #1E8915",
"M 	c #30DC20",
"N 	c #072105",
"O 	c #1A7512",
"P 	c #1C8214",
"Q 	c #25AA1A",
"R 	c #26AD1A",
"S 	c #13580D",
"T 	c #092806",
"U 	c #071E05",
"V 	c #229A17",
"W 	c #29BD1C",
"X 	c #041103",
"Y 	c #2AC11D",
"Z 	c #16630F",
"` 	c #176A10",
" .	c #239E18",
"..	c #0D3D09",
"+.	c #28B81C",
"@.	c #082305",
"#.	c #25AB1A",
"$.	c #0A2F07",
"%.	c #114C0C",
"&.	c #0B3208",
"*.	c #176910",
"=.	c #2FD821",
"-.	c #2BC51E",
";.	c #219516",
">.	c #0B3107",
",.	c #2CC81E",
"'.	c #1D8514",
").	c #030F02",
"!.	c #2FD820",
"                                                                                                ",
"                                                                                                ",
"                                                                                                ",
"                                                                                                ",
"      . + + + + + + + + + + + + + + + + + + + + + + + + + + + + + + + + + + + +                 ",
"    @ + # $ $ $ $ $ $ $ $ $ $ $ $ $ $ $ $ $ $ $ $ $ $ $ $ $ $ $ $ $ $ $ $ % & + + *             ",
"    = + - ; ; ; ; ; ; ; ; ; ; ; ; ; ; ; ; ; ; ; ; ; ; ; ; ; ; ; ; ; ; ; ; > , ' ) + +           ",
"      + + + + + + + + + + + + + + + + + + + + + + + + + + + + + + + + + + + ! ~ { ] + +         ",
"        ^ / / / / / / / / / / / / / / / / / / / / / / / / / / / / / / / / + + + ( _ : +         ",
"                                                                              + + < [ +         ",
"                                                                                + } | + ^       ",
"                                                                                + 1 2 + 3       ",
"                                                                                + 4 5 + +       ",
"                                                                              @ + 6 7 + 8       ",
"                                                                            9 + + 0 a +         ",
"                + + + + + + + + + + + + + + + + + + + + + + + + + + + + + + + + b c d ^         ",
"            + + + + + + + + + + + + + + + + + + + + + + + + + + + + + + + + e f g h +           ",
"        @ + + i j k l l l l l l l l l l l l l l l l l l l l l l l l l l l m n o p + q           ",
"        + + r { j s i i i i i i i i i i i i i i i i i i i i i i i i i i i # + + +               ",
"      . + t u v + + + + + + + + + + + + + + + + + + + + + + + + + + + + + + + +                 ",
"      + w n x + +                                                                               ",
"      + y z + ^                                                                                 ",
"    A + ~ f +                                                                                   ",
"    q + B C +                                                                                   ",
"    / + a D + /                                                                                 ",
"      + E F G +                                                                                 ",
"      + + H I + + + / J J J J J J J J J J J J J J J J J J J J J J J J J J K                     ",
"      + + x _ L / + + + + + + + + + + + + + + + + + + + + + + + + + + + + + + + M               ",
"        . + x H N f O O O O O O O O O O O O O O O O O O O O O O O O O O O P Q G + +             ",
"          * + + R [ j j j j j j j j j j j j j j j j j j j j j j j j j j j S T U V + +           ",
"              . + + + + + + + + + + + + + + + + + + + + + + + + + + + + + + + s c a + *         ",
"                                                                          / + + W X Y +         ",
"                                                                              q + Z ` +         ",
"                                                                                +  ...+ +       ",
"                                                                                + +.@.+ +       ",
"                                                                                + #.$.+ A       ",
"                                                                              q + L %.+         ",
"                                                                            ^ + / &.- +         ",
"      . + + + + + + + + + + + + + + + + + + + + + + + + + + + + + + + + + + + / *.&.=.A         ",
"      + G : : : : : : : : : : : : : : : : : : : : : : : : : : : : : : : : -.;.z >.,.+           ",
"    + + '.).).).).).).).).).).).).).).).).).).).).).).).).).).).).).).).).n ..I !.+             ",
"      + + + + + + + + + + + + + + + + + + + + + + + + + + + + + + + + + + + + + +               ",
"        + + + + + + + + + + + + + + + + + + + + + + + + + + + + + + + + + + +                   ",
"                                                                                                ",
"                                                                                                ",
"                                                                                                ",
"                                                                                                ",
"                                                                                                "};
