/* XPM */
static char * tool_multi_xpm[] = {
"48 48 155 2",
"  	c None",
". 	c #000000",
"+ 	c #6E6B6B",
"@ 	c #706D6D",
"# 	c #7D7A7A",
"$ 	c #726F6F",
"% 	c #716E6E",
"& 	c #7B7878",
"* 	c #AAAAAA",
"= 	c #B5B5B5",
"- 	c #757171",
"; 	c #949292",
"> 	c #B6B6B6",
", 	c #B7B7B7",
"' 	c #A5A4A4",
") 	c #706E6E",
"! 	c #807E7E",
"~ 	c #AEAEAE",
"{ 	c #898787",
"] 	c #797777",
"^ 	c #B3B3B3",
"/ 	c #716F6F",
"( 	c #726E6E",
"_ 	c #9D9C9C",
": 	c #A1A0A0",
"< 	c #B0B0B0",
"[ 	c #838181",
"} 	c #706C6C",
"| 	c #868484",
"1 	c #757272",
"2 	c #969595",
"3 	c #716D6D",
"4 	c #6F6C6C",
"5 	c #6F6D6D",
"6 	c #A09F9F",
"7 	c #9A9999",
"8 	c #B0AFAF",
"9 	c #919090",
"0 	c #737070",
"a 	c #B4B3B3",
"b 	c #807C7C",
"c 	c #817F7F",
"d 	c #777474",
"e 	c #736F6F",
"f 	c #080802",
"g 	c #0D0B05",
"h 	c #727070",
"i 	c #9E9D9D",
"j 	c #787575",
"k 	c #8B8989",
"l 	c #AEADAD",
"m 	c #0A0903",
"n 	c #131206",
"o 	c #B2B1B1",
"p 	c #ADADAD",
"q 	c #A6A5A5",
"r 	c #969494",
"s 	c #929191",
"t 	c #0E0C04",
"u 	c #807428",
"v 	c #B6A638",
"w 	c #0C0B03",
"x 	c #6A6767",
"y 	c #747171",
"z 	c #A5A5A5",
"A 	c #7C7979",
"B 	c #767474",
"C 	c #9B9A9A",
"D 	c #B4B4B4",
"E 	c #191708",
"F 	c #F7E24D",
"G 	c #FFE94F",
"H 	c #514A19",
"I 	c #2D2B25",
"J 	c #A6A6A6",
"K 	c #908F8F",
"L 	c #AFAFAF",
"M 	c #8C8B8B",
"N 	c #B4A438",
"O 	c #EBD749",
"P 	c #0F0E04",
"Q 	c #616060",
"R 	c #858383",
"S 	c #8E8D8D",
"T 	c #AAA9A9",
"U 	c #999797",
"V 	c #828080",
"W 	c #ABAAAA",
"X 	c #080602",
"Y 	c #474116",
"Z 	c #9E9030",
"` 	c #111008",
" .	c #A2A1A1",
"..	c #7A7878",
"+.	c #ABABAB",
"@.	c #7D7B7B",
"#.	c #838080",
"$.	c #848282",
"%.	c #DECB45",
"&.	c #3D3713",
"*.	c #353130",
"=.	c #929090",
"-.	c #A4A3A3",
";.	c #DFCC45",
">.	c #0A0A03",
",.	c #747272",
"'.	c #979797",
").	c #897C2B",
"!.	c #0E0D04",
"~.	c #9C9B9B",
"{.	c #8D8C8C",
"].	c #B6B5B5",
"^.	c #7E7C7C",
"/.	c #FBE54E",
"(.	c #2A270D",
"_.	c #979696",
":.	c #757373",
"<.	c #3D3C39",
"[.	c #D0BE40",
"}.	c #0B0903",
"|.	c #777575",
"1.	c #817E7E",
"2.	c #989696",
"3.	c #6E6C6C",
"4.	c #736824",
"5.	c #0F0D04",
"6.	c #827E7E",
"7.	c #918F8F",
"8.	c #24221B",
"9.	c #F6E14C",
"0.	c #1B1808",
"a.	c #5E5C5C",
"b.	c #BFAF3B",
"c.	c #0B0B03",
"d.	c #12110A",
"e.	c #5C541D",
"f.	c #0D0C05",
"g.	c #F0DB4A",
"h.	c #121105",
"i.	c #A89A34",
"j.	c #484216",
"k.	c #0C0A04",
"l.	c #E5D147",
"m.	c #0C0B04",
"n.	c #93862D",
"o.	c #FDE74E",
"p.	c #332F10",
"q.	c #D8C543",
"r.	c #7D7227",
"s.	c #0D0C04",
"t.	c #F9E44D",
"u.	c #211E0A",
"v.	c #C8B73E",
"w.	c #0B0A03",
"x.	c #010100",
"                                                                                                ",
"                                                                                                ",
"                                                                                                ",
"                                                                                                ",
"                                                                                                ",
"                                          . . . . . .                                           ",
"                                      . .             . .                                       ",
"                                    .                     .                                     ",
"                                  .                         . .                                 ",
"                                .                             . .   .                           ",
"                              .                                 . . .                           ",
"                            .                                 . . . .         +                 ",
"                          . .                                     . .       @ # $               ",
"                          .                                             % & * = -               ",
"                        .                                             @ ; > , , ' )             ",
"                    . . .                                         ) ! ~ , , , , , { )           ",
"                    . . . .                                       ] , , , , , , , ^ /           ",
"                    . . .                                         ( _ , , , , , , , : )         ",
"                    . .                                             % < , , , , , , , [ }       ",
"              % ) (                                                 ( | , , , , , , , < @       ",
"              1 ^ 2 3 4                                             5 @ 6 , , , , , , , 7 /     ",
"            ) : , , 8 | 5                                         % [ 9 0 a , , , , , , > b     ",
"            c , , , , , ' d e                     f g         @ h i , , j k , , , , , , , l @   ",
"          5 l , , , , , , = 1                     m n       ) | o , , , p @ q , , , , , , , r % ",
"        % s , , , , , , , _ /                   t u v w x y z , , , , , = A B = , , , , , , C + ",
"        y D , , , , , , a $                     E F G H I / o , , , , J B h % K , , , , L [ )   ",
"      ) : , , , , , , , M %                   w N G G O P Q R , , D S @       @ T , > U @ }     ",
"      V , , , , , , , W @ 5                 X Y G G G G Z ` 3 :  .y %           ..+.# (         ",
"    5 l , , , , , , , @.#.$.)               m %.G G G G G &.*.4 %               % 4             ",
"  3 =., , , , , , , _ % = , -.d /         t u G G G G G G ;.>.                                  ",
"  ,.D , , , , , , a $ '., , , = 2 3 @     E F G G G G G G G ).!.                                ",
") ~., , , , , , , {.y ]., , , , , L ^.4 w N G G G G G G G G /.(.                                ",
"% @ _.> , , , , W 4 @ :. ., , , , , ] <.Y G G G G G G G G G G [.}.                              ",
"    % |.q , , , @.      % 1.l , , 2.3.m %.G G G G G G G G G G G 4.5.                            ",
"        3 6.L i %           @ 7.L @ 8.u G G G G G G G G G G G G 9.0.                            ",
"          ) 5 (               $ 4 a.E F G G G G G G G G G G G G G b.c.                          ",
"                                  d.N G G G G G G G G G G G G G G G e.f.                        ",
"                                X Y G G G G G G G G G G G G G G G G g.h.                        ",
"                                m %.G G G G G G G G G G G G G G G G G i.w                       ",
"                              t u G G G G G G G G G G G G G G G G G G G j.k.                    ",
"                              E F G G G G G G G G G G G G G G G G G G G l.m.                    ",
"                            w N G G G G G G G G G G G G G G G G G G G G G n.f.                  ",
"                          X Y G G G G G G G G G G G G G G G G G G G G G G o.p.                  ",
"                          m %.G G G G G G G G G G G G G G G G G G G G G G G q.m                 ",
"                        !.u G G G G G G G G G G G G G G G G G G G G G G G G G r.s.              ",
"                        E F G G G G G G G G G G G G G G G G G G G G G G G G G t.u.              ",
"                      w N G G G G G G G G G G G G G G G G G G G G G G G G G G G v.w.            ",
"                      . m m m m m m m m m m m m m m m m m m m m m m m m m m m m m x..           "};
