/* XPM */
static char * tools_xpm[] = {
"48 48 332 2",
"  	c None",
". 	c #000000",
"+ 	c #060608",
"@ 	c #0C0B0C",
"# 	c #292B2D",
"$ 	c #36383C",
"% 	c #333436",
"& 	c #303133",
"* 	c #252527",
"= 	c #06070A",
"- 	c #070707",
"; 	c #292B2C",
"> 	c #3A3B3F",
", 	c #2A2A2C",
"' 	c #030405",
") 	c #2D2E33",
"! 	c #A5A4A4",
"~ 	c #C3C3C3",
"{ 	c #C1C1C1",
"] 	c #969699",
"^ 	c #0B0D10",
"/ 	c #404146",
"( 	c #A4A3A3",
"_ 	c #BCBCBC",
": 	c #CFCFCF",
"< 	c #B4B3B3",
"[ 	c #96979E",
"} 	c #090A0E",
"| 	c #27282A",
"1 	c #ACABAB",
"2 	c #D0D0D0",
"3 	c #A3A2A5",
"4 	c #040405",
"5 	c #313439",
"6 	c #919091",
"7 	c #0B0D11",
"8 	c #44454B",
"9 	c #95969C",
"0 	c #0A0C0F",
"a 	c #252629",
"b 	c #A4A3A6",
"c 	c #040506",
"d 	c #32353B",
"e 	c #8F8E8E",
"f 	c #0A0C10",
"g 	c #46474E",
"h 	c #919196",
"i 	c #0C0D11",
"j 	c #242526",
"k 	c #A2A1A3",
"l 	c #050608",
"m 	c #2E3035",
"n 	c #939394",
"o 	c #090A0D",
"p 	c #45474D",
"q 	c #8B8B8E",
"r 	c #0C0E12",
"s 	c #222224",
"t 	c #9F9D9E",
"u 	c #060709",
"v 	c #29292C",
"w 	c #999A9D",
"x 	c #08090B",
"y 	c #414349",
"z 	c #868586",
"A 	c #0D0E13",
"B 	c #9C9A9B",
"C 	c #252628",
"D 	c #9E9FA4",
"E 	c #08090C",
"F 	c #3E3E42",
"G 	c #828080",
"H 	c #252526",
"I 	c #9C9B9B",
"J 	c #27292B",
"K 	c #9C9DA1",
"L 	c #39393C",
"M 	c #817F7F",
"N 	c #262729",
"O 	c #9F9E9E",
"P 	c #2C2E32",
"Q 	c #979799",
"R 	c #0B0C10",
"S 	c #363638",
"T 	c #848283",
"U 	c #353537",
"V 	c #89888A",
"W 	c #040406",
"X 	c #0E0E0E",
"Y 	c #5E5E61",
"Z 	c #77797F",
"` 	c #80838B",
" .	c #575859",
"..	c #020202",
"+.	c #37373A",
"@.	c #8E8E93",
"#.	c #09090D",
"$.	c #383A3E",
"%.	c #57585E",
"&.	c #555658",
"*.	c #5A5B64",
"=.	c #161517",
"-.	c #A3A2A4",
";.	c #050607",
">.	c #2E3135",
",.	c #1D1D1D",
"'.	c #A5A3A3",
").	c #C2C2C2",
"!.	c #A1A0A0",
"~.	c #040404",
"{.	c #3B3B3F",
"].	c #93949A",
"^.	c #7A797D",
"/.	c #B6B5B5",
"(.	c #CFCECE",
"_.	c #474850",
":.	c #222324",
"<.	c #A09FA0",
"[.	c #29292D",
"}.	c #1C1D1D",
"|.	c #030304",
"1.	c #0C0F13",
"2.	c #706F6F",
"3.	c #4F525B",
"4.	c #222223",
"5.	c #9D9B9C",
"6.	c #9E9FA3",
"7.	c #1C1C1D",
"8.	c #0D0F14",
"9.	c #716F6F",
"0.	c #50535D",
"a.	c #242525",
"b.	c #9C9A9A",
"c.	c #9D9DA2",
"d.	c #0D0F13",
"e.	c #7A7A7D",
"f.	c #474A51",
"g.	c #9E9C9D",
"h.	c #050507",
"i.	c #2C2D32",
"j.	c #97979A",
"k.	c #8C8B8E",
"l.	c #0C0D12",
"m.	c #86888F",
"n.	c #3D3D41",
"o.	c #272829",
"p.	c #A1A0A1",
"q.	c #313339",
"r.	c #919191",
"s.	c #8E909B",
"t.	c #A4A3A5",
"u.	c #828081",
"v.	c #0A0D0F",
"w.	c #8B8D96",
"x.	c #363739",
"y.	c #040507",
"z.	c #939293",
"A.	c #030404",
"B.	c #818187",
"C.	c #404147",
"D.	c #A1A0A2",
"E.	c #A9C0F7",
"F.	c #7889B0",
"G.	c #5D6A88",
"H.	c #757375",
"I.	c #4B4D57",
"J.	c #07080A",
"K.	c #A0B6EB",
"L.	c #40495E",
"M.	c #313848",
"N.	c #899CC9",
"O.	c #6F6D6D",
"P.	c #50545E",
"Q.	c #626F8F",
"R.	c #889BC7",
"S.	c #020203",
"T.	c #8294BF",
"U.	c #747375",
"V.	c #4D5059",
"W.	c #9D9B9B",
"X.	c #101216",
"Y.	c #1D212B",
"Z.	c #AEC6FF",
"`.	c #161920",
" +	c #505A74",
".+	c #323236",
"++	c #8A8A8D",
"@+	c #B9BECA",
"#+	c #A8A9AA",
"$+	c #A0A2A8",
"%+	c #8D909D",
"&+	c #808086",
"*+	c #424349",
"=+	c #A09EA0",
"-+	c #151820",
";+	c #90A4D3",
">+	c #576380",
",+	c #181B23",
"'+	c #171A21",
")+	c #A5BCF2",
"!+	c #292F3C",
"~+	c #8597C3",
"{+	c #171A22",
"]+	c #272C39",
"^+	c #4A556D",
"/+	c #9AAFE1",
"(+	c #1D2029",
"_+	c #010202",
":+	c #8496C1",
"<+	c #6F7EA2",
"[+	c #7F90BA",
"}+	c #343436",
"|+	c #1C1F27",
"1+	c #57637F",
"2+	c #97ACDE",
"3+	c #627090",
"4+	c #878890",
"5+	c #25272C",
"6+	c #A9ACB6",
"7+	c #A8A8A8",
"8+	c #9C9EA8",
"9+	c #3B4457",
"0+	c #ADC5FE",
"a+	c #2A303E",
"b+	c #07090B",
"c+	c #7B7B7E",
"d+	c #45484E",
"e+	c #12151A",
"f+	c #6C7B9E",
"g+	c #ABC2FA",
"h+	c #464F66",
"i+	c #9EB3E7",
"j+	c #080A0C",
"k+	c #1C1C1C",
"l+	c #1A1D25",
"m+	c #8CA0CE",
"n+	c #262C39",
"o+	c #0C0F12",
"p+	c #716F70",
"q+	c #080A0D",
"r+	c #454E65",
"s+	c #7D8EB7",
"t+	c #707FA4",
"u+	c #AAC0F8",
"v+	c #0E1015",
"w+	c #08080A",
"x+	c #090B0E",
"y+	c #706E6F",
"z+	c #282D3A",
"A+	c #373F51",
"B+	c #444D63",
"C+	c #79787C",
"D+	c #484A52",
"E+	c #2E3443",
"F+	c #85878E",
"G+	c #3D3F43",
"H+	c #070709",
"I+	c #6A799B",
"J+	c #111318",
"K+	c #8E909A",
"L+	c #8C8E97",
"M+	c #828288",
"N+	c #3F4045",
"O+	c #030303",
"P+	c #757477",
"Q+	c #4A4C54",
"R+	c #3F485C",
"S+	c #1F2126",
"T+	c #787C88",
"U+	c #AEB8D1",
"V+	c #626262",
"W+	c #99A3BA",
"X+	c #242934",
"Y+	c #12141A",
"Z+	c #1F232D",
"`+	c #0B0C0F",
" @	c #212630",
".@	c #484747",
"+@	c #ACB2C4",
"@@	c #A1A4AD",
"#@	c #7C7D82",
"$@	c #626B81",
"%@	c #191C25",
"&@	c #7586AB",
"*@	c #7382A7",
"=@	c #ACC4FB",
"-@	c #282E3B",
";@	c #4B566E",
">@	c #9AAFE0",
",@	c #3B4357",
"'@	c #1B1F28",
")@	c #191C24",
"!@	c #5B6886",
"~@	c #8EA2D0",
"{@	c #010101",
"]@	c #99AEE0",
"^@	c #4D5871",
"/@	c #242935",
"(@	c #303646",
"_@	c #AAC1F7",
":@	c #7A8BB2",
"<@	c #15181F",
"[@	c #0A0B0E",
"}@	c #667495",
"|@	c #91A5D5",
"1@	c #2B303F",
"2@	c #889BC6",
"3@	c #434C61",
"4@	c #2F3645",
"5@	c #697799",
"6@	c #7586AC",
"7@	c #20242F",
"8@	c #515C77",
"9@	c #96ABDC",
"0@	c #1D202B",
"a@	c #171B22",
"b@	c #545F7A",
"c@	c #5F6D8B",
"d@	c #282E3A",
"e@	c #0E1014",
"f@	c #444D64",
"g@	c #485169",
"h@	c #0F1116",
"i@	c #6E7DA1",
"j@	c #6A799C",
"k@	c #080A0B",
"l@	c #0E1115",
"m@	c #0C0E11",
"n@	c #0E0F14",
"o@	c #080809",
"p@	c #0E0F13",
"q@	c #090C0F",
"                                                                                                ",
"                                                                                                ",
"                                                                                                ",
"                                                                                                ",
"    . . . . . +                       @ # $ % & * =                           - ; > , '         ",
"    ) ! ~ { ] ^                       / ( _ : < [ }                           | 1 2 3 4         ",
"    5 ! ~ { 6 7                       8 ( _ : < 9 0                           a 1 2 b c         ",
"    d ! ~ { e f                       g ( _ : < h i                           j 1 2 k l         ",
"    m ! ~ { n o                       p ( _ : < q r                           s 1 2 t u         ",
"    v ! ~ { w x                       y ( _ : < z A                           s 1 2 B u         ",
"    C ! ~ { D E                       F ( _ : < G A                           H 1 2 I l         ",
"    J ! ~ { K o                       L ( _ : < M r                           N 1 2 O c         ",
"    P ! ~ { Q R                       S ( _ : < T ^                           | 1 2 k 4         ",
"    5 ! ~ { 6 7                       U ( _ : < V 0                           N 1 2 b W         ",
"    d ! ~ { e f     X Y Z `  ...      +.( _ : < @.}     #.$.%.&.*.=.          * 1 2 -.;.        ",
"    >.! ~ { n o     ,.'.).).!.~.      {.( _ : < ].}     i ^./.(.1 _.          :.1 2 <.u         ",
"    [.! ~ { w x     }.'.).).!.|.      / ( _ : < [ }     1.2./.(.1 3.          4.1 2 5.u         ",
"    C ! ~ { 6.x     7.'.).).!.|.      8 ( _ : < 9 0     8.9./.(.1 0.          a.1 2 b.+         ",
"    | ! ~ { c.o     7.'.).).!.|.      g ( _ : < h i     d.e./.(.1 f.          C 1 2 g.h.        ",
"    i.! ~ { j.R     ,.'.).).!.~.      p ( _ : < k.r     l.m./.(.1 n.          o.1 2 p.W         ",
"    q.! ~ { r.7     ,.'.).).!.~.      y ( _ : < z A     i s./.(.1 U           | 1 2 t.4         ",
"    d ! ~ { e R     ,.'.).).!.~.      F ( _ : < u.A     v.w./.(.1 x.          C 1 2 t.y.        ",
"    >.! ~ { z.o     ,.'.).).!.A.      L ( _ : < M r     v.B./.(.1 C.          a.1 2 D.l         ",
"    ^ E.E F.G.x     }.'.).).!.|.      S ( _ : < T ^     i H./.(.1 I.          4.1 2 g.u         ",
"    J.K.L.M.N.x     7.'.).).!.|.      U ( _ : < V 0     d.O./.(.1 P.          :.1 2 b.u         ",
"    o Q.R.S.T.o     7.'.).).!.A.      +.( _ : < @.}     8.U./.(.1 V.          * 1 2 W.l         ",
"    X.Y.Z.`. +f     ,.'.).).!.~.      .+++@+#+$+%+}     d.&+/.(.1 *+          N 1 2 =+c         ",
"    -+. ;+>+,+7     ,.'.).).!.~.      '+o )+L.!+~+}     i w./.(.1 L           | 1 2 -.4         ",
"    {+]+^+/+. R     ,.'.).).!.~.      (+_+:+<+o [+0     v.s./.(.1 }+          N 1 2 b '         ",
"    . . . . . +     ,.'.).).!.A.      |+{+1+2+_+3+i     v.4+/.(.1 {.    ..o x 5+6+7+8+r u u |.  ",
"                    7.'.).).!.|.      l 9+!+0+{+a+b+    i c+/.(.1 d+      e+f+r g+a+h+i+_+j+    ",
"                    k+'.).).!.|.      } l+J.m+n+h.      o+p+/.(.1 3.      q+r+l s+t+r u+v+w+    ",
"                    7.'.).).!.A.          E x+R         8.y+/.(.1 0.        x z+A+)+l B+o       ",
"                    ,.'.).).!.~.                        8.C+/.(.1 D+          o h.)+E+h.        ",
"                    ,.'.).).!.~.                        o+F+/.(.1 G+          H+o I+J+          ",
"                    ,.'.).).!.~.                        i K+/.(.1 U             E j+x+          ",
"                    ,.'.).).!.A.                        v.L+/.(.1 S               4             ",
"                    7.'.).).!.|.                        v.M+/.(.1 N+                            ",
"                    k+'.).).!.O+                        j+P+/.(.1 Q+.                           ",
"              u u R+S+T+U+V+W+X+Y+Z++             `+E {+ @.@+@@@#@$@R %@x                       ",
"                ;.&@*@r =@-@;@>@. v+              d.,@'@Z.)@!@~@{@]@^@/@(@                      ",
"                j+%@_@E :@*@r =@<@[@              i }@. |@>+'@Z.)@!@~@{@1@                      ",
"                  ' 2@3@4@_@E 5@l                 v.6@7@8@9@. |@>+'@Z.)@0@                      ",
"                    a@b@{@c@d@e@                  v.f@g@h@[+{+,@i@. j@L.0                       ",
"                    k@l@m@d.n@k@                  o@7 p@x+1.i q@n@R 7 p@q+                      ",
"                                                                                                ",
"                                                                                                ",
"                                                                                                "};
