/* XPM */
static char * tool_drilling_xpm[] = {
"32 32 7 1",
" 	c None",
".	c #787878",
"+	c #00FF00",
"@	c #45FB45",
"#	c #BCF3BC",
"$	c #BBF3BB",
"%	c #44FB44",
"               ..               ",
"               ..               ",
"               ..               ",
"               ..               ",
"                                ",
"                                ",
"               ..               ",
"++++++++++++        ++++++++++++",
"++++++++++++        ++++++++++++",
"++++++++++++   ..   ++++++++++++",
"++++++++++++   ..   ++++++++++++",
"++++++++++++   ..   ++++++++++++",
"++++++++++++   ..   ++++++++++++",
"++++++++++++        ++++++++++++",
"++++++++++++        ++++++++++++",
"++++++++++++   ..   ++++++++++++",
"++++++++++++        ++++++++++++",
"++++++++++++        ++++++++++++",
"++++++++++++   ..   ++++++++++++",
"++++++++++++   ..   ++++++++++++",
"++++++++++++   ..   ++++++++++++",
"++++++++++++   ..   ++++++++++++",
"++++++++++++        ++++++++++++",
"++++++++++++        ++++++++++++",
"++++++++++++   ..   ++++++++++++",
"++++++++++++        ++++++++++++",
"++++++++++++@#    $%++++++++++++",
"++++++++++++++@..%++++++++++++++",
"++++++++++++++++++++++++++++++++",
"++++++++++++++++++++++++++++++++",
"++++++++++++++++++++++++++++++++",
"++++++++++++++++++++++++++++++++"};
