<?xml version="1.0" encoding="UTF-8" standalone="no"?>
<!-- Created with Inkscape (http://www.inkscape.org/) -->

<svg
   xmlns:dc="http://purl.org/dc/elements/1.1/"
   xmlns:cc="http://creativecommons.org/ns#"
   xmlns:rdf="http://www.w3.org/1999/02/22-rdf-syntax-ns#"
   xmlns:svg="http://www.w3.org/2000/svg"
   xmlns="http://www.w3.org/2000/svg"
   xmlns:sodipodi="http://sodipodi.sourceforge.net/DTD/sodipodi-0.dtd"
   xmlns:inkscape="http://www.inkscape.org/namespaces/inkscape"
   width="48"
   height="48"
   id="svg3753"
   version="1.1"
   inkscape:version="0.91 r13725"
   sodipodi:docname="tool_2D.svg">
  <defs
     id="defs3755" />
  <sodipodi:namedview
     id="base"
     pagecolor="#ffffff"
     bordercolor="#666666"
     borderopacity="1"
     inkscape:pageopacity="0"
     inkscape:pageshadow="2"
     inkscape:zoom="26.3125"
     inkscape:cx="24"
     inkscape:cy="26.515087"
     inkscape:current-layer="layer1"
     showgrid="true"
     inkscape:grid-bbox="true"
     inkscape:document-units="px"
     inkscape:snap-page="true"
     inkscape:window-width="2495"
     inkscape:window-height="1416"
     inkscape:window-x="65"
     inkscape:window-y="798"
     inkscape:window-maximized="1"
     inkscape:showpageshadow="false"
     inkscape:snap-grids="true"
     inkscape:snap-bbox="true"
     inkscape:snap-global="true">
    <inkscape:grid
       type="xygrid"
       id="grid4271"
       empspacing="5"
       visible="true"
       enabled="true"
       snapvisiblegridlinesonly="true" />
  </sodipodi:namedview>
  <metadata
     id="metadata3758">
    <rdf:RDF>
      <cc:Work
         rdf:about="">
        <dc:format>image/svg+xml</dc:format>
        <dc:type
           rdf:resource="http://purl.org/dc/dcmitype/StillImage" />
        <dc:title></dc:title>
        <cc:license
           rdf:resource="http://creativecommons.org/publicdomain/zero/1.0/" />
      </cc:Work>
      <cc:License
         rdf:about="http://creativecommons.org/publicdomain/zero/1.0/">
        <cc:permits
           rdf:resource="http://creativecommons.org/ns#Reproduction" />
        <cc:permits
           rdf:resource="http://creativecommons.org/ns#Distribution" />
        <cc:permits
           rdf:resource="http://creativecommons.org/ns#DerivativeWorks" />
      </cc:License>
    </rdf:RDF>
  </metadata>
  <g
     id="layer1"
     inkscape:label="Layer 1"
     inkscape:groupmode="layer"
     transform="translate(0,16)">
    <path
       style="fill:none;fill-rule:evenodd;stroke:#30db21;stroke-width:5;stroke-linecap:round;stroke-linejoin:round;stroke-opacity:1;fill-opacity:1;stroke-miterlimit:4;stroke-dasharray:none;stroke-dashoffset:0"
       d="m 4.8240842,-9.8861294 32.0606468,0 c 0,0 5.343441,0 5.343441,5.7047193 0,5.7047193 -5.343441,5.7047193 -5.343441,5.7047193 l -26.717206,0 c 0,0 -5.3434408,0 -5.3434408,5.7047193 0,5.7047195 5.3434408,5.7047195 5.3434408,5.7047195 l 26.717206,0 c 0,0 5.343441,0 5.343441,5.70472 0,5.704719 -5.343441,5.704719 -5.343441,5.704719 l -32.0606468,0"
       id="path4222"
       inkscape:connector-curvature="0" />
    <path
       style="fill:none;fill-opacity:1;fill-rule:evenodd;stroke:#000000;stroke-width:1;stroke-linecap:round;stroke-linejoin:round;stroke-miterlimit:4;stroke-dasharray:none;stroke-dashoffset:0;stroke-opacity:1"
       d="m 4.9737279,-9.7721147 32.0606481,0 c 0,0 5.343441,0 5.343441,5.704719 0,5.70472 -5.343441,5.70472 -5.343441,5.70472 l -26.717207,0 c 0,0 -5.3434411,0 -5.3434411,5.704719 0,5.7047187 5.3434411,5.7047187 5.3434411,5.7047187 l 26.717207,0 c 0,0 5.343441,0 5.343441,5.70472 0,5.704719 -5.343441,5.704719 -5.343441,5.704719 l -32.0606481,0"
       id="path4222-3"
       inkscape:connector-curvature="0" />
  </g>
</svg>
