/* XPM */
static char * touchpoint_xpm[] = {
"64 64 3 1",
" 	c #FFFFFF",
".	c #000000",
"+	c #212121",
"                                                                ",
"                                                                ",
"                                                                ",
"                                                                ",
"                                                                ",
"                                                                ",
"                                                                ",
"                                                                ",
"                                                                ",
"                                                                ",
"                                                                ",
"                                                                ",
"                                                                ",
"                                                                ",
"                                                                ",
"                                                                ",
"                                                                ",
"                                                                ",
"                                                                ",
"                                                                ",
"                                                                ",
"                                                                ",
"                                                                ",
"                                                                ",
"                                                                ",
"                                                                ",
"                                                                ",
"                                                                ",
"                                                                ",
"                                                                ",
"                                                                ",
"                                                                ",
"                                                                ",
"                                                                ",
"                                                                ",
"                                                                ",
"                                                                ",
"                                                                ",
"                                                                ",
"                                                                ",
"                                                                ",
"                                                                ",
".....  ...  .   .  ...  .   .                                   ",
"  .   .   . .   . .   . .   .                                   ",
"  .   .   . .   . .     .   .                                   ",
"  .   .   . .   . .     .....                                   ",
"  .   .   . .   . .     .   .                                   ",
"  .   .   . .   . .   . .   .                                   ",
"  .    ...   ...   ...  .   .                                   ",
"                                                                ",
"  ....   ...  . .   . .....                                     ",
"  .   . .   . . ..  .   .                                       ",
"  .   . .   . . . . .   .                                       ",
"  ....  .   . . . . .   .                                       ",
"  .     .   . . . . .   .                                       ",
"  .     .   . . .  ..   .                                       ",
"  .      ...  . .   .   .                                       ",
".     .                                                         ",
".    .                                                          ",
".   .                                                           ",
".  .                                                            ",
".+.                                                             ",
"..+                                                             ",
".......                                                         "};
