/* XPM */
static char * undo_xpm[] = {
"32 32 251 2",
"  	c None",
". 	c #B5B5B5",
"+ 	c #9B9B9B",
"@ 	c #000000",
"# 	c #E6E6E6",
"$ 	c #CCCCCC",
"% 	c #06070D",
"& 	c #0E0E17",
"* 	c #1E1E28",
"= 	c #01055D",
"- 	c #2C2C3B",
"; 	c #53535B",
"> 	c #090D5E",
", 	c #000699",
"' 	c #53545E",
") 	c #9B9B9C",
"! 	c #0A0B24",
"~ 	c #0009F2",
"{ 	c #050976",
"] 	c #7E7E7E",
"^ 	c #E5E5E5",
"/ 	c #C8C8C8",
"( 	c #B0B0B0",
"_ 	c #AFAFAF",
": 	c #B2B2B2",
"< 	c #C4C4C4",
"[ 	c #D5D5D5",
"} 	c #0B0B14",
"| 	c #0008CF",
"1 	c #000AFF",
"2 	c #080B60",
"3 	c #040407",
"4 	c #040409",
"5 	c #0E0F28",
"6 	c #111341",
"7 	c #111343",
"8 	c #101240",
"9 	c #0E0F2D",
"0 	c #080918",
"a 	c #06060B",
"b 	c #252633",
"c 	c #646468",
"d 	c #B6B6B6",
"e 	c #E8E8E8",
"f 	c #23232D",
"g 	c #030997",
"h 	c #0009EF",
"i 	c #0009E8",
"j 	c #0009EE",
"k 	c #0008C1",
"l 	c #04097F",
"m 	c #0D0F31",
"n 	c #12121C",
"o 	c #808082",
"p 	c #5A5B61",
"q 	c #0A0D56",
"r 	c #000AFB",
"s 	c #0006A3",
"t 	c #04097E",
"u 	c #0E115B",
"v 	c #11134C",
"w 	c #111342",
"x 	c #0F1143",
"y 	c #0C0E49",
"z 	c #03086E",
"A 	c #0006A1",
"B 	c #0009E6",
"C 	c #0008C9",
"D 	c #090C4D",
"E 	c #191925",
"F 	c #D9D9D9",
"G 	c #010101",
"H 	c #0007B8",
"I 	c #0007BD",
"J 	c #0E0E15",
"K 	c #7A7A7A",
"L 	c #989898",
"M 	c #A7A7A7",
"N 	c #828283",
"O 	c #484855",
"P 	c #0D0E17",
"Q 	c #0C0E37",
"R 	c #0007A8",
"S 	c #000AFE",
"T 	c #0007B4",
"U 	c #080815",
"V 	c #8A8A8C",
"W 	c #A8A8A8",
"X 	c #0C0C15",
"Y 	c #030998",
"Z 	c #06060C",
"` 	c #A3A3A3",
" .	c #252632",
"..	c #0B0D3B",
"+.	c #0009E2",
"@.	c #0008D7",
"#.	c #090A1D",
"$.	c #979798",
"%.	c #CECECE",
"&.	c #21212C",
"*.	c #090C63",
"=.	c #000AF8",
"-.	c #0E103A",
";.	c #AEAEAE",
">.	c #7F7F84",
",.	c #09091A",
"'.	c #0008D6",
").	c #0008D0",
"!.	c #090912",
"~.	c #CACACA",
"{.	c #4C4D55",
"].	c #0C0E35",
"^.	c #0009E3",
"/.	c #03087F",
"(.	c #6A6A70",
"_.	c #969698",
":.	c #0A0B22",
"<.	c #03088B",
"[.	c #393944",
"}.	c #868688",
"|.	c #0B0C1A",
"1.	c #000584",
"2.	c #222230",
"3.	c #5B5B63",
"4.	c #070B70",
"5.	c #000AFA",
"6.	c #0A0A1A",
"7.	c #B8B8B8",
"8.	c #101019",
"9.	c #010102",
"0.	c #DDDDDD",
"a.	c #DBDBDB",
"b.	c #070810",
"c.	c #0009EC",
"d.	c #050A76",
"e.	c #747478",
"f.	c #D8D8D8",
"g.	c #45454A",
"h.	c #CDCDCD",
"i.	c #41424F",
"j.	c #0006A2",
"k.	c #0007B7",
"l.	c #303140",
"m.	c #79797A",
"n.	c #03087B",
"o.	c #0009E1",
"p.	c #12121E",
"q.	c #979797",
"r.	c #0C0F5C",
"s.	c #07070D",
"t.	c #8C8C8C",
"u.	c #090C68",
"v.	c #0009EB",
"w.	c #0A0B12",
"x.	c #D6D6D6",
"y.	c #838386",
"z.	c #66666C",
"A.	c #00058A",
"B.	c #1C1C29",
"C.	c #6E6E73",
"D.	c #02030D",
"E.	c #484853",
"F.	c #EAEAEA",
"G.	c #191A25",
"H.	c #0008C5",
"I.	c #0006A0",
"J.	c #474754",
"K.	c #10101A",
"L.	c #0008CD",
"M.	c #080B52",
"N.	c #2D2E38",
"O.	c #0D0F30",
"P.	c #0B0E5A",
"Q.	c #929292",
"R.	c #A9A9A9",
"S.	c #0C0E36",
"T.	c #050A7F",
"U.	c #10111A",
"V.	c #ACACAC",
"W.	c #E7E7E7",
"X.	c #1F202A",
"Y.	c #0108A8",
"Z.	c #0009F1",
"`.	c #070811",
" +	c #474854",
".+	c #010690",
"++	c #0007BA",
"@+	c #0B0C21",
"#+	c #52525B",
"$+	c #D1D1D1",
"%+	c #E4E4E4",
"&+	c #373741",
"*+	c #030988",
"=+	c #8F8F92",
"-+	c #0A0B1E",
";+	c #0009DB",
">+	c #000AF5",
",+	c #07070F",
"'+	c #9F9F9F",
")+	c #161721",
"!+	c #080C6B",
"~+	c #0009E7",
"{+	c #080915",
"]+	c #0B0B1D",
"^+	c #0008CB",
"/+	c #0009E9",
"(+	c #030889",
"_+	c #0D0F2D",
":+	c #05050A",
"<+	c #252532",
"[+	c #333441",
"}+	c #272837",
"|+	c #05050B",
"1+	c #0C0E46",
"2+	c #090C45",
"3+	c #6E6F75",
"4+	c #A6A6A7",
"5+	c #02089A",
"6+	c #0008C7",
"7+	c #0007BB",
"8+	c #0008C0",
"9+	c #30303B",
"0+	c #1D1D27",
"a+	c #090C55",
"b+	c #0009E4",
"c+	c #090D6C",
"d+	c #252530",
"e+	c #E2E2E2",
"f+	c #6C6C71",
"g+	c #080812",
"h+	c #030884",
"i+	c #0009F0",
"j+	c #0008CC",
"k+	c #0B0D2E",
"l+	c #42424B",
"m+	c #4F505A",
"n+	c #090914",
"o+	c #080C59",
"p+	c #0007AA",
"q+	c #0009E0",
"r+	c #000AFD",
"s+	c #0009DE",
"t+	c #0B0D47",
"u+	c #14141F",
"v+	c #939394",
"w+	c #8D8D8D",
"x+	c #3A3B47",
"y+	c #0E0F18",
"z+	c #040408",
"A+	c #0F101B",
"B+	c #3F404D",
"                  .                                             ",
"                + @ #                                           ",
"              $ % &                                             ",
"            # * = -                                             ",
"            ; > , '                                             ",
"          ) ! ~ { ] ^ / ( ( _ : < [                             ",
"        $ } | 1 2 3 4 5 6 7 7 8 9 0 a b c d                     ",
"      e f g 1 1 h i 1 1 1 1 1 1 1 1 j k l m n o e               ",
"      p q 1 1 1 r s t u v w x y z A B 1 1 1 C D E d             ",
"    F G H 1 1 1 I J K L M ( ( M N O P Q R S 1 1 T U V           ",
"      W X Y 1 1 ~ Z e                 `  ...+.1 1 @.#.$.        ",
"        %.&.*.=.1 -.;.                    >.,.'.1 1 ).!.~.      ",
"          # {.].^./.(.                      _.:.~ 1 1 <.[.      ",
"              }.|.1.2.                        3.4.1 1 5.6.$     ",
"                7.8.9.0.                      a.b.c.1 1 d.e.    ",
"                  f.g.h.                        i.j.1 1 k.l.    ",
"                                                m.n.1 1 o.p.    ",
"                                                q.r.1 1 ~ s.    ",
"                                                t.u.1 1 v.w.    ",
"          x.y.                                  z.A.1 1 ).B.    ",
"          C.D.E.F.                              G.H.1 1 I.J.    ",
"          K.L.M.N.f.                          ( O.1 1 1 P.Q.    ",
"        R.S.1 S T.U.V.                      W.X.Y.1 1 Z.`.F     ",
"         +.+1 1 1 ++@+#+$+                %+&+*.1 1 1 *+E.      ",
"        =+-+;+1 1 1 >+d.,+#+7.F.        '+)+!+r 1 1 ~+{+~.      ",
"          _.]+^+1 1 1 1 /+(+_+:+<+[+}+|+1+H 1 1 1 S 2+3+        ",
"            4+} 5+1 1 1 1 1 1 h 6+7+8+c.1 1 1 1 1 4.9+          ",
"              ~.0+a+b+1 1 1 1 1 1 1 1 1 1 1 1 5.c+d+e+          ",
"                # f+g+h+i+1 1 1 1 1 1 1 1 1 j+k+l+^             ",
"                    ~.m+n+o+p+q+r+1 S s+, t+u+v+                ",
"                        f.w+x+y+@ @ z+A+B++                     ",
"                                                                "};
