/* XPM */
static char * unify_xpm[] = {
"48 48 196 2",
"  	c None",
". 	c #100101",
"+ 	c #0C0101",
"@ 	c #900B0E",
"# 	c #A10C10",
"$ 	c #460507",
"% 	c #070101",
"& 	c #0B0002",
"* 	c #D31015",
"= 	c #C20F13",
"- 	c #63070A",
"; 	c #090101",
"> 	c #0C0202",
", 	c #C60F14",
"' 	c #610709",
") 	c #550608",
"! 	c #840A0D",
"~ 	c #0F0101",
"{ 	c #B10D12",
"] 	c #0B0101",
"^ 	c #000000",
"/ 	c #D11015",
"( 	c #0A0101",
"_ 	c #01040C",
": 	c #01050C",
"< 	c #000204",
"[ 	c #020D21",
"} 	c #0C0306",
"| 	c #0E0101",
"1 	c #3C0406",
"2 	c #061F52",
"3 	c #0A3081",
"4 	c #0D40AB",
"5 	c #104DCF",
"6 	c #104FD3",
"7 	c #0B0918",
"8 	c #A90D11",
"9 	c #070001",
"0 	c #78090C",
"a 	c #0D0002",
"b 	c #010610",
"c 	c #0A0C1F",
"d 	c #7B090C",
"e 	c #BF0E13",
"f 	c #6F090B",
"g 	c #110102",
"h 	c #AE0D11",
"i 	c #01050F",
"j 	c #0D42B1",
"k 	c #080F28",
"l 	c #73090B",
"m 	c #930B0F",
"n 	c #300305",
"o 	c #070000",
"p 	c #D21015",
"q 	c #051332",
"r 	c #69080B",
"s 	c #AF0D11",
"t 	c #530608",
"u 	c #080101",
"v 	c #040000",
"w 	c #3E0506",
"x 	c #05163C",
"y 	c #5F0709",
"z 	c #C70F14",
"A 	c #810A0D",
"B 	c #BD0E13",
"C 	c #7D090C",
"D 	c #0E0202",
"E 	c #051A45",
"F 	c #540609",
"G 	c #B40E12",
"H 	c #061D4F",
"I 	c #490508",
"J 	c #072159",
"K 	c #3F0507",
"L 	c #4A0507",
"M 	c #082665",
"N 	c #350406",
"O 	c #B50E12",
"P 	c #CC0F14",
"Q 	c #870A0D",
"R 	c #0D41AE",
"S 	c #062057",
"T 	c #0C3B9C",
"U 	c #092B72",
"V 	c #2C0305",
"W 	c #B90E12",
"X 	c #1A0203",
"Y 	c #2D0404",
"Z 	c #4B0608",
"` 	c #870A0E",
" .	c #C10F13",
"..	c #BE0E13",
"+.	c #0E44B4",
"@.	c #07235E",
"#.	c #041231",
"$.	c #01060F",
"%.	c #061F54",
"&.	c #0F4CCA",
"*.	c #082B74",
"=.	c #1D0303",
"-.	c #9E0C10",
";.	c #950B0F",
">.	c #8B0B0E",
",.	c #75090C",
"'.	c #190203",
").	c #010000",
"!.	c #0D0101",
"~.	c #350405",
"{.	c #980C0F",
"].	c #160202",
"^.	c #0E45B9",
"/.	c #010713",
"(.	c #010206",
"_.	c #010308",
":.	c #020919",
"<.	c #01050E",
"[.	c #000001",
"}.	c #2A0304",
"|.	c #340405",
"1.	c #470507",
"2.	c #1C0203",
"3.	c #030000",
"4.	c #120102",
"5.	c #2B0304",
"6.	c #970B0F",
"7.	c #010612",
"8.	c #0E44B7",
"9.	c #0F4AC5",
"0.	c #0B368F",
"a.	c #041538",
"b.	c #030E25",
"c.	c #020918",
"d.	c #01050D",
"e.	c #082564",
"f.	c #104ED1",
"g.	c #0C3A9A",
"h.	c #140203",
"i.	c #440507",
"j.	c #400506",
"k.	c #CD1014",
"l.	c #450507",
"m.	c #010611",
"n.	c #0E44B6",
"o.	c #0D3DA4",
"p.	c #07245F",
"q.	c #0D3FA9",
"r.	c #0D0102",
"s.	c #B20D12",
"t.	c #CF1015",
"u.	c #C30F13",
"v.	c #2C0304",
"w.	c #0E45B8",
"x.	c #180202",
"y.	c #080000",
"z.	c #104BC7",
"A.	c #A20C10",
"B.	c #020000",
"C.	c #D01015",
"D.	c #050001",
"E.	c #080102",
"F.	c #0B0103",
"G.	c #B70E12",
"H.	c #440506",
"I.	c #0C0204",
"J.	c #0D0306",
"K.	c #A50D10",
"L.	c #7D0A0D",
"M.	c #092D78",
"N.	c #0B348C",
"O.	c #0C3CA0",
"P.	c #0D43B2",
"Q.	c #0F4AC6",
"R.	c #0E0409",
"S.	c #9D0C10",
"T.	c #260304",
"U.	c #00050C",
"V.	c #01040D",
"W.	c #000205",
"X.	c #000103",
"Y.	c #020D22",
"Z.	c #041436",
"`.	c #051D4C",
" +	c #0E0306",
".+	c #560709",
"++	c #A60D11",
"@+	c #B80E12",
"#+	c #C80F14",
"$+	c #B30E12",
"%+	c #090000",
"&+	c #110101",
"*+	c #1A0202",
"=+	c #3D0406",
"-+	c #520608",
";+	c #360405",
"                                                                                                ",
"                                                                                                ",
"                                                                                                ",
"                                                                                                ",
"                                                                                                ",
"                                                                                                ",
"                                                                                                ",
"                                                                    . + +                       ",
"                                                                    . @ # $ % &                 ",
"                                                                    . @ * * = - ; >             ",
"                                                                    . @ * * * * , ' ;           ",
"                                                                    . @ * * * * * * )           ",
"                                                                    . @ * * * * * * ! ~         ",
"                                                                    . @ * * * * * * { ]         ",
"                                            ^                       . @ * * * * * * / (         ",
"                                    _ : < [ } ; |                   . @ * * * * * * * 1         ",
"                          _ : < [ 2 3 4 5 6 7 ! 8 $ 9 &             . @ * * * * * * * 0 a       ",
"                        b 3 4 5 6 6 6 6 6 6 c d * * e f g +         . @ * * * * * * * h ]       ",
"                      i j 6 6 6 6 6 6 6 6 6 k l * * * * / m n ; o   . @ * * * * * * * p ]       ",
"                    i j 6 6 6 6 6 6 6 6 6 6 q r * * * * * * * s t u v @ * * * * * * * * w       ",
"                  i j 6 6 6 6 6 6 6 6 6 6 6 x y * * * * * * * * * z A B * * * * * * * * C D     ",
"                i j 6 6 6 6 6 6 6 6 6 6 6 6 E F * * * * * * * * * * * * * * * * * * * * G ;     ",
"              i j 6 6 6 6 6 6 6 6 6 6 6 6 6 H I * * * * * * * * * * * * * * * * * * * * * g     ",
"            i j 6 6 6 6 6 6 6 6 6 6 6 6 6 6 J K * * * * * * * * * * * * * * * * * * * * * L     ",
"          i j 6 6 6 6 6 6 6 6 6 6 6 6 6 6 6 M N * * * O P * * * * * * * * * * * * * * * * Q |   ",
"        i j 6 6 6 6 6 6 6 6 6 6 6 R S T 6 6 U V * * * W X Y Z `  .* * * * * * * * * * * * ..%   ",
"      i j 6 6 6 6 6 6 6 6 6 +.@.#.$.%.6 6 &.*.=.8 -.;.>.,.'.^ ).u !.~.{.* * * * * * * * * * ].  ",
"    b +.6 6 6 6 6 6 6 ^.@./.(.^ ^ _.:.<.[._._ v }.|.w 1.t 2.).3.4.5.6.p * * * * * * * * p - (   ",
"    7.8.6 6 6 6 6 6 6 9.0.a.b.c._.d.e.9.f.6 g.h.* * * * i.].j.;./ * * * * * * * * * * k.l.]     ",
"      m.n.6 6 6 6 6 6 6 6 6 6 5 o.p.#.3 6 6 q.r.* * * s.;.t.* * * * * * * * * * * * u.v.]       ",
"        m.n.6 6 6 6 6 6 6 6 6 6 6 6 6 6 6 6 w.u * * * * * * * * * * * * * * * * * O x.y.        ",
"          m.n.6 6 6 6 6 6 6 6 6 6 6 6 6 6 6 z.3.* * * * * * * * * * * * * * * * A.|             ",
"            m.n.6 6 6 6 6 6 6 6 6 6 6 6 6 6 6 B.C.* * * * * * * * * * * * * * >.(               ",
"              m.n.6 6 6 6 6 6 6 6 6 6 6 6 6 6 D.z * * * * * * * * * * * * * / .                 ",
"                m.n.6 6 6 6 6 6 6 6 6 6 6 6 6 E.e * * * * * * * * * * * * * {.!.                ",
"                  m.n.6 6 6 6 6 6 6 6 6 6 6 6 F.G.* * * * * * * * * * * * * H.                  ",
"                    m.n.6 6 6 6 6 6 6 6 6 6 6 I.h * * * * * * * * * * * * z 9                   ",
"                      m.n.6 6 6 6 6 6 6 6 6 6 J.K.* * * * * * * * * * * * L.|                   ",
"                        7.M.N.O.P.Q.6 6 6 6 6 R.S.* * * * * * * * * * * * T.                    ",
"                          U.m.b V.W.X.b Y.Z.`. +.+Q 6.++@+#+* * * * * * $+;                     ",
"                                              ^ %+. &+~ ] v 3.+ *+5.=+-+;+%+                    ",
"                                                                                                ",
"                                                                                                ",
"                                                                                                ",
"                                                                                                ",
"                                                                                                ",
"                                                                                                ",
"                                                                                                "};
