/* XPM */
static char * xtheny_xpm[] = {
"80 80 202 2",
"  	c None",
". 	c #C8C8C8",
"+ 	c #3D3D3D",
"@ 	c #000000",
"# 	c #727272",
"$ 	c #9C9C9C",
"% 	c #020202",
"& 	c #1D1D1D",
"* 	c #BFBFBF",
"= 	c #B8B8B8",
"- 	c #121212",
"; 	c #060606",
"> 	c #A7A7A7",
", 	c #1B1B1B",
"' 	c #030303",
") 	c #9E9E9E",
"! 	c #8F8F8F",
"~ 	c #262626",
"{ 	c #C3C3C3",
"] 	c #4E4E4E",
"^ 	c #666666",
"/ 	c #545454",
"( 	c #5C5C5C",
"_ 	c #8B8B8B",
": 	c #2D2D2D",
"< 	c #C6C6C6",
"[ 	c #C1C1C1",
"} 	c #202020",
"| 	c #969696",
"1 	c #B7B7B7",
"2 	c #101010",
"3 	c #0A0A0A",
"4 	c #ADADAD",
"5 	c #C4C4C4",
"6 	c #A2A2A2",
"7 	c #050505",
"8 	c #171717",
"9 	c #383838",
"0 	c #7C7C7C",
"a 	c #4C4C4C",
"b 	c #6B6B6B",
"c 	c #414141",
"d 	c #A4A4A4",
"e 	c #0B0B0B",
"f 	c #212121",
"g 	c #C7C7C7",
"h 	c #131313",
"i 	c #AEAEAE",
"j 	c #292929",
"k 	c #0C0C0C",
"l 	c #7D7D7D",
"m 	c #181818",
"n 	c #B5B5B5",
"o 	c #848484",
"p 	c #0E0E0E",
"q 	c #161616",
"r 	c #585858",
"s 	c #606060",
"t 	c #090909",
"u 	c #B0B0B0",
"v 	c #626262",
"w 	c #515151",
"x 	c #525252",
"y 	c #909090",
"z 	c #8DB4D8",
"A 	c #7EAFDC",
"B 	c #B7C3CD",
"C 	c #C6C8C9",
"D 	c #409BED",
"E 	c #0286FF",
"F 	c #1B8FF8",
"G 	c #57A3E7",
"H 	c #9BB9D4",
"I 	c #3E9BEE",
"J 	c #0989FD",
"K 	c #0086FF",
"L 	c #0C8AFC",
"M 	c #108BFA",
"N 	c #3196F2",
"O 	c #75ADDF",
"P 	c #B3C1CE",
"Q 	c #65A7E3",
"R 	c #50A0E9",
"S 	c #4FA0E9",
"T 	c #188EF8",
"U 	c #0487FE",
"V 	c #0287FE",
"W 	c #0688FD",
"X 	c #0B8AFC",
"Y 	c #55A2E8",
"Z 	c #2391F5",
"` 	c #0588FE",
" .	c #3798F0",
"..	c #87B3DA",
"+.	c #C7C8C8",
"@.	c #2D95F3",
"#.	c #99B9D5",
"$.	c #118CFB",
"%.	c #0488FE",
"&.	c #128BFA",
"*.	c #148CFA",
"=.	c #499EEB",
"-.	c #93B7D7",
";.	c #C3C7CA",
">.	c #98B9D5",
",.	c #0F8BFB",
"'.	c #2C94F3",
").	c #74ADDF",
"!.	c #B1C0CE",
"~.	c #2894F4",
"{.	c #50A1E9",
"].	c #94B7D6",
"^.	c #C3C6C9",
"/.	c #BBC4CC",
"(.	c #2893F4",
"_.	c #3F9BEE",
":.	c #449CEC",
"<.	c #0A89FC",
"[.	c #1C8FF7",
"}.	c #3497F1",
"|.	c #6AA9E2",
"1.	c #3597F0",
"2.	c #0E8BFB",
"3.	c #489EEB",
"4.	c #0186FF",
"5.	c #3397F1",
"6.	c #0889FD",
"7.	c #0D8AFB",
"8.	c #2793F4",
"9.	c #73ACE0",
"0.	c #439CED",
"a.	c #118BFA",
"b.	c #7A7A7A",
"c.	c #3A3A3A",
"d.	c #757575",
"e.	c #747474",
"f.	c #767676",
"g.	c #393939",
"h.	c #79AEDE",
"i.	c #0788FD",
"j.	c #080808",
"k.	c #A9A9A9",
"l.	c #AAAAAA",
"m.	c #0F0F0F",
"n.	c #6CA9E1",
"o.	c #2D95F2",
"p.	c #4A9FEB",
"q.	c #8A8A8A",
"r.	c #C5C5C5",
"s.	c #2A2A2A",
"t.	c #888888",
"u.	c #ABBED0",
"v.	c #4D4D4D",
"w.	c #4B4B4B",
"x.	c #BEBEBE",
"y.	c #1A1A1A",
"z.	c #191919",
"A.	c #1F1F1F",
"B.	c #5BA4E6",
"C.	c #6BAAE2",
"D.	c #90B5D7",
"E.	c #555555",
"F.	c #575757",
"G.	c #8C8C8C",
"H.	c #52A1E9",
"I.	c #919191",
"J.	c #010101",
"K.	c #232323",
"L.	c #A5A5A5",
"M.	c #BBC3CB",
"N.	c #ADBFCF",
"O.	c #ACBFD0",
"P.	c #BABABA",
"Q.	c #141414",
"R.	c #6C6C6C",
"S.	c #424242",
"T.	c #C6C7C8",
"U.	c #434343",
"V.	c #303030",
"W.	c #808080",
"X.	c #7F7F7F",
"Y.	c #313131",
"Z.	c #0D0D0D",
"`.	c #B2B2B2",
" +	c #363636",
".+	c #AEBFCF",
"++	c #A0BBD3",
"@+	c #9EBAD3",
"#+	c #459DEC",
"$+	c #93B6D6",
"%+	c #78AEDE",
"&+	c #98B8D5",
"*+	c #323232",
"=+	c #737373",
"-+	c #BDBDBD",
";+	c #2F2F2F",
">+	c #6F6F6F",
",+	c #5B5B5B",
"'+	c #5A5A5A",
")+	c #464646",
"!+	c #1C1C1C",
"~+	c #878787",
". . . . . . . . . . . . . . . . . . . . . . . . . . . . . . . . . . . . . . . . . . . . . . . . . . . . . . . . . . . . . . . . . . . . . . . . . . . . . . . . ",
". . . . . . . . . . . + @ # . . . . . . $ % & * . . . . . . . . . . . . . . . . . . . . . . . . . . . . . . . . . . . . . . . . . . . . . . . . . . . . . . . . ",
". . . . . . . . . . . = - ; > . . . . * , ' ) . . . . . . . . . . . . . . . . . . . . . . . . . . . . . . . . . . . . . . . . . . . . . . . . . . . . . . . . . ",
". . . . . . . . . . . . ! @ ~ { . . . ] @ ^ . . . . . . . . . . . . . . . . . . . . . . . . . . . . . . . . . . . . . . . . . . . . . . . . . . . . . . . . . . ",
". . . . . . . . . . . . . / @ ( . . _ @ : < . . . . . . . . . . . . . . . . . . . . . . . . . . . . . . . . . . . . . . . . . . . . . . . . . . . . . . . . . . ",
". . . . . . . . . . . . . [ } % | 1 2 3 4 . . . . . . . . . . . . . . . . . . . . . . . . . . . . . . . . . . . . . . . . . . . . . . . . . . . . . . . . . . . ",
". . . . . . 5 . . . . . . . 6 7 8 9 @ 0 . . . . . . . . . . . . . . . . . . . . . . . . . . . . . . . . . . . . . . . . . . . . . . . . . . . . . . . . . . . . ",
". . . . . . a ) . . . . . . . b @ @ c . . . . . . . . . . . . . . . . . . . . . . . . . . . . . . . . . . . . . . . . . . . . . . . . . . . . . . . . . . . . . ",
". . . . . d e f g . . . . . . < h @ i . . . . . . . . . . . . . . . . . . . . . . . . . . . . . . . . . . . . . . . . . . . . . . . . . . . . . . . . . . . . . ",
". . . . . j @ k l . . . . . . . m @ n . . . . . . . . . . . . . . . . . . . . . . . . . . . . . . . . . . . . . . . . . . . . . . . . . . . . . . . . . . . . . ",
". . . . o p @ @ h * . . . . . . m @ n . . . . . . . . . . . . . . . . . . . . . . . . . . . . . . . . . . . . . . . . . . . . . . . . . . . . . . . . . . . . . ",
". . . { q @ @ @ 7 r . . . . . . m @ n . . . . . . . . . . . . . . . . . . . . . . . . . . . . . . . . . . . . . . . . . . . . . . . . . . . . . . . . . . . . . ",
". . . s 7 @ @ @ @ t u . . . . . m @ n . . . . . . . . . . . . . . . . . . . . . . . . . . . . . . . . . . . . . . . . . . . . . . . . . . . . . . . . . . . . . ",
". . g v w w @ } w x y . . . . . m @ n . . . . . . . . . . . . . . . . . . . . . . . . . . . . . . . . . . . . . . . . . . . . . . . . . . . . . . . . . . . . . ",
". . . . . . @ ] . . . . . . . . m @ n . . . . . . . . . . . . . . . . . . . . . . . . . . . . . . . . . . . . . . . . . . . . . . . . . . . . . . . . . . . . . ",
". . . . . . @ ] . . . . . . . . . . . . . . . . . . . . . . . . . . . . . . . . . . . . . . . . . . . . . . . . . . . . . . . . . . . . . . . . . . . . . . . . ",
". . . . . . @ ] . . . . . . . . . . . . . . . . . . . . . . . . . . . . . . . . . . . . . . . . . . . . . . . . . z A B . . . . . . . . . . . . . . . . . . . . ",
". . . . . . @ ] . . . . . . . . . . . . . . . . . . . . . . . . . . . . . . . . . . . . . . . . . . . . . . . . . C D E F G H C . . . . . . . . . . . . . . . . ",
". . . . . . @ ] . . . . . . . . . . . . . . . . . . . . . . . . . . . . . . . . . . . . . . . . . . . . . . . . . . C I J K L M N O P . . . . . . . . . . . . . ",
". . . . . . @ ] . . . . . Q R R R R R R R R R R R R R R R R R R R R R R R R R R R R R R R R R R R R R R R R R R R R R S T U K K K V W X Y H C . . . . . . . . . ",
". . . . . . @ ] . . . . . Z K K K K K K K K K K K K K K K K K K K K K K K K K K K K K K K K K K K K K K K K K K K K K K K K K K K K K K `  ...+.. . . . . . . . ",
". . . . . . @ ] . . . . . Z @.. . . . . . . . . . . . . . . . . . . . . . . . . . . . . . . . . . . . . . . . . . . . #.$.K K %.&.*.=.-.;.. . . . . . . . . . . ",
". . . . . . @ ] . . . . . Z @.. . . . . . . . . . . . . . . . . . . . . . . . . . . . . . . . . . . . . . . . . . . >.` J ,.'.).!.. . . . . . . . . . . . . . . ",
". . . . . . @ ] . . . . . Z @.. . . . . . . . . . . . . . . . . . . . . . . . . . . . . . . . . . . . . . . . . . #.~.{.].^.. . . . . . . . . . . . . . . . . . ",
". . . . . . @ ] . . . . . Z @.. . . . . . . . . . . . . . . . . . . . . . . . . . . . . . . . . . . . . . . . . . /.. . . . . . . . . . . . . . . . . . . . . . ",
". . . . . . @ ] . . . . . Z @.. . . . . . . . . . . . . . . . . . . . . . . . . . . . . . . . . . . . . . . . . . . . . . . . . . . . . . . . . . . . . . . . . ",
". . . . . . @ ] . . . . . Z @.. . . . . . . . . . . . . . . . . . . . . . . . . . . . . . . . . . . . . . . . . . . . . . . . . . . . . . . . . . . . . . . . . ",
". . . . . . @ ] . . . . . Z @.. . . . . . . . . . . . . . . . . . . . . . . . . . . . . . . . . . . . . . . . . . . . . . . . . . . . . . . . . . . . . . . . . ",
". . . . . . @ ] . . . . . Z @.. . . . . . . . . . . . . . . . . . . . . . . . . . . . . . . . . . . . . . . . . . . . . . . . . . . . . . . . . . . . . . . . . ",
". . . . . . @ ] . . . . . Z J (.(.(.(.(.(.(.(.(.(.(.(.(.(.(.(.(.(.(.(.(.(.(.(.(.(.(.(.(.(.(.(.(.(.(.(.(.(.(.(.(.(.(.(.(.(._.. . . . . . . . . . . . . . . . . . ",
". . . . . . @ ] . . . . . :.(.(.(.(.(.(.(.(.(.(.(.(.(.(.(.(.(.(.(.(.(.(.(.(.(.(.(.(.(.(.(.(.(.(.(.(.(.(.(.(.(.(.(.(.(.(.<.[.. . . . . . . . . . . . . . . . . . ",
". . . . . . @ ] . . . . . . . . . . . . . . . . . . . . . . . . . . . . . . . . . . . . . . . . . . . . . . . . . . . . }.[.. . . . . . . . . . . . . . . . . . ",
". . . . . . @ ] . . . . . . . . . . . . . . . . . . . . . . . . . . . . . . . . . . . . . . . . . . . . . . . . . . . . }.[.. . . . . . . . . . . . . . . . . . ",
". . . . . . @ ] . . . . . . . . . . . . . . . . . . . . . . . . . . . . . . . . . . . . . . . . . . . . . . . . . . . . }.[.. . . . . . . . . . . . . . . . . . ",
". . . . . . @ ] . . . . . . . . . . . . . . . . . . . . . . . . . . . . . . . . . . . . . . . . . . . . . . . . . . . . }.[.. . . . . . . . . . . . . . . . . . ",
". . . . . . @ ] . . . . . . . . . . . . . . . . . . . . . . . . . . . . . . . . . . . . . . . . . . . . . . . . . . . . }.[.. . . . . . . . . . . . . . . . . . ",
". . . . . . @ ] . . . . . . . . . . . . . . . . . . . . . . . . . . . . . . . . . . . . . . . . . . . . . . . . . . . . }.[.. . . . . . . . . . . . . . . . . . ",
". . . . . . @ ] . . . . . |.1.1.1.1.1.1.1.1.1.1.1.1.1.1.1.1.1.1.1.1.1.1.1.1.1.1.1.1.1.1.1.1.1.1.1.1.1.1.1.1.1.1.1.1.1.1.2.[.. . . . . . . . . . . . . . . . . . ",
". . . . . . @ ] . . . . . 3.4.F F F F F F F F F F F F F F F F F F F F F F F F F F F F F F F F F F F F F F F F F F F F F F 5.. . . . . . . . . . . . . . . . . . ",
". . . . . . @ ] . . . . . 3.6.. . . . . . . . . . . . . . . . . . . . . . . . . . . . . . . . . . . . . . . . . . . . . . . . . . . . . . . . . . . . . . . . . ",
". . . . . . @ ] . . . . . 3.6.. . . . . . . . . . . . . . . . . . . . . . . . . . . . . . . . . . . . . . . . . . . . . . . . . . . . . . . . . . . . . . . . . ",
". . . . . . @ ] . . . . . 3.6.. . . . . . . . . . . . . . . . . . . . . . . . . . . . . . . . . . . . . . . . . . . . . . . . . . . . . . . . . . . . . . . . . ",
". . . . . . @ ] . . . . . 3.6.. . . . . . . . . . . . . . . . . . . . . . . . . . . . . . . . . . . . . . . . . . . . . . . . . . . . . . . . . . . . . . . . . ",
". . . . . . @ ] . . . . . 3.6.. . . . . . . . . . . . . . . . . . . . . . . . . . . . . . . . . . . . . . . . . . . . . . . . . . . . . . . . . . . . . . . . . ",
". . . . . . @ ] . . . . . 3.6.. . . . . . . . . . . . . . . . . . . . . . . . . . . . . . . . . . . . . . . . . . . . . . . . . . . . . . . . . . . . . . . . . ",
". . . . . . @ ] . . . . . 3.6.. . . . . . . . . . . . . . . . . . . . . . . . . . . . . . . . . . . . . . . . . . . . . . . . . . . . . . . . . . . . . . . . . ",
". . . . . . @ ] . . . . . 3.4.7.7.7.7.7.7.7.7.7.7.7.7.7.7.7.7.7.7.7.7.7.7.7.7.7.7.7.7.7.7.7.7.7.7.7.7.7.7.7.7.7.7.7.7.7.7.8.. . . . . . . . . . . . . . . . . . ",
". . . . . . @ ] . . . . . 9.0.0.0.0.0.0.0.0.0.0.0.0.0.0.0.0.0.0.0.0.0.0.0.0.0.0.0.0.0.0.0.0.0.0.0.0.0.0.0.0.0.0.0.0.0.0.a.[.. . . . . . . . . . . . . . . . . . ",
". . . . . . @ ] . . . . . . . . . . . . . . . . . . . . . . . . . . . . . . . . . . . . . . . . . . . . . . . . . . . . }.[.. . . . . . . . . . . . . . . . . . ",
". . . . . . @ ] . . . . . . . . . . . . . . . . . . . . . . . . . . . . . . . . . . . . . . . . . . . . . . . . . . . . }.[.. . . . . . . . . . . . . . . . . . ",
". . . . . . @ ] . . . . . . . . . . . . . . . . . . . . . . . . . . . . . . . . . . . . . . . . . . . . . . . . . . . . }.[.. . . . . . . . . . . . . . . . . . ",
". . . . . . @ ] . . . . . . . . . . . . . . . . . . . . . . . . . . . . . . . . . . . . . . . . . . . . . . . . . . . . }.[.. . . . . . . . . . . . . . . . . . ",
". . . . . . @ ] . . . . . . . . . . . . . . . . . . . . . . . . . . . . . . . . . . . . . . . . . . . . . . . . . . . . }.[.. . . . . . . . . . . . . . . . . . ",
". . . . . . @ ] . . . . . . . . . . . . . . . . . . . . . . . . . . . . . . . . . . . . . . . . . . . . . . . . . . . . }.[.. . . . . b.@ 9 . . . . . . c.@ d.. ",
". . . . . . @ ] . . . . . . . . . . . . . . . . . . . . . . . . . . . . . . . . . . . . . . . . . . . . . . . . . . . . }.[.. . . . . . + @ e.. . . . f.@ g.. . ",
". . . . . . @ ] . . . . . h.F F F F F F F F F F F F F F F F F F F F F F F F F F F F F F F F F F F F F F F F F F F F F F i.[.. . . . . . 1 2 j.k.. . l.j.m.n . . ",
". . . . . . @ ] . . . . . n.K o.1.1.1.1.1.1.1.1.1.1.1.1.1.1.1.1.1.1.1.1.1.1.1.1.1.1.1.1.1.1.1.1.1.1.1.1.1.1.1.1.1.1.1.1.1.p.. . . . . . . q.@ j r.r.s.@ t.. . . ",
". . . . . . @ ] . . . . . n.K u.. . . . . . . . . . . . . . . . . . . . . . . . . . . . . . . . . . . . . . . . . . . . . . . . . . . . . . v.@ v v @ w.. . . . ",
". . . . . . @ ] . . . . . n.K u.. . . . . . . . . . . . . . . . . . . . . . . . . . . . . . . . . . . . . . . . . . . . . . . . . . . . . . x.y.% % z.x.. . . . ",
". . . . . . @ ] . . . . . n.K u.. . . . . . . . . . . . . . . . . . . . . . . . . . . . . . . . . . . . . . . . . . . . . . . . . . . . . . . l @ @ y . . . . . ",
". . . . . . @ ] . . . . . n.K u.. . . . . . . . . . . . . . . . . . . . . . . . . . . . . . . . . . . . . . . . . . . . . . . . . . . . . . [ A.@ @ v.. . . . . ",
". . . . . . @ ] . . . . . n.K B.C.C.C.C.C.C.C.C.C.C.C.C.C.C.C.C.C.C.C.C.C.C.C.C.C.C.C.C.C.C.C.C.C.C.C.C.C.C.C.C.C.C.C.C.C.C.D.. . . . . . . E.@ F.~ @ G.. . . . ",
". . . . . . @ ] . . . . . n.K K K K K K K K K K K K K K K K K K K K K K K K K K K K K K K K K K K K K K K K K K K K K K K K H.. . . . . . I.J.K.{ L.7 - = . . . ",
". . . . . . @ ] . . . . . M.N.N.N.N.N.N.N.N.N.N.N.N.N.N.N.N.N.N.N.N.N.N.N.N.N.N.N.N.N.N.N.N.N.N.N.N.N.N.N.N.N.N.N.N.N.N.O.K H.. . . . . P.Q.7 d . . R.@ S.. . . ",
". . . . . . @ ] . . . . . . . . . . . . . . . . . . . . . . . . . . . . . . . . . . . . . . . . . . . . . . . . . . . . T.K H.. . . . . U.@ R.. . . < V.@ W.. . ",
". . . . . . @ ] . . . . . . . . . . . . . . . . . . . . . . . . . . . . . . . . . . . . . . . . . . . . . . . . . . . . T.K H.. . . . X.@ Y.< . . . . i t Z.`.. ",
". . . . . . @ ] . . . . . . . . . . . . . . . . . . . . . . . . . . . . . . . . . . . . . . . . . . . . . . . . . . . . T.K H.. . . u k e u . . . . . . b.@  +g ",
". . . . . . @ ] . . . . . . .+++++++++++++++++++++++++++++++++++++++++++++++++++++++++++++++++++++++++++++++++++++++++++@+K H.. . . . . . . . . . . . . . . . . ",
". . . . . . @ ] . . . . . . #+K K K K K K K K K K K K K K K K K K K K K K K K K K K K K K K K K K K K K K K K K K K K K K K H.. . . . . . . . . . . . . . . . . ",
". . . . . . @ ] . . . . . . $+%+%+%+%+%+%+%+%+%+%+%+%+%+%+%+%+%+%+%+%+%+%+%+%+%+%+%+%+%+%+%+%+%+%+%+%+%+%+%+%+%+%+%+%+%+%+%+&+. . . . . . 5 . . . . . . . . . . ",
". . . . . . @ ] . . . . . . . . . . . . . . . . . . . . . . . . . . . . . . . . . . . . . . . . . . . . . . . . . . . . . . . . . . . . . *+=+< . . . . . . . . ",
". . . . . . @ ] . . . . . . . . . . . . . . . . . . . . . . . . . . . . . . . . . . . . . . . . . . . . . . . . . . . . . . . . . . . . . z.t y.| . . . . . . . ",
". . . . . . @ w.-+-+-+-+-+-+-+-+-+-+-+-+-+-+-+-+-+-+-+-+-+-+-+-+-+-+-+-+-+-+-+-+-+-+-+-+-+-+-+-+-+-+-+-+-+-+-+-+-+-+-+-+-+-+-+-+-+-+-+-+-+m @ @ m.;+i . . . . . ",
". . . . . . @ @ @ @ @ @ @ @ @ @ @ @ @ @ @ @ @ @ @ @ @ @ @ @ @ @ @ @ @ @ @ @ @ @ @ @ @ @ @ @ @ @ @ @ @ @ @ @ @ @ @ @ @ @ @ @ @ @ @ @ @ @ @ @ @ @ @ J.j.>+. . . . ",
". . . . . . ,+'+'+'+'+'+'+'+'+'+'+'+'+'+'+'+'+'+'+'+'+'+'+'+'+'+'+'+'+'+'+'+'+'+'+'+'+'+'+'+'+'+'+'+'+'+'+'+'+'+'+'+'+'+'+'+'+'+'+'+'+'+'+e @ @ @ Z.)+P.. . . . ",
". . . . . . . . . . . . . . . . . . . . . . . . . . . . . . . . . . . . . . . . . . . . . . . . . . . . . . . . . . . . . . . . . . . . . z.@ Z.~ d . . . . . . ",
". . . . . . . . . . . . . . . . . . . . . . . . . . . . . . . . . . . . . . . . . . . . . . . . . . . . . . . . . . . . . . . . . . . . . !+q ~+. . . . . . . . ",
". . . . . . . . . . . . . . . . . . . . . . . . . . . . . . . . . . . . . . . . . . . . . . . . . . . . . . . . . . . . . . . . . . . . . t.{ . . . . . . . . . ",
". . . . . . . . . . . . . . . . . . . . . . . . . . . . . . . . . . . . . . . . . . . . . . . . . . . . . . . . . . . . . . . . . . . . . . . . . . . . . . . . ",
". . . . . . . . . . . . . . . . . . . . . . . . . . . . . . . . . . . . . . . . . . . . . . . . . . . . . . . . . . . . . . . . . . . . . . . . . . . . . . . . "};
