/* XPM */
static char * ythenx_xpm[] = {
"80 80 198 2",
"  	c None",
". 	c #C8C8C8",
"+ 	c #3D3D3D",
"@ 	c #000000",
"# 	c #727272",
"$ 	c #9C9C9C",
"% 	c #020202",
"& 	c #1D1D1D",
"* 	c #BFBFBF",
"= 	c #B8B8B8",
"- 	c #121212",
"; 	c #060606",
"> 	c #A7A7A7",
", 	c #1B1B1B",
"' 	c #030303",
") 	c #9E9E9E",
"! 	c #8F8F8F",
"~ 	c #262626",
"{ 	c #C3C3C3",
"] 	c #4E4E4E",
"^ 	c #666666",
"/ 	c #545454",
"( 	c #5C5C5C",
"_ 	c #8B8B8B",
": 	c #2D2D2D",
"< 	c #C6C6C6",
"[ 	c #C1C1C1",
"} 	c #202020",
"| 	c #969696",
"1 	c #B7B7B7",
"2 	c #101010",
"3 	c #0A0A0A",
"4 	c #ADADAD",
"5 	c #C4C4C4",
"6 	c #A2A2A2",
"7 	c #050505",
"8 	c #171717",
"9 	c #383838",
"0 	c #7C7C7C",
"a 	c #4C4C4C",
"b 	c #6B6B6B",
"c 	c #414141",
"d 	c #A4A4A4",
"e 	c #0B0B0B",
"f 	c #212121",
"g 	c #C7C7C7",
"h 	c #131313",
"i 	c #AEAEAE",
"j 	c #292929",
"k 	c #0C0C0C",
"l 	c #7D7D7D",
"m 	c #181818",
"n 	c #B5B5B5",
"o 	c #848484",
"p 	c #0E0E0E",
"q 	c #161616",
"r 	c #585858",
"s 	c #606060",
"t 	c #090909",
"u 	c #B0B0B0",
"v 	c #AEBFCF",
"w 	c #B6C2CD",
"x 	c #626262",
"y 	c #515151",
"z 	c #525252",
"A 	c #909090",
"B 	c #71ACE0",
"C 	c #7CAFDD",
"D 	c #2A94F3",
"E 	c #3497F1",
"F 	c #C3C7CA",
"G 	c #0688FD",
"H 	c #0788FD",
"I 	c #C6C8C9",
"J 	c #91B6D7",
"K 	c #0286FF",
"L 	c #0387FE",
"M 	c #9BB9D4",
"N 	c #4B9EEA",
"O 	c #0086FF",
"P 	c #58A3E7",
"Q 	c #168EF9",
"R 	c #1C90F7",
"S 	c #118CFA",
"T 	c #118BFA",
"U 	c #B8C3CC",
"V 	c #78AEDE",
"W 	c #93B6D6",
"X 	c #70ABE0",
"Y 	c #0488FE",
"Z 	c #A1BBD3",
"` 	c #449CEC",
" .	c #85B2DB",
"..	c #439CED",
"+.	c #B9C3CC",
"@.	c #6FAAE0",
"#.	c #C4C7C9",
"$.	c #0187FF",
"%.	c #0287FE",
"&.	c #5FA5E5",
"*.	c #A0BBD3",
"=.	c #0989FC",
"-.	c #64A7E4",
";.	c #0C8AFC",
">.	c #0D8AFB",
",.	c #B2C1CE",
"'.	c #439CEC",
").	c #0186FF",
"!.	c #0587FD",
"~.	c #C2C6CA",
"{.	c #0989FD",
"].	c #0B89FC",
"^.	c #0D8BFB",
"/.	c #0A8AFC",
"(.	c #128BFA",
"_.	c #76ADDE",
":.	c #B4C1CD",
"<.	c #65A7E3",
"[.	c #0D8BFC",
"}.	c #55A2E7",
"|.	c #429CED",
"1.	c #2391F5",
"2.	c #2C95F3",
"3.	c #3B9AEF",
"4.	c #9BB9D5",
"5.	c #52A1E8",
"6.	c #C6C7C8",
"7.	c #2D95F3",
"8.	c #3A9AEF",
"9.	c #5DA5E5",
"0.	c #6BA9E1",
"a.	c #72ACE0",
"b.	c #C7C8C8",
"c.	c #7A7A7A",
"d.	c #3A3A3A",
"e.	c #757575",
"f.	c #747474",
"g.	c #767676",
"h.	c #393939",
"i.	c #080808",
"j.	c #A9A9A9",
"k.	c #AAAAAA",
"l.	c #0F0F0F",
"m.	c #8A8A8A",
"n.	c #C5C5C5",
"o.	c #2A2A2A",
"p.	c #888888",
"q.	c #4D4D4D",
"r.	c #4B4B4B",
"s.	c #BEBEBE",
"t.	c #1A1A1A",
"u.	c #191919",
"v.	c #1F1F1F",
"w.	c #555555",
"x.	c #575757",
"y.	c #8C8C8C",
"z.	c #919191",
"A.	c #010101",
"B.	c #232323",
"C.	c #A5A5A5",
"D.	c #BABABA",
"E.	c #141414",
"F.	c #6C6C6C",
"G.	c #424242",
"H.	c #434343",
"I.	c #303030",
"J.	c #808080",
"K.	c #7F7F7F",
"L.	c #313131",
"M.	c #0D0D0D",
"N.	c #B2B2B2",
"O.	c #363636",
"P.	c #A6BDD1",
"Q.	c #1B8FF8",
"R.	c #81B0DB",
"S.	c #0588FE",
"T.	c #3096F2",
"U.	c #3597F0",
"V.	c #128CFA",
"W.	c #5BA4E6",
"X.	c #5DA4E5",
"Y.	c #108BFA",
"Z.	c #4B9FEB",
"`.	c #BBC4CC",
" +	c #73ACE0",
".+	c #2693F5",
"++	c #C0C5CA",
"@+	c #BEC5CB",
"#+	c #323232",
"$+	c #737373",
"%+	c #BDBDBD",
"&+	c #2F2F2F",
"*+	c #6F6F6F",
"=+	c #5B5B5B",
"-+	c #5A5A5A",
";+	c #464646",
">+	c #1C1C1C",
",+	c #878787",
". . . . . . . . . . . . . . . . . . . . . . . . . . . . . . . . . . . . . . . . . . . . . . . . . . . . . . . . . . . . . . . . . . . . . . . . . . . . . . . . ",
". . . . . . . . . . . + @ # . . . . . . $ % & * . . . . . . . . . . . . . . . . . . . . . . . . . . . . . . . . . . . . . . . . . . . . . . . . . . . . . . . . ",
". . . . . . . . . . . = - ; > . . . . * , ' ) . . . . . . . . . . . . . . . . . . . . . . . . . . . . . . . . . . . . . . . . . . . . . . . . . . . . . . . . . ",
". . . . . . . . . . . . ! @ ~ { . . . ] @ ^ . . . . . . . . . . . . . . . . . . . . . . . . . . . . . . . . . . . . . . . . . . . . . . . . . . . . . . . . . . ",
". . . . . . . . . . . . . / @ ( . . _ @ : < . . . . . . . . . . . . . . . . . . . . . . . . . . . . . . . . . . . . . . . . . . . . . . . . . . . . . . . . . . ",
". . . . . . . . . . . . . [ } % | 1 2 3 4 . . . . . . . . . . . . . . . . . . . . . . . . . . . . . . . . . . . . . . . . . . . . . . . . . . . . . . . . . . . ",
". . . . . . 5 . . . . . . . 6 7 8 9 @ 0 . . . . . . . . . . . . . . . . . . . . . . . . . . . . . . . . . . . . . . . . . . . . . . . . . . . . . . . . . . . . ",
". . . . . . a ) . . . . . . . b @ @ c . . . . . . . . . . . . . . . . . . . . . . . . . . . . . . . . . . . . . . . . . . . . . . . . . . . . . . . . . . . . . ",
". . . . . d e f g . . . . . . < h @ i . . . . . . . . . . . . . . . . . . . . . . . . . . . . . . . . . . . . . . . . . . . . . . . . . . . . . . . . . . . . . ",
". . . . . j @ k l . . . . . . . m @ n . . . . . . . . . . . . . . . . . . . . . . . . . . . . . . . . . . . . . . . . . . . . . . . . . . . . . . . . . . . . . ",
". . . . o p @ @ h * . . . . . . m @ n . . . . . . . . . . . . . . . . . . . . . . . . . . . . . . . . . . . . . . . . . . . . . . . . . . . . . . . . . . . . . ",
". . . { q @ @ @ 7 r . . . . . . m @ n . . . . . . . . . . . . . . . . . . . . . . . . . . . . . . . . . . . . . . . . . . . . . . . . . . . . . . . . . . . . . ",
". . . s 7 @ @ @ @ t u . . . . . m @ n . . . . . . . . . . . . . . . . . . . . . . . . . . . . . . . . . . . . . . . . . v w . . . . . . . . . . . . . . . . . . ",
". . g x y y @ } y z A . . . . . m @ n . . . . . . . . . . . . . . . . . . . . . . . . . . . . . . . . . . . . . . . . . B C . . . . . . . . . . . . . . . . . . ",
". . . . . . @ ] . . . . . . . . m @ n . . . . . . . . . . . . . . . . . . . . . . . . . . . . . . . . . . . . . . . . . D E . . . . . . . . . . . . . . . . . . ",
". . . . . . @ ] . . . . . . . . . . . . . . . . . . . . . . . . . . . . . . . . . . . . . . . . . . . . . . . . . . . F G H I . . . . . . . . . . . . . . . . . ",
". . . . . . @ ] . . . . . . . . . . . . . . . . . . . . . . . . . . . . . . . . . . . . . . . . . . . . . . . . . . . J K L M . . . . . . . . . . . . . . . . . ",
". . . . . . @ ] . . . . . . . . . . . . . . . . . . . . . . . . . . . . . . . . . . . . . . . . . . . . . . . . . . . N O O P . . . . . . . . . . . . . . . . . ",
". . . . . . @ ] . . . . . . . . . . . . . . . . . . . . . . . . . . . . . . . . . . . . . . . . . . . . . . . . . . . Q O O R . . . . . . . . . . . . . . . . . ",
". . . . . . @ ] . . . . . . . . . . . . . . . . . . . . . . . . . . . . . . . . . . . . . . . . . . . . . . . . . . v S O O T w . . . . . . . . . . . . . . . . ",
". . . . . . @ ] . . . U V V V V V V V W . . . . . . . . . . . . . . . . . . . . . . . . . . . . . . . . . . . . . . X Y O O G C . . . . . . . . . . . . . . . . ",
". . . . . . @ ] . . . Z O O O O O O O ` . . . .  .....................+.. . . . . . @...................#.. . . . . D O $.%.O E . . . . . . . . . . . . . . . . ",
". . . . . . @ ] . . . Z O &.*.*.*.*.=.` . . . . -.O ;.>.>.>.>.>.>.H O ,.. . . . . . '.).>.>.>.>.>.>.!.O F . . . . ~.S {.].^./.(.I . . . . . . . . . . . . . . . ",
". . . . . . @ ] . . . Z O _.. . . . ;.` . . . . -.O :.. . . . . . <.O ,.. . . . . . '.[.. . . . . . }.O F . . . . J L |.1.2.3.L 4.. . . . . . . . . . . . . . . ",
". . . . . . @ ] . . . Z O _.. . . . ;.` . . . . -.O :.. . . . . . <.O ,.. . . . . . '.[.. . . . . . }.O F . . . . 5.'.6.1.7.I 8.9.. . . . . . . . . . . . . . . ",
". . . . . . @ ] . . . Z O _.. . . . ;.` . . . . -.O :.. . . . . . <.O ,.. . . . . . '.[.. . . . . . }.O F . . . . 0.6.. 1.7.. I a.. . . . . . . . . . . . . . . ",
". . . . . . @ ] . . . Z O _.. . . . ;.` . . . . -.O :.. . . . . . <.O ,.. . . . . . '.[.. . . . . . }.O F . . . . b.. . 1.7.. . 6.. . . . . . . . . . . . . . . ",
". . . . . . @ ] . . . Z O _.. . . . ;.` . . . . -.O :.. . . . . . <.O ,.. . . . . . '.[.. . . . . . }.O F . . . . . . . 1.7.. . . . . . . . . . . . . . . . . . ",
". . . . . . @ ] . . . Z O _.. . . . ;.` . . . . -.O :.. . . . . . <.O ,.. . . . . . '.[.. . . . . . }.O F . . . . . . . 1.7.. . . . . . . . . . . . . . . . . . ",
". . . . . . @ ] . . . Z O _.. . . . ;.` . . . . -.O :.. . . . . . <.O ,.. . . . . . '.[.. . . . . . }.O F . . . . . . . 1.7.. . . . . . . . . . . . . . . . . . ",
". . . . . . @ ] . . . Z O _.. . . . ;.` . . . . -.O :.. . . . . . <.O ,.. . . . . . '.[.. . . . . . }.O F . . . . . . . 1.7.. . . . . . . . . . . . . . . . . . ",
". . . . . . @ ] . . . Z O _.. . . . ;.` . . . . -.O :.. . . . . . <.O ,.. . . . . . '.[.. . . . . . }.O F . . . . . . . 1.7.. . . . . . . . . . . . . . . . . . ",
". . . . . . @ ] . . . Z O _.. . . . ;.` . . . . -.O :.. . . . . . <.O ,.. . . . . . '.[.. . . . . . }.O F . . . . . . . 1.7.. . . . . . . . . . . . . . . . . . ",
". . . . . . @ ] . . . Z O _.. . . . ;.` . . . . -.O :.. . . . . . <.O ,.. . . . . . '.[.. . . . . . }.O F . . . . . . . 1.7.. . . . . . . . . . . . . . . . . . ",
". . . . . . @ ] . . . Z O _.. . . . ;.` . . . . -.O :.. . . . . . <.O ,.. . . . . . '.[.. . . . . . }.O F . . . . . . . 1.7.. . . . . . . . . . . . . . . . . . ",
". . . . . . @ ] . . . Z O _.. . . . ;.` . . . . -.O :.. . . . . . <.O ,.. . . . . . '.[.. . . . . . }.O F . . . . . . . 1.7.. . . . . . . . . . . . . . . . . . ",
". . . . . . @ ] . . . Z O _.. . . . ;.` . . . . -.O :.. . . . . . <.O ,.. . . . . . '.[.. . . . . . }.O F . . . . . . . 1.7.. . . . . . . . . . . . . . . . . . ",
". . . . . . @ ] . . . Z O _.. . . . ;.` . . . . -.O :.. . . . . . <.O ,.. . . . . . '.[.. . . . . . }.O F . . . . . . . 1.7.. . . . . . . . . . . . . . . . . . ",
". . . . . . @ ] . . . Z O _.. . . . ;.` . . . . -.O :.. . . . . . <.O ,.. . . . . . '.[.. . . . . . }.O F . . . . . . . 1.7.. . . . . . . . . . . . . . . . . . ",
". . . . . . @ ] . . . Z O _.. . . . ;.` . . . . -.O :.. . . . . . <.O ,.. . . . . . '.[.. . . . . . }.O F . . . . . . . 1.7.. . . . . . . . . . . . . . . . . . ",
". . . . . . @ ] . . . Z O _.. . . . ;.` . . . . -.O :.. . . . . . <.O ,.. . . . . . '.[.. . . . . . }.O F . . . . . . . 1.7.. . . . . . . . . . . . . . . . . . ",
". . . . . . @ ] . . . Z O _.. . . . ;.` . . . . -.O :.. . . . . . <.O ,.. . . . . . '.[.. . . . . . }.O F . . . . . . . 1.7.. . . . . . . . . . . . . . . . . . ",
". . . . . . @ ] . . . Z O _.. . . . ;.` . . . . -.O :.. . . . . . <.O ,.. . . . . . '.[.. . . . . . }.O F . . . . . . . 1.7.. . . . . . . . . . . . . . . . . . ",
". . . . . . @ ] . . . Z O _.. . . . ;.` . . . . -.O :.. . . . . . <.O ,.. . . . . . '.[.. . . . . . }.O F . . . . . . . 1.7.. . . . . . . . . . . . . . . . . . ",
". . . . . . @ ] . . . Z O _.. . . . ;.` . . . . -.O :.. . . . . . <.O ,.. . . . . . '.[.. . . . . . }.O F . . . . . . . 1.7.. . . . . . . . . . . . . . . . . . ",
". . . . . . @ ] . . . Z O _.. . . . ;.` . . . . -.O :.. . . . . . <.O ,.. . . . . . '.[.. . . . . . }.O F . . . . . . . 1.7.. . . . . . . . . . . . . . . . . . ",
". . . . . . @ ] . . . Z O _.. . . . ;.` . . . . -.O :.. . . . . . <.O ,.. . . . . . '.[.. . . . . . }.O F . . . . . . . 1.7.. . . . . . . . . . . . . . . . . . ",
". . . . . . @ ] . . . Z O _.. . . . ;.` . . . . -.O :.. . . . . . <.O ,.. . . . . . '.[.. . . . . . }.O F . . . . . . . 1.7.. . . . . . . . . . . . . . . . . . ",
". . . . . . @ ] . . . Z O _.. . . . ;.` . . . . -.O :.. . . . . . <.O ,.. . . . . . '.[.. . . . . . }.O F . . . . . . . 1.7.. . . . . . . . . . . . . . . . . . ",
". . . . . . @ ] . . . Z O _.. . . . ;.` . . . . -.O :.. . . . . . <.O ,.. . . . . . '.[.. . . . . . }.O F . . . . . . . 1.7.. . . . . . . . . . . . . . . . . . ",
". . . . . . @ ] . . . Z O _.. . . . ;.` . . . . -.O :.. . . . . . <.O ,.. . . . . . '.[.. . . . . . }.O F . . . . . . . 1.7.. . . . . . . . . . . . . . . . . . ",
". . . . . . @ ] . . . Z O _.. . . . ;.` . . . . -.O :.. . . . . . <.O ,.. . . . . . '.[.. . . . . . }.O F . . . . . . . 1.7.. . . . . . . . . . . . . . . . . . ",
". . . . . . @ ] . . . Z O _.. . . . ;.` . . . . -.O :.. . . . . . <.O ,.. . . . . . '.[.. . . . . . }.O F . . . . . . . 1.7.. . . . . . . . . . . . . . . . . . ",
". . . . . . @ ] . . . Z O _.. . . . ;.` . . . . -.O :.. . . . . . <.O ,.. . . . . . '.[.. . . . . . }.O F . . . . . . . 1.7.. . . . . c.@ 9 . . . . . . d.@ e.. ",
". . . . . . @ ] . . . Z O _.. . . . ;.` . . . . -.O :.. . . . . . <.O ,.. . . . . . '.[.. . . . . . }.O F . . . . . . . 1.7.. . . . . . + @ f.. . . . g.@ h.. . ",
". . . . . . @ ] . . . Z O _.. . . . ;.` . . . . -.O :.. . . . . . <.O ,.. . . . . . '.[.. . . . . . }.O F . . . . . . . 1.7.. . . . . . 1 2 i.j.. . k.i.l.n . . ",
". . . . . . @ ] . . . Z O _.. . . . ;.` . . . . -.O :.. . . . . . <.O ,.. . . . . . '.[.. . . . . . }.O F . . . . . . . 1.7.. . . . . . . m.@ j n.n.o.@ p.. . . ",
". . . . . . @ ] . . . Z O _.. . . . ;.` . . . . -.O :.. . . . . . <.O ,.. . . . . . '.[.. . . . . . }.O F . . . . . . . 1.7.. . . . . . . . q.@ x x @ r.. . . . ",
". . . . . . @ ] . . . Z O _.. . . . ;.` . . . . -.O :.. . . . . . <.O ,.. . . . . . '.[.. . . . . . }.O F . . . . . . . 1.7.. . . . . . . . s.t.% % u.s.. . . . ",
". . . . . . @ ] . . . Z O _.. . . . ;.` . . . . -.O :.. . . . . . <.O ,.. . . . . . '.[.. . . . . . }.O F . . . . . . . 1.7.. . . . . . . . . l @ @ A . . . . . ",
". . . . . . @ ] . . . Z O _.. . . . ;.` . . . . -.O :.. . . . . . <.O ,.. . . . . . '.[.. . . . . . }.O F . . . . . . . 1.7.. . . . . . . . [ v.@ @ q.. . . . . ",
". . . . . . @ ] . . . Z O _.. . . . ;.` . . . . -.O :.. . . . . . <.O ,.. . . . . . '.[.. . . . . . }.O F . . . . . . . 1.7.. . . . . . . . w.@ x.~ @ y.. . . . ",
". . . . . . @ ] . . . Z O _.. . . . ;.` . . . . -.O :.. . . . . . <.O ,.. . . . . . '.[.. . . . . . }.O F . . . . . . . 1.7.. . . . . . . z.A.B.{ C.7 - = . . . ",
". . . . . . @ ] . . . Z O _.. . . . ;.` . . . . -.O :.. . . . . . <.O ,.. . . . . . '.[.. . . . . . }.O F . . . . . . . 1.7.. . . . . . D.E.7 d . . F.@ G.. . . ",
". . . . . . @ ] . . . Z O _.. . . . ;.` . . . . -.O :.. . . . . . <.O ,.. . . . . . '.[.. . . . . . }.O F . . . . . . . 1.7.. . . . . . H.@ F.. . . < I.@ J.. . ",
". . . . . . @ ] . . . Z O _.. . . . ;.` . . . . -.O :.. . . . . . <.O ,.. . . . . . '.[.. . . . . . }.O F . . . . . . . 1.7.. . . . . K.@ L.< . . . . i t M.N.. ",
". . . . . . @ ] . . . Z O _.. . . . ;.` . . . . -.O :.. . . . . . <.O ,.. . . . . . '.[.. . . . . . }.O F . . . . . . . 1.7.. . . . u k e u . . . . . . c.@ O.g ",
". . . . . . @ ] . . . Z O _.. . . . ;.` . . . . -.O :.. . . . . . <.O ,.. . . . . . '.[.. . . . . . }.O F . . . . . . . 1.7.. . . . . . . . . . . . . . . . . . ",
". . . . . . @ ] . . . P.Q.R.. . . . ;.S.>.>.>.>.G O :.. . . . . . <.O T.U.U.U.U.U.U.V.[.. . . . . . }.O W.X.X.X.X.X.X.X.Y.7.. . . . . . . . . . . . . . . . . . ",
". . . . . . @ ] . . . . . . . . . . Z...............`.. . . . . .  +Q.Q.Q.Q.Q.Q.Q.Q.Q..+. . . . . . }.O O O O O O O O O O 7.. . . . . . . 5 . . . . . . . . . . ",
". . . . . . @ ] . . . . . . . . . . . . . . . . . . . . . . . . . . . . . . . . . . . . . . . . . . ++`.`.`.`.`.`.`.`.`.`.@+. . . . . . . #+$+< . . . . . . . . ",
". . . . . . @ ] . . . . . . . . . . . . . . . . . . . . . . . . . . . . . . . . . . . . . . . . . . . . . . . . . . . . . . . . . . . . . u.t t.| . . . . . . . ",
". . . . . . @ r.%+%+%+%+%+%+%+%+%+%+%+%+%+%+%+%+%+%+%+%+%+%+%+%+%+%+%+%+%+%+%+%+%+%+%+%+%+%+%+%+%+%+%+%+%+%+%+%+%+%+%+%+%+%+%+%+%+%+%+%+%+m @ @ l.&+i . . . . . ",
". . . . . . @ @ @ @ @ @ @ @ @ @ @ @ @ @ @ @ @ @ @ @ @ @ @ @ @ @ @ @ @ @ @ @ @ @ @ @ @ @ @ @ @ @ @ @ @ @ @ @ @ @ @ @ @ @ @ @ @ @ @ @ @ @ @ @ @ @ @ A.i.*+. . . . ",
". . . . . . =+-+-+-+-+-+-+-+-+-+-+-+-+-+-+-+-+-+-+-+-+-+-+-+-+-+-+-+-+-+-+-+-+-+-+-+-+-+-+-+-+-+-+-+-+-+-+-+-+-+-+-+-+-+-+-+-+-+-+-+-+-+-+e @ @ @ M.;+D.. . . . ",
". . . . . . . . . . . . . . . . . . . . . . . . . . . . . . . . . . . . . . . . . . . . . . . . . . . . . . . . . . . . . . . . . . . . . u.@ M.~ d . . . . . . ",
". . . . . . . . . . . . . . . . . . . . . . . . . . . . . . . . . . . . . . . . . . . . . . . . . . . . . . . . . . . . . . . . . . . . . >+q ,+. . . . . . . . ",
". . . . . . . . . . . . . . . . . . . . . . . . . . . . . . . . . . . . . . . . . . . . . . . . . . . . . . . . . . . . . . . . . . . . . p.{ . . . . . . . . . ",
". . . . . . . . . . . . . . . . . . . . . . . . . . . . . . . . . . . . . . . . . . . . . . . . . . . . . . . . . . . . . . . . . . . . . . . . . . . . . . . . ",
". . . . . . . . . . . . . . . . . . . . . . . . . . . . . . . . . . . . . . . . . . . . . . . . . . . . . . . . . . . . . . . . . . . . . . . . . . . . . . . . "};
